<svg width="128" height="128" viewBox="0 0 128 128" xmlns="http://www.w3.org/2000/svg"><g fill="none" fill-rule="evenodd" stroke-width="2"><circle stroke="#3671FA" stroke-linejoin="square" fill="#EEF3FF" cx="64" cy="64" r="42"/><circle stroke="#FFF" cx="64" cy="64" r="44"/><path d="M83.875 47.662a2.991 2.991 0 012.1.81h0l1.456 1.363a2.99 2.99 0 01.941 1.961 2.993 2.993 0 01-.674 2.134h0L58.096 83.561 41.687 68.246a2.991 2.991 0 01-.949-2.042 2.991 2.991 0 01.74-2.127h0l1.314-1.502a2.99 2.99 0 011.93-1.005 2.993 2.993 0 012.153.602h0L57.902 72.44l23.901-23.9a2.991 2.991 0 012.072-.878z" stroke="#26375E" fill="#FEFEFE" stroke-linecap="round"/></g></svg>