<svg width="128" height="128" viewBox="0 0 128 128" xmlns="http://www.w3.org/2000/svg"><g fill="none" fill-rule="evenodd" stroke-width="2"><circle stroke="#3671FA" stroke-linejoin="square" fill="#EEF3FF" cx="64" cy="64" r="42"/><circle stroke="#FFF" cx="64" cy="64" r="44"/><path d="M47.977 42.572c.768 0 1.536.293 2.122.878h0l14.4 14.393L78.804 43.54a2.991 2.991 0 012.072-.878 2.991 2.991 0 012.1.81h0l1.456 1.363a2.99 2.99 0 01.948 2.091 2.99 2.99 0 01-.82 2.162h0L70.157 63.5 84.55 77.902a2.99 2.99 0 01.878 2.12c0 .768-.293 1.536-.879 2.122h0l-1.405 1.406a2.992 2.992 0 01-2.121.878 2.993 2.993 0 01-2.122-.878h0l-14.4-14.393L50.196 83.46a2.991 2.991 0 01-2.072.878 2.991 2.991 0 01-2.1-.81h0l-1.456-1.363a2.99 2.99 0 01-.948-2.091 2.99 2.99 0 01.82-2.162h0L58.843 63.5 44.45 49.098a2.992 2.992 0 01-.878-2.12c0-.768.293-1.536.879-2.122h0l1.405-1.406a2.992 2.992 0 012.121-.878z" stroke="#26375E" fill="#FEFEFE" stroke-linecap="round"/></g></svg>