<?xml version="1.0" encoding="UTF-8"?>
<svg width="1212px" height="388px" viewBox="0 0 1212 388" version="1.1" xmlns="http://www.w3.org/2000/svg" xmlns:xlink="http://www.w3.org/1999/xlink">
    <!-- Generator: Sketch 43.2 (39069) - http://www.bohemiancoding.com/sketch -->
    <title>Quartix logo Zurich (1)</title>
    <desc>Created with Sketch.</desc>
    <defs></defs>
    <g id="Page-1" stroke="none" stroke-width="1" fill="none" fill-rule="evenodd">
        <g id="Quartix-logo-Zurich-(1)" fill-rule="nonzero">
            <g id="Group" transform="translate(0.000000, 317.000000)" fill="#292C2C">
                <path d="M0,56 L0,0.9 L30.1,0.9 C34.5,0.9 37.9,1.1 40.1,1.4 C42.4,1.8 44.4,2.4 46.1,3.2 C48.3,4.3 50.1,5.8 51.3,7.8 C52.5,9.8 53.1,12.1 53.1,14.6 C53.1,18.4 51.8,21.5 49.3,23.8 C46.8,26.1 43,27.7 38,28.5 C41.8,28.6 44.6,29.1 46.6,30 C48.5,31 49.9,32.6 50.6,34.8 C51,35.9 51.5,38.9 52.2,43.6 C52.9,48.3 53.7,52.4 54.8,55.8 L38.6,55.8 C38.1,54.8 37.7,53 37.3,50.2 C37.2,49.9 37.2,49.6 37.2,49.4 L36.2,42.1 C35.8,39.1 34.9,37.2 33.6,36.2 C32.3,35.3 29.3,34.8 24.5,34.8 L15.2,34.8 L15.2,55.8 L0,55.8 L0,56 Z M15.2,11.6 L15.2,24.4 L24.9,24.4 C29.5,24.4 32.7,23.9 34.4,22.9 C36.1,21.9 37,20.2 37,17.8 C37,15.5 36.2,13.8 34.6,12.9 C33,12 29.8,11.5 24.9,11.5 L15.2,11.5 L15.2,11.6 Z" id="Shape"></path>
                <path d="M105.3,43.7 C105,48 102.8,51.3 99,53.5 C95.1,55.7 89.6,56.9 82.5,56.9 C74.7,56.9 68.7,55.2 64.5,51.8 C60.3,48.4 58.2,43.6 58.2,37.3 C58.2,30.7 60.4,25.5 64.8,21.9 C69.2,18.3 75.4,16.4 83.4,16.4 C91,16.4 96.7,18.3 100.5,22 C104.3,25.7 106.2,31.3 106.2,38.7 L106.2,40 L72.9,40 C73,42.7 74,44.9 75.8,46.5 C77.6,48.1 80,48.9 83,48.9 C85.3,48.9 87.2,48.4 88.6,47.5 C90,46.6 90.8,45.3 91,43.7 L105.3,43.7 Z M72.9,32.3 L91.6,32.3 C91.5,29.9 90.7,28 89,26.6 C87.4,25.2 85.1,24.5 82.4,24.5 C79.6,24.5 77.4,25.2 75.7,26.5 C74,27.9 73.1,29.8 72.9,32.3 Z" id="Shape"></path>
                <path d="M143.3,50.3 C141.7,52.4 139.4,54.1 136.3,55.2 C133.2,56.3 129.6,56.9 125.4,56.9 C120.5,56.9 116.8,55.9 114.1,53.9 C111.4,51.9 110.1,49 110.1,45.3 C110.1,43 110.6,40.9 111.6,39.1 C112.6,37.3 114.1,35.8 116,34.6 C117.5,33.6 119.7,32.9 122.5,32.5 C125.3,32.1 129.7,31.9 135.7,31.9 L142.8,31.9 L142.8,31.3 L142.8,30.8 C142.8,28.7 142.2,27.1 141,26 C139.8,24.9 138,24.4 135.6,24.4 C132.9,24.4 131,24.8 129.7,25.5 C128.4,26.2 127.6,27.4 127.4,29.1 L112.5,29.1 C113,24.9 115.1,21.8 118.9,19.8 C122.7,17.8 128.4,16.8 135.9,16.8 C143.1,16.8 148.5,18 151.9,20.4 C155.3,22.8 157,26.5 157,31.5 L157,51.1 C157,52.2 157.1,53.1 157.2,53.9 C157.3,54.7 157.5,55.4 157.8,56.1 L144.1,56.1 C143.8,55.4 143.5,54.6 143.4,53.8 C143.3,53 143.2,52.1 143.2,51.1 L143.2,50.3 L143.3,50.3 Z M143,38.8 L141.8,38.8 C135.7,38.8 131.5,39.2 129.1,40 C126.7,40.8 125.5,42.2 125.5,44.2 C125.5,45.6 126.1,46.7 127.3,47.4 C128.5,48.1 130.3,48.5 132.8,48.5 C136.1,48.5 138.6,47.7 140.3,46.2 C142,44.7 142.9,42.5 142.9,39.6 L142.9,38.8 L143,38.8 Z" id="Shape"></path>
                <polygon id="Shape" points="167 56 167 0.9 181.7 0.9 181.7 56"></polygon>
                <polygon id="Shape" points="189.5 43.4 189.5 30.3 217.5 30.3 217.5 43.4"></polygon>
                <polygon id="Shape" points="235.6 56 235.6 12.5 214.7 12.5 214.7 0.9 272 0.9 272 12.5 251.1 12.5 251.1 56"></polygon>
                <path d="M277.6,11.7 L277.6,0.9 L293.4,0.9 L293.4,11.7 L277.6,11.7 Z M278.2,56 L278.2,17.6 L292.9,17.6 L292.9,56 L278.2,56 Z" id="Shape"></path>
                <path d="M302.8,56 L302.8,26.7 C302.8,24.7 302.8,23 302.7,21.6 C302.6,20.2 302.5,18.9 302.4,17.6 L316.8,17.6 C316.9,18.6 317.1,19.6 317.2,20.7 C317.3,21.7 317.4,22.8 317.5,23.8 C319.6,21.5 322,19.7 324.7,18.5 C327.4,17.3 330.3,16.7 333.4,16.7 C336.9,16.7 339.9,17.4 342.2,18.7 C344.5,20 346.2,22 347.2,24.6 C349,22 351.2,20 353.9,18.7 C356.5,17.4 359.5,16.7 362.9,16.7 C368.3,16.7 372.5,18.1 375.4,20.9 C378.3,23.7 379.7,27.7 379.7,33 L379.7,56 L365,56 L365,32.6 C365,30.3 364.4,28.5 363.1,27.2 C361.8,25.9 360,25.3 357.6,25.3 C354.5,25.3 352.1,26.2 350.7,28 C349.2,29.8 348.5,32.6 348.5,36.4 L348.5,56 L334,56 L334,32.6 C334,30.3 333.3,28.6 332,27.3 C330.7,26 328.9,25.4 326.6,25.4 C323.4,25.4 321,26.3 319.5,28.1 C318,29.9 317.2,32.7 317.2,36.5 L317.2,56 L302.8,56 Z" id="Shape"></path>
                <path d="M434,43.7 C433.7,48 431.5,51.3 427.7,53.5 C423.8,55.7 418.3,56.9 411.2,56.9 C403.4,56.9 397.4,55.2 393.2,51.8 C389,48.4 386.9,43.6 386.9,37.3 C386.9,30.7 389.1,25.5 393.5,21.9 C397.9,18.3 404.1,16.4 412.1,16.4 C419.7,16.4 425.4,18.3 429.2,22 C433,25.7 434.9,31.3 434.9,38.7 L434.9,40 L401.6,40 C401.7,42.7 402.7,44.9 404.5,46.5 C406.3,48.1 408.7,48.9 411.7,48.9 C414,48.9 415.9,48.4 417.3,47.5 C418.7,46.6 419.5,45.3 419.7,43.7 L434,43.7 Z M401.6,32.3 L420.3,32.3 C420.2,29.9 419.4,28 417.7,26.6 C416.1,25.2 413.8,24.5 411.1,24.5 C408.3,24.5 406.1,25.2 404.4,26.5 C402.8,27.9 401.8,29.8 401.6,32.3 Z" id="Shape"></path>
                <polygon id="Shape" points="488.3 56 465.5 0.9 482.4 0.9 498.6 42.6 515.4 0.9 530.9 0.9 507.1 56"></polygon>
                <path d="M575.9,43.7 C575.6,48 573.4,51.3 569.6,53.5 C565.7,55.7 560.2,56.9 553.1,56.9 C545.3,56.9 539.3,55.2 535.1,51.8 C530.9,48.4 528.8,43.6 528.8,37.3 C528.8,30.7 531,25.5 535.4,21.9 C539.8,18.3 546,16.4 554,16.4 C561.6,16.4 567.3,18.3 571.1,22 C574.9,25.7 576.8,31.3 576.8,38.7 L576.8,40 L543.5,40 C543.6,42.7 544.6,44.9 546.4,46.5 C548.2,48.1 550.6,48.9 553.6,48.9 C555.9,48.9 557.8,48.4 559.2,47.5 C560.6,46.6 561.4,45.3 561.6,43.7 L575.9,43.7 Z M543.5,32.3 L562.2,32.3 C562.1,29.9 561.3,28 559.6,26.6 C558,25.2 555.7,24.5 553,24.5 C550.2,24.5 548,25.2 546.3,26.5 C544.6,27.9 543.7,29.8 543.5,32.3 Z" id="Shape"></path>
                <path d="M598.7,56 L584,56 L584,0.9 L598.7,0.9 L598.7,23.7 C600.8,21.3 603.3,19.6 606,18.4 C608.7,17.2 611.8,16.6 615.2,16.6 C620.3,16.6 624.4,18 627.4,20.7 C630.4,23.5 631.9,27.2 631.9,31.9 L631.9,55.9 L617.2,55.9 L617.2,32.5 C617.2,30.1 616.5,28.3 615,27.1 C613.5,25.9 611.4,25.3 608.6,25.3 C605.4,25.3 602.9,26.2 601.3,28.1 C599.6,30 598.8,32.8 598.8,36.4 L598.8,56 L598.7,56 Z" id="Shape"></path>
                <path d="M640.8,11.7 L640.8,0.9 L656.6,0.9 L656.6,11.7 L640.8,11.7 Z M641.4,56 L641.4,17.6 L656.1,17.6 L656.1,56 L641.4,56 Z" id="Shape"></path>
                <path d="M696.8,31.1 C696.5,29 695.6,27.4 694.2,26.4 C692.8,25.4 690.9,24.8 688.3,24.8 C685.3,24.8 682.9,25.9 681.2,28 C679.5,30.2 678.7,33.2 678.7,37.1 C678.7,40.6 679.5,43.3 681.1,45.2 C682.7,47.1 685.1,48 688.1,48 C690.9,48 693,47.4 694.4,46.2 C695.8,45 696.6,43.2 696.6,40.9 L712,40.9 C711.7,46.3 709.6,50.2 705.7,52.8 C701.8,55.4 695.9,56.7 688.1,56.7 C680.2,56.7 674.1,55 669.9,51.7 C665.7,48.4 663.6,43.5 663.6,37.3 C663.6,30.7 665.8,25.5 670.2,21.9 C674.6,18.3 680.8,16.4 688.8,16.4 C695.7,16.4 701.1,17.6 705,20.1 C708.9,22.6 711.1,26.2 711.6,31 L696.8,31 L696.8,31.1 Z" id="Shape"></path>
                <polygon id="Shape" points="719.3 56 719.3 0.9 734 0.9 734 56"></polygon>
                <path d="M788.7,43.7 C788.4,48 786.2,51.3 782.4,53.5 C778.5,55.7 773,56.9 765.9,56.9 C758.1,56.9 752.1,55.2 747.9,51.8 C743.7,48.4 741.6,43.6 741.6,37.3 C741.6,30.7 743.8,25.5 748.2,21.9 C752.6,18.3 758.8,16.4 766.8,16.4 C774.4,16.4 780.1,18.3 783.9,22 C787.7,25.7 789.6,31.3 789.6,38.7 L789.6,40 L756.3,40 C756.4,42.7 757.4,44.9 759.2,46.5 C761,48.1 763.4,48.9 766.4,48.9 C768.7,48.9 770.6,48.4 772,47.5 C773.4,46.6 774.2,45.3 774.4,43.7 L788.7,43.7 Z M756.3,32.3 L775,32.3 C774.9,29.9 774.1,28 772.4,26.6 C770.8,25.2 768.5,24.5 765.8,24.5 C763,24.5 760.8,25.2 759.1,26.5 C757.4,27.9 756.5,29.8 756.3,32.3 Z" id="Shape"></path>
                <polygon id="Shape" points="842.9 56 842.9 12.5 822 12.5 822 0.9 879.3 0.9 879.3 12.5 858.4 12.5 858.4 56"></polygon>
                <path d="M910.5,29.8 C909.7,29.7 909,29.6 908.2,29.5 C907.4,29.4 906.7,29.4 905.9,29.4 C902.1,29.4 899.2,30.5 897.2,32.8 C895.2,35 894.2,38.3 894.2,42.6 L894.2,56 L879.5,56 L879.5,26.7 C879.5,24.7 879.5,23 879.4,21.6 C879.3,20.2 879.2,18.9 879.1,17.6 L893.5,17.6 C893.6,18.5 893.7,19.4 893.7,20.3 C893.7,21.2 893.8,22.3 893.8,23.4 L893.8,25.2 C895.3,22.5 897.3,20.5 899.8,19.2 C902.3,17.9 905.4,17.2 909,17.2 L910.5,17.2 L910.5,29.8 L910.5,29.8 Z" id="Shape"></path>
                <path d="M947,50.3 C945.4,52.4 943.1,54.1 940,55.2 C936.9,56.3 933.3,56.9 929.1,56.9 C924.2,56.9 920.5,55.9 917.8,53.9 C915.1,51.9 913.8,49 913.8,45.3 C913.8,43 914.3,40.9 915.3,39.1 C916.3,37.3 917.8,35.8 919.7,34.6 C921.2,33.6 923.4,32.9 926.2,32.5 C929,32.1 933.4,31.9 939.4,31.9 L946.5,31.9 L946.5,31.3 L946.5,30.8 C946.5,28.7 945.9,27.1 944.7,26 C943.5,24.9 941.7,24.4 939.3,24.4 C936.6,24.4 934.7,24.8 933.4,25.5 C932.1,26.2 931.3,27.4 931.1,29.1 L916.2,29.1 C916.7,24.9 918.8,21.8 922.6,19.8 C926.4,17.8 932.1,16.8 939.6,16.8 C946.8,16.8 952.2,18 955.6,20.4 C959,22.8 960.7,26.5 960.7,31.5 L960.7,51.1 C960.7,52.2 960.8,53.1 960.9,53.9 C961,54.7 961.2,55.4 961.5,56.1 L948,56.1 C947.7,55.4 947.4,54.6 947.3,53.8 C947.2,53 947.1,52.1 947.1,51.1 L947.1,50.3 L947,50.3 Z M946.6,38.8 L945.4,38.8 C939.3,38.8 935.1,39.2 932.7,40 C930.3,40.8 929.1,42.2 929.1,44.2 C929.1,45.6 929.7,46.7 930.9,47.4 C932.1,48.1 933.9,48.5 936.4,48.5 C939.7,48.5 942.2,47.7 943.9,46.2 C945.6,44.7 946.5,42.5 946.5,39.6 L946.5,38.8 L946.6,38.8 Z" id="Shape"></path>
                <path d="M1001.7,31.1 C1001.4,29 1000.5,27.4 999.1,26.4 C997.7,25.4 995.8,24.8 993.2,24.8 C990.2,24.8 987.8,25.9 986.1,28 C984.4,30.2 983.6,33.2 983.6,37.1 C983.6,40.6 984.4,43.3 986,45.2 C987.6,47.1 990,48 993,48 C995.8,48 997.9,47.4 999.3,46.2 C1000.7,45 1001.5,43.2 1001.5,40.9 L1016.6,40.9 C1016.3,46.3 1014.2,50.2 1010.3,52.8 C1006.4,55.4 1000.5,56.7 992.7,56.7 C984.8,56.7 978.7,55 974.5,51.7 C970.3,48.4 968.2,43.5 968.2,37.3 C968.2,30.7 970.4,25.5 974.8,21.9 C979.2,18.3 985.4,16.4 993.4,16.4 C1000.3,16.4 1005.7,17.6 1009.6,20.1 C1013.5,22.6 1015.7,26.2 1016.2,31 L1001.7,31 L1001.7,31.1 Z" id="Shape"></path>
                <polygon id="Shape" points="1024.3 56 1024.3 0.9 1039 0.9 1039 33.6 1057.2 17.5 1074.7 17.5 1055.9 34.1 1076.6 55.9 1057.6 55.9 1038.9 35.4 1038.9 56"></polygon>
                <path d="M1078.7,11.7 L1078.7,0.9 L1094.5,0.9 L1094.5,11.7 L1078.7,11.7 Z M1079.3,56 L1079.3,17.6 L1094,17.6 L1094,56 L1079.3,56 Z" id="Shape"></path>
                <path d="M1103.9,56 L1103.9,26.7 C1103.9,24.7 1103.9,23 1103.8,21.6 C1103.7,20.2 1103.6,18.9 1103.5,17.6 L1118.2,17.6 C1118.3,18.6 1118.4,19.6 1118.5,20.6 C1118.6,21.6 1118.6,22.7 1118.6,23.7 C1120.9,21.3 1123.4,19.5 1126.1,18.3 C1128.8,17.2 1131.8,16.6 1135.2,16.6 C1140.4,16.6 1144.5,18 1147.4,20.8 C1150.3,23.6 1151.8,27.5 1151.8,32.4 L1151.8,56 L1137.1,56 L1137.1,33.2 C1137.1,30.6 1136.4,28.7 1135,27.3 C1133.6,26 1131.6,25.3 1129,25.3 C1125.5,25.3 1122.9,26.2 1121.2,28 C1119.5,29.8 1118.6,32.6 1118.6,36.4 L1118.6,56 L1103.9,56 Z" id="Shape"></path>
                <path d="M1196.5,23.3 C1196.5,22.2 1196.5,21.1 1196.6,20.2 C1196.7,19.2 1196.8,18.4 1196.9,17.6 L1211.3,17.6 C1211.1,19 1211,20.4 1210.9,21.9 C1210.8,23.4 1210.8,24.8 1210.8,26.3 L1210.8,45.9 C1210.8,50.8 1210.5,54.5 1210,56.8 C1209.5,59.2 1208.6,61.2 1207.3,62.9 C1205.2,65.7 1202.2,67.7 1198.4,69 C1194.6,70.3 1189.7,71 1183.8,71 C1176.6,71 1171.2,69.9 1167.6,67.6 C1164,65.4 1162.1,62 1162.1,57.4 L1176.6,57.4 C1176.7,59.1 1177.4,60.4 1178.7,61.3 C1180,62.2 1181.9,62.6 1184.4,62.6 C1188.4,62.6 1191.4,61.7 1193.3,59.8 C1195.2,57.9 1196.2,55 1196.2,51.1 L1196.2,48 C1194.3,50.2 1192,51.8 1189.3,52.9 C1186.6,54 1183.4,54.5 1179.9,54.5 C1174,54.5 1169.2,52.8 1165.5,49.3 C1161.9,45.8 1160,41.3 1160,35.8 C1160,29.8 1161.8,25.1 1165.5,21.7 C1169.1,18.3 1174.2,16.6 1180.5,16.6 C1183.5,16.6 1186.4,17.2 1189.1,18.3 C1191.7,19.4 1194.2,21.1 1196.5,23.3 Z M1175.1,35.9 C1175.1,39 1176.1,41.4 1178,43.3 C1179.9,45.1 1182.4,46.1 1185.6,46.1 C1189.1,46.1 1191.8,45.2 1193.6,43.4 C1195.4,41.6 1196.4,38.9 1196.4,35.5 C1196.4,32.2 1195.5,29.7 1193.6,27.8 C1191.7,26 1189.1,25.1 1185.7,25.1 C1182.3,25.1 1179.7,26.1 1177.9,28 C1176,29.8 1175.1,32.5 1175.1,35.9 Z" id="Shape"></path>
            </g>
            <path d="M121.3,165.7 C112.2,165.7 62.8,170.3 62.8,104.2 C62.8,38.1 119.7,43.1 119.7,43.1 C119.7,43.1 178.2,37.8 178.2,108.8 C178.3,166 130.4,165.7 121.3,165.7 M228.7,161.2 C221.9,161.9 206.6,165.3 206.6,165.3 C206.6,165.3 239.5,155 239.5,101.1 C239.5,47.1 208.7,0.9 120.8,0.9 C32.9,0.9 0,51.3 0,101.1 C0,150.9 22.1,207.5 121.3,207.5 C153.3,207.5 180.9,203.4 215.4,203.4 C249.8,203.4 256.6,203.6 256.6,203.6 L256.6,160.7 C256.6,160.7 237.8,160.3 228.7,161.2" id="Shape" fill="#292C2C"></path>
            <path d="M272,62.4 L329.7,62.4 L329.7,141.7 C329.7,141.7 328.6,170.9 357.8,170.9 C389.3,170.9 389.3,139.8 389.3,139.8 L389.3,62 L447,62 L447.1,169.6 L448.2,204 L390,204 L390,182.4 C390,182.4 369.9,210 327.3,207.3 C269.6,203.6 272.4,152.8 272.4,152.8 L272,62.4 Z" id="Shape" fill="#292C2C"></path>
            <path d="M571,167.6 C561.3,172.4 527.4,176.4 528,158.5 C528.6,140.6 583.5,143.7 583.5,143.7 C583.5,143.7 585.3,160.5 571,167.6 M640.7,196.3 C640.1,193.7 640,183.2 640,183.2 L639.7,106.3 C639.7,106.3 642.6,58.9 561.8,58.9 C469.1,58.9 476.9,108.3 476.9,108.3 L535,108.3 C535,108.3 534,91.7 561,91.7 C588,91.7 584.2,113.3 584.2,113.3 L541.4,113.3 C485.1,113.3 468.2,133.5 468.2,161.4 C468.2,191.7 487.6,206.5 527.4,207 C575.8,207.6 585.8,183.7 585.8,183.7 C585.8,183.7 585.2,188.1 586.7,194.6 C588.1,200.4 589.6,203.5 589.6,203.5 L642.5,203.5 C642.4,203.5 641.3,198.9 640.7,196.3" id="Shape" fill="#292C2C"></path>
            <path d="M662.1,62.3 C662.1,62.3 662.9,68.2 663.1,75.9 C663.3,81.3 663.1,83.9 663.1,83.9 L662.6,203.4 L720.3,203.4 L720.3,152.7 C720.3,152.7 719.8,129.3 735.7,116.9 C750.4,105.6 778.2,111 778.2,111 L777.9,61 C777.9,61 745.1,61.5 732.3,70 C721.5,77.2 719.2,89.1 719.2,89.1 L718.9,62.3 L662.1,62.3 L662.1,62.3 Z" id="Shape" fill="#292C2C"></path>
            <path d="M795,62.1 L825.1,62.1 L825.4,34.5 C825.4,34.5 839.6,30.4 852.2,26.3 C864.8,22.2 881.3,15.2 881.3,15.2 L881.3,62.1 L923.5,62.1 L923.5,99.7 L880.7,99.7 L880.7,149.9 C880.7,149.9 879.7,161.2 887.4,164.3 C893.2,166.6 898.5,166.4 898.5,166.4 L923,164.9 L923,202.8 C923,202.8 878.4,210.5 859.4,204.9 C839.6,199 826.2,191.5 825.7,161.1 C825.2,130.7 825.4,100.3 825.4,100.3 L794.5,100.3 L795,62.1 Z" id="Shape" fill="#292C2C"></path>
            <rect id="Rectangle-path" fill="#292C2C" x="942.3" y="62.6" width="57.7" height="140.9"></rect>
            <rect id="Rectangle-path" fill="#292C2C" x="942.3" y="1.7" width="57.7" height="43"></rect>
            <polygon id="Shape" fill="#292C2C" points="1024.2 62.6 1093 62.6 1118.5 96.3 1144.7 62.8 1204.5 62.6 1147.8 128.5 1211.2 203.2 1141.6 203.2 1110.5 162 1077.5 203.2 1016.2 203.2 1080.9 127.2"></polygon>
            <rect id="Rectangle-path" fill="#13AB5B" x="0" y="246.2" width="1212" height="23.9"></rect>
        </g>
    </g>
</svg>