<svg xmlns="http://www.w3.org/2000/svg" viewBox="0 0 414 238"><defs><style>.cls-1{isolation:isolate;}.cls-2{fill:#eff0f0;}.cls-3{fill:#ced1d2;}.cls-4{mix-blend-mode:multiply;}.cls-5{fill:#29495c;}.cls-6{fill:#fda93b;}.cls-7{fill:#77ccfd;}.cls-8{fill:#fd643b;}.cls-9{fill:#ffdbaf;}.cls-10{fill:#fff;}.cls-11{fill:#fd4a3b;}.cls-12{fill:#f4d39e;}.cls-13{fill:#fd653b;}.cls-14{fill:#0e3144;}.cls-15{fill:#55bffd;}.cls-16{fill:#33b2fd;}.cls-17{fill:#1c6286;}.cls-18{fill:#154965;}.cls-19{fill:#fd5121;}.cls-20{fill:#9fdbfd;}.cls-21{fill:#d15430;}.cls-22{fill:#2580b3;}.cls-23{fill:#21709a;}.cls-24{fill:#fdba63;}.cls-25{fill:#94bbd2;}.cls-26{fill:#f5921e;}.cls-27{fill:#e5e5e6;}.cls-28{fill:#fd8262;}.cls-29{fill:#0f3347;}.cls-30{fill:#195578;}.cls-31{fill:#15425e;}</style></defs><g class="cls-1"><g id="Layer_1" data-name="Layer 1"><path class="cls-2" d="M383.77,133.41s13.13.9,12.18,8.54-21.19,6.74-32.23,6.62-74.13.49-84.81-4.22c-9.79-4.31,1.41-21.67,20.25-13.58,0,0,10.79-18.94,30.7-23.72,30.81-7.4,33.86,17,33.86,17s8.46-10.06,17.87-2.47C386.15,125.25,383.77,133.41,383.77,133.41Z"/><path class="cls-2" d="M49.45,131.77s-11.12.76-10.31,7.23,17.94,5.71,27.29,5.61,62.79.41,71.83-3.57c8.29-3.66-1.19-18.36-17.15-11.51,0,0-9.14-16-26-20.09-26.1-6.27-28.68,14.39-28.68,14.39s-7.16-8.51-15.13-2.09C47.44,124.86,49.45,131.77,49.45,131.77Z"/><path class="cls-3" d="M346.37,148.81a3.14,3.14,0,0,0-2.59,3.41c0,2.29,2.8,2.43,6.16,2.81,2.33.25,15.79.91,18.64-1.31,2.4-1.87,2.15-7.1-4.05-7.53-.37,0,3.47-8.56-6.42-10.73-6.92-1.51-7.78,5.73-7.78,5.73a4.47,4.47,0,0,0-4.95,3.29A3.75,3.75,0,0,0,346.37,148.81Z"/><path class="cls-3" d="M127.7,135.05s-3.7.42-3.71,4.88c0,3.27,4,3.47,8.82,4,3.33.37,22.58,1.31,26.66-1.86,3.44-2.68,3.08-10.16-5.79-10.77-.53,0,5-12.26-9.18-15.35-9.91-2.17-11.14,8.19-11.14,8.19a6.4,6.4,0,0,0-7.08,4.7C124.93,133.06,127.7,135.05,127.7,135.05Z"/><g class="cls-4"><ellipse class="cls-2" cx="207.4" cy="197.29" rx="165.73" ry="17.36"/></g><path class="cls-5" d="M146.11,216.34c-1,0-2,.39-2,1,0,1.32,4,.81,3.86-.26C147.94,216.55,146.87,216.34,146.11,216.34Z"/><path class="cls-6" d="M256.32,209.1c-1.21,0-2.46.46-2.48,1.08,0,1.32,5,.67,4.82-.4C258.58,209.24,257.26,209.07,256.32,209.1Z"/><path class="cls-5" d="M92.13,206.93c2.06.07,5.21.9,4.6,2.89s-8.47,2-9-.38S90.52,206.88,92.13,206.93Z"/><path class="cls-5" d="M104.35,205.74c1.13-.09,2.89.19,2.68,1.31s-4.5,1.59-4.93.31S103.47,205.81,104.35,205.74Z"/><path class="cls-5" d="M127.61,216.89c1.13-.06,2.9.26,2.65,1.38s-4.54,1.48-4.94.19S126.74,216.94,127.61,216.89Z"/><path class="cls-5" d="M309.37,203.05c1.23,0,3.15.33,2.86,1.54s-5,1.54-5.38.12S308.42,203.08,309.37,203.05Z"/><path class="cls-5" d="M322.29,208c1.94-.07,4.95.52,4.5,2.42s-7.82,2.42-8.47.2S320.78,208,322.29,208Z"/><path class="cls-5" d="M292.1,216.39c.8,0,2,.21,1.87,1s-3.25,1-3.52.09S291.47,216.41,292.1,216.39Z"/><path class="cls-7" d="M229.74,149.18s15,4,22.44-5.34,3.85-15.75-1.3-18-9.63,3.9-11,8.53S234.34,146.48,229.74,149.18Z"/><path class="cls-7" d="M241.89,133.54s-9.62.18-12.54-3c0,0-1.94,9.64,8,15.53s3.47-8.31,3.47-8.31Z"/><path class="cls-7" d="M254.46,131.58a16.84,16.84,0,0,0,5.53-.41,8.68,8.68,0,0,1-4.56,3.88C252.47,135.94,254.46,131.58,254.46,131.58Z"/><path class="cls-5" d="M327.18,35.76a2.32,2.32,0,0,0-3.39,1c-.57,1.3-.61,3.36,1,3.82s2.77-.76,3.28-2.1a2.23,2.23,0,0,0,0-2.17c-.66-.88-1.88-.84-2.81-1.24-.39-.17-.73.41-.34.58,1.08.47,2.8.37,2.75,2a2.76,2.76,0,0,1-1.86,2.35,1.47,1.47,0,0,1-1.53-.57,2.78,2.78,0,0,1,0-2,1.65,1.65,0,0,1,2.56-1c.36.24.7-.35.34-.58Z"/><path class="cls-5" d="M35.88,108.34a2.32,2.32,0,0,0-3.39,1c-.57,1.3-.61,3.36,1,3.82s2.77-.76,3.28-2.1a2.23,2.23,0,0,0,0-2.17C36.12,108,34.9,108,34,107.6c-.39-.17-.74.41-.34.58,1.08.47,2.8.37,2.75,2a2.78,2.78,0,0,1-1.86,2.35,1.49,1.49,0,0,1-1.54-.57,2.78,2.78,0,0,1,0-2,1.65,1.65,0,0,1,2.56-1c.36.24.7-.35.34-.58Z"/><path class="cls-5" d="M219,30.72a19.22,19.22,0,0,0,4.22-.21c.45-.07.26-.75-.18-.68a18.19,18.19,0,0,1-4,.18c-.45,0-.45.69,0,.71Z"/><path class="cls-5" d="M221.53,32.47a19.28,19.28,0,0,0-.21-4.22c-.07-.45-.76-.25-.69.19a18.13,18.13,0,0,1,.19,4c0,.46.68.46.71,0Z"/><path class="cls-5" d="M45.25,163.57a19.22,19.22,0,0,0,4.22-.21c.45-.07.26-.76-.19-.68a18.13,18.13,0,0,1-4,.18c-.45,0-.45.69,0,.71Z"/><path class="cls-5" d="M47.75,165.32a19.28,19.28,0,0,0-.22-4.22c-.07-.45-.75-.26-.68.19a18.75,18.75,0,0,1,.19,4c0,.46.68.46.71,0Z"/><path class="cls-5" d="M380,96.39a16.94,16.94,0,0,0,.19,3.63c.07.45.75.26.68-.18a16,16,0,0,1-.16-3.45c0-.46-.68-.46-.71,0Z"/><path class="cls-5" d="M381.66,96.77A16.44,16.44,0,0,0,378.77,99c-.33.32.17.82.5.5A16.51,16.51,0,0,1,382,97.38a.35.35,0,0,0-.35-.61Z"/><path class="cls-5" d="M378.7,97.53a15.23,15.23,0,0,0,3.05,1.83c.41.19.77-.42.35-.61a16.47,16.47,0,0,1-3-1.83c-.36-.27-.71.34-.36.61Z"/><path class="cls-5" d="M137.74,35.75a20.23,20.23,0,0,0,4.33-.22c.45-.07.25-.76-.19-.69a19.14,19.14,0,0,1-4.14.2c-.45,0-.45.68,0,.71Z"/><path class="cls-5" d="M356.88,53a20.23,20.23,0,0,0,4.33-.21c.45-.08.26-.76-.19-.69a19.11,19.11,0,0,1-4.14.2c-.45,0-.45.68,0,.7Z"/><path class="cls-5" d="M295.68,48.94c1-.17,2.39-.41,3.17.48.5.57.2,1.37.69,1.92.91,1,2.22-.15,3.21-.21.45,0,.45-.74,0-.71-1.06.07-2.09,1.21-2.84-.21-.24-.44-.18-.88-.56-1.29-1-1.08-2.56-.89-3.85-.66-.45.07-.26.75.18.68Z"/><path class="cls-5" d="M365,174.05a19.41,19.41,0,0,0-1.09-4.68l-.52.4c1,.78,2.06,1.57,3.07,2.38.35.29.86-.21.5-.5q-1.59-1.28-3.21-2.49a.36.36,0,0,0-.53.4,18.84,18.84,0,0,1,1.07,4.49c.05.45.75.46.71,0Z"/><path class="cls-5" d="M171.82,150.78a18.79,18.79,0,0,0,3.23-3.55l-.66-.18c-.06,1.33-.13,2.65-.23,4,0,.46.67.46.7,0,.11-1.32.18-2.64.24-4,0-.38-.47-.44-.66-.18a18.71,18.71,0,0,1-3.12,3.41c-.35.3.15.8.5.5Z"/><path class="cls-6" d="M181.44,36.43l-4.33-4.13s-31.44,36.07-57,45.87S89.35,86.77,89.33,92s6.22,30.11,13.92,41.74c0,0,20.81-8.46,30.42-10.59s63.83-1.22,74.79-.77L195.37,76.42Z"/><path class="cls-6" d="M137.42,118.14s20.73,67.39,21,70.66-14.47,13.56-19.12,5.44S116.44,120,116.44,120Z"/><path class="cls-7" d="M120.16,78.17c1.13-.44,2.28-.93,3.44-1.46,4.76,10.52,15.13,34.8,15.87,45.71a44.17,44.17,0,0,0-5.8.68c-9.61,2.13-30.42,10.59-30.42,10.59-7.7-11.63-14-36.55-13.92-41.74S94.64,88,120.16,78.17Z"/><path class="cls-8" d="M120.16,78.17c1.13-.44,2.28-.93,3.44-1.46,4.76,10.52,15.13,34.8,15.87,45.71a44.17,44.17,0,0,0-5.8.68c-9.61,2.13-30.42,10.59-30.42,10.59-7.7-11.63-14-36.55-13.92-41.74S94.64,88,120.16,78.17Z"/><ellipse class="cls-7" cx="193.35" cy="77.12" rx="14.24" ry="47.67" transform="translate(-14.61 67.88) rotate(-19.2)"/><ellipse class="cls-9" cx="193.35" cy="77.12" rx="14.24" ry="47.67" transform="translate(-14.61 67.88) rotate(-19.2)"/><path class="cls-8" d="M181.2,84.93l-.14.07c-.39-1.06-.78-2.12-1.15-3.2-.88-2.53-1.68-5-2.4-7.48C182.13,72.43,199.82,75.71,181.2,84.93Z"/><polygon class="cls-5" points="141.1 150.25 146.69 148.51 155.62 161.51 146.27 165.12 141.1 150.25"/><path class="cls-8" d="M312.32,97.38s39.42,1.13,47.49-3.68c8.27-4.93,6.23-17.11-1.22-20.67-9.8-4.68-64.93-5.85-73.37.47C276.16,80.28,280,93,287.13,94.77a57.18,57.18,0,0,0,12.66,1.55s4.25,5.64.79,15.45A20.05,20.05,0,0,0,312.32,97.38Z"/><path class="cls-10" d="M325.53,77.23c-5-3.48-8.59,4-8.59,4s-6.53-2.56-7.26,2.19c-.77,5,10.23,7.53,10.23,7.53S330.05,80.37,325.53,77.23Z"/><path class="cls-10" d="M293.38,88c2.68.16,8.07-1,8.44-5.29a7.17,7.17,0,0,0-7.38-7c-5.7.27-7.78,4.94-7.78,6.77S288.19,87.71,293.38,88Z"/><path class="cls-10" d="M294.24,84.9a7.78,7.78,0,0,0,3.62,7.21s-.28-5.2,1.1-7.15S294.24,84.9,294.24,84.9Z"/><path class="cls-10" d="M345.33,85.76c1.57.09,4.76-.79,5-3.83.14-1.71-1.31-5.09-4.28-4.87-3.36.25-4.63,3.58-4.65,4.87A3.84,3.84,0,0,0,345.33,85.76Z"/><path class="cls-10" d="M339.36,90.57c.34-.58.9-4.93,6.62-5.43s4.72,5.38,4.72,5.38Z"/><path class="cls-10" d="M304.21,77.14q.33,5.42.16,10.84a.49.49,0,0,0,1,0c.12-3.62.06-7.23-.15-10.84,0-.63-1-.63-1,0Z"/><path class="cls-10" d="M329.19,80.24c.85-.64,2.72-1.57,3.66-.67,1.18,1.13-.22,3.11-1,4a22.18,22.18,0,0,1-3.6,3,16.7,16.7,0,0,0-2.64,1.93c-.27.27-.1.89.34.83a47.2,47.2,0,0,1,7.33-.39c.62,0,.62-1,0-1a47.2,47.2,0,0,0-7.33.39l.35.84a31.49,31.49,0,0,1,3.85-2.79,11.2,11.2,0,0,0,3.75-4c.57-1.28.53-3.17-.93-3.82s-3.16.12-4.24.94c-.49.38,0,1.22.49.84Z"/><path class="cls-10" d="M356.13,78.4c-1.44,2.14-2.94,4.24-4.34,6.42a.5.5,0,0,0,.3.72,15.28,15.28,0,0,0,2.62,0,39.81,39.81,0,0,1,4.23.07c.62,0,.62-.93,0-1a36.82,36.82,0,0,0-3.93-.07,18.19,18.19,0,0,1-2.66,0l.29.71C354,83.14,355.53,81,357,78.89c.35-.52-.5-1-.85-.49Z"/><path class="cls-10" d="M356.84,82.43c-.23,2.48-.37,5-.44,7.47a.49.49,0,0,0,1,0c.07-2.49.22-5,.44-7.47.06-.63-.92-.63-1,0Z"/><path class="cls-8" d="M67.1,77.52c-8.2-2.11-9.22,9.4-9.22,9.4s-9.72-.18-8.37,6.36c1.42,6.92,16.94,4.85,16.94,4.85S74.5,79.42,67.1,77.52Z"/><path class="cls-11" d="M118,119s-21.2,12.85-22.38,17,4.2,8.44,7.76,10a93.44,93.44,0,0,0,19.33,5.85l-1.06-4.48s-11.23-8-10.64-9.89,10.75-5.61,10.75-5.61,1.6-4.83,1.66-5.3-4.43-7.44-4.43-7.44Z"/><path class="cls-12" d="M125.91,185.12c-.11.65-.58,5,.9,8.1l-.61,1.69H123c-.07,0-1.23-.6-1.23-.6a59.73,59.73,0,0,0,.4-10Z"/><path class="cls-5" d="M126.81,193.22s-1.33,1.35-5,1.09c0,0-9.17,3.23-10.22,3.65a1.77,1.77,0,0,0-.93,2.46c.52.62,14.25-.18,17.51-3.29A7.27,7.27,0,0,0,126.81,193.22Z"/><path class="cls-12" d="M128.52,149.12a7,7,0,0,0,2,0s1.53,1.91,1.54,2-1,2-1,2L130,154.18a10.27,10.27,0,0,0-2.6-1.62Z"/><path class="cls-5" d="M130.13,149.05s1,1.61-.12,5.13c0,0,1,9.67,1.14,10.79s1.45,1.84,2.17,1.48,3.18-13.89.93-17.8A7.36,7.36,0,0,0,130.13,149.05Z"/><path class="cls-13" d="M118.27,119.37c.55.94.09,30.93-.5,36.1s4,30.67,4,30.67L126,186s3.31-17.35.51-30.1c0,0,8.16-19,8.61-25.93l-.84-3.77-.88-5.31-9.05-1.78Z"/><path class="cls-12" d="M107.11,94.33a1.32,1.32,0,0,1,1.6,0c.6.51-.45,1.84-1.66,1.71Z"/><g class="cls-4"><path class="cls-12" d="M107.11,94.33a1.32,1.32,0,0,1,1.6,0c.6.51-.45,1.84-1.66,1.71Z"/></g><path class="cls-14" d="M103.12,96.14c0-.11-.64-6.21-.35-6.33a18.9,18.9,0,0,1,4.4-.26c.66.2.43,7.76.43,7.76l-3.38-.48Z"/><path class="cls-12" d="M130.91,81a10.22,10.22,0,0,0,.66,5.81l.58,2.14s-2.15,1.89-2.23,2-3.18.63-3.18.63l-1.91-2,0-1.18a7.42,7.42,0,0,0,.34-4.85Z"/><path class="cls-15" d="M117.24,90.51c-.42-.16-2.59,9.43-2.53,13.27l2.07,1.93,2.4.34,2.32-.56S119.89,91.56,117.24,90.51Z"/><path class="cls-12" d="M104.16,100.87c-.1.73,6.29,14.16,13.68,16.67l3.13-1.07v-3.78l-1.09-2.32-2.14-2.93-3.52.28s-6.54-5.4-7.4-7.08l-1-.93Z"/><path class="cls-12" d="M101.76,95.27c.21-.46,3,.07,4.63.87s2.73,1.56,2.47,2.09-1.7-.24-1.7-.24,1.91.52,1.91,1.51-1.71.07-1.71.07,1.46,1,.88,1.31-4.22.71-5.56-.37S101.35,96.17,101.76,95.27Z"/><path class="cls-7" d="M126.18,91.93s-1.68,7.94-1.06,11.06l2.22.31s.14-7.06,1.14-10l-1.74-1.78Z"/><path class="cls-16" d="M114.22,107.72a39.08,39.08,0,0,1-.08-4.87c.19-.15,4.33.44,6,2a15,15,0,0,1-.29,5.53S115.85,108,114.22,107.72Z"/><path class="cls-17" d="M110.65,200.42c.52.62,14.25-.18,17.51-3.29a7.47,7.47,0,0,0-.09-.84c-5.86,2.8-15.43,3.44-17.65,3.41A1.15,1.15,0,0,0,110.65,200.42Z"/><path class="cls-17" d="M133.15,148.53c.85,2.25,1.18,9-.55,18a1.09,1.09,0,0,0,.72-.05c.73-.36,3.18-13.89.93-17.8A7.83,7.83,0,0,0,133.15,148.53Z"/><g class="cls-4"><path class="cls-12" d="M125.33,86.2c1.2.66,3.22,1.32,5.55-1.67a9.92,9.92,0,0,1,0-3.54l-5.79,2.51A8.2,8.2,0,0,1,125.33,86.2Z"/></g><path class="cls-12" d="M118.81,70.4s-2.47,5.68-.63,10.73l1.92-.26s2.27,9.23,10.81.12l1.89-5.34L127.14,71Z"/><path class="cls-18" d="M117.62,75.07s-3.14-2.86-.59-7.26,11.2-3.46,14.05.21c0,0,2.13-.76,3.32,1.86s.86,10.66-3.49,11.11c0,0,.26-3.09-.88-4.6l-1.76-1.29s-6.08.67-9.69-4.08A20.63,20.63,0,0,0,117.62,75.07Z"/><path class="cls-12" d="M128,76.1c0-.24.19-2.24,2-1.73s.42,4.81-.63,4.49S128,76.1,128,76.1Z"/><path class="cls-10" d="M123.52,185.06h.26c0-1.22-.82-6-1.72-11.59-1.26-7.79-2.82-17.48-2.51-18.37.53-1.56,4-32,4.16-33.26l-.26,0c0,.32-3.62,31.67-4.15,33.2-.33,1,1.17,10.28,2.5,18.5C122.7,179.06,123.47,183.86,123.52,185.06Z"/><path class="cls-19" d="M120.32,182.67l1.23,4.55s4.08,0,4.94-.43l.43-3.85Z"/><path class="cls-7" d="M142.18,90.86s8.92,8.6,10.13,19.89l-4.2-1.23-3.09,0s-4.21-6.81-4.62-7.65C140.4,101.89,138.37,94.9,142.18,90.86Z"/><path class="cls-7" d="M125.33,86.12l-8.09,4.39s3.49,12,2.73,18.56-3,10-2.67,10.38,11.83,6.31,18.06,5.17l1.84-2.5s.35-7.73.2-8.18,3.55-10.35,3.89-12.38.89-10.7.89-10.7l-10.19-4s-1.18,4.2-5.25,4.74C126.74,91.56,124.22,88.72,125.33,86.12Z"/><path class="cls-12" d="M151.59,110s1.14,3.29.94,3.93-10.32,7.66-16.26,10.48c0,0,.38,3.6-1.15,5.58a21.73,21.73,0,0,1-5-2.77s1-2,.79-2-1.55.92-2.52,1.27-2-.63-.61-1.47,3.59-2.29,4.88-2.39a13.79,13.79,0,0,1,2.14,0s9.78-9.4,11.36-11.77l2.82-1.87Z"/><path class="cls-20" d="M142.24,106.72s6.71-1.86,10.28-.61l.29,5.84-7.1-.54Z"/><path class="cls-10" d="M121,121.38c3.91-3.52,5.84-28.74,5.92-29.81l-.26,0c0,.26-2,26.19-5.83,29.63Z"/><path class="cls-20" d="M131,85.06a32.28,32.28,0,0,1,3.31,2.33c0,.18-2.31,5.66-6.78,6.81l-.76-2.64S130.48,88.06,131,85.06Z"/><path class="cls-20" d="M125.35,85.19s-.1,4,1.39,6.37l-1.19,2.36s-2.91-3.12-1.77-7Z"/><path class="cls-10" d="M127.48,97.64a.76.76,0,0,1,.42-.83.46.46,0,0,1,.23-.06c.29,0,.5.31.59.59a.64.64,0,0,1-.19.76.5.5,0,0,1-.34.11h0A.83.83,0,0,1,127.48,97.64ZM128,97c-.25.17-.35.35-.3.55a.53.53,0,0,0,.46.36h0a.27.27,0,0,0,.18,0c.18-.13.11-.4.09-.48s-.22-.39-.35-.4Z"/><path class="cls-10" d="M126.5,105.94a.74.74,0,0,1,.41-.83.4.4,0,0,1,.23-.06c.29,0,.51.31.59.58a.67.67,0,0,1-.18.77.53.53,0,0,1-.35.1h0A.78.78,0,0,1,126.5,105.94Zm.56-.61c-.26.17-.36.35-.31.54a.53.53,0,0,0,.46.37h0a.27.27,0,0,0,.18,0c.18-.13.11-.4.09-.48s-.22-.39-.35-.4Z"/><path class="cls-10" d="M124.66,114.94a.73.73,0,0,1,.42-.83.39.39,0,0,1,.23-.07c.28,0,.5.31.58.59a.68.68,0,0,1-.18.77.59.59,0,0,1-.34.1h0A.81.81,0,0,1,124.66,114.94Zm.56-.61c-.25.16-.36.35-.31.54a.54.54,0,0,0,.47.36h0a.22.22,0,0,0,.17,0c.18-.13.12-.4.09-.48s-.22-.39-.34-.4A.13.13,0,0,0,125.22,114.33Z"/><path class="cls-10" d="M96.19,44.45s3.86-3.25,4.9-5.24,1.68-4.73,2.79-4.39,2.28,2.84,1.61,4.63-2.62,4-1.69,4.18,9.09-.2,9.68.45.86,2.55-.46,2.86c0,0,1.56,2.36-.53,3.58a2.24,2.24,0,0,1-.88,3.13s1.09,2.53-3.91,2.7-12-.3-12-.3Z"/><path class="cls-5" d="M98.7,56.81c-1.81-.08-3.07-.17-3.08-.17l-.59,0,.58-12.44.2-.17s3.78-3.19,4.75-5.05c.29-.56.55-1.18.8-1.78.68-1.62,1.26-3,2.39-3a1.12,1.12,0,0,1,.31,0,3.13,3.13,0,0,1,1.66,1.69,4.86,4.86,0,0,1,.33,3.72,13.82,13.82,0,0,1-1.14,2.19c-.23.4-.54.9-.68,1.23h0c.54,0,1.49,0,2.59,0,1.5,0,3.19,0,4.53,0,1.8.08,2.29.25,2.55.54a3,3,0,0,1,.53,2.62,1.8,1.8,0,0,1-.62.91,3.49,3.49,0,0,1,.28,2.14,2.53,2.53,0,0,1-.89,1.39,3,3,0,0,1,.08,1.82,2.52,2.52,0,0,1-1,1.37,2.18,2.18,0,0,1-.31,1.42c-.62,1-2.06,1.52-4.26,1.59C104.81,57,101.2,56.93,98.7,56.81Zm-2.42-1.32c1.79.11,7.3.4,11.4.26,2.34-.08,3.07-.69,3.29-1a1,1,0,0,0,.1-.83l-.22-.5.48-.26a1.5,1.5,0,0,0,.82-.89,2,2,0,0,0-.19-1.42l-.27-.51.5-.3a1.42,1.42,0,0,0,.75-.92,2.81,2.81,0,0,0-.42-1.81l-.48-.72.84-.2a.52.52,0,0,0,.43-.41,1.78,1.78,0,0,0-.24-1.41,7.38,7.38,0,0,0-1.75-.2c-1.31-.06-3,0-4.47,0-1.12,0-2.08,0-2.65,0a3.73,3.73,0,0,1-.51-.05.85.85,0,0,1-.65-.5c-.27-.6.17-1.35.84-2.48a13.29,13.29,0,0,0,1.05-2,3.74,3.74,0,0,0-.28-2.77,2.15,2.15,0,0,0-.94-1.08c-.33,0-.93,1.47-1.25,2.23s-.53,1.27-.84,1.87c-1,1.83-4,4.54-4.85,5.25Z"/><path class="cls-6" d="M88.62,59.21l7.71-.72L97.1,41.8s-6.72.17-7.69.15C89.41,42,88,55.82,88.62,59.21Z"/><path class="cls-6" d="M190.81,158.31a25.77,25.77,0,0,1,8.68-4.54,17.69,17.69,0,0,1,8.25,0l4.7-1.11s8.55,1.78,12.55,5.76l0,8.8s-.81,7.49-.93,7.62-3.85,2.18-3.85,2.18L218.74,182l-.42,2.33-.88,6.56-10.28.27-13.87-3.85-4-15.9Z"/><path class="cls-21" d="M192.25,189.21c-.17-.1-8.22-4.28-13.77-1s-2.95,10.71-2.95,10.71L184.6,200s11.73-.2,12.42-.48,3.76-6.33,3.76-6.33l-6.58-3.91Z"/><path class="cls-12" d="M190.25,197.79a17.65,17.65,0,0,1-5.41-.36l.22,5.54,4.89-.18Z"/><path class="cls-22" d="M175.09,193.14a8.74,8.74,0,0,0-.3,10.59l11.44-.8s-1.48-1.86-.69-5.35C185.54,197.58,179.73,191.87,175.09,193.14Z"/><path class="cls-23" d="M178,193.13c-1.88,1.48-4.09,4.64-2,10.51l-1.26.09a8.74,8.74,0,0,1,.3-10.59A6.13,6.13,0,0,1,178,193.13Z"/><path class="cls-12" d="M213.45,173.5c-.09,0-2.82-1.55-2.82-1.55s-1.07,2.84-1.16,3.17,1.87,1.55,1.87,1.55Z"/><path class="cls-14" d="M209.62,179.55c-.06.32-6.47.38-6.72.26a139,139,0,0,1-1.37-14c.24-.07,8.09-.51,8.42-.32S209.81,178.68,209.62,179.55Z"/><path class="cls-12" d="M211.41,173c.11-.12.7-3.95-1.35-5.82l0,3.65a27.32,27.32,0,0,1-8.4-1.38c-3.38-1.37-1.23,1.46.95,2.11,0,0-2.45-.42-2.7.45s5.76,6,10,3.73l1.33-1.92Z"/><path class="cls-12" d="M212,152.26a3,3,0,0,1,1.11,2.9c-.39,1.8-3.76,7.85-7.85,8.87,0,0-7.6-5.71-5.61-10.76s5-2.65,5-2.65Z"/><g class="cls-4"><path class="cls-12" d="M199.65,153.27c2-5.05,5-2.65,5-2.65l7.39,1.64a2.92,2.92,0,0,1,.44.44h0s-.89,5.75-6.76,6.39C200.38,159.68,199.35,154.05,199.65,153.27Z"/></g><path class="cls-12" d="M212.5,140.59s4.82,14.47-6.24,16.46-7.33-16.43-7.33-16.43l8.42-1.73Z"/><path class="cls-12" d="M198.8,147.49a2,2,0,0,0-2.3-.83c-1.44.49,1,6.72,3.19,5.77S198.8,147.49,198.8,147.49Z"/><path class="cls-18" d="M211.48,141.57s-4.43,7.76-13.16,5.42-4-7.73-4-7.73.88,1.12,1.61,1.1,4.18-8.16,11.89-7.16,5.35,3.44,5.35,3.44,1.6-.44,3,1.59,1.53,7.84-1.44,9.48l-1.28-1.36A15.4,15.4,0,0,0,211.48,141.57Z"/><path class="cls-12" d="M213,147a2.06,2.06,0,0,1,2.23-1c1.48.38-.44,6.78-2.74,6S213,147,213,147Z"/><path class="cls-13" d="M188.39,197.25s-.44,4,.23,6.1c0,0,27.18,2.31,38-1.46S239,193.37,235,189.82,215.4,185.24,188.39,197.25Z"/><path class="cls-12" d="M224.43,197.9s-4.7,5.45-6.22,5.63l5.94-.24,2-1.1.21-2.6Z"/><path class="cls-22" d="M234.51,192.68a8.74,8.74,0,0,1,1.11,10.54l-11.47.07s1.33-2,.28-5.39C224.43,197.9,229.79,191.77,234.51,192.68Z"/><path class="cls-23" d="M231.57,192.9c2,1.33,4.43,4.31,2.78,10.33h1.27a8.74,8.74,0,0,0-1.11-10.54A6,6,0,0,0,231.57,192.9Z"/><path class="cls-12" d="M211,190.07a12,12,0,0,1,3.78,3.5,10.34,10.34,0,0,1,1.57,6.2c-.22,1.85-1.05,3.82-1.51,4s-.53-.63-.53-.63-.33,2.61-1.54,2.87-.7-2.13-.7-2.13.08,2.11-.7,2.2-3-5.45-1.77-12.23C209.55,193.87,209.3,191.14,211,190.07Z"/><path class="cls-12" d="M214.75,195.19s2.32,2.14,3.55,2.34c0,0-.33,1.8-3.15.4S214.75,195.19,214.75,195.19Z"/><polygon class="cls-12" points="209.55 193.87 208.43 193.63 205.94 191.78 208.29 190.17 209.39 189.56 210.25 189.52 210.95 190.07 213.17 193.26 209.55 193.87"/><path class="cls-24" d="M210.93,189.33s-2.31,1.15-2.05,4.62c0,0-22.28.53-27.74-8.5s7.86-25.57,9.67-27.14c0,0,7.28,15.09,4.4,22.1C195.21,180.41,209.92,188.59,210.93,189.33Z"/><path class="cls-24" d="M213.11,172.5s-2.15,2.72-2.29,4.51c0,0,8.59,12.36,18.09,11.76s4.16-22.63-3.92-30.31c0,0-6.36,7.59-4.21,17.16A47.7,47.7,0,0,1,213.11,172.5Z"/><path class="cls-10" d="M227.2,202.54a7,7,0,0,0-.4-4.52l-.29.14a7,7,0,0,1,.38,4.3Z"/><path class="cls-10" d="M229,202.49a7.35,7.35,0,0,0-.84-5.29l-.27.19a7.06,7.06,0,0,1,.79,5Z"/><path class="cls-10" d="M184.25,202.34l.31-.09c-.81-2.9-.12-4.24-.12-4.25l-.28-.16C184.13,197.9,183.4,199.29,184.25,202.34Z"/><path class="cls-10" d="M182.39,202.4l.3-.11c-1.12-3.16.67-4.9.69-4.91l-.22-.24A4.94,4.94,0,0,0,182.39,202.4Z"/><path class="cls-10" d="M208.83,193.33l.07-.32c-.23,0-23.26-5.22-25-10.46s8.1-21.32,8.2-21.48l-.28-.17c-.41.66-10,16.36-8.23,21.75S207.87,193.11,208.83,193.33Z"/><path class="cls-10" d="M228.09,186.51a3.58,3.58,0,0,0,2-.51c4.8-3.13-5-26-5.41-26.94l-.3.13c.11.23,10.1,23.56,5.53,26.53a3.15,3.15,0,0,1-1.79.47c-5.67,0-16.91-9.8-17-9.91l-.21.25C211.35,177,222.28,186.51,228.09,186.51Z"/><path class="cls-5" d="M261,116a18.18,18.18,0,0,1-12.07-4.38,20.83,20.83,0,0,1-6.75-12,21.07,21.07,0,0,1,2-13.86c2.08-3.86,5.33-5.25,9.22-4A46.82,46.82,0,0,1,256.73,75l1,.62a47.61,47.61,0,0,0-3.24,6.58c3.27,1.47,6.8,4.69,9.48,8.66s3.91,7.9,3.14,10.25c-.53,1.59-2.12,3.26-6.74,2.19-4.25-1-7.08-3.12-8.42-6.36-1.77-4.27-.63-9.69,1-14.07-3.34-1.09-5.95.06-7.76,3.42-4.25,7.9-2.29,18.63,4.46,24.43,7.58,6.52,18.58,5.26,30.17-3.45l.71.94c-6.41,4.82-12.59,7.43-18.38,7.76Q261.55,116,261,116Zm-6.88-32.69c-1.53,4.18-2.63,9.28-1,13.18,1.18,2.86,3.74,4.76,7.59,5.66,3,.7,4.81.22,5.34-1.41C267.32,96.65,260.91,86.37,254.07,83.28Z"/><path class="cls-6" d="M253.07,64.72c1.19,1.68,7.17,2,8.93.44s-.11-3.64,2.84-8.43S271,53,271.65,43.37s-10.31-12.68-14.59-12.72-14,3.31-14,14.1c-.07,7.82,5.38,8.26,7.82,12S251.72,62.83,253.07,64.72Z"/><path class="cls-25" d="M252.67,65.82c0,.15,6.06,1.81,9.91.26,0,0,.95,8.43-2.45,9.23s-6.71.09-7-1.57S252.67,65.82,252.67,65.82Z"/><path class="cls-10" d="M263.14,45.61c-1,.35-2,3-2.72,5.45A3,3,0,0,1,258,49.72c2.88-3,3.22-8.42,2.43-10.85-.44-1.34-1.1-1.47-1.46-1.43-1.81.22-3,4.44-2.89,8.06a9.55,9.55,0,0,0,.93,4.1,6.65,6.65,0,0,1-1.05.75l-.23.1c-.35-3.72-1-6.93-2.16-8a1.5,1.5,0,0,0-1.24-.44,1.68,1.68,0,0,0-1.44,1.34c-.57,2,.83,5.86,2.68,7.32a2.81,2.81,0,0,0,1.46.64,137.39,137.39,0,0,1,.22,14.57l.39.08.38,0a139.52,139.52,0,0,0-.22-14.73,2.5,2.5,0,0,0,.54-.23,6.86,6.86,0,0,0,1.09-.76,3.7,3.7,0,0,0,2.73,1.56c-.17.61-.32,1.19-.43,1.7-.54,2.29-1.68,8.08-.9,12.63l.78-.08c-.55-3.12-.23-7.62.87-12.37.16-.69.33-1.34.5-1.94,1.37-.39,2.32-2.19,2.6-2.8.52-1.1.94-2.6.41-3.18A.78.78,0,0,0,263.14,45.61Zm-9,4.45c-1.63-1.28-2.92-4.74-2.42-6.49.2-.72.64-.77.78-.79h.09a.76.76,0,0,1,.53.24c1,.92,1.58,3.9,1.92,7.49A2.12,2.12,0,0,1,254.1,50.06Zm3.54-1a9.62,9.62,0,0,1-.75-3.54c-.12-3.59,1.14-7.14,2.22-7.26h0c.16,0,.41.27.61.9C260.45,41.33,260.18,46.19,257.64,49Zm5.12-.07a5.35,5.35,0,0,1-1.44,1.81c.84-2.71,1.68-4.27,2.08-4.42h.07A4.52,4.52,0,0,1,262.76,49Z"/><path class="cls-5" d="M258.72,70.47A17.14,17.14,0,0,1,251.4,69a.4.4,0,0,1-.17-.53.39.39,0,0,1,.53-.16h0a18.61,18.61,0,0,0,11.24,1,.39.39,0,0,1,.45.31.4.4,0,0,1-.31.46A22.36,22.36,0,0,1,258.72,70.47Z"/><path class="cls-5" d="M259.13,73.28a26.51,26.51,0,0,1-7.11-.92.39.39,0,1,1,.23-.74A28.84,28.84,0,0,0,263,72.3a.39.39,0,0,1,.09.78A32.89,32.89,0,0,1,259.13,73.28Z"/><path class="cls-5" d="M47.62,58.89a2.15,2.15,0,0,1,3.59-1.56,3.53,3.53,0,0,0,1.88,1.11,2.83,2.83,0,0,0,3-1.88c.12-.35-.43-.51-.56-.16a2.18,2.18,0,0,1-3.55.86,3.45,3.45,0,0,0-1.89-1.06,2.73,2.73,0,0,0-3,2.68c0,.37.55.38.57,0Z"/><path class="cls-5" d="M74.63,197c4.15,1.68,10.23,2.09,17.72-1.43,2.31-1.08,5.91-5,4.87-7.39S93.08,187,93.08,187s11.89-10.34,7.44-14.34C97,169.5,90.29,178.3,90.29,178.3S105,154.89,94.75,150c-11.8-5.6-18.3,22.9-18.3,22.9s1.31-9.33-2.72-9.62S58.17,181.08,74.63,197Z"/><path class="cls-10" d="M82,196.4a63.25,63.25,0,0,1,3.87-30.11A60.41,60.41,0,0,1,92,154.11l.43.31a59.42,59.42,0,0,0-6.1,12.07,62.85,62.85,0,0,0-3.84,29.84Z"/><path class="cls-10" d="M81.89,189.85l-.17-.49c6-2,15.54-13.28,15.63-13.39l.4.34C97.36,176.78,88,187.81,81.89,189.85Z"/><path class="cls-10" d="M82.05,194.58l0-.52c5.08-.23,10.19-3.14,10.24-3.17l.26.46S87.25,194.35,82.05,194.58Z"/><path class="cls-10" d="M81.81,192.23a11.42,11.42,0,0,1-8.66-5c-4.59-7-1.21-18.58-1.06-19.07l.5.15c0,.11-3.46,11.82,1,18.63a10.89,10.89,0,0,0,8.28,4.75Z"/><path class="cls-26" d="M79,194.75c-1.23,2-3.22,3.28-8.69,2.74-1.8-.18-5.79-1.44-5.43-4.76s4.49-.16,4.49-.16-12.56-14.29-5.66-18c7.3-3.88,10.7,12.83,10.7,12.83s.34-2.4,2-2.33C78.31,185.18,82.16,189.73,79,194.75Z"/><path class="cls-10" d="M74.75,195.8c-.06-.07-5.86-6.37-9.32-17.55l.32-.1A48.91,48.91,0,0,0,75,195.56Z"/><path class="cls-10" d="M70.91,195.17a4.44,4.44,0,0,1-2.48-.57l.2-.28s1.61,1.1,5.22,0l.1.32A10.56,10.56,0,0,1,70.91,195.17Z"/><path class="cls-10" d="M74.34,195.1l-.18-.29c3.74-2.43,2.33-7,2.32-7.06l.32-.1S78.31,192.52,74.34,195.1Z"/><path class="cls-27" d="M71.77,198.13c1.21-1.38,2.15-3,4.1-3.12s5.93.29,6.6,1.05,3.21,3.55.63,4.72S68.47,201.94,71.77,198.13Z"/><path class="cls-3" d="M80.43,198a32.49,32.49,0,0,1-4.79,1.16,3,3,0,0,1-3-2.06c-.28.34-.57.7-.87,1-3.3,3.81,8.75,3.82,11.33,2.65,1.51-.68,1.27-1.92.67-3h0C83.14,197.55,82.46,197.47,80.43,198Z"/><path class="cls-6" d="M290.38,194.57c5.92,3.41,15,5.29,27.07,1.55,3.7-1.15,10-6.38,8.89-10.15s-6-2.58-6-2.58,20.12-13.13,14.24-20.1c-4.69-5.55-16.62,6.35-16.62,6.35s27.11-32.27,12.64-41.77c-16.65-10.93-32.43,30.75-32.43,30.75s-.53-11.78-6.55-13S268.86,167.1,290.38,194.57Z"/><path class="cls-10" d="M301.15,195l-.79,0a100.7,100.7,0,0,1,13.27-44.78,89.1,89.1,0,0,1,12-16.69l.57.55a88.58,88.58,0,0,0-11.89,16.56A100,100,0,0,0,301.15,195Z"/><path class="cls-10" d="M302.83,185.33l-.14-.79c9.44-1.76,26.24-16.79,26.41-16.94l.53.59C328.93,168.81,312.5,183.52,302.83,185.33Z"/><path class="cls-10" d="M304.4,192.6c-.77,0-1.55,0-2.32-.1l.08-.79c7.71.71,16-2.61,16.12-2.64l.3.73A43.52,43.52,0,0,1,304.4,192.6Z"/><path class="cls-10" d="M302.22,188.9c-5.78-1.53-9.83-4.68-12-9.34-2.86-6.06-2.05-13.64-.87-18.92a56.81,56.81,0,0,1,3.26-10.1l.73.33c-.08.17-7.7,17.13-2.4,28.35,2.11,4.44,6,7.44,11.52,8.91Z"/><path class="cls-27" d="M303.24,170.48c10.93,12.66,3.62,28.87-16.46,29.05s-28.12-17.1-21.25-24.37S290,155.15,303.24,170.48Z"/><path class="cls-3" d="M268.2,172.58c-1.82,4.8-2.41,9.51,1.39,10.91,8.54,3.13,7.56-1.59,17.3,2.88s20.11-.49,21.4-2.82c-.39,8.59-8.1,15.86-21.51,16-20.07.19-28.12-17.1-21.25-24.37C266.29,174.36,267.19,173.48,268.2,172.58Z"/><path class="cls-28" d="M296,124.84s16.61,21.57,11.49,25.71l-8.37-4.25-3.29-8.12-.8-8.75Z"/><polygon class="cls-12" points="290.79 194.01 291.41 196.09 293.61 195.81 293.36 193.05 290.79 194.01"/><path class="cls-21" d="M291.23,195.48s.14.61,1.26.47a1.12,1.12,0,0,0,1.12-1,10.32,10.32,0,0,1,1.43,3.31c.18,1.43-1.46,10.42-5.09,8.5S291.23,195.48,291.23,195.48Z"/><path class="cls-13" d="M295,198.22a4.81,4.81,0,0,0-.24-.92c-.58,2.63-2.14,7.29-3,8.18s-1.42.65-3,0a2.33,2.33,0,0,0,1.09,1.28C293.58,208.64,295.22,199.65,295,198.22Z"/><path class="cls-12" d="M306.79,180.15l.89,1.18c1.45.73,2.09.53,1.69-.87l-.72-2.08Z"/><path class="cls-21" d="M307.68,181.33a5.3,5.3,0,0,0,.4,4.34s7.94,3.53,10.52,1.64-4-6.14-9.23-6.85C309.37,180.46,309.67,181.33,307.68,181.33Z"/><path class="cls-13" d="M308.08,185.67s7.94,3.53,10.52,1.64a1.24,1.24,0,0,0,.43-1.62,3.91,3.91,0,0,1-1.52,1.13c-1.87.8-7.78-1.25-9.9-2.34A6,6,0,0,0,308.08,185.67Z"/><path class="cls-12" d="M288.08,119.21s-.2,2.32.17,2.65a23.48,23.48,0,0,0,2.52,1.36l-1.75,2h-4.45l-2.59-.7-.51-1a19.16,19.16,0,0,0,2.35-1.28,23.91,23.91,0,0,0,.13-3.8Z"/><path class="cls-18" d="M291.63,115s.21,6.54,2.23,9.76-4.56.22-4.56.22l-2.42-2.94V118l3.07-3.72Z"/><path class="cls-29" d="M280.41,115.64l-3.07,5.48,3.38,2.39h2.77s1.41-1.65,1.37-1.67-.37-3.31-.37-3.31Z"/><path class="cls-12" d="M288.08,119.21s-.2,2.32.17,2.65a23.48,23.48,0,0,0,2.52,1.36l-1.75,2h-4.45l-2.59-.7-.51-1a19.16,19.16,0,0,0,2.35-1.28,23.91,23.91,0,0,0,.13-3.8Z"/><g class="cls-4"><path class="cls-12" d="M288.08,119.21l-4.13-.78s0,1.5,0,2.62a7.79,7.79,0,0,0,4.18.6A9.73,9.73,0,0,1,288.08,119.21Z"/></g><path class="cls-12" d="M291.13,110.68s1.09,9.49-5.08,9.67-7.54-8.21-7.54-8.21l3.35-4.5,4.65-1.18Z"/><path class="cls-12" d="M290.6,112.94s1.09-2.45,2.2-1.8.53,4.59-2.51,4.5S290.6,112.94,290.6,112.94Z"/><path class="cls-18" d="M280.74,103.64c.79-1.64,2.86-2.66,6.36-1.55s9.11,7.23,4.07,9.86S278.73,107.89,280.74,103.64Z"/><path class="cls-18" d="M281.49,103.42s-1.53-.52-3.7,2.07c-2.65,3.14-7,16.16-2.48,24.55l6.67-6.19a43.42,43.42,0,0,1-.22-15.11Z"/><path class="cls-13" d="M276.14,125.91c1-.87,6.32-2.89,6.32-2.89a3.88,3.88,0,0,0,4.13,1.65c2.94-.5,2.66-2.21,2.66-2.21l6.73,2.38a16.45,16.45,0,0,0,3.22,9.09s-1.07,4.17-3.47,6.2c0,0-.5,6.32,1,8.27s3.23,6.78,2.44,11.83l-2.56-1.5-5.33-4.59-7.82,1-7.84,3.17s4.62-10.85,5.12-13.21-3.93-8.06-3.93-8.06Z"/><polygon class="cls-12" points="286.42 134.61 284.68 136.97 284.45 138.16 286.05 138.53 287.53 136.46 286.42 134.61"/><path class="cls-28" d="M284.86,136.26a4.82,4.82,0,0,0,1.7,2.09s-6.22,13.37-13.87,12.63-1.8-20.94,3.45-25.07c0,0,5.8,1.92,2.6,11.41-1.74,5.16-1.25,5.71-1.25,5.71Z"/><path class="cls-28" d="M307.31,149.46l.16,1.09s-1.61,1.92-13.7,0a5.84,5.84,0,0,1-1.74-2.74s5-1,7.07-1.51a29.42,29.42,0,0,1,5.64-.53l1.95,2.67Z"/><path class="cls-30" d="M290.27,161.05s-5.41,11.28-12.93,7.15c-8.62-4.74,1.4-18.11,14.69-20.59,0,0,12.22,14.88,17.34,32.08,0,0-1.9,1.48-2.56,1.24C306.81,180.93,291.76,164.15,290.27,161.05Z"/><path class="cls-31" d="M285.16,167.45s.73,17.28,5.61,27.45a2.44,2.44,0,0,0,3-.83s1.58-26.09,0-32.19c-1.46-5.62-6.13-4.88-7.35-2.59C284.6,162.69,285.16,167.45,285.16,167.45Z"/><path class="cls-10" d="M286.65,127.84a.75.75,0,0,1-.68-.5.7.7,0,0,1,.36-.8.36.36,0,0,1,.22-.07c.26,0,.48.28.57.53a.63.63,0,0,1-.15.73A.5.5,0,0,1,286.65,127.84Zm-.1-1.12-.08,0c-.23.17-.32.35-.26.52s.43.42.61.28.09-.38.07-.46S286.66,126.72,286.55,126.72Z"/><path class="cls-10" d="M290.11,141.82a.75.75,0,0,1-.68-.5c-.05-.14-.09-.48.36-.8a.33.33,0,0,1,.21-.07c.27,0,.49.27.58.53a.63.63,0,0,1-.15.73A.52.52,0,0,1,290.11,141.82ZM290,140.7l-.07,0c-.23.16-.32.34-.27.52s.44.42.62.28.09-.38.06-.46S290.12,140.7,290,140.7Z"/><path class="cls-10" d="M288.92,146.66a.75.75,0,0,1-.68-.51.69.69,0,0,1,.36-.79.35.35,0,0,1,.21-.07c.27,0,.49.27.58.53a.63.63,0,0,1-.15.73A.5.5,0,0,1,288.92,146.66Zm-.11-1.13-.07,0c-.23.16-.32.34-.26.52s.43.41.61.27.09-.38.07-.45S288.93,145.53,288.81,145.53Z"/><path class="cls-10" d="M290.13,148.63l-.23-.09a35.16,35.16,0,0,0,1.72-10.68c.16-6.56-4.79-13.1-4.84-13.17l.2-.15c0,.07,5,6.68,4.89,13.33A34.85,34.85,0,0,1,290.13,148.63Z"/><path class="cls-12" d="M290.77,147.88a4.3,4.3,0,0,0-3.53.43c-1.16.66-3.44,2.71-2.62,3.09.64.3,1.5-.58,1.5-.58s-1.81,1.43-.91,2,2.24-1.77,2.24-1.77-1.31,2.51-.57,2.64,2.11-2.85,2.11-2.85-.56,2.32.22,2.38S290.77,147.88,290.77,147.88Z"/><path class="cls-14" d="M287.46,140.84c.06.25,5,.11,5.15,0s.82-10.66.64-10.71a63.07,63.07,0,0,0-6.45,0C286.55,130.28,287.29,140.18,287.46,140.84Z"/><path class="cls-12" d="M285.91,135.9c-.09-.1-.66-3,.85-4.5l.14,2.79a20.76,20.76,0,0,0,6.38-1.3c2.55-1.15,1,1.08-.66,1.64,0,0,1.86-.39,2.08.27s-3.95,4.28-7.25,2.65l-1.35-.93Z"/><path class="cls-10" d="M293,198a5,5,0,0,1-2.23-.42l.12-.22a5.15,5.15,0,0,0,2.27.39V198Z"/><path class="cls-10" d="M292.81,199.25a6,6,0,0,1-2.42-.45l.13-.21-.06.11.06-.11a6,6,0,0,0,2.3.42Z"/><rect class="cls-10" x="309.33" y="182.02" width="2.42" height="0.25" transform="translate(-44.65 240.86) rotate(-39.78)"/><path class="cls-10" d="M311.15,183.51l-.16-.19a15.4,15.4,0,0,0,1.81-1.65l.2.15A15.42,15.42,0,0,1,311.15,183.51Z"/><path class="cls-7" d="M272.05,196.46c-5.09,1.34-11.5-2.78-11.5-2.78s-5-5.68-2.83-7.39,5.39,1.61,5.39,1.61-12.82-21-3.4-21.83c11.17-.95,12.88,15.13,12.88,15.13s3.56-7.35,7.05-4.51C283.46,179.81,282.86,193.61,272.05,196.46Z"/><path class="cls-10" d="M268.21,195.83l-.36-.09c0-.11,2.56-11.32-6.75-26.18l.32-.2C270.82,184.37,268.24,195.72,268.21,195.83Z"/><path class="cls-10" d="M268.34,193a12.36,12.36,0,0,1-7.75-4.16l.3-.23a12.18,12.18,0,0,0,7.5,4Z"/><path class="cls-10" d="M268.39,191.24l0-.38c6.11-.43,8.93-7.26,9-7.32l.35.14C277.65,183.75,274.74,190.78,268.39,191.24Z"/><path class="cls-27" d="M268.6,192.21c3.32,3.54,1.38,8.32-4.44,8.61s-8.34-4.64-6.44-6.82S264.59,187.92,268.6,192.21Z"/><path class="cls-3" d="M258.47,193.22c-.47,1.41-.59,2.78.53,3.14,2.51.82,2.17-.54,5,.64s5.83-.37,6.18-1.06c0,2.49-2.17,4.69-6.06,4.88-5.81.28-8.34-4.64-6.44-6.82C257.94,193.76,258.19,193.49,258.47,193.22Z"/><path class="cls-5" d="M208.66,61.34a21,21,0,0,1,4-6.8c.47-.54-.31-1.32-.78-.79a22.17,22.17,0,0,0-4.3,7.3c-.24.67.83,1,1.07.29Z"/><path class="cls-5" d="M213.85,69.73a71.7,71.7,0,0,0,12.07-2.34.55.55,0,0,0-.29-1.07,70.49,70.49,0,0,1-11.78,2.3c-.7.08-.71,1.19,0,1.11Z"/><path class="cls-5" d="M216.55,81.7l8.93,1.45c.7.12,1-1,.3-1.07l-8.94-1.45c-.69-.11-1,1-.29,1.07Z"/><polygon class="cls-13" points="141.1 150.25 139.2 151.2 143.97 167.52 146.27 165.12 141.1 150.25"/><polygon class="cls-11" points="155.62 161.51 151.91 165.89 143.97 167.52 146.27 165.12 155.62 161.51"/></g></g></svg>