<svg xmlns="http://www.w3.org/2000/svg" viewBox="0 0 452 293"><defs><style>.cls-1{isolation:isolate;}.cls-2{fill:#f2f3f3;}.cls-3{fill:#ced1d2;}.cls-4{fill:#29495c;}.cls-5{fill:#fdd63b;}.cls-6{fill:#e5e5e6;}.cls-7{fill:#fff;}.cls-8{mix-blend-mode:multiply;}.cls-9{fill:#eff0f0;}.cls-10{fill:#fda93b;}.cls-11{fill:#d15430;}.cls-12{fill:#f4d39e;}.cls-13{fill:#154965;}.cls-14{fill:#21709a;}.cls-15{fill:#fd653b;}.cls-16{fill:#919395;}.cls-17{fill:#a5a7aa;}.cls-18{fill:#cfd0d2;}.cls-19{fill:#fdcb87;}.cls-20{fill:#6c7173;}.cls-21{fill:#c14f29;}.cls-22{fill:#77ccfd;}.cls-23{fill:#e5e5e7;}.cls-24{fill:#fc803b;}.cls-25{fill:#518fb6;}.cls-26{fill:#fd643b;}.cls-27{fill:#845413;}.cls-28{fill:#162934;}.cls-29{fill:#fd4b3b;}.cls-30{fill:#124059;}.cls-31{fill:#195578;}.cls-32{fill:#154663;}.cls-33{fill:#0f354a;}.cls-34{fill:#0e283b;}.cls-35{mix-blend-mode:screen;}.cls-36{fill:#184d6e;}.cls-37{fill:#2580b3;}.cls-38{fill:#babcbe;}.cls-39{fill:#d5d5d7;}.cls-40{fill:#1d6185;}.cls-41{fill:#c7e9fd;}</style></defs><g class="cls-1"><g id="Layer_1" data-name="Layer 1"><path class="cls-2" d="M329.56,85.45S342.83,86.36,342,96s-21.3,8.8-32.45,8.83-74.86,1.81-85.72-3.91c-9.94-5.25,1.1-27.2,20.25-17.36,0,0,10.61-23.92,30.64-30.23C305.72,43.5,309.17,74,309.17,74s8.39-12.74,18-3.38C331.84,75.18,329.56,85.45,329.56,85.45Z"/><path class="cls-3" d="M246.1,55.46s-3.83.5-3.79,5.12c0,3.41,4.22,3.56,9.22,4,3.47.34,23.48,1,27.66-2.32,3.54-2.83,3.05-10.6-6.17-11.1-.54,0,5-12.8-9.75-15.81-10.32-2.11-11.45,8.67-11.45,8.67a6.63,6.63,0,0,0-7.28,5C243.19,53.45,246.1,55.46,246.1,55.46Z"/><path class="cls-4" d="M258.39,156.18l-.92-.14c1.23-8,5.44-11.2,9.34-12.35-1.64-6.1-.28-13.38-.21-13.78l.93.18c0,.1-1.38,7.41.2,13.36a16.64,16.64,0,0,1,4.84-.3c5.39.45,10.64,3.42,10.6,6,0,1.15-1,2.57-5.6,2.82-3.47.19-6.21-.84-8.16-3.07a12.52,12.52,0,0,1-2.33-4.28C263.46,145.7,259.55,148.67,258.39,156.18ZM268,144.37a11.41,11.41,0,0,0,2.12,3.9,8.65,8.65,0,0,0,7.4,2.75c2.93-.16,4.69-.87,4.71-1.89,0-1.66-4.15-4.58-9.74-5A14.89,14.89,0,0,0,268,144.37Z"/><path class="cls-5" d="M261.17,118.46c1.54,2.19,9.33,2.71,11.63.65s-.12-4.75,3.76-11,7.84-5,8.23-17.63c.37-11.81-9.83-16.33-18.17-16.37-5.57,0-17.67,3.89-17.86,17.93-.1,7.73,6.35,11.44,10.15,16.19C262.55,112.84,259.43,116,261.17,118.46Z"/><path class="cls-6" d="M260.65,119.89c0,.19,7.87,2.41,12.9.41,0,0,1.18,11-3.26,12s-8.74.07-9.15-2.09S260.65,119.89,260.65,119.89Z"/><path class="cls-7" d="M274.43,93.67c-1.27.45-2.62,3.88-3.59,7.06A3.89,3.89,0,0,1,267.76,99C271.53,95,272,88,271,84.87c-.56-1.75-1.42-1.92-1.88-1.87-2.37.27-4,5.75-3.83,10.47a12.3,12.3,0,0,0,1.18,5.34,8.27,8.27,0,0,1-1.37,1l-.3.13c-.43-4.84-1.25-9-2.75-10.44a2,2,0,0,0-1.62-.58,2.21,2.21,0,0,0-1.88,1.75c-.76,2.63,1,7.63,3.44,9.54a3.67,3.67,0,0,0,1.89.85,178.31,178.31,0,0,1,.18,19l.5.11.51,0a183.4,183.4,0,0,0-.18-19.18,3.46,3.46,0,0,0,.7-.29,8.74,8.74,0,0,0,1.42-1,4.88,4.88,0,0,0,3.54,2c-.22.79-.41,1.55-.57,2.21-.71,3-2.25,10.5-1.26,16.43.35,0,.68-.06,1-.1-.69-4.06-.24-9.92,1.23-16.1.22-.89.44-1.73.66-2.51,1.78-.5,3-2.84,3.41-3.63.68-1.43,1.24-3.38.55-4.14A1,1,0,0,0,274.43,93.67Zm-11.81,5.72c-2.11-1.68-3.76-6.19-3.1-8.47.27-.93.84-1,1-1h.11a1,1,0,0,1,.69.32c1.29,1.21,2,5.09,2.44,9.77A2.7,2.7,0,0,1,262.62,99.39Zm4.62-1.33a12.51,12.51,0,0,1-.94-4.62c-.14-4.67,1.53-9.27,2.93-9.43h0c.2,0,.52.36.78,1.17C271,88.07,270.56,94.4,267.24,98.06Zm6.67-.06a6.88,6.88,0,0,1-1.89,2.35c1.11-3.51,2.22-5.54,2.75-5.73l.08,0A5.91,5.91,0,0,1,273.91,98Z"/><path class="cls-4" d="M268.49,126a22.46,22.46,0,0,1-9.52-2,.51.51,0,0,1,.47-.9h0c.06,0,6,3.06,14.63,1.42a.51.51,0,0,1,.59.41.51.51,0,0,1-.41.59A29.52,29.52,0,0,1,268.49,126Z"/><path class="cls-4" d="M269,129.66a34.51,34.51,0,0,1-9.25-1.26.5.5,0,1,1,.31-1,37.56,37.56,0,0,0,14,1,.51.51,0,0,1,.56.45.5.5,0,0,1-.45.55A41.21,41.21,0,0,1,269,129.66Z"/><g class="cls-8"><ellipse class="cls-9" cx="210.37" cy="243.26" rx="146.87" ry="18.2"/></g><path class="cls-4" d="M167.37,27.91c1.77-.14,3.8-.34,5.36.71a3,3,0,0,1,1.34,2,17.05,17.05,0,0,0,.18,2c1,3.26,4.68.77,6.71.91.89.06.89-1.33,0-1.39a5.85,5.85,0,0,0-2.34.39,3.89,3.89,0,0,1-2.36.37c-.94-.32-.7-1.44-.77-2.22A4,4,0,0,0,175,29c-1.54-2.69-4.91-2.71-7.61-2.5-.89.07-.9,1.46,0,1.39Z"/><path class="cls-4" d="M358.55,193.59a37.69,37.69,0,0,0,8.49-.43c.88-.14.51-1.48-.37-1.34a36.18,36.18,0,0,1-8.12.38c-.9-.06-.89,1.34,0,1.39Z"/><path class="cls-4" d="M286.32,31a38.4,38.4,0,0,0,8.5-.43c.88-.14.51-1.48-.37-1.34a36.87,36.87,0,0,1-8.13.38c-.89-.06-.89,1.33,0,1.39Z"/><path class="cls-4" d="M228.22,24a36.87,36.87,0,0,0,5.3,7.78l.62-1.06q-3.76-1.07-7.48-2.26c-.79-.25-1.12,1-.34,1.23q3.72,1.2,7.48,2.26a.65.65,0,0,0,.62-1.07,35.65,35.65,0,0,1-5.1-7.53c-.37-.73-1.47-.09-1.1.65Z"/><path class="cls-4" d="M65,199.61A36.57,36.57,0,0,0,71.75,193l-1.09-.45c-.26,2.6-.56,5.18-.91,7.77-.1.81,1.17.8,1.28,0,.35-2.59.65-5.17.9-7.77a.65.65,0,0,0-1.09-.45,35.27,35.27,0,0,1-6.49,6.37c-.65.49,0,1.59.64,1.1Z"/><path class="cls-4" d="M94.09,40.19a2.61,2.61,0,0,0,3.63,2.37c2.12-.81,2.9-3.5,2.47-5.58-.91-4.44-8.45,0-5.78,3.67.25.35.81,0,.56-.35-1-1.41-.18-3,1.15-3.89a4.56,4.56,0,0,1,1.37-.61c1.38-.33,2.07.85,2.13,2a4.56,4.56,0,0,1-1.17,3.5c-1.27,1.21-3.74.93-3.7-1.18,0-.42-.65-.39-.66,0Z"/><path class="cls-4" d="M96.71,43a2.91,2.91,0,0,1-2.11-.87,2.64,2.64,0,0,1-.76-2h0a3.16,3.16,0,0,1,.32-3A5,5,0,0,1,98,34.86a2.35,2.35,0,0,1,2.4,2.07c.46,2.22-.41,5-2.63,5.87A3.24,3.24,0,0,1,96.71,43Zm-2.23-2a2,2,0,0,0,.48.77,2.53,2.53,0,0,0,2.67.54c2-.75,2.72-3.28,2.31-5.28A1.83,1.83,0,0,0,98,35.37a4.52,4.52,0,0,0-3.45,2,2.75,2.75,0,0,0-.4,2.24l.16,0a2.52,2.52,0,0,1,0-1.13A3.67,3.67,0,0,1,96,36.19a5.25,5.25,0,0,1,1.44-.64,2.29,2.29,0,0,1,.51-.06c1.25,0,1.87,1.17,1.93,2.32a4.8,4.8,0,0,1-1.24,3.7,2.92,2.92,0,0,1-2,.79,2,2,0,0,1-2-1.19h0l0-.06Zm.64-.14a1.51,1.51,0,0,0,1.52.92,2.42,2.42,0,0,0,1.64-.65,4.27,4.27,0,0,0,1.08-3.3c0-.92-.5-1.84-1.42-1.84a1.39,1.39,0,0,0-.39,0,4.71,4.71,0,0,0-1.29.57,3.15,3.15,0,0,0-1.45,2,2,2,0,0,0,.37,1.58.57.57,0,0,1,.09.47A.64.64,0,0,1,95.12,40.87Zm-.74-.75.12.21v-.21h-.12Z"/><path class="cls-4" d="M370.55,77.74a2.6,2.6,0,0,0,1.71,4c2.22.49,4.35-1.33,5.14-3.29,1.69-4.21-7-4.71-6.85-.13,0,.43.68.44.67,0-.07-1.74,1.52-2.64,3.1-2.62a4.64,4.64,0,0,1,1.48.25c1.33.48,1.25,1.85.66,2.86a4.54,4.54,0,0,1-2.91,2.28c-1.72.31-3.64-1.28-2.43-3,.24-.35-.33-.69-.57-.34Z"/><path class="cls-4" d="M373,82.05a3.57,3.57,0,0,1-.8-.09A3,3,0,0,1,370,80.13a2.68,2.68,0,0,1,.31-2.54h0c.33-1.91,2.24-2.77,4-2.77a3.79,3.79,0,0,1,3.16,1.36,2.42,2.42,0,0,1,.14,2.35C376.93,80.28,375.12,82.05,373,82.05Zm-2.6-3.41a2.16,2.16,0,0,0,.1,1.3,2.51,2.51,0,0,0,1.81,1.53,3.11,3.11,0,0,0,.69.07,4.91,4.91,0,0,0,4.15-3.21,1.89,1.89,0,0,0-.08-1.87,3.3,3.3,0,0,0-2.74-1.14,3.4,3.4,0,0,0-3.42,2,.43.43,0,0,1,.16.05,2.5,2.5,0,0,1,.58-1,3.57,3.57,0,0,1,2.59-1h.08a5.06,5.06,0,0,1,1.55.26A1.76,1.76,0,0,1,377,76.77a2.63,2.63,0,0,1-.33,2.17,4.81,4.81,0,0,1-3.08,2.4,2.63,2.63,0,0,1-.49,0,2.84,2.84,0,0,1-2.26-1.1,1.88,1.88,0,0,1-.33-1.46h0l0-.07A.57.57,0,0,1,370.41,78.64Zm.62.23a1.36,1.36,0,0,0,.24,1.12,2.29,2.29,0,0,0,1.84.88,2.6,2.6,0,0,0,.4,0,4.28,4.28,0,0,0,2.73-2.16,2.08,2.08,0,0,0,.29-1.73,1.23,1.23,0,0,0-.82-.76,4.47,4.47,0,0,0-1.39-.23h-.07a3.12,3.12,0,0,0-2.23.84,2,2,0,0,0-.55,1.51.55.55,0,0,1-.44.56Zm-.21-1a1.69,1.69,0,0,0,0,.23,1.3,1.3,0,0,1,.1-.15v0A.12.12,0,0,0,370.82,77.85Z"/><path class="cls-4" d="M332.11,47.16a36.06,36.06,0,0,0,6.68-2.43c.38-.19,0-.76-.34-.57a35.69,35.69,0,0,1-6.51,2.37.33.33,0,0,0,.17.63Z"/><path class="cls-4" d="M332,47.43h0a.59.59,0,0,1-.15-1.15,35.76,35.76,0,0,0,6.47-2.35.66.66,0,0,1,.27-.06.61.61,0,0,1,.58.48.53.53,0,0,1-.29.61,37.36,37.36,0,0,1-6.72,2.45Zm6.59-3h0A35.4,35.4,0,0,1,332,46.77s-.05,0,0,.07,0,.08.06.08h0a36.24,36.24,0,0,0,6.62-2.42s0,0,0,0A.11.11,0,0,0,338.61,44.38Z"/><path class="cls-4" d="M332.27,43.31c1.58,2,3.67,3.51,5.06,5.65.23.36.8,0,.57-.33-1.42-2.19-3.55-3.77-5.17-5.79-.26-.33-.73.14-.46.47Z"/><path class="cls-4" d="M337.6,49.37h0a.58.58,0,0,1-.49-.27,20.77,20.77,0,0,0-2.85-3.28,30.44,30.44,0,0,1-2.19-2.35.61.61,0,0,1,.45-1,.51.51,0,0,1,.41.21A30.58,30.58,0,0,0,335.12,45a21.54,21.54,0,0,1,3,3.45.52.52,0,0,1,0,.56A.61.61,0,0,1,337.6,49.37ZM332.51,43a.14.14,0,0,0-.06.07.11.11,0,0,0,0,.1,31.4,31.4,0,0,0,2.16,2.31,21.41,21.41,0,0,1,2.92,3.36.07.07,0,0,0,.06,0h0a.11.11,0,0,0,.09,0s0,0,0,0a21.35,21.35,0,0,0-2.92-3.37,31.81,31.81,0,0,1-2.23-2.4Z"/><path class="cls-4" d="M334.2,49.29a42.35,42.35,0,0,0,2.26-6.65c.09-.41-.55-.59-.64-.17a42.35,42.35,0,0,1-2.26,6.65c-.16.39.48.56.64.17Z"/><path class="cls-4" d="M333.86,49.77h0a.61.61,0,0,1-.5-.26.53.53,0,0,1,0-.49,40.56,40.56,0,0,0,2.25-6.61.54.54,0,0,1,.54-.43.62.62,0,0,1,.49.23.54.54,0,0,1,.1.49,41.19,41.19,0,0,1-2.27,6.69A.6.6,0,0,1,333.86,49.77Zm-.07-.53a.14.14,0,0,0,.07,0h0a.09.09,0,0,0,.1-.07,41.77,41.77,0,0,0,2.25-6.6s0-.05,0-.06a.11.11,0,0,0-.09,0s0,0,0,0a41.83,41.83,0,0,1-2.27,6.69.08.08,0,0,0,0,0Z"/><path class="cls-4" d="M68.08,83.36a36,36,0,0,0,6.67-2.43c.38-.19,0-.76-.33-.57a35.78,35.78,0,0,1-6.52,2.37.33.33,0,0,0,.18.63Z"/><path class="cls-4" d="M68,83.63h0a.58.58,0,0,1-.57-.52.56.56,0,0,1,.42-.63,35.29,35.29,0,0,0,6.47-2.35.58.58,0,0,1,.26-.06.62.62,0,0,1,.59.48.53.53,0,0,1-.3.61,37,37,0,0,1-6.71,2.45Zm6.58-3h0A35,35,0,0,1,68,83s0,0,0,.07,0,.1.08.08a36.36,36.36,0,0,0,6.63-2.42s0,0,0,0S74.61,80.58,74.57,80.58Z"/><path class="cls-4" d="M68.23,79.51c1.59,2,3.68,3.51,5.06,5.65.23.36.8,0,.57-.33-1.41-2.19-3.54-3.77-5.16-5.79-.27-.33-.73.14-.47.47Z"/><path class="cls-4" d="M73.56,85.57h0a.57.57,0,0,1-.48-.27A20.33,20.33,0,0,0,70.22,82,30.71,30.71,0,0,1,68,79.67.61.61,0,0,1,68,79a.6.6,0,0,1,.52-.35.56.56,0,0,1,.42.21,30.58,30.58,0,0,0,2.19,2.36,22.52,22.52,0,0,1,3,3.45.56.56,0,0,1,0,.56A.62.62,0,0,1,73.56,85.57Zm-5.08-6.39s0,0-.06.07a.08.08,0,0,0,0,.1c.66.81,1.42,1.57,2.15,2.31A21,21,0,0,1,73.51,85s0,0,0,0h0a.14.14,0,0,0,.1,0s0,0,0,0a21.87,21.87,0,0,0-2.92-3.37,31.81,31.81,0,0,1-2.23-2.4Z"/><path class="cls-4" d="M70.16,85.49a41,41,0,0,0,2.26-6.65c.1-.41-.54-.59-.63-.17a42.35,42.35,0,0,1-2.26,6.65c-.17.39.47.56.63.17Z"/><path class="cls-4" d="M69.83,86h0a.6.6,0,0,1-.5-.25.52.52,0,0,1,0-.5,41.54,41.54,0,0,0,2.25-6.61.53.53,0,0,1,.53-.43.61.61,0,0,1,.49.23.57.57,0,0,1,.11.49,42.17,42.17,0,0,1-2.27,6.69A.61.61,0,0,1,69.83,86Zm-.08-.53.08,0a.12.12,0,0,0,.1-.07,41.38,41.38,0,0,0,2.24-6.6s0-.05,0-.06,0,0-.09,0,0,0,0,0a41.83,41.83,0,0,1-2.27,6.69v0Z"/><path class="cls-4" d="M375.42,135.51l-3.67,4.8c-.26.34.29.71.54.37l3.68-4.8c.26-.34-.29-.71-.55-.37Z"/><path class="cls-4" d="M372,141.07h0a.63.63,0,0,1-.55-.34.52.52,0,0,1,.07-.57l3.67-4.81a.56.56,0,0,1,.46-.23.61.61,0,0,1,.55.34.52.52,0,0,1-.06.57l-3.67,4.81A.58.58,0,0,1,372,141.07Zm3.65-5.44s0,0-.06,0L372,140.47s0,0,0,0a.11.11,0,0,0,.09.05h0a.06.06,0,0,0,.06,0l3.68-4.81a.08.08,0,0,0,0,0A.16.16,0,0,0,375.68,135.63Z"/><path class="cls-4" d="M370.91,136.71l5.48,3.49c.36.22.73-.32.37-.55l-5.47-3.48c-.36-.23-.73.32-.38.54Z"/><path class="cls-4" d="M376.57,140.5h0a.62.62,0,0,1-.32-.09l-5.47-3.48a.54.54,0,0,1-.24-.62.61.61,0,0,1,.57-.45.56.56,0,0,1,.31.09l5.48,3.48a.55.55,0,0,1,.24.63A.6.6,0,0,1,376.57,140.5Zm-5.46-4.13s-.07,0-.08.08,0,0,0,.05l5.48,3.48h0a.09.09,0,0,0,.08-.07s0,0,0-.06l-5.48-3.48Z"/><path class="cls-4" d="M54.26,138.6l3.32,5.05c.23.36.8,0,.57-.33-1.11-1.69-2.22-3.37-3.32-5.06-.24-.35-.81,0-.57.34Z"/><path class="cls-4" d="M57.85,144.06h0a.58.58,0,0,1-.49-.27l-3.32-5a.56.56,0,0,1,0-.57.62.62,0,0,1,.54-.31.57.57,0,0,1,.49.26l3.32,5.06a.52.52,0,0,1,0,.56A.63.63,0,0,1,57.85,144.06Zm-3.3-5.69a.09.09,0,0,0-.09,0s0,0,0,0l3.32,5c.06.09.13,0,.15,0s0,0,0,0l-3.32-5.06A.06.06,0,0,0,54.55,138.37Z"/><path class="cls-4" d="M54,143.25l5.1-4c.33-.26-.14-.73-.47-.47l-5.09,4c-.34.26.13.73.46.47Z"/><path class="cls-4" d="M53.75,143.58h0a.64.64,0,0,1-.59-.42.5.5,0,0,1,.18-.58l5.09-4a.62.62,0,0,1,1,.29.53.53,0,0,1-.18.58l-5.1,4A.64.64,0,0,1,53.75,143.58Zm5.06-4.64a.07.07,0,0,0-.06,0l-5.1,4v0a.14.14,0,0,0,.11.07.06.06,0,0,0,0,0l5.1-4s0,0,0,0A.14.14,0,0,0,58.81,138.94Z"/><path class="cls-10" d="M89.15,207.16a21,21,0,0,1,7.1-3.72,14.5,14.5,0,0,1,6.75,0l3.84-.92s7,1.46,10.26,4.72v7.19s-.66,6.13-.76,6.23-3.15,1.78-3.15,1.78l-1.21,4-.35,1.9-.72,5.37-8.4.22-11.34-3.14-3.31-13Z"/><path class="cls-11" d="M90.33,232.41c-.14-.08-6.72-3.49-11.26-.8s-2.41,8.75-2.41,8.75l7.42.89s9.58-.17,10.15-.39,3.07-5.18,3.07-5.18l-5.38-3.19Z"/><path class="cls-12" d="M88.69,239.43a14.14,14.14,0,0,1-4.42-.3l.18,4.54,4-.16Z"/><path class="cls-13" d="M76.3,235.63a7.14,7.14,0,0,0-.25,8.66l9.36-.66a5.33,5.33,0,0,1-.56-4.38S80.09,234.59,76.3,235.63Z"/><path class="cls-14" d="M78.71,235.62c-1.54,1.21-3.34,3.79-1.62,8.59l-1,.08a7.14,7.14,0,0,1,.25-8.66A4.91,4.91,0,0,1,78.71,235.62Z"/><path class="cls-12" d="M106.47,202.21a2.44,2.44,0,0,1,.91,2.37c-.32,1.47-3.07,6.42-6.42,7.25,0,0-6.21-4.67-4.58-8.8s4.05-2.16,4.05-2.16Z"/><g class="cls-8"><path class="cls-12" d="M96.38,203c1.63-4.12,4.05-2.16,4.05-2.16l6,1.34a2.34,2.34,0,0,1,.37.35h0a6.38,6.38,0,0,1-5.53,5.23C97,208.27,96.13,203.67,96.38,203Z"/><path class="cls-7" d="M100.69,207.88a4.07,4.07,0,0,1-3.49-1.83,4.47,4.47,0,0,1-.86-3c.87-2.21,2-2.67,2.74-2.67a2.39,2.39,0,0,1,1.37.47l6,1.35a2.07,2.07,0,0,1,.38.36v0c0,.05-.8,4.75-5.58,5.27A4.3,4.3,0,0,1,100.69,207.88Zm-1.61-7.43c-1.06,0-2,.9-2.65,2.6a4.54,4.54,0,0,0,.86,2.94,3.93,3.93,0,0,0,3.4,1.79,4.17,4.17,0,0,0,.61,0,6.37,6.37,0,0,0,5.49-5.16,2.77,2.77,0,0,0-.34-.33l-6-1.34A2.28,2.28,0,0,0,99.08,200.45Z"/></g><path class="cls-12" d="M106.88,192.67s3.94,11.82-5.1,13.45-6-13.43-6-13.43l6.88-1.41Z"/><path class="cls-12" d="M95.69,198.31a1.69,1.69,0,0,0-1.89-.68c-1.17.4.79,5.49,2.61,4.72S95.69,198.31,95.69,198.31Z"/><path class="cls-13" d="M106.05,193.47s-3.62,6.34-10.76,4.43-3.24-6.32-3.24-6.32.72.92,1.32.9,3.41-6.68,9.72-5.86,4.37,2.82,4.37,2.82,1.32-.36,2.48,1.3,1.25,6.41-1.18,7.75l-1-1.11A12.67,12.67,0,0,0,106.05,193.47Z"/><path class="cls-12" d="M107.3,197.86a1.69,1.69,0,0,1,1.82-.82c1.21.31-.36,5.54-2.24,4.91S107.3,197.86,107.3,197.86Z"/><path class="cls-15" d="M87.17,239a16.1,16.1,0,0,0,.19,5s22.22,1.88,31.1-1.2,10.09-7,6.8-9.87S109.25,229.17,87.17,239Z"/><path class="cls-12" d="M116.63,239.52s-3.84,4.46-5.07,4.6l4.85-.19L118,243l.17-2.12Z"/><path class="cls-13" d="M124.88,235.25a7.16,7.16,0,0,1,.91,8.62l-9.38.06a5.33,5.33,0,0,0,.22-4.41S121,234.5,124.88,235.25Z"/><path class="cls-14" d="M122.47,235.43c1.63,1.09,3.62,3.52,2.28,8.44h1a7.16,7.16,0,0,0-.91-8.62A5.08,5.08,0,0,0,122.47,235.43Z"/><path class="cls-7" d="M118.9,243.31a5.84,5.84,0,0,0-.32-3.7l-.24.12a5.68,5.68,0,0,1,.31,3.51Z"/><path class="cls-7" d="M120.39,243.27a5.9,5.9,0,0,0-.68-4.32l-.22.15a5.85,5.85,0,0,1,.65,4.11Z"/><path class="cls-7" d="M83.79,243.15l.25-.07c-.66-2.38-.1-3.47-.09-3.48l-.24-.13C83.69,239.52,83.09,240.66,83.79,243.15Z"/><path class="cls-7" d="M82.27,243.19l.25-.09a3.75,3.75,0,0,1,.56-4l-.18-.19A4,4,0,0,0,82.27,243.19Z"/><path class="cls-10" d="M117.1,207.28s8,9.1,9.83,18.22-14.81,11.29-21.36,9.4l-.65-4.32s8.83-4,8.68-5.7a10.74,10.74,0,0,0-.4-2.4A16.52,16.52,0,0,1,117.1,207.28Z"/><path class="cls-10" d="M89.15,207.16s-14.29,13-12.43,19.57c1.67,5.92,15.55,9.67,19.81,9v-3.43s-9.21-5.11-8.66-7.34a5.38,5.38,0,0,1,1.24-2.27S93.55,210,89.15,207.16Z"/><polygon class="cls-16" points="88.69 235.91 88.69 236.41 95.29 236.38 95.29 235.91 88.69 235.91"/><polygon class="cls-16" points="106.41 235.91 106.41 236.41 113.01 236.38 113.01 235.91 106.41 235.91"/><polygon class="cls-17" points="84.92 237.76 117.54 237.76 117.54 236.29 84.64 236.42 84.92 237.76"/><polygon class="cls-3" points="85.06 235.93 116.85 235.93 117.54 214.83 84.19 214.72 85.06 235.93"/><path class="cls-7" d="M100.57,222.33c1.88-.18,4.05.56,4.11,3.4s-5.72,3.81-6.09.6S99.94,222.39,100.57,222.33Z"/><path class="cls-2" d="M187.12,160.59s15.5.84,14.5,9.87-24.88,8.3-37.9,8.34-87.43,1.79-100.1-3.59c-11.61-4.92,1.31-25.59,23.67-16.35,0,0,12.41-22.52,35.81-28.48,36.22-9.23,40.21,19.48,40.21,19.48s9.82-12,21-3.2C189.79,150.93,187.12,160.59,187.12,160.59Z"/><path class="cls-3" d="M88.32,133.89s-4,.51-3.94,5.34c0,3.55,4.4,3.71,9.61,4.21,3.62.35,24.5,1.07,28.86-2.42,3.69-3,3.18-11.06-6.44-11.58-.57,0,5.21-13.36-10.17-16.5-10.77-2.2-11.95,9-11.95,9a6.91,6.91,0,0,0-7.59,5.2C85.29,131.78,88.32,133.89,88.32,133.89Z"/><path class="cls-10" d="M347.5,109.94a13.62,13.62,0,0,0,6.09-4.29c2.84-3.48,6.16-15.1-1.85-22.06-5.72-5-18.53-6.52-26.12-2.31-7.79,4.32-10.47,19.23-3,24.65s17.93,4.48,17.93,4.48a29.49,29.49,0,0,1,1.12,11S347.2,119.75,347.5,109.94Z"/><path class="cls-18" d="M153.25,146.31s9,10.19,11.87,10.12,9.53-5.24,9.53-5.24,1.54,2.22,1.54,3.57c0,0-5.5,7.12-12,8.33s-14.05-7.37-14.05-7.37S150.13,147.91,153.25,146.31Z"/><rect class="cls-19" x="136.87" y="225.2" width="2.6" height="4.6"/><rect class="cls-19" x="145.92" y="225.2" width="2.6" height="4.6"/><path class="cls-4" d="M135.38,170.23s1.29,17.23.89,29.46-.43,26.51-.43,26.51A12.4,12.4,0,0,0,141,226s5.08-27.47,4.28-45.33c0,0-.19-.35,1.15-.08a270,270,0,0,1-1.21,45.49s2.75,1,4.28-.11c0,0,10.28-37.43,2.81-54.6l-16.43-1.16Z"/><path class="cls-13" d="M145.1,228.79a13.87,13.87,0,0,0-.4,2.41,14.84,14.84,0,0,1,3.12,0c.33.23.59,1.27.59,1.27h7.51s.16-1.2-.88-1.49-3.8-.58-4.61-1.67-1.08-1.34-1.53-1.22-.68.71-.68.71A7.46,7.46,0,0,1,145.1,228.79Z"/><path class="cls-13" d="M144.52,231.15a14.56,14.56,0,0,1,3.22,0,5.81,5.81,0,0,1-.18,1.3l-3,0S144.38,231.21,144.52,231.15Z"/><path class="cls-13" d="M152.18,230.33a5.27,5.27,0,0,1-2.11,0,2.81,2.81,0,0,1-1.85-1.55c-.21-.59.58-1.47,1.25-.68A5.11,5.11,0,0,0,152.18,230.33Z"/><path class="cls-13" d="M136.38,228.79a13.87,13.87,0,0,0-.4,2.41,14.84,14.84,0,0,1,3.12,0c.33.23.59,1.27.59,1.27h7.52a1.37,1.37,0,0,0-.89-1.49c-1-.3-3.79-.58-4.61-1.67s-1.08-1.34-1.53-1.22-.68.71-.68.71A7.46,7.46,0,0,1,136.38,228.79Z"/><path class="cls-13" d="M135.8,231.15a14.56,14.56,0,0,1,3.22,0,5.81,5.81,0,0,1-.18,1.3l-3,0S135.66,231.21,135.8,231.15Z"/><path class="cls-13" d="M143.46,230.33a5.27,5.27,0,0,1-2.11,0,2.84,2.84,0,0,1-1.85-1.55c-.21-.59.59-1.47,1.25-.68A5.14,5.14,0,0,0,143.46,230.33Z"/><path class="cls-19" d="M145.6,139.34a6.48,6.48,0,0,0,2,5.4l-2,2-5.22-2.18s1.26-4.49-.56-8.2S145.6,139.34,145.6,139.34Z"/><g class="cls-8"><path class="cls-19" d="M140.76,141.28a11.29,11.29,0,0,0-.68-4.27l3.37.54c1.17.93,2.15,1.79,2.15,1.79a6.48,6.48,0,0,0,.19,2.43C145,142.11,143.42,142.35,140.76,141.28Z"/></g><path class="cls-4" d="M150.78,131.06a2.26,2.26,0,0,1-.62-1.52v-.09l4.23-.3v.1a2.16,2.16,0,0,1-.4,1.58,2.45,2.45,0,0,1-3.22.23Zm-.4-1.42a2,2,0,0,0,.54,1.26,1.91,1.91,0,0,0,1.5.44,1.87,1.87,0,0,0,1.42-.64,2,2,0,0,0,.37-1.33Z"/><path class="cls-4" d="M152.2,131.78a2.2,2.2,0,0,1-1.57-.56,2.45,2.45,0,0,1-.69-1.68v-.3l4.63-.32,0,.29a2.45,2.45,0,0,1-.44,1.76,2.3,2.3,0,0,1-1.73.8Zm-1.58-1.93a1.66,1.66,0,0,0,.46.89,1.53,1.53,0,0,0,1.12.39h.2a1.71,1.71,0,0,0,1.27-.56,1.66,1.66,0,0,0,.32-.95Z"/><path class="cls-19" d="M148.65,124.61a15.55,15.55,0,0,1,4.27,9.16,8.6,8.6,0,0,1-1.58.35s.26,3.75-2.5,5.23-7.07,2.28-9.94-4.85l-.94-3.08,2.42-3.24s6.45-2.12,6.58-2.2S148.65,124.61,148.65,124.61Z"/><path class="cls-4" d="M151,127.73s4.47-5.5-.9-8.28c-3.71-1.92-5.4,1.63-7.71,2.63s-5.2.3-6.67,4,2.25,9,3,10.37a3,3,0,0,1,.35,2.33s2.62-1.83,1.46-4.55.4-3.35.4-3.35,8.86-.64,8.26-5.78A14.32,14.32,0,0,1,151,127.73Z"/><path class="cls-4" d="M147.51,131.28a2.17,2.17,0,0,1-.62-1.51v-.1l4.23-.29v.09a2.17,2.17,0,0,1-.4,1.59,2.09,2.09,0,0,1-1.57.72A2.06,2.06,0,0,1,147.51,131.28Zm-.41-1.41a2,2,0,0,0,.55,1.26,1.9,1.9,0,0,0,1.5.44,1.92,1.92,0,0,0,1.42-.64,2,2,0,0,0,.37-1.33Z"/><path class="cls-4" d="M148.93,132a2.2,2.2,0,0,1-1.57-.56,2.45,2.45,0,0,1-.69-1.68v-.3l4.64-.33,0,.3a2.43,2.43,0,0,1-.45,1.76,2.34,2.34,0,0,1-1.72.8Zm-1.58-1.94a1.7,1.7,0,0,0,.45.9,1.56,1.56,0,0,0,1.13.38h.2a1.67,1.67,0,0,0,1.26-.56,1.63,1.63,0,0,0,.33-.95Z"/><path class="cls-20" d="M147,129.77s-3,.54-5.18.9"/><line class="cls-20" x1="151.87" y1="129.43" x2="150.88" y2="129.5"/><rect class="cls-4" x="150.87" y="129.36" width="1" height="0.21" transform="translate(-8.64 10.85) rotate(-3.99)"/><rect class="cls-4" x="150.65" y="129.14" width="1.44" height="0.65" transform="translate(-8.64 10.84) rotate(-3.99)"/><path class="cls-21" d="M138.39,178c3.34,1,3.48-5.75,3.26-6.83l-.46-.21c-1.38,0-2.39.11-2.39.11A39.22,39.22,0,0,0,138.39,178Z"/><path class="cls-22" d="M139.91,143.87c-1.94.91-1.81,5.58-1.81,5.58s4.7,20.65,5.35,21.08,2.54,3.12,7.85,1.33-1.47-25.93-1.47-25.93l-2.54-1.66-2.1.55-3.48-.55Z"/><path class="cls-23" d="M153.89,154.83c.09-2.9-.32-8.11-.64-8.52a30.15,30.15,0,0,0-5.12-2c4,15.07,2.17,57.11,2.17,57.11,2,.4,5.38-1.14,5.87-2C156.17,199.34,153.8,157.73,153.89,154.83Z"/><path class="cls-23" d="M131.69,146.67c-.26.44,3.45,6.88,3,8.77s-2.66,45.78-2.34,46.23,10.47,1,15.34.13c.67-.13-.13-24-2.52-44.3-.21-1.74-4.9-10.88-6.48-13.63C137.08,144.46,131.94,146.24,131.69,146.67Z"/><path class="cls-23" d="M153.89,154.83c.09-2.9-.32-8.11-.64-8.52a30.15,30.15,0,0,0-5.12-2c4,15.07,2.17,57.11,2.17,57.11,2,.4,5.38-1.14,5.87-2C156.17,199.34,153.8,157.73,153.89,154.83Z"/><path class="cls-23" d="M131.69,146.67c-.26.44,3.45,6.88,3,8.77s-2.66,45.78-2.34,46.23,10.47,1,15.34.13c.67-.13-.13-24-2.52-44.3-.21-1.74-4.9-10.88-6.48-13.63C137.08,144.46,131.94,146.24,131.69,146.67Z"/><path class="cls-24" d="M143.65,146.67a5.3,5.3,0,0,0,2.32,1.48l1.27-1.84-2.05-1.49Z"/><path class="cls-24" d="M145.33,146.59c.39,2.3.5,12.54.63,13.22s2,5.28,2.31,5.19,1.19-4.78,1.21-5.23-3.17-11-3.62-13.18C145.79,146.27,145.33,146.59,145.33,146.59Z"/><path class="cls-18" d="M137.58,144.27c-.18.72-1.1,3.91-.8,4.28s3.1.06,3,.3-1.74,3.07-1.71,3.62,6.62,5.28,7.09,5c-.21-1.74-4.9-10.88-6.48-13.63Z"/><path class="cls-18" d="M151.3,148.36a13.17,13.17,0,0,0-1.82-1.29c-.73-.43,1.41-1.35,1.19-1.79a.76.76,0,0,0-.24-.23c-1.2-.44-2.31-.82-2.3-.78A78.6,78.6,0,0,1,150,157.51h0C150.68,157.77,151.57,148.61,151.3,148.36Z"/><path class="cls-25" d="M140.55,142.41a12.19,12.19,0,0,0-2.44,1.68c-.17.34,5.74,4.08,6,4.06s1.11-3.13,1.07-3.33A24.62,24.62,0,0,0,140.55,142.41Z"/><path class="cls-25" d="M146.32,143.14a5.64,5.64,0,0,0-1.13,1.68,17,17,0,0,0,2,2.92,21.59,21.59,0,0,0,1.45-3.29A12.43,12.43,0,0,0,146.32,143.14Z"/><rect class="cls-26" x="121.16" y="168.96" width="21.02" height="14.13" transform="translate(-14.48 11.82) rotate(-4.87)"/><path class="cls-19" d="M130.46,180.29c.53.25,1.58,1,2.15,3.27.13.49-.84,1.06-1.15.08-.18-.59-.23-1-.39-1s.05.09.13,1.05c.11,1.22-.78,1.28-1.06.27s0-1.48-.17-1.44-.09,1,0,1.55c.13.72-.93,1.3-1.08-.07s-.15-1.14-.15-1.2-.13-.16-.15.85c0,1.43-1,.69-1-.67a6.3,6.3,0,0,1,.46-2.52,5.13,5.13,0,0,1,1.14-1.74Z"/><path class="cls-18" d="M131.69,146.67c-.17.08-5.72,11.1-6.47,15.74-1.11,7,2.59,17.67,2.57,17.85-.05.36,2.17.38,2.67,0,.26-.18,2.35-12.75,2.81-14.95.51-2.44,2.86-9.69,2.64-12.28C135.42,147.2,131.69,146.67,131.69,146.67Z"/><path class="cls-27" d="M151.34,134.54a1.35,1.35,0,0,0-1.91-.41c-1.35.65-1.78,1.9-2.8,1.85a3.16,3.16,0,0,1-1.47-.35s.58,2.63,2.77,2.2a5.9,5.9,0,0,0,3.16-1.52A2.26,2.26,0,0,0,151.34,134.54Z"/><path class="cls-27" d="M150.9,136.16s.29,1.65,1,1.08.62-2.42-.54-2.7S150.9,136.16,150.9,136.16Z"/><path class="cls-4" d="M145.81,136.11a10.32,10.32,0,0,1-3.5-5.56l-1-.08.7,1.31s1.18,5.78.11,8a6,6,0,0,0,5.77,2.74c4.89-.44,3.49-7.52,3.49-7.52l-1.4.43-2.86,1Z"/><path class="cls-28" d="M146.63,136c1,.05,1.45-1.2,2.8-1.85a1.35,1.35,0,0,1,1.91.41c1.16.28,1.24,2.13.54,2.7-.51.42-.8-.37-.92-.81a6.29,6.29,0,0,1-3,1.4c-2.19.43-2.77-2.2-2.77-2.2A3.16,3.16,0,0,0,146.63,136Z"/><path class="cls-4" d="M141.87,130.77c2.17-.35,5.15-.89,5.18-.9l0-.2s-3.09.55-5.26.91Z"/><path class="cls-4" d="M141.75,131l-.33-.61.31,0c2.15-.36,5.22-.91,5.25-.91l.21,0,.12.64-.22,0c-.52.09-3.19.57-5.18.9Z"/><path class="cls-19" d="M141.85,130.67a2.12,2.12,0,0,0-2-.63c-1.25.27-.38,4.61,2.46,3.94Z"/><polygon class="cls-7" points="134.54 172.47 138.91 171.94 139.81 179.8 135.35 179.8 134.54 172.47"/><path class="cls-4" d="M271.66,266.4c-1.34,0-2.69.53-2.69,1.38,0,1.8,5.5,1.11,5.29-.37C274.16,266.69,272.7,266.4,271.66,266.4Z"/><path class="cls-10" d="M211.6,266c-1-.12-2,.08-2.12.57-.18,1.05,3.91,1.13,3.91.25C213.39,266.33,212.36,266,211.6,266Z"/><path class="cls-10" d="M369.07,265.22c-1-.12-2,.07-2.12.57-.18,1,3.91,1.13,3.91.25C370.86,265.6,369.83,265.31,369.07,265.22Z"/><path class="cls-4" d="M293.55,264.06c2.17,0,5.52.72,5,2.84s-8.82,2.48-9.48,0S291.86,264.07,293.55,264.06Z"/><path class="cls-4" d="M328.34,265.16c.9,0,2.3.24,2.09,1.13s-3.63,1.12-3.93.09S327.64,265.19,328.34,265.16Z"/><path class="cls-4" d="M346.5,258.51c1.76-.06,4.5.48,4.09,2.21s-7.11,2.2-7.7.18S345.13,258.56,346.5,258.51Z"/><path class="cls-4" d="M59.67,238c-1.61-.15-3.3.34-3.39,1.36-.19,2.16,6.49,1.94,6.4.15C62.64,238.65,60.92,238.15,59.67,238Z"/><path class="cls-4" d="M49.69,245.07c-.83-.09-1.7.15-1.75.68-.11,1.11,3.33,1,3.3.11C51.22,245.41,50.33,245.14,49.69,245.07Z"/><path class="cls-10" d="M167.64,264.2c-1.29-.2-2.69,0-2.83.65-.3,1.39,5.12,1.7,5.17.53C170,264.81,168.65,264.36,167.64,264.2Z"/><path class="cls-4" d="M156.57,257.69c1.84-.13,4.71.34,4.35,2.16s-7.35,2.54-8,.45S155.14,257.79,156.57,257.69Z"/><path class="cls-26" d="M237.43,138.12s25.34,15.68,30.37,34S259,237.25,259,237.25h-5.79s8.5-30.16,0-47.66-31.61-26.74-31.61-26.74Z"/><path class="cls-29" d="M251.6,182.36c-11.36-13.69-13.07-28.11-12.51-31.33L231.76,147l-10.21,15.9s23.12,9.25,31.61,26.74,0,47.66,0,47.66H259S263,196.05,251.6,182.36Z"/><path class="cls-30" d="M210.42,177.73l-15.41,24,3.62,8.3s18.9,2.27,37.8-.54l2.95-8.58-17.83-25.6Z"/><path class="cls-31" d="M236.43,209.5l2.95-8.58c-16.67,2.12-44.37.82-44.37.82l3.62,8.3S217.53,212.31,236.43,209.5Z"/><path class="cls-32" d="M208.68,210.76,207,203.27c-1,2.06-1.27,5.75-1.33,7.34Q207.08,210.7,208.68,210.76Z"/><path class="cls-32" d="M229.93,203.27a40,40,0,0,1-1.41,7.13l2.57-.23A31,31,0,0,0,229.93,203.27Z"/><path class="cls-32" d="M218.67,203.27l-1.33,7.63c.89,0,1.8,0,2.73-.05Z"/><path class="cls-33" d="M211.6,180l-4.73,20.94s4.33-15.75,7.11-21Z"/><path class="cls-33" d="M221.55,180.31s7.37,12,8.68,20c0,0-7.27-14.81-10.12-19.77Z"/><path class="cls-33" d="M216.42,180.54s1.68,16.43,2,20.38c0,0,.37-16.12-.3-20.21S216.42,180.54,216.42,180.54Z"/><path class="cls-31" d="M210.49,44.22s-23.73,40-25.94,67.76,15.28,69.3,15.28,69.3h32s13.28-38.94,8.45-70.11S217.13,48.24,210.49,44.22Z"/><path class="cls-6" d="M211,89.09c3.69-.27,17.16.64,17.55,12.61.37,11-6.62,16.28-15,16.28-5.11,0-15.32-3.46-15.32-16C198.21,91.57,208.53,89.27,211,89.09Z"/><path class="cls-34" d="M211.77,92.64c2.38-.19,12.9.33,13.21,9.49.28,8.43-5.07,12.46-11.49,12.46-3.9,0-11.72-2.65-11.72-12.22C201.77,94.92,209.66,92.8,211.77,92.64Z"/><path class="cls-7" d="M218.58,97.94c3.28,2.34,3.9,5.58,2.06,6.74s-5.57-.66-7.76-3.53C210.55,98.08,210.88,92.45,218.58,97.94Z"/><path class="cls-26" d="M205,112.47a.72.72,0,0,1,.82.75.82.82,0,1,1-.82-.75Z"/><path class="cls-26" d="M205,92.45a.72.72,0,0,1,.82.75.82.82,0,1,1-1.64.08A.82.82,0,0,1,205,92.45Z"/><path class="cls-26" d="M222,92.45a.72.72,0,0,1,.82.75.82.82,0,1,1-1.64.08A.83.83,0,0,1,222,92.45Z"/><path class="cls-26" d="M222.34,112.47a.72.72,0,0,1,.82.75.82.82,0,1,1-.82-.75Z"/><g class="cls-35"><path class="cls-34" d="M210.29,105.8a1.54,1.54,0,0,1,1.76,1.61,1.77,1.77,0,1,1-3.52.16A1.76,1.76,0,0,1,210.29,105.8Z"/></g><path class="cls-36" d="M232.1,180.1c-25.55-1-25-8.23-35.37-34.66s2.19-67.59,3.07-68.18l.84-1.62-5.57-.51c-5,11.93-9.61,25.43-10.52,36.85-2.21,27.75,15.28,69.3,15.28,69.3h32l.39-1.17Z"/><path class="cls-26" d="M201.85,138.12s4.44,24.39,7.43,32.37c0,0-23.52,14.08-26.74,23.33s1.82,43.43,1.82,43.43h-6.24s-26.74-38.87-13.47-68.4S201.85,138.12,201.85,138.12Z"/><path class="cls-29" d="M201.85,138.12s-.44,0-1.21.13c0,0,6.5,26.37-1.82,34.78s-20.86,13-21,25.83,3.27,32.57-1.25,36c1,1.55,1.55,2.41,1.55,2.41h6.24s-5-34.19-1.82-43.43,26.74-23.33,26.74-23.33C206.29,162.51,201.85,138.12,201.85,138.12Z"/><path class="cls-26" d="M192.19,80.14s22.46-6.23,39.68-2.21c0,0-9.58-27.14-21.38-34.92C210.49,43,196.61,64.91,192.19,80.14Z"/><path class="cls-29" d="M210.49,43s-13.88,21.9-18.3,37.13a112,112,0,0,1,13.71-2.65h0c-2-7.45,8.29-31.35,8.69-31A24.31,24.31,0,0,0,210.49,43Z"/><path class="cls-7" d="M225.25,181.32l-.2-.08c0-.12,4.8-12.49,7.27-31.44,2.29-17.49,3.05-44.32-6.31-72.8l.21-.07a157.89,157.89,0,0,1,7.51,39.61,174.71,174.71,0,0,1-1.19,33.29C230.06,168.81,225.3,181.2,225.25,181.32Z"/><path class="cls-19" d="M173,155.12a4.06,4.06,0,0,1,.81-4.52c2.33-2.48,3.57-.16,2.62,2.4s-2,1.51-2,1.51,1.64,2.72.39,2.65S173,155.12,173,155.12Z"/><path class="cls-19" d="M174.16,154.18s4.16,4.6,4.91,4.18-1-2.19-1-2.19,2,1.93,2.66,1.43-1.59-2.28-1.59-2.28,1.28,1.29,1.65.94c.76-.72-1.36-2.91-1.36-2.91s1.29,2,1.67,1c.46-1.19-4.54-5-5.36-4.8s-1.27,3.79-1.27,3.79Z"/><polygon class="cls-4" points="236.13 165.73 237.21 166.57 238.09 165.1 236.8 162.82 236.13 165.73"/><path class="cls-37" d="M153.35,106.13c1.14,3.21,5.1,5.84,5.1,5.84l-2.19,5.18,10.26,2.22-1.63-7.81c2.8-1.13,6-4.55,6-4.55l4.31,6.33,6.15-9.77-8-1.17c.22-3.66-2.82-7.32-2.82-7.32l6.9-3.37-8.73-7.6L165.51,92a16.13,16.13,0,0,0-4.81.1l-1.37-7.46-7.59,4,3.69,5.68c-3.11,2.26-3.49,6.42-3.49,6.42l-6.54.74,3,9.43Zm8.63-6.5a2.57,2.57,0,0,1,3.63,1.21,3,3,0,0,1-.39,3.28A2.81,2.81,0,1,1,162,99.63Z"/><path class="cls-22" d="M147.43,84.35c5.37-.43,9.21-5.1,9.21-5.1l7,5.44L171.2,70l-12.58-.69c-.58-4.74-4.5-11-4.5-11l11.4-4-12.4-13.35L148.07,52.7C142.59,50.88,135.76,54,135.76,54l-2.33-11.88L118.29,52.38l10.67,8c-1.31,2.49-1.78,7.37-1.78,7.37l-11.94-.94,3,13.21,10.17-3.32c2.19,5.65,8.37,7.91,8.37,7.91l-1.52,10.29,15.62-.8Zm-12.84-13a7.55,7.55,0,0,1,6.18-9.41c4.36-.5,7.5,1.07,9,3.6,2.2,3.67,1.67,10.14-4.08,12C139.48,79.46,135.66,76,134.59,71.34Z"/><path class="cls-7" d="M131.28,65.42c2.23-5.82,10-7.06,10.33-7.11.07,0,8.41-1.59,11.54,7.59a12.16,12.16,0,0,1,.19,8.37A11.79,11.79,0,0,1,145.21,81a11.66,11.66,0,0,1-9.16-1.75,12.44,12.44,0,0,1-5.28-9.35A9.52,9.52,0,0,1,131.28,65.42ZM152.56,74a11.32,11.32,0,0,0-.21-7.8c-2.89-8.49-10.51-7.05-10.59-7s-7.64,1.22-9.7,6.58a8.65,8.65,0,0,0-.46,4.1,11.66,11.66,0,0,0,4.92,8.75A10.82,10.82,0,0,0,145,80.2C146.34,79.83,150.89,78.3,152.56,74Z"/><path class="cls-3" d="M118.07,259l-1.88-5s10.07-2.14,13.55-2.66c0,0,21.36,13.45,24.19,14.6,0,0-14.56,3.35-18.45,3.63Z"/><path class="cls-6" d="M128.46,255.59s-15.37,2.13-17,3.35c0,0-2.73,15.91,15.89,14.2s19.48-2.69,19.48-2.69S133.64,264.58,128.46,255.59Z"/><path class="cls-7" d="M120.61,268.87h-.14l.09-.58c.47.07,5.88-.65,9.83-1.17,2.85-.38,5.32-.7,5.83-.73l0,.59c-.49,0-2.94.35-5.78.72C125.29,268.38,121.49,268.87,120.61,268.87Z"/><path class="cls-7" d="M123.58,271.28h-.14l.09-.58c.48.07,5.88-.65,9.83-1.17,2.85-.38,5.32-.71,5.83-.73l0,.59c-.49,0-2.94.35-5.78.72C128.26,270.78,124.46,271.28,123.58,271.28Z"/><path class="cls-7" d="M118.41,266.75h-.14l.09-.58c.47.06,5.88-.65,9.82-1.17,2.86-.38,5.32-.71,5.83-.73l0,.59c-.48,0-2.94.35-5.78.72C123.08,266.26,119.28,266.75,118.41,266.75Z"/><path class="cls-7" d="M115.35,265h-.13l.08-.59c.48.07,5.88-.65,9.83-1.17,2.85-.38,5.32-.7,5.83-.73l0,.59c-.49,0-2.94.35-5.78.73C120,264.46,116.23,265,115.35,265Z"/><path class="cls-7" d="M113.51,262.56h-.14l.09-.59c.47.07,5.88-.65,9.83-1.17,2.85-.38,5.31-.7,5.82-.73l0,.59c-.48,0-2.94.35-5.78.73C118.18,262.07,114.38,262.56,113.51,262.56Z"/><path class="cls-38" d="M112.62,267.1c3.33,1.48,8.21-2.65,8.12-2.34a13.68,13.68,0,0,0,5.83,8.44C118.15,273.77,114.32,270.6,112.62,267.1Z"/><path class="cls-3" d="M83.26,250.38l2-2.79s13.47-.36,15.77.58c0,0,1.38,10.62-3.35,14.42s-8.9,3.72-24.06,3.36l4.22-7.14Z"/><path class="cls-6" d="M92.77,249.56S87.53,261.1,82,262.66s-17.55.64-19.67-2a5.66,5.66,0,0,1-.48-6.3,11.71,11.71,0,0,0,4,2s11.66-6.62,12.74-7.59C78.57,248.81,90,250.36,92.77,249.56Z"/><path class="cls-38" d="M95.4,259.21a7.13,7.13,0,0,1-2.74,6,13.59,13.59,0,0,0,5-2.64,10,10,0,0,0,3.06-5.82C99.13,259.77,95.4,259.21,95.4,259.21Z"/><path class="cls-7" d="M80.06,259.87c-4.06,0-10.28-.24-14.52-1.53l.14-.47c6.65,2,18.3,1.42,18.41,1.42l0,.49S82.44,259.87,80.06,259.87Z"/><path class="cls-7" d="M85.4,258c-.1,0-9.72-.09-16.25-1.62l.12-.49c6.47,1.53,16,1.62,16.13,1.62Z"/><path class="cls-7" d="M86.68,256.36c-.11,0-10.88-1.11-15.3-1.42l0-.49c4.43.3,15.21,1.41,15.32,1.42Z"/><path class="cls-7" d="M88,254.94c-.11,0-11.06-1-14-1.11l0-.5c3,.14,13.92,1.11,14,1.12Z"/><path class="cls-7" d="M88.78,253.82c-.1,0-10.51-1.28-13.12-1.3V252c2.64,0,12.76,1.25,13.19,1.3Z"/><path class="cls-7" d="M89.46,252.52c-.1,0-9.61-1.06-11.87-1V251c2.29-.05,11.54,1,11.93,1Z"/><path class="cls-38" d="M62.33,260.66c2.12,2.64,14.13,3.55,19.67,2a7.17,7.17,0,0,0,2.11-1.05c-3,.1-.91-5.35-.91-5.35-8.38,2-14,1.23-17.35.13h0a9.5,9.5,0,0,1-3-1.36,6,6,0,0,1-1-.68A5.66,5.66,0,0,0,62.33,260.66Z"/><polygon class="cls-10" points="262.21 169.71 312.83 166.9 325.31 236.91 267.59 246.15 262.21 169.71"/><polygon class="cls-7" points="267.31 176.44 274.89 237.37 320.36 230.79 310.08 173.69 267.31 176.44"/><path class="cls-31" d="M309.47,173.75a24.35,24.35,0,0,1-5.2.65l-4.87.49q-5.06.51-10.11,1c-6.71.58-13.43,1-20.17,1.19l.41.3a5.44,5.44,0,0,1,2.17-5.68c1.44-.95,3.31-.95,5-1.24a4.9,4.9,0,0,0,2.9-1.32,14,14,0,0,1,3.13-2.49c3.62-2,8.38-1.11,11.71,1.09,2.1,1.39,4.08,1,6.47,1a10.21,10.21,0,0,1,4.36.87,8.48,8.48,0,0,1,3.94,4.72c.2.49,1,.28.82-.23-1.28-3.21-3.58-5.52-7.07-6-2.52-.37-5.54.62-7.78-.81-3.43-2.19-8-3.45-11.9-1.77a12.54,12.54,0,0,0-3.82,2.63,7.51,7.51,0,0,1-.94.93,6.7,6.7,0,0,1-2.83.76c-2.12.32-4.16.59-5.64,2.31a6.47,6.47,0,0,0-1.29,5.53.43.43,0,0,0,.4.31c6.9-.15,13.78-.63,20.64-1.23,3.45-.31,6.89-.64,10.34-1l4.86-.49a22,22,0,0,0,4.73-.61C310.2,174.38,310,173.57,309.47,173.75Z"/><path class="cls-12" d="M294.64,162.7a26,26,0,0,0-4.18-.64c-1.25,0-4.68,3.4-4.39,3.75s2.16.26,3.79-.83l3.21.18,2.22-1.49C295.5,163.53,294.64,162.7,294.64,162.7Z"/><path class="cls-12" d="M295,162.7a30.63,30.63,0,0,0-3.14,1.77c-.57.47-2.93,1-2.67,1.52s2.72.24,3.41,0,2.29.6,3.07-1.31Z"/><path class="cls-39" d="M321,139.94s-8.43,13.6-12.15,15.47c-5.66,2.85-14.5,6.78-14.5,6.78s.64,3.36,1.5,2.93c0,0,14.08-2.27,17.86-4.77,5-3.3,11.59-12,11.59-12Z"/><path class="cls-12" d="M322.52,202.2s6,18.11,4,26c0,0-2.46,4.9-2.66,8.27l-2.61.8a1,1,0,0,0,0,.83c.2.37,4.71,1.26,7.64.1l3.16-4.47-1.57-3a7.76,7.76,0,0,0-1.15-1.89,28,28,0,0,1,2-10.58,25.12,25.12,0,0,0,2.06-9.64l-1.79-2.51L328.08,200l-3.21,0Z"/><g class="cls-8"><path class="cls-12" d="M322.52,202.2s6,18.11,4,26c0,0-2.46,4.9-2.66,8.27l-2.61.8a1,1,0,0,0,0,.83c.2.37,4.71,1.26,7.64.1l3.16-4.47-1.57-3a7.76,7.76,0,0,0-1.15-1.89,28,28,0,0,1,2-10.58,25.12,25.12,0,0,0,2.06-9.64l-1.79-2.51L328.08,200l-3.21,0Z"/></g><path class="cls-13" d="M327.09,236c.26-4,1.45-6.19,2.22-7.22h0a7.76,7.76,0,0,1,1.15,1.89l.87,1.68-.13,2.53-2.33,3.29c-2.93,1.16-7.44.27-7.64-.1a1,1,0,0,1,0-.83l2.61-.8A4.77,4.77,0,0,0,327.09,236Z"/><path class="cls-12" d="M336.11,198.75l.27,3a34.54,34.54,0,0,1,1.07,9C337.24,215,333.3,225.63,333,230a14.83,14.83,0,0,1,.57,8.22,5.76,5.76,0,0,1-4.73-.07s-.58-3.38,2-8.28a228.73,228.73,0,0,0-2.62-29c-2.31-13.55,1.16-5,1.16-5Z"/><path class="cls-13" d="M334,236.09a11.14,11.14,0,0,1-.35,2.17,5.76,5.76,0,0,1-4.73-.07,8.51,8.51,0,0,1,0-2.07A18.81,18.81,0,0,0,334,236.09Z"/><path class="cls-40" d="M321,163.67s-7.31,14.71,1.54,38.53c0,0,9.55,3,13.86-.43,0,0,2.48-19,3.71-23l-1.32-1.81s-2.28-8.35-7.51-11.51-3.53,0-3.53,0Z"/><path class="cls-12" d="M329,134.44s1.84,2.84,2.57,3.88,2.33,3.4,2.33,3.4-3.06,5.94-3.43,6.06-6.67,1.9-7.41,1.66a28.56,28.56,0,0,1-3.55-2.51l2.5-7.15s2.89,0,3.19-1.3a22.43,22.43,0,0,0,.25-4Z"/><g class="cls-8"><path class="cls-12" d="M325.28,138.11a25.52,25.52,0,0,0,.18-3.67H329l.63,1A7.3,7.3,0,0,1,325.28,138.11Z"/></g><path class="cls-12" d="M320.88,120.53s-5.79,5.11-3.78,12.19l2.1-.2s1.31,10.08,10.34,1.27S330.63,123,330.63,123a19.54,19.54,0,0,0-2.7-2.39C327.35,120.43,320.88,120.53,320.88,120.53Z"/><path class="cls-4" d="M317.8,115.49c-2.75-.5-8.08,5.85.83,10s10.08.15,10.08.15-3.32,12.64,3.6,15.31c3.05,1.17,4.43,6.28,7.44,8,3.72,2.16,14-1.12,11.21-10s-11-6.47-13.51-10.3c-3.8-5.72-.78-9.2-3.42-11.8C330.33,113.19,327.05,117.18,317.8,115.49Z"/><path class="cls-12" d="M326.41,127.9s.24-3.1,2-2.17.78,5-1.36,4.69S326.41,127.9,326.41,127.9Z"/><path class="cls-22" d="M324.73,139.12c-.61.2-3.48.61-3.75.82a20.41,20.41,0,0,0-1,4.23c-.14,1-1.71,2.93-1.85,3.54a4.74,4.74,0,0,0,2.32,4.64c1.53.76-.11,13.73-.11,13.73s7.32.48,10.46,0,2.14-6.49,2.34-6.56.62-8.05,1.37-8.6,3.75,7,3.82,7.3,1.8,16.74,1.73,17.09,2.85.66,3-.79c0-.48-.95-16.84-.88-17.39s-5.94-15.9-6.75-16.24a50.12,50.12,0,0,0-5.53-1.77c-.27.06-1.8,1.94-3.85,1.33S324.73,139.12,324.73,139.12Z"/><path class="cls-23" d="M331.73,139.61c-.52.64-4.78,8.82-5,12.47s2.87,45.57,2.83,46.54,10,.48,11.8.47c1.28,0-.86-18.46-2.4-25.73s-4.15-21.6-4.15-21.6L333.25,142Z"/><path class="cls-23" d="M319,151c.76.84,1.28,4.78-.37,14.64s-3.47,30.13-2.18,33c.33.73,7.61.2,7.61.2s1.5-25-.42-39.18c-.53-3.92-2.22-11.05.17-20.39,0,0-2.57.22-2.82.61a36.51,36.51,0,0,0-2.83,7.91A4.62,4.62,0,0,0,319,151Z"/><rect class="cls-26" x="328.18" y="166.54" width="21.17" height="13.81" transform="translate(-23.25 56.02) rotate(-9.14)"/><path class="cls-12" d="M340.65,176s-3.37,2.89-2.58,3.58,2.58-1.39,2.58-1.39-1.82,2.64-.73,2.92a6.13,6.13,0,0,0,3.65-.27c.65-.42-.19-6-.52-6A16.92,16.92,0,0,0,340.65,176Z"/><path class="cls-23" d="M331.73,139.61a30.29,30.29,0,0,1,3.84,1.12c.33.2,8,6.88,9.22,16.63.91,7.59-1.24,17.38-1.31,17.71-.13.53-3.25,1.88-3.37.24s-2.63-15.59-2.63-15.59-2.23-8.94-2.49-8.59.05,2.08.05,2.08Z"/><path class="cls-41" d="M325.31,138c.05-.34-1.29,1.09-1.26,1.37s.3,2.68.86,2.52,1.16-1.4,1.16-1.4A3.42,3.42,0,0,1,325.31,138Z"/><path class="cls-41" d="M328.83,137.4c-.3,1.26-2.76,3-2.76,3s-.05,1.35.24,1.58,4.49-2.06,4.53-2.7S328.83,137.4,328.83,137.4Z"/><path class="cls-4" d="M128.94,256.13c-4.43,0-8.35-.67-9.14-2.07-.24-.41-.32-1.08.58-1.94,2-1.94,6.64-3.43,13-4.25-2.11,0-4.39.09-6.63.18-3,.12-6,.24-8.56.15s-4.32-.92-5.19-2.45c-1.86-3.23.85-8.39,1-8.61l.39.21c0,.05-2.71,5.17-1,8.18.8,1.39,2.42,2.13,4.83,2.23s5.57,0,8.52-.15c3.46-.14,7-.28,9.94-.09l1.42-.11A90.85,90.85,0,0,1,161,248.6l2.69.57c13,2.81,37.24,8.05,69.2-.57,9.46-2.55,15.25-10.08,17.19-22.37,2.22-14-1.17-29.93-3.38-38.21-3.3-12.3-7.52-21.13-9.71-22.56l.24-.37c2.62,1.71,6.87,11.52,9.9,22.82,2.22,8.31,5.62,24.34,3.39,38.39-2,12.48-7.87,20.12-17.52,22.73a134.84,134.84,0,0,1-35.26,4.75,153.3,153.3,0,0,1-34.14-4.18l-2.69-.57a88.2,88.2,0,0,0-21.74-1.23,7.42,7.42,0,0,1,3.86,1.53,2.71,2.71,0,0,1,.87,2c0,1.49-1.71,2.75-5,3.63A41.53,41.53,0,0,1,128.94,256.13Zm7.85-8.16c-7.35.63-13.67,2.13-16.1,4.46-.85.81-.59,1.26-.51,1.41,1.17,2.08,12,2.49,18.61.71,3-.81,4.68-2,4.67-3.2a2.29,2.29,0,0,0-.74-1.7C141.64,248.62,139.49,248.15,136.79,248Z"/><path class="cls-3" d="M362.64,226.76c12,6.9,10.72,21.56-4.9,27.19s-26.65-5.67-23.27-13.22S348.11,218.41,362.64,226.76Z"/><path class="cls-38" d="M335.85,238c-.11,4.25.72,8.09,4.07,8.14,7.52.12,5.47-3.31,14.3-2.48s15.57-5.88,15.95-8c2,6.82-2,14.6-12.43,18.36-15.63,5.63-26.65-5.67-23.27-13.22C334.85,239.89,335.31,239,335.85,238Z"/><path class="cls-3" d="M369.75,252c-2.08-2.62-3.66-5.58-7.19-6s-10.82,0-12.1,1.37-6.14,6.19-1.54,8.53S375.44,259.17,369.75,252Z"/><path class="cls-38" d="M354,251c3.65,1.12,5.27,2,8.61,2.52s5.58-2.77,5.63-3.51c.49.65,1,1.32,1.5,2,5.69,7.19-16.23,6.21-20.83,3.87-2.69-1.37-2.14-3.6-1-5.49h0C349.11,250,350.37,249.88,354,251Z"/><path class="cls-3" d="M326,250.74c-4.72,2.71-4.21,8.47,1.93,10.68s10.47-2.23,9.14-5.19S331.66,247.45,326,250.74Z"/><path class="cls-38" d="M336.48,255.15c0,1.66-.28,3.17-1.6,3.19-3,.05-2.15-1.3-5.62-1s-6.12-2.31-6.27-3.16c-.8,2.67.79,5.73,4.89,7.21,6.14,2.21,10.47-2.23,9.14-5.19C336.87,255.9,336.69,255.53,336.48,255.15Z"/><path class="cls-31" d="M285.25,224.63c-2-.49-3.27,2.12-3,3.79.28,1.87,3.22,2.64,4.81,2.3,2-.44,2.56-3.12,1.42-4.61a4.66,4.66,0,0,0-5.45-1.35c-.35.14-.2.73.16.58a4.17,4.17,0,0,1,3.34,0c1.53.68,2.54,2.31,1.55,3.9-.84,1.34-2.57.92-3.82.47a2,2,0,0,1-1.29-2.56c.26-.92.94-2.24,2.13-1.94a.31.31,0,0,0,.16-.59Z"/><path class="cls-31" d="M285.78,224.53c-.53-2.48-1-5-1.42-7.5-.17-1.09-.34-2.2-.49-3.3a8.86,8.86,0,0,1-.29-2.28c.26-.39,1.14-.35,1.57-.42,5-.78,10-1.35,15.05-1.71,1.21-.08,2.42-.16,3.62-.22.67,0,1.87.16,2.45-.23s.27-1.07.19-1.62q-.22-1.71-.48-3.42c-.75-4.92-1.71-9.81-2.84-14.65a.31.31,0,0,0-.59,0c-.33,1.18-.66,2.36-1,3.55a.31.31,0,0,0,.59.16c.31-1.19.63-2.37,1-3.55h-.59q1.71,7.26,2.84,14.65c.1.64.19,1.27.28,1.91.06.43.53,2,.31,2.3s-1.29.25-1.67.27l-1.94.1q-3.74.23-7.47.6c-2.35.24-4.7.53-7,.85-1.11.16-2.23.33-3.34.51-.5.08-1.2,0-1.5.51s.17,2.17.27,2.85c.15,1.1.31,2.21.49,3.31q.62,3.77,1.42,7.5c.08.38.67.22.58-.17Z"/><path class="cls-31" d="M302.79,189.35l3.67,3.6c.28.27.71-.15.43-.43l-3.67-3.6c-.28-.27-.71.15-.43.43Z"/><path class="cls-31" d="M289.59,200.09c-.59,1.77-.27,3.32,1.65,3.94a3,3,0,0,0,3.9-1.79,2.77,2.77,0,0,0-1.82-3.63c-1.23-.31-3.68.15-3.82,1.7,0,.39.57.39.61,0,.1-1.18,2.5-1.31,3.28-1a2.22,2.22,0,0,1,1,3.14,2.43,2.43,0,0,1-3,1c-1.6-.51-1.68-1.82-1.22-3.2.12-.37-.46-.53-.59-.16Z"/><path class="cls-31" d="M294.1,218.64a24.61,24.61,0,0,0,5.58,2.52c.37.11.53-.47.16-.59a24.19,24.19,0,0,1-5.44-2.45c-.33-.21-.64.32-.3.52Z"/><path class="cls-31" d="M297.89,216.3q-1.36,3.44-2.56,6.95c-.12.37.46.53.59.16.79-2.34,1.65-4.65,2.56-6.95.14-.36-.45-.52-.59-.16Z"/><path class="cls-31" d="M277.88,190.09a19.06,19.06,0,0,0,7.24,4.4c.37.12.53-.46.16-.59a18.31,18.31,0,0,1-7-4.24.3.3,0,0,0-.42.43Z"/><path class="cls-31" d="M283.38,188.9a9.56,9.56,0,0,0-2.3,2.93c-.93,1.49-1.86,3-2.76,4.49a.31.31,0,0,0,.53.31c.74-1.25,1.5-2.49,2.26-3.72a11.78,11.78,0,0,1,2.58-3.49c.31-.22,0-.75-.31-.52Z"/><path class="cls-31" d="M297.19,182.05l.63,3.23c.11.56.08,1.73.49,2.16s.68.25,1.14.19l3-.42,1.39-.2a6.27,6.27,0,0,0,1.85-.25c.28-.16.41-.14.47-.54.1-.66-.52-1.77-.67-2.44a19.87,19.87,0,0,1-.44-3.44.33.33,0,0,0-.39-.3q-3.68.71-7.39,1.13c-.38.05-.39.65,0,.61,2.53-.29,5.05-.68,7.55-1.15l-.38-.29a21,21,0,0,0,.57,4c.08.34.65,1.53.52,1.8a10.81,10.81,0,0,1-2.55.36l-2.21.3c-.36,0-.73.12-1.09.15s-.74.15-1-.24a8.24,8.24,0,0,1-.45-2.31c-.16-.85-.33-1.7-.5-2.54-.07-.39-.65-.22-.58.16Z"/><path class="cls-26" d="M298.26,182.94a12.81,12.81,0,0,1,3.58,2.32.3.3,0,0,0,.47-.06q1.63-3.69,3.25-7.38c.16-.35-.36-.66-.52-.3l-3.25,7.38.48-.06a13,13,0,0,0-3.7-2.42c-.36-.15-.66.37-.31.52Z"/><path class="cls-4" d="M271.13,199.12c2.61,2,6.52,4.4,7.24,7.89.29,1.36-.4,3.25-2.07,2.78a10.61,10.61,0,0,1-2.56-1.34c-1.58-1-3.06-2.13-4.54-3.24s-3.25-2.39-4.78-3.68c-.88-.75-2.2-1.6-2.16-2.9a3,3,0,0,1,.57-1.35,1.6,1.6,0,0,1,2.38-.21,74.24,74.24,0,0,1,9.26,7.41,3.58,3.58,0,0,1,1.15,1.86c.06,1.19-1.74.09-2.27-.22a36.26,36.26,0,0,1-4.91-3.84c-.38-.31-.92.23-.54.54,1.94,1.6,3.77,3.48,6.11,4.49,1,.43,2.54.68,2.4-.87-.16-1.87-2.22-3.25-3.5-4.33-2.18-1.85-4.45-3.57-6.75-5.28-.84-.62-1.64-1.37-2.74-1a3,3,0,0,0-1.64,1.83,2.29,2.29,0,0,0,0,2.43,17.39,17.39,0,0,0,3.33,3c2.18,1.71,4.4,3.39,6.66,5a23.4,23.4,0,0,0,3.42,2.07c.73.35,1.58.89,2.38.52,2.44-1.13,1.67-4.26.59-6-1.58-2.53-4.17-4.28-6.49-6.07-.38-.3-.92.24-.54.54Z"/><path class="cls-4" d="M142.77,74.89h0a5.31,5.31,0,0,1,0-10.61,5.24,5.24,0,0,1,3.9,1.62A5.33,5.33,0,0,1,148,70,5.06,5.06,0,0,1,142.77,74.89Zm0-9.33a3.91,3.91,0,0,0-2.72,1.13,4,4,0,0,0-1.1,2.89,3.84,3.84,0,0,0,3.81,4v0a3.81,3.81,0,0,0,4-3.73,4,4,0,0,0-1-3.12A3.9,3.9,0,0,0,142.77,65.56Z"/><path class="cls-4" d="M143.32,66.73v-7a.64.64,0,0,0-1.28,0v7a.64.64,0,0,0,1.28,0Z"/><path class="cls-4" d="M145.48,70c2.64-.23,5.29-.35,7.94-.34a.64.64,0,0,0,0-1.28c-2.65,0-5.3.11-7.94.35-.81.07-.82,1.34,0,1.27Z"/><path class="cls-4" d="M142.24,72.91a23.85,23.85,0,0,0-.42,9.33c.13.81,1.35.47,1.23-.34a21.93,21.93,0,0,1,.42-8.65c.19-.8-1-1.14-1.23-.34Z"/><path class="cls-4" d="M139.81,69.16a45.12,45.12,0,0,0-7.44.19c-.8.09-.81,1.37,0,1.28a45.13,45.13,0,0,1,7.44-.2c.82,0,.82-1.23,0-1.27Z"/><path class="cls-7" d="M333.81,91.93s2.75-2.52,3.45-4,1.09-3.55,1.92-3.33,1.77,2,1.34,3.36-1.81,3-1.11,3.15,6.7-.44,7.15,0,.72,1.86-.25,2.12c0,0,1.24,1.7-.27,2.66a1.65,1.65,0,0,1-.55,2.34s.89,1.83-2.8,2.12-8.9.17-8.9.17Z"/><path class="cls-4" d="M336.06,101c-1.34,0-2.27,0-2.28,0h-.44l0-9.21.14-.13s2.7-2.48,3.35-3.89c.2-.42.37-.88.54-1.33.44-1.22.83-2.27,1.66-2.27a.85.85,0,0,1,.23,0,2.3,2.3,0,0,1,1.28,1.19,3.56,3.56,0,0,1,.37,2.74,10.82,10.82,0,0,1-.77,1.66,8.74,8.74,0,0,0-.46.92h0c.4,0,1.1,0,1.91-.07,1.11,0,2.36-.11,3.35-.11,1.33,0,1.69.11,1.9.32a2.22,2.22,0,0,1,.48,1.91,1.34,1.34,0,0,1-.44.7A2.59,2.59,0,0,1,347.2,95a1.83,1.83,0,0,1-.61,1,2.37,2.37,0,0,1,.12,1.34,1.91,1.91,0,0,1-.7,1,1.7,1.7,0,0,1-.19,1.06c-.43.74-1.47,1.18-3.09,1.31C340.58,101,337.91,101,336.06,101Zm-1.83-.9c1.33,0,5.4.07,8.43-.17,1.72-.13,2.24-.61,2.4-.87a.77.77,0,0,0,0-.62l-.18-.36.35-.21a1.11,1.11,0,0,0,.58-.68,1.61,1.61,0,0,0-.19-1l-.22-.36.36-.24a1.06,1.06,0,0,0,.53-.7,2.11,2.11,0,0,0-.37-1.33l-.38-.51.62-.17a.41.41,0,0,0,.3-.32,1.36,1.36,0,0,0-.22-1,6.52,6.52,0,0,0-1.3-.09c-1,0-2.21.06-3.31.11-.82,0-1.53.08-1.95.07a1.85,1.85,0,0,1-.38,0,.65.65,0,0,1-.5-.34c-.21-.44.09-1,.55-1.86a10.2,10.2,0,0,0,.71-1.51,2.77,2.77,0,0,0-.3-2,1.57,1.57,0,0,0-.73-.77c-.24,0-.63,1.12-.85,1.69s-.35,1-.56,1.41a18.58,18.58,0,0,1-3.41,4Z"/><path class="cls-26" d="M328.69,103.08l5.67-.78,0-12.36s-5,.35-5.67.37C328.73,90.31,328.14,100.59,328.69,103.08Z"/><path class="cls-10" d="M318.42,239.17l.69,10.26s-53.44,2.47-60.55,3.71l-14.38-4.42,12.27-7.07S315.05,239.7,318.42,239.17Z"/><path class="cls-22" d="M318.42,239.17c-3.26.51-58.79,2.4-61.81,2.47l5.7,4.22-5.52,2.78,3.74,2.11-2,2.39c7.11-1.24,60.55-3.71,60.55-3.71Z"/><polygon class="cls-37" points="244.18 248.72 250.56 250.68 249.84 245.46 244.18 248.72"/><rect class="cls-7" x="262.26" y="244.08" width="56.43" height="0.25" transform="translate(-14 17.69) rotate(-3.41)"/><rect class="cls-7" x="260.44" y="248.29" width="58.51" height="0.25" transform="translate(-19.07 24.14) rotate(-4.62)"/><rect class="cls-4" x="331.05" y="171.5" width="0.25" height="6.57" transform="translate(-24.95 59.01) rotate(-9.81)"/><rect class="cls-4" x="332.25" y="171.48" width="0.25" height="6.6" transform="translate(-27.6 67.81) rotate(-11.19)"/><rect class="cls-4" x="333.33" y="171.25" width="0.25" height="6.45" transform="translate(-20.9 47.72) rotate(-7.94)"/><path class="cls-4" d="M283.42,75.5a23.66,23.66,0,0,1,3.9-8.1c.48-.64-.6-1.26-1.07-.63a24.82,24.82,0,0,0-4,8.4.62.62,0,0,0,1.2.33Z"/><path class="cls-4" d="M287.75,81.05a79.92,79.92,0,0,0,12.73-5.18c.71-.37.08-1.44-.63-1.08a78.08,78.08,0,0,1-12.43,5.07c-.76.23-.43,1.43.33,1.19Z"/><path class="cls-4" d="M289.29,89.28l10.08.79c.8.06.8-1.18,0-1.24L289.29,88c-.8-.06-.79,1.18,0,1.24Z"/></g></g></svg>