<svg xmlns="http://www.w3.org/2000/svg" viewBox="0 0 441 260"><defs><style>.cls-1{isolation:isolate;}.cls-2{fill:#29495c;}.cls-3{fill:#fd643b;}.cls-4{fill:#e5e5e6;}.cls-5{fill:#fff;}.cls-6{mix-blend-mode:multiply;}.cls-7{fill:#eff0f0;}.cls-8{fill:#fdd63b;}.cls-9{fill:#77ccfd;}.cls-10{fill:#fda93b;}.cls-11{fill:#ced1d2;}.cls-12{fill:#195578;}.cls-13{fill:#babcbe;}.cls-14{fill:#fdcb87;}.cls-15{fill:#1f3340;}.cls-16{fill:#518fb6;}.cls-17{fill:#6c7173;}.cls-18{fill:#154965;}.cls-19{fill:#845413;}.cls-20{fill:#14262e;}.cls-21{fill:#d95632;}.cls-22{fill:#f4d39e;}.cls-23{fill:#4ba7de;}.cls-24{fill:#15425e;}.cls-25{fill:#d15430;}.cls-26{fill:#21709a;}.cls-27{fill:#fd653b;}.cls-28{fill:#919395;}.cls-29{fill:#a5a7aa;}</style></defs><g class="cls-1"><g id="Layer_1" data-name="Layer 1"><path class="cls-2" d="M345.74,112.57l-.79-.11c.92-6.79,4.42-9.52,7.69-10.55-1.48-5.12-.45-11.28-.39-11.62l.78.14c0,.08-1,6.27.39,11.26a13.65,13.65,0,0,1,4.07-.33c4.55.3,9,2.72,9,4.89,0,1-.81,2.18-4.68,2.46a8,8,0,0,1-6.92-2.46,10.34,10.34,0,0,1-2-3.57C349.84,103.65,346.6,106.22,345.74,112.57Zm7.92-10.11a9.35,9.35,0,0,0,1.85,3.26,7.26,7.26,0,0,0,6.27,2.2c2.47-.18,4-.8,4-1.67,0-1.4-3.57-3.79-8.29-4.1A13,13,0,0,0,353.66,102.46Z"/><path class="cls-3" d="M347.3,78.21c1.55,2.17,9.31,2.63,11.6.56s-.16-4.73,3.67-10.94,7.79-5.06,8.09-17.63C371,38.43,360.76,34,352.45,34c-5.55,0-17.59,4-17.69,18-.05,7.7,6.41,11.36,10.22,16.07C348.64,72.59,345.55,75.75,347.3,78.21Z"/><path class="cls-4" d="M346.78,79.63c0,.19,7.87,2.35,12.87.33,0,0,1.24,10.94-3.18,12s-8.7.12-9.13-2S346.78,79.63,346.78,79.63Z"/><path class="cls-5" d="M360.35,53.41c-1.26.45-2.58,3.88-3.52,7.06a3.88,3.88,0,0,1-3.09-1.73c3.74-4,4.16-10.93,3.14-14.08-.57-1.74-1.43-1.91-1.89-1.85-2.35.28-3.92,5.76-3.75,10.46a12.36,12.36,0,0,0,1.22,5.32,7.82,7.82,0,0,1-1.37,1,1.92,1.92,0,0,1-.29.14c-.46-4.83-1.31-9-2.82-10.38a1.94,1.94,0,0,0-1.61-.57,2.2,2.2,0,0,0-1.87,1.75c-.74,2.63,1.09,7.6,3.5,9.49a3.64,3.64,0,0,0,1.88.83,176.56,176.56,0,0,1,.31,18.9l.5.11.5,0a181.94,181.94,0,0,0-.3-19.12,2.74,2.74,0,0,0,.69-.29,8.74,8.74,0,0,0,1.42-1,4.83,4.83,0,0,0,3.54,2c-.21.8-.4,1.55-.56,2.21-.69,3-2.17,10.48-1.14,16.39.34,0,.68-.06,1-.11-.71-4-.31-9.88,1.13-16.05.2-.89.42-1.73.64-2.51,1.77-.51,3-2.85,3.37-3.64.67-1.43,1.21-3.37.52-4.13A1,1,0,0,0,360.35,53.41Zm-11.73,5.78c-2.11-1.66-3.79-6.15-3.15-8.43.27-.93.83-1,1-1h.12a1.07,1.07,0,0,1,.69.32c1.29,1.19,2.06,5.05,2.49,9.72A2.91,2.91,0,0,1,348.62,59.19Zm4.6-1.36a12.25,12.25,0,0,1-1-4.6c-.17-4.65,1.47-9.25,2.86-9.42h0c.2,0,.52.36.79,1.17C356.86,47.85,356.51,54.16,353.22,57.83Zm6.64-.1A6.81,6.81,0,0,1,358,60.08c1.09-3.51,2.18-5.54,2.71-5.73l.07,0A5.78,5.78,0,0,1,359.86,57.73Z"/><path class="cls-2" d="M354.65,85.67a22.34,22.34,0,0,1-9.51-2,.51.51,0,0,1-.22-.68.5.5,0,0,1,.68-.22h0c.06,0,6,3,14.59,1.32a.51.51,0,0,1,.59.4.5.5,0,0,1-.4.59A28.78,28.78,0,0,1,354.65,85.67Z"/><path class="cls-2" d="M355.17,89.31A33.74,33.74,0,0,1,346,88.12a.5.5,0,1,1,.3-1A37.61,37.61,0,0,0,360.2,88a.5.5,0,0,1,.56.44.51.51,0,0,1-.44.56A41.19,41.19,0,0,1,355.17,89.31Z"/><g class="cls-6"><ellipse class="cls-7" cx="217.67" cy="203.79" rx="177.78" ry="18.84"/></g><path class="cls-8" d="M300.94,127.13l22.81,0L324,105s14.08,6,14.29-8.06c.21-14.35-15.5-6.68-15.5-6.68L323.51,75,304.29,75s11.92-20.81-9.82-21.6-12.29,22.06-6.72,22.08l-19.95.48-2.89,52.14,19.83.42s-17.21-26.56,7.83-24.09C312.79,106.39,300.94,127.13,300.94,127.13Z"/><path class="cls-9" d="M381.8,151.66l.46-24.56-22.33-.42s8.64-17.44-9.33-17.75c-17.73-.3-7.34,18.86-7.34,18.86l-19.51-.63L323,148.94s-23.29-13.84-24.56,10.71,23.55,15,23.67,8.71L322,192.92l56.81,2.69,1.63-25.7s-20.31,9-19.65-12.95C361.33,138.69,381.8,151.66,381.8,151.66Z"/><path class="cls-3" d="M265.28,190.57l56.82,2.35,0-24.56s-20.14,10.7-19.61-11.22c.43-18.27,21-5.42,21-5.42l.31-24.56-22.33-.28S313.3,104.65,291,103.8c-23.63-.9-7,23.86-7,23.86l-19.06,0A345.1,345.1,0,0,0,265.28,190.57Z"/><path class="cls-2" d="M291.38,214.21c-1.29,0-2.6.52-2.59,1.33,0,1.74,5.3,1.07,5.1-.35C293.79,214.49,292.38,214.22,291.38,214.21Z"/><path class="cls-10" d="M237.4,226.67c-1.31,0-2.66.5-2.67,1.17,0,1.42,5.35.72,5.18-.44C239.83,226.83,238.41,226.64,237.4,226.67Z"/><path class="cls-2" d="M303.4,218.29c2.09-.07,5.33.56,4.85,2.62s-8.43,2.6-9.13.2S301.78,218.35,303.4,218.29Z"/><path class="cls-2" d="M382.15,216.68c.87,0,2.21.23,2,1.08s-3.5,1.09-3.79.09S381.47,216.7,382.15,216.68Z"/><path class="cls-2" d="M393.33,220.75c1.7-.05,4.34.46,3.95,2.13s-6.86,2.12-7.43.17S392,220.8,393.33,220.75Z"/><path class="cls-2" d="M24.51,178.18a22.52,22.52,0,0,0,4.71-.24c.76-.12.44-1.28-.32-1.16a19.56,19.56,0,0,1-4.39.2c-.77,0-.77,1.15,0,1.2Z"/><path class="cls-2" d="M124.5,18.63a2.51,2.51,0,0,0-3.64,1c-.65,1.41-.61,3.59,1.17,4.08,1.63.46,3-.78,3.5-2.21a2.39,2.39,0,0,0-.11-2.36c-.69-.88-1.82-.83-2.76-1.24-.7-.31-1.31.72-.61,1,.88.38,2.53.36,2.53,1.59A2.41,2.41,0,0,1,123,22.61c-1.33.25-1.41-1.16-1.15-2.11a1.33,1.33,0,0,1,2.07-.84c.65.42,1.25-.61.61-1Z"/><path class="cls-2" d="M67.47,205c-1.69,0-3.41.68-3.41,1.75,0,2.28,7,1.4,6.71-.46C70.64,205.33,68.79,205,67.47,205Z"/><path class="cls-2" d="M35.92,217.26c-1.05,0-2.11.42-2.11,1.08,0,1.4,4.31.86,4.14-.29C37.87,217.48,36.73,217.26,35.92,217.26Z"/><path class="cls-10" d="M108.06,224.68c-2.51.07-5.08,1-5.11,2.23-.07,2.72,10.25,1.39,9.93-.83C112.72,225,110,224.63,108.06,224.68Z"/><path class="cls-2" d="M94.49,213.42c3.25.3,8.15,1.92,7,5S87.92,220.81,87.31,217,92,213.19,94.49,213.42Z"/><path class="cls-2" d="M396.8,115.5c1.5.56,3.2,1.16,4.12,2.57a2.9,2.9,0,0,1,.45,2.32,9.16,9.16,0,0,0-.67,2c-.2,3,3.69,2.26,5.32,3.17a.65.65,0,0,0,.66-1.13c-1.25-.69-2.75-.32-4-1-1-.56-.56-1.45-.23-2.33a3.75,3.75,0,0,0,.23-1.9c-.39-2.84-3.2-4.08-5.58-5-.79-.29-1.13,1-.34,1.26Z"/><path class="cls-3" d="M101,199.2S84.15,191.78,89,186c6.06-7.14,19.37,3.27,19.37,3.27S72.31,159.8,82.62,149.7c8.12-8,25.59,5.45,25.59,5.45s-53.83-84.3-2.1-106.5c55-23.62,57.94,81.37,42,98.8,0,0,20.07-13.29,28.53-6.93,13.14,9.88-9.33,45.49-42.29,58.49Z"/><path class="cls-5" d="M117.21,199.32l-.85-.42c11.34-23.24,9.88-56.77,6.66-80.81A336.54,336.54,0,0,0,113.2,71l.91-.28A336.82,336.82,0,0,1,124,118,229.51,229.51,0,0,1,126.08,160C125.26,175.73,122.27,189,117.21,199.32Z"/><path class="cls-5" d="M125.44,146.82c-13.52-15.06-18-40.94-18-41.2l.94-.16c0,.26,4.43,25.87,17.76,40.72Z"/><path class="cls-5" d="M124.2,176.28l-.62-.72c10.69-9.29,13.5-26.81,14-39.88A144.45,144.45,0,0,0,136,109.19l.94-.17a146.08,146.08,0,0,1,1.58,26.68,88.08,88.08,0,0,1-3.35,22.23C132.73,165.89,129.05,172.06,124.2,176.28Z"/><path class="cls-5" d="M121.11,187.67c-14-6.42-23.25-22.73-23.35-22.89l.84-.47c.09.16,9.22,16.21,22.91,22.49Z"/><path class="cls-5" d="M119.3,193.94l-.17-.93c12.66-2.41,22.89-11.12,29.24-18a86.25,86.25,0,0,0,10.86-14.53l.83.47a87.37,87.37,0,0,1-11,14.71C142.62,182.65,132.22,191.49,119.3,193.94Z"/><path class="cls-5" d="M117.77,197.3c-11-1.66-15.82-4.84-16-5l.54-.79s4.83,3.2,15.62,4.83Z"/><path class="cls-2" d="M25.81,81a31.32,31.32,0,0,0,.34,6.7c.14.83,1.39.48,1.26-.35A29.34,29.34,0,0,1,27.12,81c.05-.84-1.25-.84-1.31,0Z"/><path class="cls-2" d="M28.89,81.66a30,30,0,0,0-5.31,4.09c-.61.58.32,1.5.92.92a28.37,28.37,0,0,1,5.05-3.88c.72-.44.06-1.57-.66-1.13Z"/><path class="cls-2" d="M23.45,83.06a29.61,29.61,0,0,0,5.61,3.37c.76.35,1.42-.78.66-1.13a29.25,29.25,0,0,1-5.61-3.36c-.66-.51-1.31.62-.66,1.12Z"/><path class="cls-2" d="M310.46,41.74a36,36,0,0,0,8-.4c.83-.14.48-1.39-.34-1.26a34.12,34.12,0,0,1-7.62.35c-.84,0-.83,1.26,0,1.31Z"/><path class="cls-2" d="M43.22,131.34a34.62,34.62,0,0,0-4.67,7.5l1.09.14q-.51-3.54-.9-7.11c-.08-.76-1.28-.76-1.19,0q.41,3.72.94,7.43a.6.6,0,0,0,1.09.14,33.82,33.82,0,0,1,4.48-7.25c.48-.59-.36-1.44-.84-.85Z"/><path class="cls-2" d="M394.26,163.67a34.36,34.36,0,0,0,8.72,1.45l-.31-1.12c-2.1,1.25-4.22,2.45-6.37,3.62-.67.37-.07,1.4.61,1,2.14-1.16,4.26-2.37,6.37-3.61a.61.61,0,0,0-.3-1.12,33.63,33.63,0,0,1-8.4-1.4.6.6,0,0,0-.32,1.15Z"/><path class="cls-2" d="M70.41,45.53h0a5,5,0,0,1,0-9.94,4.94,4.94,0,0,1,3.66,1.51,5.06,5.06,0,0,1,1.28,3.83A4.76,4.76,0,0,1,70.41,45.53Zm0-8.75a3.64,3.64,0,0,0-2.54,1.07,3.69,3.69,0,0,0-1,2.71,3.59,3.59,0,0,0,3.58,3.78v0a3.57,3.57,0,0,0,3.73-3.5,3.75,3.75,0,0,0-1-2.92A3.65,3.65,0,0,0,70.41,36.78Z"/><path class="cls-2" d="M70.92,37.88V31.33a.6.6,0,0,0-1.19,0v6.55a.6.6,0,0,0,1.19,0Z"/><path class="cls-2" d="M73,40.93q3.72-.33,7.45-.32a.6.6,0,0,0,0-1.2q-3.74,0-7.45.33c-.76.06-.77,1.26,0,1.19Z"/><path class="cls-2" d="M69.91,43.67a22.43,22.43,0,0,0-.39,8.75c.12.76,1.27.44,1.16-.32A20.91,20.91,0,0,1,71.06,44a.6.6,0,0,0-1.15-.32Z"/><path class="cls-2" d="M67.64,40.16a42.7,42.7,0,0,0-7,.18c-.76.08-.77,1.28,0,1.2a41.61,41.61,0,0,1,7-.19c.77,0,.76-1.15,0-1.19Z"/><path class="cls-2" d="M388.47,73.5a47.73,47.73,0,0,1,6.89,2.43c.69.31,1.3-.72.6-1a49.3,49.3,0,0,0-7.17-2.55.6.6,0,0,0-.32,1.15Z"/><path class="cls-2" d="M393,70.82l-3.46,7.05c-.34.69.69,1.29,1,.6l3.46-7c.34-.69-.69-1.29-1-.6Z"/><path class="cls-2" d="M294.26,17.43a3.87,3.87,0,0,0-5.67,1.64c-.95,2.29-.95,5.69,2,6.36,2.62.6,4.62-1.57,5.39-3.84.44-1.31.52-2.73-.57-3.73s-2.88-1-4.27-1.64c-.69-.32-1.3.71-.6,1,1.66.76,5,.65,4.49,3.29-.32,1.66-1.49,3.6-3.32,3.77-4.47.43-2.27-8.72,2-5.85.64.44,1.24-.6.61-1Z"/><path class="cls-7" d="M64.7,153.9c-.22-1.16-2-7.56-2-8.16s21,.36,21,.36l31.39,13.22,4.29,2.32-18.83-.9s-21.64-2.41-22.49-2.43S64.7,153.9,64.7,153.9Z"/><g class="cls-6"><path class="cls-11" d="M64.7,153.9c-.22-1.16-2-7.56-2-8.16s21,.36,21,.36l31.39,13.22,4.29,2.32-18.83-.9s-21.64-2.41-22.49-2.43S64.7,153.9,64.7,153.9Z"/></g><path class="cls-7" d="M45.91,166.6s13-15.82,14.3-16.06,57.93,11,59.16,11.1S45.91,166.6,45.91,166.6Z"/><path class="cls-7" d="M62.68,145.74c-.52-.29,3.85-17.22,5.15-17.35s54.39,33.77,51.54,33.25S63.48,146.19,62.68,145.74Z"/><polygon class="cls-10" points="148.8 27.53 269.6 20.83 299.38 187.9 161.63 209.96 148.8 27.53"/><polygon class="cls-5" points="160.96 43.6 179.06 189.01 287.56 173.3 263.02 37.05 160.96 43.6"/><path class="cls-12" d="M261.57,37.18a13.27,13.27,0,0,1-3.91.68l-4.89.5-9.43,1q-9.33.95-18.66,1.84c-12.68,1.21-25.38,2.28-38.1,3-7.09.4-14.19.7-21.29.85l1,.73a13.08,13.08,0,0,1,3.45-12.16c3.24-3.13,7.62-3.46,11.86-4.1,3.13-.47,6.32-.93,8.57-3.34a30.62,30.62,0,0,1,7.56-6c4.69-2.59,9.77-2.92,15-2.25a29.4,29.4,0,0,1,12.81,4.81,13.29,13.29,0,0,0,5.07,2.39,18.45,18.45,0,0,0,3.32.2c2.76,0,5.51-.26,8.26-.16a22,22,0,0,1,10.19,2.55c4.12,2.36,6.8,6.4,8.49,10.75.47,1.19,2.41.67,1.94-.54a23.76,23.76,0,0,0-7.55-10.71,20.48,20.48,0,0,0-9.59-3.76,52.36,52.36,0,0,0-9.37-.21c-2.67.1-5.31.32-7.74-1-2.11-1.14-4-2.63-6.15-3.65a31,31,0,0,0-6.84-2.24c-5.18-1-10.89-1.32-15.88.66a29.88,29.88,0,0,0-9.86,6.62,25,25,0,0,1-2,2.08c-1.5,1.13-3.72,1.39-5.51,1.68-5,.83-10.13,1.08-14,4.81a15.15,15.15,0,0,0-4,14.12,1,1,0,0,0,1,.73c25.64-.52,51.2-3,76.7-5.56l10.33-1.06,5.34-.54a15.48,15.48,0,0,0,4.44-.75C263.27,38.62,262.76,36.68,261.57,37.18Z"/><path class="cls-12" d="M204.62,154.74c-3.74-1.1-5.93,3.29-6.43,6.3a5.32,5.32,0,0,0,1,4.48,8.15,8.15,0,0,0,4.28,2.11c3.24.79,7.05,1.16,8.79-2.32a7.07,7.07,0,0,0,.77-5.21,8.12,8.12,0,0,0-3-3.91,10.4,10.4,0,0,0-10.55-1c-.77.37-.1,1.52.68,1.15a9.07,9.07,0,0,1,8.93.8c1.42,1,2.81,2.62,2.83,4.44s-1,4.21-2.66,4.94c-1.54.66-3.39.28-5-.08s-3.23-.7-4.23-1.94c-1.94-2.42.44-9.57,4.13-8.48a.67.67,0,0,0,.36-1.29Z"/><path class="cls-12" d="M205.78,154.51q-3-12-4.94-24.3c-.16-1-.32-2-.47-3a2.68,2.68,0,0,1-.05-1.51c.24-.54.13-.24.58-.44a5.43,5.43,0,0,1,1.15-.21c2-.38,4-.73,6-1.08q6.1-1,12.23-1.91,12.42-1.74,24.92-2.69l3-.22a3.94,3.94,0,0,0,1.92-.39c1.13-.78.41-2.63.24-3.72q-1-6.11-2.15-12.19Q245.6,89.07,242,75.52a.67.67,0,0,0-1.29,0q-1,3.93-1.93,7.88c-.19.84,1.09,1.2,1.29.36q.91-4,1.93-7.89h-1.29q3.15,12,5.59,24.12,1.2,6.06,2.24,12.17c.17,1,.33,2,.49,3,.07.46.17.93.22,1.39a2,2,0,0,1,0,.81c-.15.52-.34.39-.86.43-2,.18-4,.3-6.06.46q-12.19,1-24.32,2.79-6.13.89-12.23,2a42,42,0,0,0-6,1.12c-1.45.48-.94,2-.77,3.21q2.1,13.88,5.45,27.53c.2.84,1.49.48,1.29-.35Z"/><path class="cls-12" d="M241.24,75.88l8.3,7.74c.63.58,1.57-.36.94-1l-8.29-7.74c-.63-.58-1.58.36-.95.95Z"/><path class="cls-12" d="M212.77,100.33a8.73,8.73,0,0,0-.37,5.1,5.18,5.18,0,0,0,3.47,3.28c3.48,1.27,7.46.43,9-3.25,1.36-3.22,0-7.29-3.43-8.43a8.66,8.66,0,0,0-6,.55c-1.42.59-2.93,1.52-2.91,3.25a.67.67,0,0,0,1.34,0c0-1.55,2.41-2.23,3.59-2.53a5.94,5.94,0,0,1,4.29.31c2.52,1.31,2.9,4.92,1.44,7.15-1.61,2.45-4.48,2.59-7,1.66-3.09-1.13-3-4-2.17-6.73a.67.67,0,0,0-1.29-.36Z"/><path class="cls-12" d="M223.75,141a53.07,53.07,0,0,0,12.46,5.23.67.67,0,0,0,.35-1.29,51.5,51.5,0,0,1-12.13-5.1.67.67,0,0,0-.68,1.16Z"/><path class="cls-12" d="M232,135.61q-2.82,7.66-5.25,15.47c-.26.83,1,1.18,1.29.36q2.43-7.8,5.24-15.48c.3-.81-1-1.15-1.28-.35Z"/><path class="cls-12" d="M186.32,79a41,41,0,0,0,16.23,9.3.67.67,0,0,0,.36-1.29,39.52,39.52,0,0,1-15.64-9c-.63-.58-1.58.36-1,1Z"/><path class="cls-12" d="M198.43,76c-2.47,1.77-3.81,4.71-5.32,7.27-1.83,3.11-3.65,6.24-5.42,9.4a.67.67,0,0,0,1.15.67q2.43-4.32,4.95-8.59c1.49-2.53,2.86-5.83,5.32-7.59.69-.5,0-1.66-.68-1.16Z"/><path class="cls-12" d="M228.47,60.1c.48,2.17,1,4.34,1.45,6.51.21.93.41,1.86.62,2.79a7.77,7.77,0,0,0,.67,2.52c.76,1.15,2.78.34,3.84.16l6.07-1c2-.33,4-.64,6-1,1.45-.25,1.63-1,1.18-2.35a46.63,46.63,0,0,1-2.5-11.84.69.69,0,0,0-.85-.65q-8.15,1.78-16.41,3c-.85.12-.49,1.41.35,1.29q8.26-1.16,16.42-3l-.85-.64a46.15,46.15,0,0,0,1.6,9.26c.23.78.47,1.55.73,2.31.07.21.43.82.38,1,.12.2.06.29-.18.25l-.66.11-4.89.81-4.93.81-2.25.38a7.91,7.91,0,0,1-1.35.22c-.76,0-.72-.49-.86-1.12l-2.28-10.23c-.19-.84-1.48-.48-1.29.36Z"/><path class="cls-3" d="M231,62.09a26,26,0,0,1,7.86,4.84.69.69,0,0,0,1.12-.3l6.74-16.46c.33-.8-1-1.14-1.29-.36l-6.74,16.47,1.11-.3a27.85,27.85,0,0,0-8.45-5.18c-.8-.32-1.15,1-.35,1.29Z"/><path class="cls-2" d="M167.06,71.18a86.68,86.68,0,0,1-8.83-.38c-2.78-.35-6.14-1.13-8.1-3.29a3.78,3.78,0,0,1-1-2.19,3.86,3.86,0,0,1,.32-2.18c.41-.52,1.74-.66,2.35-.78a28.14,28.14,0,0,1,2.88-.42c3.09-.29,6.2-.21,9.3-.2s6.29,0,9.42.16c.7,0,1.39.1,2.08.17a7.55,7.55,0,0,1,2.42.36c1.47.71,1.87,4.15.79,5.27-.91,1-3.19.53-4.4.53-1.7,0-3.39,0-5.09,0-3.31-.07-6.62-.25-9.92-.51a8.44,8.44,0,0,1-4.19-1.16c-.41-.28-.9-.61-.64-1.11s1.8-.7,2.37-.8c3.57-.68,7.27-.08,10.86.09.77,0,.77-1.16,0-1.2-4-.18-8.1-.86-12,.14-1,.24-2.35.66-2.5,1.82-.13,1,.72,1.71,1.46,2.17a9.44,9.44,0,0,0,4.21,1.21c2.12.18,4.25.31,6.37.41s4.41.16,6.62.17a52.93,52.93,0,0,0,5.91,0c3.46-.39,3.17-4.86,1.8-7.12-.83-1.36-2.86-1.29-4.26-1.42-2.15-.21-4.32-.27-6.48-.28-4.1,0-8.23-.17-12.33,0a32.45,32.45,0,0,0-5.81.77c-1.62.39-2.35.88-2.62,2.58-.63,4,3,6.2,6.33,7.23,4.09,1.27,8.51,1.09,12.74,1.18a.6.6,0,0,0,0-1.2Z"/><path class="cls-12" d="M106.47,95.87l4.61-16.43-14.93-4.2S108,62.75,93.26,57.88s-8.51,15.19-8.51,15.19L71.48,69.2,67.4,83.73S54.17,70.34,49,86.62s13.21,14.21,14.39,10l-4.35,16.5,37.71,11.76,5.6-17s-15.22,2.46-10.94-12.16C95,83.56,106.47,95.87,106.47,95.87Z"/><path class="cls-11" d="M135,175.16c16.34,6.45,16.83,22.91-2.31,30.8S97.82,202.4,101,193.63,115.21,167.36,135,175.16Z"/><path class="cls-13" d="M102.4,190.43c.48,4.74,2.09,8.93,6.38,8.64,9.63-.64,6.51-4.25,17.91-4.24s19-8.15,19.21-10.61c3.6,7.38-.43,16.47-13.21,21.74-19.15,7.88-34.87-3.56-31.65-12.33A34.21,34.21,0,0,1,102.4,190.43Z"/><path class="cls-12" d="M289.35,192.89c7.4,3.71,18.54,5.36,32.87,0,4.4-1.65,11.63-8.42,10.06-12.91s-7.45-2.7-7.45-2.7S348.27,160,340.67,152c-6.07-6.4-19.68,8.84-19.68,8.84s30.57-41,12.41-51.44c-20.91-12.07-37.12,39.47-37.12,39.47s3.8-17-3.58-18.11S261.39,161.13,289.35,192.89Z"/><path class="cls-5" d="M303,192.91c-1.05-23,5.74-42.55,11.62-54.9a111,111,0,0,1,13.14-21.52l.74.62a110.32,110.32,0,0,0-13,21.34c-5.82,12.25-12.54,31.62-11.51,54.41Z"/><path class="cls-5" d="M303.78,180.83l-.23-.94c11.31-2.78,30.6-22.15,30.79-22.34l.69.68C334.23,159,315.36,178,303.78,180.83Z"/><path class="cls-5" d="M304.37,189.58h-1l0-1c9.39.32,19.24-4.27,19.34-4.31l.41.87C323.05,185.2,313.68,189.58,304.37,189.58Z"/><path class="cls-5" d="M303.28,185.2c-7.1-1.46-12.21-5-15.21-10.48-3.88-7.13-3.43-16.35-2.37-22.84A70.22,70.22,0,0,1,289,139.43l.9.35c-.08.21-8.13,21.27-.93,34.49,2.85,5.23,7.75,8.59,14.56,10Z"/><path class="cls-9" d="M296.66,191.48c-2.61,3-6.37,4.74-15.56,2.37-3-.78-9.51-4-8-9.58s7.72.92,7.72.92-17.66-27.74-4.89-32.18c13.51-4.7,14.87,24.76,14.87,24.76s1.21-4,4-3.46C298,174.94,303.36,183.74,296.66,191.48Z"/><path class="cls-5" d="M288.92,192.23c-.09-.12-8.34-12.47-11.29-32.53l1-.14c2.91,19.82,11,32,11.13,32.13Z"/><path class="cls-5" d="M285.15,190.4c-4.73,0-6.59-1.77-6.68-1.86l.67-.69-.33.34.33-.34s2.42,2.23,8.77,1.4l.12.95A22,22,0,0,1,285.15,190.4Z"/><path class="cls-5" d="M288.64,191l-.39-.88C295.18,187,294,179,294,178.87l.95-.15C295,178.81,296.24,187.59,288.64,191Z"/><path class="cls-11" d="M283.92,194.58c2.42-2.37,4.39-5.15,8-5.15s10.88,1.41,12,2.93,5.39,7,.46,8.79S277.27,201.1,283.92,194.58Z"/><path class="cls-13" d="M299.89,195.61c-3.82.65-5.56,1.29-9,1.43s-5.26-3.5-5.21-4.26c-.58.59-1.16,1.21-1.76,1.8-6.65,6.52,15.54,8.33,20.47,6.57,2.89-1,2.62-3.36,1.68-5.4h0C305,195.2,303.7,195,299.89,195.61Z"/><path class="cls-11" d="M306.15,184.61c-9,9.31-4,22.15,11.45,23.15s22.47-12,17.48-17.91S317,173.33,306.15,184.61Z"/><path class="cls-13" d="M333.13,187.74c1.2,3.79,1.45,7.45-1.55,8.37-6.73,2-5.77-1.56-13.49,1.48s-15.52-1.25-16.42-3.1c-.07,6.65,5.58,12.6,15.93,13.27,15.51,1,22.47-12,17.48-17.91C334.52,189.19,333.87,188.48,333.13,187.74Z"/><path class="cls-14" d="M169.38,115.92s.69,1.72,1.71,2.08,2.79-1,2.79-1l-1.61-1.67-1.74.4Z"/><rect class="cls-14" x="145.73" y="207.07" width="3.04" height="5.38"/><rect class="cls-14" x="156.32" y="207.07" width="3.04" height="5.38"/><path class="cls-12" d="M144,142.73s1.51,20.18,1,34.49-.51,31-.51,31a14.57,14.57,0,0,0,6.09-.2s5.94-32.16,5-53.06c0,0-.23-.4,1.35-.09a316.89,316.89,0,0,1-1.42,53.24s3.21,1.21,5-.13c0,0,12-43.81,3.29-63.91l-19.22-1.36Z"/><path class="cls-15" d="M155.37,211.27a15.57,15.57,0,0,0-.47,2.83s3.26-.24,3.65,0,.69,1.49.69,1.49H168a1.6,1.6,0,0,0-1-1.75c-1.22-.35-4.44-.67-5.4-2s-1.26-1.56-1.79-1.42-.79.83-.79.83A8.78,8.78,0,0,1,155.37,211.27Z"/><path class="cls-15" d="M154.69,214a17,17,0,0,1,3.77,0,7.06,7.06,0,0,1-.21,1.53l-3.56-.05S154.52,214.1,154.69,214Z"/><path class="cls-15" d="M163.66,213.08a6.43,6.43,0,0,1-2.48,0,3.31,3.31,0,0,1-2.16-1.82c-.25-.69.69-1.72,1.46-.79S162,212.66,163.66,213.08Z"/><path class="cls-15" d="M145.17,211.27a15.57,15.57,0,0,0-.47,2.83s3.26-.24,3.65,0,.69,1.49.69,1.49h8.79a1.59,1.59,0,0,0-1-1.75c-1.23-.35-4.44-.67-5.4-2s-1.26-1.56-1.79-1.42-.8.83-.8.83A8.73,8.73,0,0,1,145.17,211.27Z"/><path class="cls-15" d="M144.49,214a17,17,0,0,1,3.77,0,7.06,7.06,0,0,1-.21,1.53l-3.56-.05S144.32,214.1,144.49,214Z"/><path class="cls-15" d="M153.46,213.08a6.43,6.43,0,0,1-2.48,0,3.33,3.33,0,0,1-2.17-1.82c-.24-.69.69-1.72,1.47-.79S151.8,212.66,153.46,213.08Z"/><path class="cls-7" d="M164.58,145.43a13,13,0,0,1,.64,2.13c-.05.24-11.94,2.95-20.91,0l-.32-3.28,9.82,2.32,5.53-.3Z"/><path class="cls-14" d="M142.57,146.8c.21.21,5.08.08,8.46,1.31,2.21.81.56,1.62-.55,1.15a13.07,13.07,0,0,0-3.45-.54c-.16.11,3.3,1.2,4.53,2s.47,1.69-.65,1.17a31.47,31.47,0,0,0-4.36-1.83,27.84,27.84,0,0,0,3.74,3c.59.35.48,1.69-.86.79s-3.49-2.46-3.55-2.52a15.76,15.76,0,0,0,1.79,2.4c1.11,1.26-.3,1.5-1.33.29a33.55,33.55,0,0,1-3.08-3.83,5.8,5.8,0,0,1-.69-2.33Z"/><path class="cls-14" d="M152.82,110.48a7.44,7.44,0,0,0,2.26,6.22L152.77,119l-6-2.5s1.45-5.17-.65-9.45S152.82,110.48,152.82,110.48Z"/><g class="cls-6"><path class="cls-14" d="M147.25,112.71a13.36,13.36,0,0,0-.79-4.91l3.88.61c1.35,1.08,2.48,2.07,2.48,2.07a7.66,7.66,0,0,0,.21,2.79C152.11,113.67,150.31,114,147.25,112.71Z"/></g><path class="cls-9" d="M127.31,129.68c6.32-9.52,18-13.78,18-13.78l2.1-.7.18,1.75,0-.75c6.26,3.21,6.5.26,6.5.26l-.29-1a22.48,22.48,0,0,1,7.8,2.82c4.52,2.5,10.18,7.54,12.68,7.54,4.17,0-4.14-8.42-4.14-8.42-.63-.6,4.34-.44,4.34-.44,24.53,19.56-.88,20.18-10.54,11.58l1.63,17.06c-13.41,4.77-22.71-.73-22.71-.73.23-2.26.17-16.65-.39-17.69-.67-1.22-5.1.25-7.42,4.37-3.38,6,8.69,15.21,8.69,15.21.41,3.15-.77,3.83-.77,3.83S121,139.24,127.31,129.68Z"/><path class="cls-16" d="M147.17,113.61l-2.13,2s3.47,3.77,7.46,4.65l.77-2.82S147.6,114.4,147.17,113.61Z"/><path class="cls-16" d="M153.13,113.61a15.83,15.83,0,0,1,.14,3.87l1.54,2.43a8.3,8.3,0,0,0,.27-3C154.89,115.57,153.13,113.61,153.13,113.61Z"/><path class="cls-17" d="M158.78,100.93a2.6,2.6,0,0,1-.71-1.74v-.11l4.87-.34,0,.11a2.5,2.5,0,0,1-.46,1.82,2.39,2.39,0,0,1-1.81.83A2.42,2.42,0,0,1,158.78,100.93Zm-.46-1.63a2.32,2.32,0,0,0,.63,1.46,2.61,2.61,0,0,0,3.36-.23,2.29,2.29,0,0,0,.42-1.54Z"/><path class="cls-14" d="M156.33,93.5a17.94,17.94,0,0,1,4.92,10.55,9.44,9.44,0,0,1-1.83.41s.31,4.32-2.87,6-8.14,2.62-11.45-5.59L144,101.36l2.8-3.74s7.42-2.45,7.58-2.54S156.33,93.5,156.33,93.5Z"/><path class="cls-18" d="M159,97.11s5.16-6.35-1-9.55c-4.27-2.21-6.22,1.88-8.87,3s-6,.35-7.69,4.63,2.59,10.37,3.43,11.94a3.43,3.43,0,0,1,.4,2.68s3-2.11,1.68-5.24.46-3.86.46-3.86,10.21-.74,9.52-6.66A16.23,16.23,0,0,1,159,97.11Z"/><path class="cls-19" d="M159.43,104.94a1.55,1.55,0,0,0-2.2-.47c-1.55.76-2,2.2-3.22,2.14a3.63,3.63,0,0,1-1.7-.41s.67,3,3.19,2.54a6.82,6.82,0,0,0,3.64-1.76A2.57,2.57,0,0,0,159.43,104.94Z"/><path class="cls-19" d="M158.92,106.81s.34,1.9,1.14,1.25.71-2.79-.63-3.12S158.92,106.81,158.92,106.81Z"/><path class="cls-2" d="M153.06,106.76a11.9,11.9,0,0,1-4-6.41l-1.19-.1.8,1.52s1.37,6.65.14,9.24a6.87,6.87,0,0,0,6.64,3.16c5.64-.51,4-8.66,4-8.66l-1.62.5-3.29,1.13Z"/><path class="cls-17" d="M155,101.2a2.61,2.61,0,0,1-.71-1.75v-.11l4.87-.34,0,.11a2.53,2.53,0,0,1-.46,1.83,2.39,2.39,0,0,1-1.81.82A2.42,2.42,0,0,1,155,101.2Zm-.46-1.64a2.3,2.3,0,0,0,.63,1.46,2.61,2.61,0,0,0,3.36-.23,2.27,2.27,0,0,0,.42-1.53Z"/><path class="cls-20" d="M154,106.61c1.17.06,1.67-1.38,3.22-2.14a1.55,1.55,0,0,1,2.2.47c1.34.33,1.43,2.46.63,3.12-.59.48-.93-.43-1.06-.94a7.33,7.33,0,0,1-3.5,1.62c-2.52.49-3.19-2.54-3.19-2.54A3.63,3.63,0,0,0,154,106.61Z"/><path class="cls-17" d="M154.47,99.45s-3.45.62-6,1"/><path class="cls-17" d="M148.52,100.61c2.5-.42,5.94-1,6-1l0-.24s-3.56.64-6.06,1Z"/><line class="cls-17" x1="160.04" y1="99.06" x2="158.9" y2="99.14"/><rect class="cls-17" x="158.89" y="98.98" width="1.15" height="0.24" transform="translate(-6.51 11.34) rotate(-3.99)"/><path class="cls-14" d="M148.5,100.49a2.43,2.43,0,0,0-2.3-.72c-1.44.3-.45,5.3,2.83,4.53Z"/><path class="cls-3" d="M176.07,93.75l-.8-.5s-3.75,6.6-7.4,8.92-4.51,2.31-4.35,3.12a19.07,19.07,0,0,0,3.48,6,47,47,0,0,1,4.39-2.61c1.43-.63,9.87-2.2,11.59-2.48l-3.48-6.72Z"/><path class="cls-3" d="M171.82,107.84s5.35,9.8,5.49,10.31-1.82,2.56-2.8,1.44-5.89-10.81-5.89-10.81Z"/><path class="cls-21" d="M167.87,102.17c.16-.1.33-.21.49-.33-.18,1.69,1.84,5.19,3.91,6.6a6.67,6.67,0,0,0-.88.28,47,47,0,0,0-4.39,2.61,19.07,19.07,0,0,1-3.48-6C163.36,104.48,164.22,104.5,167.87,102.17Z"/><path class="cls-9" d="M177.27,100.85c2.13,3.59,4.72,6,5.79,5.34s.22-4.06-1.92-7.65-4.72-6-5.79-5.34S175.13,97.26,177.27,100.85Z"/><path class="cls-18" d="M177.27,100.85c2.13,3.59,4.72,6,5.79,5.34s.22-4.06-1.92-7.65-4.72-6-5.79-5.34S175.13,97.26,177.27,100.85Z"/><path class="cls-5" d="M177.57,101.29l0,0c-.1-.15-.19-.31-.28-.46-.22-.37-.42-.73-.61-1.09C177.31,99.32,180.16,99.27,177.57,101.29Z"/><path class="cls-14" d="M172.38,114.22c.82,2.26-1.95,3.67-2.83,2.07a4.18,4.18,0,0,1,.54-4.57c.87-.79,3-3.15,3.77-1.85C174.15,110.38,171.48,111.73,172.38,114.22Z"/><path class="cls-14" d="M174.13,110.72c.51-.29,1.23-.68,1.5.14s-.92,1.74-2.15,1.65C173,112.47,172.89,111.41,174.13,110.72Z"/><path class="cls-14" d="M176,114.6c.42-.24,1-.57,1.24.12s-.76,1.44-1.78,1.37C175.07,116.06,175,115.18,176,114.6Z"/><path class="cls-14" d="M175.46,113.37c.51-.28,1.24-.68,1.5.14s-.91,1.74-2.14,1.65C174.33,115.12,174.23,114.07,175.46,113.37Z"/><path class="cls-14" d="M174.85,111.94c.6-.31,1.44-.74,1.73.13s-1.09,1.85-2.5,1.78C173.52,113.82,173.41,112.7,174.85,111.94Z"/><path class="cls-5" d="M150.07,133.59h0c-3.4,0-3.77-7-3.78-7.32v-.18h6.89l0,.14a14.44,14.44,0,0,1,.05,3.41c-.26,2.32-1.23,3.68-2.79,3.92A2.66,2.66,0,0,1,150.07,133.59Zm-3.43-7.16c.07,1.08.63,6.83,3.43,6.83h0l.34,0c1.41-.22,2.26-1.44,2.51-3.63a13.74,13.74,0,0,0,0-3.17Z"/><path class="cls-22" d="M238.75,137.19c-3.61,1.31-7.67,2.77-12.12,4v1.52a30.34,30.34,0,0,0,15-3.31Z"/><path class="cls-22" d="M249.4,176.31s3.56,2.22,4.81,10.8.13,21,3.09,26.58v1.71l-4,1.29-3.28.85h-3.8a1.14,1.14,0,0,1,.18-1.68c1-.69,7.29-3.65,7.34-5.22s-12.46-32-12.55-33.87l4.47-1.84Z"/><path class="cls-20" d="M250.07,217.54h-3.8a1.14,1.14,0,0,1,.18-1.68c.24-.17.79-.47,1.5-.86h0c.83,2.26,7-1.35,8.81-2.51a9.45,9.45,0,0,0,.54,1.2v1.71l-4,1.29Z"/><path class="cls-22" d="M265.51,175s2.89,3.32,2.65,11.07-6.89,21.66-6.52,25.17,1,4.92.61,6.28c0,0-11.81.12-12.18,0s-1.29-1.11,0-1.67,8.67-1.78,9.53-5.47.68-38.52.68-38.52Z"/><path class="cls-20" d="M250.07,215.87c.27-.11.83-.26,1.54-.46h0c2.52.7,8.31-1.89,10.17-3,.37,2.68.85,3.92.47,5.12,0,0-11.81.12-12.18,0S248.78,216.43,250.07,215.87Z"/><path class="cls-22" d="M261.14,110.91s1.85,2.85,2.59,3.9,2.34,3.42,2.34,3.42-3.08,6-3.45,6.09-6.71,1.91-7.45,1.66a27.67,27.67,0,0,1-3.56-2.52l2.5-7.19s2.91,0,3.22-1.3a22.31,22.31,0,0,0,.24-4.06Z"/><path class="cls-23" d="M251.11,116.63s-10.92,19.26-12.36,20.49c-.55.46,2.7,2.32,2.95,2.27,1.72-.3,7.87-5.28,8.88-8.8l.53-10.58Z"/><g class="cls-6"><path class="cls-22" d="M257.4,114.6a26.83,26.83,0,0,0,.17-3.69h3.57l.64,1A7.37,7.37,0,0,1,257.4,114.6Z"/></g><path class="cls-22" d="M253,96.93s-5.82,5.13-3.8,12.25l2.12-.2s1.31,10.13,10.39,1.27,1.09-10.8,1.09-10.8a19.69,19.69,0,0,0-2.71-2.4C259.47,96.83,253,96.93,253,96.93Z"/><path class="cls-12" d="M249.88,91.86c-2.76-.5-8.13,5.89.83,10s10.13.16,10.13.16-3.33,12.7,3.62,15.38c3.06,1.18,4.45,6.31,7.48,8.07,3.73,2.18,14.08-1.12,11.27-10.07s-11-6.5-13.59-10.35c-3.81-5.75-.77-9.25-3.43-11.86C262.47,89.55,259.17,93.57,249.88,91.86Z"/><path class="cls-22" d="M258.54,104.34s.24-3.12,2-2.18.79,5-1.36,4.71S258.54,104.34,258.54,104.34Z"/><path class="cls-24" d="M268.4,143.58s4.59,2.74,3.94,11S266.07,176,266.07,176s-6.74,5.63-24.83.74c0,0,5.44-22.58,11.17-28.27s9.78-4.21,9.78-4.21Z"/><path class="cls-9" d="M270.68,120.75a62.35,62.35,0,0,0-6.22-3.34s-8,7.18-8.79,7.09c-2.14-.23-1.8-8.33-1.54-8.34.74,0-3,.47-3,.47a117.06,117.06,0,0,1-4.92,10.89s-.55,3.88,4.8,5c0,0,2.59,10,1.42,15.93,0,0,7.19,2.71,16-4.92,0,0-9-8.31-.67-16.49Z"/><g class="cls-6"><path class="cls-9" d="M253.61,131.77h.11l.27,0,.41,0,.52,0,.59,0,.65,0c.22,0,.45,0,.68,0h.34l.35,0c.23,0,.46,0,.69-.06s.44-.08.66-.1.43-.09.64-.12.39-.1.58-.14.36-.07.5-.12l.41-.1.37-.07a3,3,0,0,1-.22.31,3.31,3.31,0,0,1-.28.33,2.52,2.52,0,0,1-.41.38,3.85,3.85,0,0,1-.55.39,5.39,5.39,0,0,1-.68.34l-.38.14a2.62,2.62,0,0,1-.4.11,5.72,5.72,0,0,1-.83.12l-.42,0c-.15,0-.29,0-.42,0a4.05,4.05,0,0,1-.8-.13,4.68,4.68,0,0,1-.72-.23,3.73,3.73,0,0,1-.6-.3,3.66,3.66,0,0,1-.8-.6A1.91,1.91,0,0,1,253.61,131.77Z"/></g><path class="cls-9" d="M269,140.93s-1.73.32-4.45-1.81c0,0,3.23-9.48.74-11.11,0,0,2-5.5,5.42-7.26A23.4,23.4,0,0,1,269,140.93Z"/><path class="cls-22" d="M226.64,142.7a3.63,3.63,0,0,1-2.44,1.09c-1.54.05-1.73-.55-1.73-.55l.75-.21a1.69,1.69,0,0,0,1.33-.21s-1-.92-3.07-.09c0,0-.72.34-1.16.6,0,0-.95-2.88,6.31-2.15l.8.5-.41.83Z"/><path class="cls-10" d="M288,196.65l-12.15,11s-56.5-65.62-65.16-73.45l-8.85-22.65,21.11,8.66S283.94,192.88,288,196.65Z"/><path class="cls-3" d="M288,196.65c-3.91-3.65-61.77-72.49-64.89-76.26l.44,11.4-9-4.29,1.11,6.84-5-.16c8.66,7.83,65.16,73.45,65.16,73.45Z"/><polygon class="cls-3" points="201.82 111.53 205.74 121.57 211.55 115.52 201.82 111.53"/><rect class="cls-5" x="253.55" y="120.36" width="0.41" height="91.34" transform="translate(-46.36 209.51) rotate(-41.44)"/><rect class="cls-5" x="247.49" y="121.83" width="0.41" height="94.7" transform="translate(-49.13 212.41) rotate(-42.62)"/><path class="cls-22" d="M267,140.58a7.55,7.55,0,0,1-2.2-1.61c-2.72,4.58-12.59,9.28-12.59,9.28s-4.29.11-5.27.05c-1.22-.07-1.14.81-.58.92s2,.05,2.21.15-3,.53-4.45,2.33c-.42.51-.1,1.09.25.8a5.28,5.28,0,0,1,2.3-1.3s-2.51,1.3-2.82,1.89c-.14.26-.32.95.42.69a25,25,0,0,0,3.14-1.95s-3.23,2.15-3,2.47c.47.72,2.9-1,3.88-1.86,0,0-2,2.65-1,2.67.71,0,2.61-3,3.32-3.59a22.79,22.79,0,0,0,1.79-1.68h0c10.39-1.54,15.48-7.25,16.38-8.89A4.75,4.75,0,0,1,267,140.58Z"/><path class="cls-10" d="M335.7,187.41a20.77,20.77,0,0,1,6.93-3.62,14.22,14.22,0,0,1,6.59,0l3.75-.89s6.82,1.43,10,4.6v7s-.64,6-.74,6.08-3.07,1.74-3.07,1.74L358,206.3l-.33,1.85-.71,5.24-8.2.21-11.06-3.07-3.24-12.68Z"/><path class="cls-25" d="M336.85,212.07c-.13-.09-6.55-3.42-11-.79s-2.35,8.54-2.35,8.54l7.24.87s9.35-.16,9.9-.38,3-5.05,3-5.05l-5.25-3.12Z"/><path class="cls-22" d="M335.26,218.91a14,14,0,0,1-4.31-.29l.17,4.43,3.91-.15Z"/><path class="cls-18" d="M323.17,215.2a7,7,0,0,0-.25,8.45l9.13-.64a5.18,5.18,0,0,1-.54-4.27S326.87,214.18,323.17,215.2Z"/><path class="cls-26" d="M325.52,215.19c-1.5,1.18-3.26,3.7-1.59,8.39l-1,.07a7,7,0,0,1,.25-8.45A4.91,4.91,0,0,1,325.52,215.19Z"/><path class="cls-22" d="M352.61,182.58a2.4,2.4,0,0,1,.89,2.32c-.31,1.44-3,6.26-6.27,7.08,0,0-6.06-4.56-4.46-8.59s4-2.11,4-2.11Z"/><g class="cls-6"><path class="cls-22" d="M342.77,183.39c1.59-4,4-2.11,4-2.11l5.89,1.3a2.71,2.71,0,0,1,.36.35h0a6.25,6.25,0,0,1-5.4,5.11C343.34,188.5,342.52,184,342.77,183.39Z"/><path class="cls-5" d="M347,188.12a3.93,3.93,0,0,1-3.4-1.79,4.43,4.43,0,0,1-.85-3c.85-2.14,1.92-2.6,2.68-2.6a2.35,2.35,0,0,1,1.34.46l5.9,1.31a2.91,2.91,0,0,1,.37.36v0c0,.05-.78,4.63-5.44,5.15Zm-1.57-7.25c-1,0-1.93.88-2.59,2.54a4.42,4.42,0,0,0,.84,2.87A3.87,3.87,0,0,0,347,188l.6,0a6.22,6.22,0,0,0,5.35-5,2,2,0,0,0-.33-.32l-5.9-1.31A2.24,2.24,0,0,0,345.4,180.87Z"/></g><path class="cls-22" d="M353,173.27s3.85,11.54-5,13.13-5.85-13.1-5.85-13.1l6.72-1.38Z"/><path class="cls-22" d="M342.09,178.78a1.64,1.64,0,0,0-1.84-.66c-1.15.39.76,5.36,2.55,4.6S342.09,178.78,342.09,178.78Z"/><path class="cls-18" d="M352.2,174.06s-3.53,6.18-10.5,4.32-3.16-6.17-3.16-6.17.7.9,1.29.88,3.33-6.51,9.48-5.71,4.27,2.74,4.27,2.74,1.28-.35,2.42,1.27,1.22,6.26-1.15,7.57l-1-1.09A12.32,12.32,0,0,0,352.2,174.06Z"/><path class="cls-22" d="M353.42,178.35a1.64,1.64,0,0,1,1.78-.8c1.18.3-.35,5.4-2.19,4.78S353.42,178.35,353.42,178.35Z"/><path class="cls-27" d="M333.78,218.48a15.88,15.88,0,0,0,.18,4.87s21.69,1.84,30.35-1.16,9.85-6.81,6.64-9.64S355.32,208.9,333.78,218.48Z"/><path class="cls-22" d="M362.53,219s-3.75,4.35-5,4.49l4.74-.19,1.57-.88.17-2.07Z"/><path class="cls-18" d="M370.57,214.83a7,7,0,0,1,.89,8.41l-9.15.06a5.22,5.22,0,0,0,.22-4.3S366.81,214.1,370.57,214.83Z"/><path class="cls-26" d="M368.23,215c1.59,1.06,3.53,3.43,2.22,8.24h1a7,7,0,0,0-.89-8.41A4.79,4.79,0,0,0,368.23,215Z"/><path class="cls-5" d="M364.74,222.7a5.64,5.64,0,0,0-.32-3.61l-.23.12a5.44,5.44,0,0,1,.3,3.42Z"/><path class="cls-5" d="M366.2,222.66a5.83,5.83,0,0,0-.67-4.22l-.21.15a5.7,5.7,0,0,1,.63,4Z"/><path class="cls-5" d="M330.47,222.54l.25-.07c-.64-2.32-.1-3.38-.09-3.39l-.23-.13C330.38,219,329.79,220.11,330.47,222.54Z"/><path class="cls-5" d="M329,222.58l.24-.08a3.71,3.71,0,0,1,.55-3.92l-.18-.19A4,4,0,0,0,329,222.58Z"/><path class="cls-10" d="M363,187.53s7.79,8.89,9.6,17.78-14.45,11-20.85,9.18l-.63-4.22s8.61-3.9,8.47-5.56a10.91,10.91,0,0,0-.39-2.34A16.13,16.13,0,0,1,363,187.53Z"/><path class="cls-10" d="M335.7,187.41s-13.93,12.73-12.13,19.11c1.64,5.78,15.18,9.44,19.34,8.81V212s-9-5-8.46-7.16a5.41,5.41,0,0,1,1.22-2.22S340,190.23,335.7,187.41Z"/><polygon class="cls-28" points="335.26 215.48 335.26 215.96 341.7 215.93 341.7 215.48 335.26 215.48"/><polygon class="cls-28" points="352.55 215.48 352.55 215.96 358.99 215.93 358.99 215.48 352.55 215.48"/><polygon class="cls-29" points="331.58 217.28 363.41 217.28 363.41 215.84 331.31 215.98 331.58 217.28"/><polygon class="cls-11" points="331.71 215.49 362.75 215.49 363.41 194.9 330.86 194.79 331.71 215.49"/><path class="cls-5" d="M346.85,202.22c1.84-.17,3.95.55,4,3.32s-5.58,3.72-5.94.58S346.23,202.28,346.85,202.22Z"/></g></g></svg>