<svg xmlns="http://www.w3.org/2000/svg" viewBox="0 0 402 266"><defs><style>.cls-1{isolation:isolate;}.cls-2{fill:#fda93b;}.cls-3{fill:#2580b3;}.cls-4{fill:#29495c;}.cls-5{fill:#fd643b;}.cls-6{fill:#e5e5e6;}.cls-7{fill:#fff;}.cls-8{fill:#77ccfd;}.cls-9{mix-blend-mode:multiply;}.cls-10{fill:#eff0f0;}.cls-11{fill:#1d6185;}.cls-12{opacity:0.5;}.cls-13{fill:#a5cfe9;}.cls-14{fill:#fcca74;}.cls-15{mix-blend-mode:screen;}.cls-16{fill:#195578;}.cls-17{fill:#f4d39e;}.cls-18{fill:#d5d5d7;}.cls-19{fill:#154965;}.cls-20{fill:#e5e5e7;}.cls-21{fill:#c7e9fd;}.cls-22{fill:#d15430;}.cls-23{fill:#21709a;}.cls-24{fill:#fd653b;}.cls-25{fill:#919395;}.cls-26{fill:#a5a7aa;}.cls-27{fill:#ced1d2;}.cls-28{fill:#babcbe;}.cls-29{fill:#fdefde;}.cls-30{fill:#fdcb87;}.cls-31{fill:#cfd0d2;}.cls-32{fill:#6c7173;}.cls-33{fill:#c14f29;}.cls-34{fill:#fc803b;}.cls-35{fill:#518fb6;}.cls-36{fill:#f2f3f5;}.cls-37{fill:#845413;}.cls-38{fill:#162934;}</style></defs><g class="cls-1"><g id="Layer_1" data-name="Layer 1"><path class="cls-2" d="M64.13,73.23C60.8,73.2,57.05,76,57.05,76l-4-3.75-5.47,8.71L55.29,82c.11,2.95,2.19,7,2.19,7l-7.26,1.86,6.94,8.92,3.75-7c3.29,1.42,7.68-.16,7.68-.16l3.12,6.47,6.64-5.35-5.21-4.66a15.91,15.91,0,0,0,1.5-4.45L82,85.91l-1.16-8.33-6.46,1.51c-1-3.62-4.75-5.35-4.75-5.35l1.5-6.27-9.69-.36Zm7.56,8.68a6,6,0,0,1-5.55,7c-3.49.09-5.86-1.37-6.88-3.47-1.48-3.06-.61-8.14,4.06-9.18C68.38,75.15,71.16,78.16,71.69,81.91Z"/><path class="cls-3" d="M82.68,98.51c-4.81-.08-10.23,3.85-10.23,3.85l-7-4.93-7,12.91,11.37.73a18.07,18.07,0,0,0,1.87,7.45l-10.4,8.73L73.64,137l6.16-9.62c3.8.77,9-.76,9-.76l2.73,10.28,11.36-8.47-7.5-6.85c1.38-2.09,2.22-6.39,2.22-6.39L108.19,117l-1.55-12-9.33,2.07c-1.46-5.22-6.76-7.76-6.76-7.76l2.24-9-14-.64Zm7.09,12.92a5.26,5.26,0,0,1-4.93,6.12c-3.07.06-5.14-1.25-6-3.11-1.28-2.69-.47-7.15,3.65-8C86.92,105.46,89.34,108.13,89.77,111.43Z"/><path class="cls-4" d="M317.08,167.75l-.89-.12c1-7.74,5-10.84,8.75-12-1.68-5.83-.51-12.84-.44-13.23l.89.16c0,.09-1.2,7.14.43,12.83a15.38,15.38,0,0,1,4.64-.38c5.18.34,10.27,3.09,10.28,5.57,0,1.1-.91,2.48-5.32,2.8a9.2,9.2,0,0,1-7.89-2.8,11.87,11.87,0,0,1-2.31-4.07C321.76,157.6,318.06,160.52,317.08,167.75Zm9-11.51a10.82,10.82,0,0,0,2.1,3.71,8.33,8.33,0,0,0,7.15,2.51c2.82-.21,4.5-.92,4.49-1.9,0-1.6-4.06-4.32-9.44-4.67A14.66,14.66,0,0,0,326.1,156.24Z"/><path class="cls-5" d="M318.86,128.62c1.76,2.47,10.6,3,13.21.64s-.18-5.38,4.18-12.46,8.87-5.76,9.22-20.07c.32-13.42-11.28-18.46-20.75-18.46-6.32,0-20,4.55-20.14,20.49-.06,8.77,7.29,12.94,11.63,18.31C320.38,122.22,316.87,125.82,318.86,128.62Z"/><path class="cls-6" d="M318.27,130.24c0,.22,9,2.68,14.65.37,0,0,1.42,12.46-3.62,13.64s-9.91.15-10.39-2.3S318.27,130.24,318.27,130.24Z"/><path class="cls-7" d="M333.72,100.37c-1.43.52-2.94,4.43-4,8a4.38,4.38,0,0,1-3.51-2c4.25-4.5,4.73-12.44,3.56-16-.64-2-1.62-2.18-2.14-2.12-2.68.33-4.47,6.56-4.28,11.92a14,14,0,0,0,1.39,6,8.26,8.26,0,0,1-1.56,1.1,1.66,1.66,0,0,1-.33.16c-.53-5.5-1.49-10.24-3.2-11.82a2.24,2.24,0,0,0-1.84-.65,2.49,2.49,0,0,0-2.13,2c-.84,3,1.24,8.66,4,10.81a4.23,4.23,0,0,0,2.15,1,203.16,203.16,0,0,1,.35,21.52c.18,0,.37.09.57.12l.57,0a207.31,207.31,0,0,0-.34-21.77,4.42,4.42,0,0,0,.79-.33,10.8,10.8,0,0,0,1.61-1.13,5.5,5.5,0,0,0,4,2.3c-.25.9-.47,1.76-.64,2.52-.79,3.38-2.48,11.93-1.31,18.66.39,0,.77-.07,1.14-.13-.81-4.6-.35-11.25,1.28-18.27.24-1,.49-2,.74-2.87,2-.58,3.42-3.24,3.84-4.14.76-1.63,1.38-3.84.59-4.71A1.14,1.14,0,0,0,333.72,100.37ZM320.36,107c-2.4-1.89-4.31-7-3.58-9.6.3-1.06.94-1.14,1.16-1.16h.13a1.16,1.16,0,0,1,.79.36c1.47,1.36,2.34,5.76,2.84,11.07A3.34,3.34,0,0,1,320.36,107Zm5.24-1.55a14.13,14.13,0,0,1-1.11-5.23c-.19-5.31,1.68-10.54,3.26-10.73h0c.22,0,.59.41.89,1.33C329.74,94,329.34,101.23,325.6,105.41Zm7.57-.11A7.77,7.77,0,0,1,331,108c1.24-4,2.49-6.3,3.08-6.52l.09,0C334.37,101.79,334.18,103.37,333.17,105.3Z"/><path class="cls-4" d="M327.22,137.11a25.23,25.23,0,0,1-10.82-2.23.58.58,0,0,1-.25-.77.59.59,0,0,1,.78-.25h0c.06,0,6.78,3.43,16.61,1.51a.57.57,0,1,1,.22,1.12A32,32,0,0,1,327.22,137.11Z"/><path class="cls-4" d="M327.82,141.27a39.39,39.39,0,0,1-10.5-1.36.58.58,0,1,1,.34-1.1,42.36,42.36,0,0,0,15.89,1,.59.59,0,0,1,.64.51.57.57,0,0,1-.51.63A49.29,49.29,0,0,1,327.82,141.27Z"/><path class="cls-3" d="M223.8,107.57c6.31-1.61,12-8.67,12-8.67l9.47,5.07,6-19.12-15.14,1.73c-1.66-5.52-7.6-12.19-7.6-12.19l12.78-7.09-17.5-13.4L220.18,69c-6.91-1.06-14.41,4.09-14.41,4.09l-5.19-13.7-16,15.28L199,82c-1.07,3.23-.64,9.15-.64,9.15l-14.43,1.3,6.3,15.15,11.45-6c3.76,6.31,11.59,7.74,11.59,7.74l.28,12.57L232,117.75ZM213,90.05a4.91,4.91,0,0,1,2.93-6.7c2.74-.79,4.93-.13,6.17,1.32,1.8,2.11,2.17,6.31-1.31,8.1C217,94.71,214.15,92.91,213,90.05Z"/><path class="cls-8" d="M181.38,115c.1-10.27-8.11-18.4-8.11-18.4l11.58-12.38L158.13,67.35l-3.51,23.79c-9.1.29-21.67,6.65-21.67,6.65l-5.63-22.37L99.78,96.68l21.54,11.64c-4.42,10.11.39,23.64.39,23.64l-23,2.36,16.81,30.56,17-18.91c4.5,2.94,13.69,4.68,13.69,4.68l-3.86,22.54L168,169.72l-4.56-19.9c11.14-3.18,16.51-14.54,16.51-14.54L199.27,140l1.2-29.82Zm-27,22.16a14.41,14.41,0,0,1-16.81-13.39c-.19-8.39,3.34-14.08,8.4-16.52,7.35-3.53,19.56-1.4,22,9.85C170.69,129.31,163.44,136,154.41,137.2Z"/><path class="cls-7" d="M142.58,142.46c-10.67-5.27-11.68-20.25-11.72-20.89,0-.12-1.56-16.26,16.42-20.6,6.12-1.48,11.49-1.12,15.95,1.09,5.82,2.86,10.08,9.08,11.4,16.63,1,5.57-.95,12.28-4.91,17.1-3.06,3.72-8.79,8.2-18.7,8.42A18.2,18.2,0,0,1,142.58,142.46Zm19.95-39c-4.13-2-9.13-2.35-14.87-1-16.63,4-15.22,18.77-15.2,18.92s1,14.73,10.83,19.58a16.5,16.5,0,0,0,7.7,1.58c9.3-.2,14.65-4.36,17.49-7.83,3.68-4.47,5.47-10.68,4.58-15.81C172.59,116.32,170.47,107.41,162.53,103.49Z"/><g class="cls-9"><ellipse class="cls-10" cx="188.87" cy="195.94" rx="170.49" ry="18.25"/></g><path class="cls-4" d="M265.07,206.19c-1.14,0-2.3.46-2.3,1.18,0,1.54,4.71.95,4.53-.31C267.21,206.44,266,206.19,265.07,206.19Z"/><path class="cls-5" d="M100.08,214.74c-1.38-.05-2.82.34-2.88,1-.14,1.5,5.58,1.13,5.49-.1C102.64,215.07,101.16,214.78,100.08,214.74Z"/><path class="cls-11" d="M85.52,207.61c2,.18,4.89,1.15,4.2,3s-8.15,1.44-8.51-.88S84,207.47,85.52,207.61Z"/><path class="cls-4" d="M211.16,35.11c1.55-.27,3.34-.58,4.74.32a2.45,2.45,0,0,1,1.15,1.68,6.38,6.38,0,0,0,.32,1.62c1.21,2.49,4,.11,5.68.08a.6.6,0,0,0,0-1.19c-1.3,0-2.32,1-3.58,1.05-1.5,0-1.12-2.18-1.79-3.16-1.55-2.25-4.49-1.95-6.83-1.55-.76.13-.44,1.28.31,1.15Z"/><path class="cls-2" d="M214.78,210.39c-1.16,0-2.36.45-2.37,1,0,1.27,4.76.64,4.61-.39C217,210.54,215.69,210.37,214.78,210.39Z"/><path class="cls-4" d="M274.7,205.6c1.85-.06,4.74.5,4.31,2.32s-7.5,2.32-8.12.19S273.25,205.65,274.7,205.6Z"/><path class="cls-4" d="M249.05,217.38c.77,0,2,.2,1.79,1s-3.11,1-3.37.08S248.45,217.4,249.05,217.38Z"/><path class="cls-4" d="M24.5,77.54a32.85,32.85,0,0,0,7.28-.37c.76-.12.44-1.27-.32-1.15a31.78,31.78,0,0,1-7,.33c-.76,0-.76,1.14,0,1.19Z"/><path class="cls-4" d="M190.35,152a32.76,32.76,0,0,0,7.27-.37c.76-.12.44-1.27-.31-1.15a31.8,31.8,0,0,1-7,.33c-.77-.05-.77,1.14,0,1.19Z"/><path class="cls-4" d="M262.45,46.62A31.53,31.53,0,0,0,260,54.33h1q-1.29-3.09-2.48-6.22c-.25-.65-1.31-.37-1.06.29q1.2,3.14,2.49,6.22c.18.43.95.6,1,0a30.35,30.35,0,0,1,2.3-7.45c.29-.63-.65-1.19-.94-.55Z"/><path class="cls-4" d="M65.09,86.79h0a4.38,4.38,0,0,1-4.36-4.54,4.46,4.46,0,0,1,7.69-3.16,4.53,4.53,0,0,1,1.17,3.5A4.34,4.34,0,0,1,65.09,86.79Zm0-8a3.3,3.3,0,0,0-3.27,3.45,3.28,3.28,0,0,0,3.27,3.46v0a3.26,3.26,0,0,0,3.41-3.19,3.45,3.45,0,0,0-.88-2.68A3.34,3.34,0,0,0,65.09,78.79Z"/><path class="cls-4" d="M65.56,79.8v-6a.55.55,0,0,0-1.09,0v6a.55.55,0,0,0,1.09,0Z"/><path class="cls-4" d="M67.41,82.58c2.27-.2,4.54-.29,6.81-.29a.55.55,0,0,0,0-1.09q-3.41,0-6.81.29c-.69.06-.7,1.16,0,1.09Z"/><path class="cls-4" d="M64.64,85.09a20.16,20.16,0,0,0-.36,8c.11.69,1.16.39,1-.29a19.12,19.12,0,0,1,.36-7.42.54.54,0,0,0-1-.29Z"/><path class="cls-4" d="M62.56,81.88a37.65,37.65,0,0,0-6.37.17c-.69.07-.7,1.16,0,1.09A38.72,38.72,0,0,1,62.56,83c.7,0,.7-1,0-1.09Z"/><path class="cls-4" d="M282.38,58.93a9.69,9.69,0,0,0-2.72,2.42,13.5,13.5,0,0,0-2.1,5.18,14.84,14.84,0,0,0,1,8.65,10.76,10.76,0,0,0,9.08,6.53,14.08,14.08,0,0,0,10.71-3.87,12.28,12.28,0,0,0,3-12.71,10.22,10.22,0,0,0-7-6.95,20.23,20.23,0,0,0-6.11-.55,11.91,11.91,0,0,0-5.87,1.3.44.44,0,0,0,.44.75,10.59,10.59,0,0,1,5.25-1.18,22.77,22.77,0,0,1,5,.26,9.32,9.32,0,0,1,7,5.33,11.55,11.55,0,0,1-1.73,12.54c-4.61,5.07-13.88,6.2-18,0a13.54,13.54,0,0,1-2.12-7.73,13.73,13.73,0,0,1,1.59-6,8.54,8.54,0,0,1,3.06-3.17c.46-.31,0-1.06-.44-.75Z"/><path class="cls-4" d="M289,58q0,11.59.6,23.19c0,.56.89.56.86,0q-.62-11.58-.6-23.19a.43.43,0,0,0-.86,0Z"/><path class="cls-4" d="M277.71,70a98.09,98.09,0,0,1,12.12-.35l11.74.12a.44.44,0,0,0,0-.87l-11.74-.11a100.08,100.08,0,0,0-12.12.34c-.55.06-.56.93,0,.87Z"/><path class="cls-4" d="M286.13,58.11a13.72,13.72,0,0,0-3.59,5.14,16.32,16.32,0,0,0-.69,7.11,17.14,17.14,0,0,0,6.08,11.15c.42.35,1-.26.61-.61a16.36,16.36,0,0,1-5.81-10.41,16,16,0,0,1,.49-6.52,12.55,12.55,0,0,1,3.52-5.25c.39-.4-.22-1-.61-.61Z"/><path class="cls-4" d="M293.25,81A7.57,7.57,0,0,0,296.42,77a19.3,19.3,0,0,0,.95-7c-.21-4.47-2.57-8.39-4.89-12.08-.29-.47-1,0-.74.43,2.1,3.35,4.3,6.89,4.71,10.91a19,19,0,0,1-.49,6.24,7.17,7.17,0,0,1-3.15,4.66c-.46.3,0,1,.44.75Z"/><path class="cls-4" d="M279.9,61.47c.8,1.11,2.16,1.4,3.43,1.75a20.51,20.51,0,0,0,5.29.72,20.28,20.28,0,0,0,10-2.59c.49-.27,0-1-.43-.74a19.54,19.54,0,0,1-13.44,2.07c-1.23-.26-3.36-.56-4.15-1.64-.32-.45-1.07,0-.74.43Z"/><path class="cls-4" d="M280.05,77.06a21.62,21.62,0,0,1,9.71-3.14c3.19-.22,7.17-.16,9.83,1.84.44.34.87-.41.43-.74-2.77-2.09-6.94-2.2-10.26-2a22.53,22.53,0,0,0-10.14,3.25c-.48.29,0,1,.43.75Z"/><path class="cls-4" d="M294.16,54.48c3.61.62,10.4,3.35,8.92,8.16-.11.35.44.49.55.15,1.58-5.16-5.39-8.18-9.32-8.85-.35-.07-.51.48-.15.54Z"/><path class="cls-4" d="M303.36,63.2h0a.49.49,0,0,1-.49-.63,3.91,3.91,0,0,0-.42-3.36c-1.68-2.73-6.18-4.15-8.32-4.51a.46.46,0,0,1-.39-.5.53.53,0,0,1,.61-.48c3.17.54,7.33,2.34,9,5a4.86,4.86,0,0,1,.52,4.12A.5.5,0,0,1,303.36,63.2Zm-9.18-8.94h0c2.21.38,6.86,1.85,8.62,4.71a4.36,4.36,0,0,1,.47,3.72s0,0,0,0a.11.11,0,0,0,.07,0h0s.05,0,.06-.05A4.41,4.41,0,0,0,303,59c-1.57-2.55-5.6-4.28-8.67-4.81,0,0-.07,0-.09,0a.1.1,0,0,0,0,.07Z"/><path class="cls-4" d="M300.47,53.92a7.49,7.49,0,0,1,5.06,4.81c.13.33.68.18.54-.15a8,8,0,0,0-5.45-5.2c-.35-.09-.5.46-.15.54Z"/><path class="cls-4" d="M305.81,59.13h0a.5.5,0,0,1-.48-.32,7.28,7.28,0,0,0-4.91-4.68.47.47,0,0,1-.37-.52.52.52,0,0,1,.62-.45,8.33,8.33,0,0,1,5.61,5.33.44.44,0,0,1,0,.43A.52.52,0,0,1,305.81,59.13Zm-5.26-5.55s-.06.05-.06.08,0,0,0,.05a7.7,7.7,0,0,1,5.21,4.93.08.08,0,0,0,.08.06.09.09,0,0,0,.07,0h0a7.9,7.9,0,0,0-5.3-5.07Z"/><path class="cls-4" d="M170,46.24a2.23,2.23,0,0,0,3.11,2c1.82-.7,2.48-3,2.12-4.78-.78-3.81-7.25,0-4.95,3.14.21.3.69,0,.47-.3-.87-1.21-.15-2.61,1-3.33a3.84,3.84,0,0,1,1.17-.52c1.19-.29,1.77.73,1.83,1.73a3.94,3.94,0,0,1-1,3c-1.09,1-3.21.8-3.17-1,0-.37-.56-.34-.57,0Z"/><path class="cls-4" d="M172.2,48.66a2.52,2.52,0,0,1-1.81-.75,2.28,2.28,0,0,1-.64-1.67h0a2.69,2.69,0,0,1,.27-2.6,4.28,4.28,0,0,1,3.32-2,2,2,0,0,1,2.06,1.78c.39,1.9-.35,4.29-2.26,5A2.53,2.53,0,0,1,172.2,48.66ZM170.29,47a1.77,1.77,0,0,0,.42.66,2.08,2.08,0,0,0,1.49.61,2.13,2.13,0,0,0,.79-.15c1.69-.64,2.34-2.81,2-4.52a1.56,1.56,0,0,0-1.63-1.43,3.85,3.85,0,0,0-3,1.75,2.27,2.27,0,0,0-.34,1.91l.13,0a2.26,2.26,0,0,1,0-1,3.11,3.11,0,0,1,1.44-2,4.43,4.43,0,0,1,1.23-.55,2.28,2.28,0,0,1,.44-.05c1.07,0,1.6,1,1.65,2a4.1,4.1,0,0,1-1.06,3.17,2.48,2.48,0,0,1-1.71.67,1.74,1.74,0,0,1-1.69-1h0l0-.06Zm.55-.12a1.31,1.31,0,0,0,1.3.79,2.09,2.09,0,0,0,1.41-.56,3.67,3.67,0,0,0,.93-2.83c0-.78-.43-1.57-1.22-1.57a1.37,1.37,0,0,0-.34,0,3.75,3.75,0,0,0-1.1.49,2.68,2.68,0,0,0-1.24,1.67,1.69,1.69,0,0,0,.31,1.35.47.47,0,0,1,.08.41A.52.52,0,0,1,170.84,46.83Zm-.63-.64.1.18v-.19h-.1Z"/><path class="cls-4" d="M361.57,96a2.22,2.22,0,0,0,1.47,3.4c1.9.43,3.72-1.13,4.4-2.81,1.45-3.61-6-4-5.87-.11,0,.36.59.38.57,0-.06-1.49,1.31-2.26,2.66-2.24a4.11,4.11,0,0,1,1.26.21c1.15.42,1.08,1.59.57,2.46a3.91,3.91,0,0,1-2.49,2c-1.48.26-3.12-1.1-2.09-2.58.21-.3-.27-.59-.48-.29Z"/><path class="cls-4" d="M363.67,99.68a3.08,3.08,0,0,1-.68-.07A2.57,2.57,0,0,1,361.13,98a2.28,2.28,0,0,1,.26-2.17h0c.28-1.64,1.91-2.37,3.42-2.37a3.26,3.26,0,0,1,2.71,1.16,2.09,2.09,0,0,1,.11,2A4.67,4.67,0,0,1,363.67,99.68Zm-2.22-2.92a1.85,1.85,0,0,0,.08,1.11,2.17,2.17,0,0,0,1.55,1.31,3.06,3.06,0,0,0,.59.07,4.23,4.23,0,0,0,3.57-2.76,1.63,1.63,0,0,0-.08-1.6,2.8,2.8,0,0,0-2.34-1,2.9,2.9,0,0,0-2.93,1.74l.14,0a2.05,2.05,0,0,1,.49-.81,3.07,3.07,0,0,1,2.22-.85h.07a4.13,4.13,0,0,1,1.33.22,1.52,1.52,0,0,1,1,.91,2.29,2.29,0,0,1-.29,1.86,4.08,4.08,0,0,1-2.64,2,1.84,1.84,0,0,1-.41,0,2.44,2.44,0,0,1-1.94-.94,1.64,1.64,0,0,1-.29-1.26h0v-.06A.38.38,0,0,1,361.45,96.76Zm.53.2a1.14,1.14,0,0,0,.21,1,2,2,0,0,0,1.58.76,2,2,0,0,0,.34,0,3.63,3.63,0,0,0,2.33-1.84,1.86,1.86,0,0,0,.26-1.49,1.1,1.1,0,0,0-.71-.65,4,4,0,0,0-1.19-.2h-.06a2.68,2.68,0,0,0-1.91.72,1.71,1.71,0,0,0-.47,1.29.48.48,0,0,1-.13.35A.44.44,0,0,1,362,97Zm-.18-.88c0,.07,0,.13,0,.2l.09-.13v0A.11.11,0,0,0,361.8,96.08Z"/><path class="cls-4" d="M331.43,56.64a31.77,31.77,0,0,0,5.72-2.08c.33-.17,0-.65-.28-.49a30.84,30.84,0,0,1-5.59,2,.29.29,0,0,0,.15.55Z"/><path class="cls-4" d="M331.35,56.87h0a.5.5,0,0,1-.48-.45.48.48,0,0,1,.36-.54,30.08,30.08,0,0,0,5.54-2,.46.46,0,0,1,.23,0,.53.53,0,0,1,.5.41.45.45,0,0,1-.25.52,31.07,31.07,0,0,1-5.76,2.1ZM337,54.25h0a30,30,0,0,1-5.62,2,.06.06,0,0,0,0,.06s0,.08.08.07a31.56,31.56,0,0,0,5.67-2.07s0,0,0,0S337,54.25,337,54.25Z"/><path class="cls-4" d="M331.57,53.33c1.35,1.7,3.14,3,4.33,4.85.2.3.69,0,.49-.29-1.21-1.87-3-3.22-4.42-5-.23-.28-.63.12-.4.4Z"/><path class="cls-4" d="M336.13,58.53h0a.49.49,0,0,1-.41-.23,17.77,17.77,0,0,0-2.45-2.81,25.81,25.81,0,0,1-1.88-2,.53.53,0,0,1,.39-.85.45.45,0,0,1,.36.18,25.55,25.55,0,0,0,1.87,2,18.65,18.65,0,0,1,2.56,3,.46.46,0,0,1,0,.48A.54.54,0,0,1,336.13,58.53Zm-4.35-5.48-.06.06a.09.09,0,0,0,0,.09,24.64,24.64,0,0,0,1.84,2,17.71,17.71,0,0,1,2.5,2.88.05.05,0,0,0,.05,0h0a.09.09,0,0,0,.08,0s0,0,0,0a18.65,18.65,0,0,0-2.51-2.88,26.75,26.75,0,0,1-1.91-2.06S331.78,53.06,331.78,53.05Z"/><path class="cls-4" d="M333.22,58.46a36.69,36.69,0,0,0,1.94-5.69c.07-.36-.47-.51-.55-.15a34.7,34.7,0,0,1-1.94,5.69c-.13.34.41.48.55.15Z"/><path class="cls-4" d="M332.93,58.87h0a.51.51,0,0,1-.42-.22.42.42,0,0,1,0-.42,35.31,35.31,0,0,0,1.93-5.66.46.46,0,0,1,.46-.38.56.56,0,0,1,.42.2.52.52,0,0,1,.09.42,36.15,36.15,0,0,1-1.95,5.73A.52.52,0,0,1,332.93,58.87Zm-.06-.46a.13.13,0,0,0,.06,0h0a.09.09,0,0,0,.09,0,36.28,36.28,0,0,0,1.92-5.66,0,0,0,0,0,0,0,.08.08,0,0,0-.07,0s0,0,0,0a35.13,35.13,0,0,1-1.94,5.73v0Z"/><path class="cls-4" d="M80.56,46.46a30.83,30.83,0,0,0,5.72-2.08c.32-.16,0-.65-.29-.49a30.51,30.51,0,0,1-5.58,2,.28.28,0,0,0,.15.54Z"/><path class="cls-4" d="M80.48,46.69h0a.49.49,0,0,1-.48-.44.47.47,0,0,1,.36-.54,30.83,30.83,0,0,0,5.54-2,.46.46,0,0,1,.22-.06.54.54,0,0,1,.51.41.46.46,0,0,1-.25.53,32.58,32.58,0,0,1-5.76,2.1Zm5.64-2.61h0a30.68,30.68,0,0,1-5.62,2s0,0,0,.06a.06.06,0,0,0,.08.06,30.83,30.83,0,0,0,5.67-2.06s0,0,0,0A.1.1,0,0,0,86.12,44.08Z"/><path class="cls-4" d="M80.69,43.16c1.36,1.69,3.15,3,4.34,4.85.2.3.69,0,.49-.29-1.22-1.87-3-3.23-4.43-5-.23-.28-.62.12-.4.4Z"/><path class="cls-4" d="M85.26,48.35h0a.49.49,0,0,1-.42-.23,17.64,17.64,0,0,0-2.44-2.81,24,24,0,0,1-1.88-2,.54.54,0,0,1,.39-.86.45.45,0,0,1,.35.18,25.81,25.81,0,0,0,1.88,2,19.17,19.17,0,0,1,2.56,3,.46.46,0,0,1,0,.48A.53.53,0,0,1,85.26,48.35Zm-4.35-5.47a.11.11,0,0,0-.06.06.07.07,0,0,0,0,.08,24.76,24.76,0,0,0,1.85,2,18.28,18.28,0,0,1,2.5,2.89c.05.07.11,0,.13,0s0,0,0,0A18.14,18.14,0,0,0,82.83,45a26.6,26.6,0,0,1-1.91-2.05Z"/><path class="cls-4" d="M82.35,48.29a36.08,36.08,0,0,0,1.93-5.7c.08-.35-.46-.5-.54-.15a36.12,36.12,0,0,1-1.94,5.7c-.14.33.41.48.55.15Z"/><path class="cls-4" d="M82.06,48.69h0a.53.53,0,0,1-.43-.21.47.47,0,0,1,0-.43,34.94,34.94,0,0,0,1.92-5.66A.47.47,0,0,1,84,42a.54.54,0,0,1,.41.2.49.49,0,0,1,.1.42,36.5,36.5,0,0,1-2,5.73A.51.51,0,0,1,82.06,48.69ZM82,48.24a.09.09,0,0,0,.06,0,.09.09,0,0,0,.09-.06,35.59,35.59,0,0,0,1.92-5.66,0,0,0,0,0,0,0s0,0-.07,0,0,0,0,0a35.83,35.83,0,0,1-2,5.73v0Z"/><path class="cls-4" d="M357.82,133.56q-1.56,2.07-3.14,4.12c-.22.29.24.61.46.32l3.15-4.12c.22-.29-.24-.6-.47-.32Z"/><path class="cls-4" d="M354.92,138.33h0a.52.52,0,0,1-.47-.29.46.46,0,0,1,.05-.49l3.15-4.12a.49.49,0,0,1,.4-.2.55.55,0,0,1,.47.29.48.48,0,0,1,0,.5l-3.15,4.11A.49.49,0,0,1,354.92,138.33Zm3.13-4.66s0,0-.05,0l0,0-3.12,4.07s0,0,0,0a.11.11,0,0,0,.08.05h0s0,0,.05,0l3.15-4.12s0,0,0,0A.09.09,0,0,0,358.05,133.67Z"/><path class="cls-4" d="M354,134.6l4.69,3c.31.2.63-.27.32-.47l-4.69-3c-.3-.19-.62.27-.32.47Z"/><path class="cls-4" d="M358.81,137.85h0a.5.5,0,0,1-.27-.08l-4.69-3a.46.46,0,0,1-.21-.53.52.52,0,0,1,.49-.38.53.53,0,0,1,.27.08l4.69,3a.47.47,0,0,1,.21.54A.53.53,0,0,1,358.81,137.85Zm-4.68-3.55s-.06,0-.07.07,0,0,0,0l4.69,3c.05,0,.09,0,.11-.06s0,0,0,0l-4.69-3Z"/><path class="cls-4" d="M35.28,118.24l2.85,4.34c.2.3.69,0,.49-.29L35.77,118c-.2-.31-.69,0-.49.28Z"/><path class="cls-4" d="M38.36,122.92h0a.49.49,0,0,1-.42-.23l-2.84-4.33a.46.46,0,0,1,0-.48.54.54,0,0,1,.47-.27.47.47,0,0,1,.41.23l2.85,4.33a.46.46,0,0,1,0,.48A.53.53,0,0,1,38.36,122.92Zm-2.82-4.87a.09.09,0,0,0-.08,0s0,0,0,0l2.84,4.34s0,0,0,0h0a.11.11,0,0,0,.08,0s0,0,0,0l-2.84-4.33S35.56,118.05,35.54,118.05Z"/><path class="cls-4" d="M35,122.23l4.37-3.44c.28-.23-.12-.63-.4-.4l-4.37,3.44c-.28.22.12.62.4.4Z"/><path class="cls-4" d="M34.85,122.51h0a.55.55,0,0,1-.51-.36.45.45,0,0,1,.16-.5l4.36-3.44a.56.56,0,0,1,.32-.11.55.55,0,0,1,.51.36.45.45,0,0,1-.16.5l-4.36,3.44A.56.56,0,0,1,34.85,122.51Zm4.33-4a.06.06,0,0,0,0,0L34.77,122h0s0,.06.1.06h0a.06.06,0,0,0,0,0l4.36-3.44h0A.16.16,0,0,0,39.18,118.54Z"/><path class="cls-4" d="M130.23,196.89a4.13,4.13,0,0,0,3.17.18l31.47-11.15-2.74-7.73,0,0,0-.05-7.72,2.73h0l-23.75,8.42a4.09,4.09,0,0,0-2.49,5.23h0A4.09,4.09,0,0,0,130.23,196.89Z"/><g class="cls-12"><path class="cls-13" d="M174.47,160.41a16.75,16.75,0,0,1,16.89,28.14,16.85,16.85,0,0,1-5.71,3.42,16.59,16.59,0,0,1-6.58.93,16.74,16.74,0,0,1-14.79-11.12,16.61,16.61,0,0,1-.93-6.58,16.76,16.76,0,0,1,5.42-11.38A16.53,16.53,0,0,1,174.47,160.41Z"/></g><path class="cls-14" d="M186.49,194.33a19.25,19.25,0,1,0-24.57-11.71A19.25,19.25,0,0,0,186.49,194.33ZM165,169a16.75,16.75,0,0,1,3.82-5.16,16.75,16.75,0,0,1,22.59,24.73,16.85,16.85,0,0,1-5.71,3.42,16.59,16.59,0,0,1-6.58.93,16.74,16.74,0,0,1-14.79-11.12,16.61,16.61,0,0,1-.93-6.58A16.88,16.88,0,0,1,165,169Z"/><path class="cls-4" d="M186.49,194.33a19.25,19.25,0,1,0-24.57-11.71A19.25,19.25,0,0,0,186.49,194.33ZM165,169a16.75,16.75,0,0,1,3.82-5.16,16.75,16.75,0,0,1,22.59,24.73,16.85,16.85,0,0,1-5.71,3.42,16.59,16.59,0,0,1-6.58.93,16.74,16.74,0,0,1-14.79-11.12,16.61,16.61,0,0,1-.93-6.58A16.88,16.88,0,0,1,165,169Z"/><g class="cls-15"><path class="cls-7" d="M168.72,183.45a1,1,0,0,1,1.12.34,12.83,12.83,0,0,0,8.75,5,12.49,12.49,0,0,0,5.71-.65A1,1,0,1,1,185,190a14.73,14.73,0,0,1-16.7-5.05,1,1,0,0,1,.2-1.38A.94.94,0,0,1,168.72,183.45Z"/></g><g class="cls-15"><path class="cls-7" d="M166.05,176.62a.59.59,0,0,1,.23-.05,1,1,0,0,1,1.08.88,12.92,12.92,0,0,0,.67,2.94,1,1,0,1,1-1.87.66,14.7,14.7,0,0,1-.77-3.4A1,1,0,0,1,166.05,176.62Z"/></g><path class="cls-5" d="M111,58.57c-.3-.84-2.33-5.4-2.41-5.84s15.66-2,15.66-2L149,57.05l3.44,1.25-14.09,1.4s-16.35.6-17,.68S111,58.57,111,58.57Z"/><g class="cls-9"><path class="cls-5" d="M111,58.57c-.3-.84-2.33-5.4-2.41-5.84s15.66-2,15.66-2L149,57.05l3.44,1.25-14.09,1.4s-16.35.6-17,.68S111,58.57,111,58.57Z"/></g><path class="cls-5" d="M98.42,70.08s7.94-13.19,8.86-13.51,44.25,1.77,45.18,1.73S98.42,70.08,98.42,70.08Z"/><path class="cls-5" d="M108.58,52.73c-.41-.16,1-13.22,1.92-13.46s44.14,19.1,42,19S109.23,53,108.58,52.73Z"/><polygon class="cls-2" points="209.36 128.24 252.72 125.83 263.41 185.81 213.97 193.72 209.36 128.24"/><polygon class="cls-7" points="213.72 134.01 220.22 186.2 259.17 180.56 250.36 131.66 213.72 134.01"/><path class="cls-16" d="M249.84,131.7a20.71,20.71,0,0,1-4.46.56l-4.17.42c-2.88.29-5.77.57-8.66.82-5.74.51-11.5.9-17.27,1l.35.26a4.63,4.63,0,0,1,1.86-4.86c1.23-.82,2.83-.82,4.24-1.07a4.2,4.2,0,0,0,2.49-1.12,11.53,11.53,0,0,1,2.68-2.14c3.1-1.72,7.18-1,10,.93,1.8,1.19,3.49.82,5.54.85a8.5,8.5,0,0,1,3.73.74,7.28,7.28,0,0,1,3.39,4c.17.42.86.24.69-.19-1.1-2.75-3.06-4.74-6.05-5.18-2.16-.33-4.75.52-6.67-.7-2.94-1.88-6.82-3-10.19-1.52a10.79,10.79,0,0,0-3.27,2.25,6.72,6.72,0,0,1-.8.8,5.82,5.82,0,0,1-2.43.65c-1.81.27-3.56.5-4.83,2a5.5,5.5,0,0,0-1.11,4.74.37.37,0,0,0,.35.26c5.9-.12,11.8-.53,17.68-1.05,2.95-.26,5.9-.55,8.85-.85l4.16-.42a18.36,18.36,0,0,0,4.06-.52C250.47,132.25,250.28,131.55,249.84,131.7Z"/><path class="cls-16" d="M225.6,141c3.69-.64,7.52-.78,11.25-1.13l11.2-1c.44,0,.44-.74,0-.69l-11.63,1.09c-3.65.34-7.39.49-11,1.11-.44.08-.25.75.19.67Z"/><path class="cls-16" d="M226,144a47.18,47.18,0,0,1,12-1c3.68.11,7.33-.79,10.94-1.42.44-.08.25-.75-.18-.67-3.86.67-7.65,1.51-11.58,1.36a44,44,0,0,0-11.39,1c-.44.1-.26.77.18.67Z"/><path class="cls-16" d="M226.66,147.77A69.72,69.72,0,0,1,237.79,146l11.46-1.21c.44,0,.44-.74,0-.69l-11.88,1.25a68,68,0,0,0-10.9,1.75.35.35,0,0,0,.19.67Z"/><path class="cls-16" d="M229.32,161a91.93,91.93,0,0,1,12-.67,66.34,66.34,0,0,0,11.25-1.25c.44-.09.26-.77-.19-.68a67.63,67.63,0,0,1-11.88,1.24,85.72,85.72,0,0,0-11.33.68c-.44.07-.26.75.19.68Z"/><path class="cls-16" d="M228.94,159.59c3.57-1.25,7.34-.9,11.05-1.17s7.56-1.39,11.27-2.25c.44-.1.25-.78-.19-.68-3.9.9-7.83,2.06-11.84,2.27-3.53.19-7.09,0-10.48,1.15-.42.15-.24.83.19.68Z"/><path class="cls-16" d="M231.06,171.35a91.36,91.36,0,0,1,11.49-2,69.48,69.48,0,0,0,10.73-1.61.35.35,0,0,0-.18-.67,76.14,76.14,0,0,1-11.35,1.67,89,89,0,0,0-10.87,1.92c-.44.1-.25.77.18.67Z"/><path class="cls-16" d="M231.22,174.72c4-.41,8-.76,12-1.29a54.21,54.21,0,0,0,5.53-1,34.48,34.48,0,0,1,6-1.19c.45,0,.45-.72,0-.7a29.66,29.66,0,0,0-5.44,1,57.23,57.23,0,0,1-5.95,1.13c-4,.55-8.08.89-12.12,1.3-.44,0-.45.74,0,.7Z"/><path class="cls-16" d="M231.63,177.24q7.92-1,15.82-2.1c.44-.06.26-.73-.18-.67q-7.82,1.13-15.64,2.07c-.44.06-.44.75,0,.7Z"/><path class="cls-5" d="M217.77,145.71l1.21.88a4.23,4.23,0,0,0,1.17.81.69.69,0,0,0,.82-.23,6.36,6.36,0,0,0,.64-2.09c.29-1,.57-1.94.85-2.91a.36.36,0,0,0-.69-.2c-.37,1.28-.75,2.55-1.12,3.83a5.56,5.56,0,0,1-.26.91c-.15,0-.47-.32-.59-.41l-1.67-1.22c-.37-.27-.73.35-.36.63Z"/><path class="cls-5" d="M220.65,162.06a14.17,14.17,0,0,0,2.51,1.66.56.56,0,0,0,.77-.23,8.66,8.66,0,0,0,.7-2.5l.83-3.07a.36.36,0,0,0-.69-.19c-.36,1.34-.73,2.68-1.09,4a5.62,5.62,0,0,1-.26,1c-.24.45-.06.36-.5,0s-1.28-.86-1.9-1.27c-.39-.26-.75.36-.37.62Z"/><path class="cls-5" d="M222.3,176.23a14.47,14.47,0,0,0,2.5,1.66.56.56,0,0,0,.78-.23,9,9,0,0,0,.7-2.5c.28-1,.56-2,.83-3.07a.36.36,0,0,0-.69-.19c-.37,1.34-.73,2.68-1.09,4a5.62,5.62,0,0,1-.26,1c-.24.45-.07.36-.51,0s-1.28-.86-1.89-1.27c-.39-.26-.75.36-.37.62Z"/><path class="cls-17" d="M237.14,122.24a21.72,21.72,0,0,0-3.58-.55c-1.07,0-4,2.91-3.77,3.22s1.85.22,3.25-.72l2.75.16,1.9-1.28C237.87,123,237.14,122.24,237.14,122.24Z"/><path class="cls-17" d="M237.41,122.24a28.47,28.47,0,0,0-2.69,1.51c-.49.41-2.51.88-2.29,1.31s2.33.2,2.92,0,2,.51,2.63-1.12Z"/><path class="cls-18" d="M259.7,102.74s-7.22,11.65-10.41,13.26c-4.85,2.44-12.42,5.8-12.42,5.8s.55,2.88,1.29,2.51c0,0,12.06-1.94,15.29-4.09,4.27-2.82,9.93-10.25,9.93-10.25Z"/><path class="cls-17" d="M261,156.08s5.11,15.51,3.42,22.25c0,0-2.11,4.2-2.28,7.1l-2.24.68a.9.9,0,0,0,0,.71c.18.31,4,1.08,6.55.09l2.7-3.84-1.34-2.59a6.48,6.48,0,0,0-1-1.62,24,24,0,0,1,1.73-9.06,21.76,21.76,0,0,0,1.76-8.26l-1.53-2.15-3-5.21-2.75,0Z"/><g class="cls-9"><path class="cls-17" d="M261,156.08s5.11,15.51,3.42,22.25c0,0-2.11,4.2-2.28,7.1l-2.24.68a.9.9,0,0,0,0,.71c.18.31,4,1.08,6.55.09l2.7-3.84-1.34-2.59a6.48,6.48,0,0,0-1-1.62,24,24,0,0,1,1.73-9.06,21.76,21.76,0,0,0,1.76-8.26l-1.53-2.15-3-5.21-2.75,0Z"/></g><path class="cls-19" d="M264.93,185a11.43,11.43,0,0,1,1.9-6.18h0a6.48,6.48,0,0,1,1,1.62l.75,1.44-.12,2.16-2,2.83c-2.51,1-6.37.22-6.55-.09a.9.9,0,0,1,0-.71l2.24-.68A4.05,4.05,0,0,0,264.93,185Z"/><path class="cls-17" d="M272.66,153.12l.23,2.58a30,30,0,0,1,.92,7.76c-.18,3.6-3.56,12.68-3.79,16.46a12.74,12.74,0,0,1,.49,7,4.91,4.91,0,0,1-4.05-.05s-.5-2.9,1.7-7.1A196.22,196.22,0,0,0,265.91,155c-2-11.6,1-4.31,1-4.31Z"/><path class="cls-19" d="M270.81,185.1a9.24,9.24,0,0,1-.3,1.86,4.91,4.91,0,0,1-4.05-.05,7.46,7.46,0,0,1,0-1.78A15.48,15.48,0,0,0,270.81,185.1Z"/><path class="cls-11" d="M259.7,123.07s-6.26,12.61,1.32,33c0,0,8.18,2.6,11.87-.38,0,0,2.12-16.23,3.18-19.72l-1.14-1.55s-1.95-7.15-6.42-9.86-3,0-3,0Z"/><path class="cls-17" d="M266.58,98s1.57,2.44,2.2,3.33,2,2.91,2,2.91-2.62,5.09-2.94,5.19-5.71,1.63-6.34,1.42a23.67,23.67,0,0,1-3-2.15l2.13-6.13s2.48,0,2.74-1.11a18.64,18.64,0,0,0,.21-3.46Z"/><g class="cls-9"><path class="cls-17" d="M263.38,101.18a21.27,21.27,0,0,0,.15-3.15h3.05s.22.35.54.83A6.28,6.28,0,0,1,263.38,101.18Z"/></g><path class="cls-17" d="M259.61,86.12s-5,4.37-3.24,10.44l1.81-.17S259.3,105,267,97.47s.93-9.2.93-9.2a16.54,16.54,0,0,0-2.31-2C265.15,86,259.61,86.12,259.61,86.12Z"/><path class="cls-4" d="M257,81.8c-2.36-.43-6.93,5,.7,8.53s8.64.13,8.64.13-2.84,10.83,3.09,13.11c2.61,1,3.79,5.38,6.37,6.88,3.18,1.86,12-1,9.6-8.58s-9.4-5.54-11.58-8.82c-3.25-4.9-.66-7.89-2.92-10.11C267.71,79.83,264.89,83.25,257,81.8Z"/><path class="cls-17" d="M264.35,92.43s.21-2.65,1.76-1.85.67,4.26-1.17,4S264.35,92.43,264.35,92.43Z"/><path class="cls-8" d="M262.91,102c-.52.17-3,.52-3.21.7a17.72,17.72,0,0,0-.82,3.62c-.12.82-1.46,2.52-1.58,3a4.07,4.07,0,0,0,2,4c1.31.65-.1,11.75-.1,11.75a62,62,0,0,0,9,0c2.69-.4,1.84-5.56,2-5.62s.53-6.89,1.17-7.36,3.21,6,3.27,6.25,1.54,14.35,1.48,14.64,2.45.56,2.55-.67c0-.41-.81-14.43-.75-14.9s-5.09-13.62-5.79-13.91a43.17,43.17,0,0,0-4.73-1.52c-.24.06-1.55,1.67-3.3,1.14S262.91,102,262.91,102Z"/><path class="cls-20" d="M268.91,102.46c-.45.55-4.1,7.55-4.32,10.68S267,152.18,267,153s8.59.41,10.1.4c1.1,0-.73-15.81-2.05-22s-3.56-18.5-3.56-18.5l-1.3-8.34Z"/><path class="cls-20" d="M258,112.23c.65.73,1.1,4.1-.31,12.55s-3,25.81-1.87,28.29c.28.63,6.51.18,6.51.18s1.3-21.45-.35-33.56c-.46-3.36-1.9-9.47.14-17.47,0,0-2.2.19-2.41.52a31.33,31.33,0,0,0-2.43,6.78A4,4,0,0,0,258,112.23Z"/><rect class="cls-5" x="265.86" y="125.53" width="18.13" height="11.83" transform="translate(-17.39 45.34) rotate(-9.14)"/><path class="cls-17" d="M276.55,133.61s-2.89,2.47-2.21,3.07,2.21-1.2,2.21-1.2-1.56,2.26-.63,2.51a5.32,5.32,0,0,0,3.13-.24c.56-.36-.17-5.14-.45-5.14A14.58,14.58,0,0,0,276.55,133.61Z"/><path class="cls-20" d="M268.91,102.46a25.55,25.55,0,0,1,3.28,1c.29.17,6.9,5.89,7.9,14.24.78,6.5-1.06,14.9-1.12,15.17-.11.46-2.78,1.61-2.89.21s-2.25-13.35-2.25-13.35-1.91-7.66-2.13-7.36,0,1.78,0,1.78Z"/><path class="cls-21" d="M263.41,101.05c0-.3-1.11.93-1.09,1.17s.27,2.3.75,2.16,1-1.2,1-1.2A2.93,2.93,0,0,1,263.41,101.05Z"/><path class="cls-21" d="M266.42,100.57c-.25,1.08-2.36,2.61-2.36,2.61s-.05,1.16.2,1.35,3.85-1.76,3.89-2.31S266.42,100.57,266.42,100.57Z"/><path class="cls-2" d="M290.13,163.64a20.2,20.2,0,0,1,6.82-3.57,13.83,13.83,0,0,1,6.48,0l3.69-.88s6.71,1.4,9.85,4.53v6.91s-.63,5.88-.72,6-3,1.7-3,1.7l-1.17,3.87-.33,1.83L311,189.2l-8.07.21-10.89-3-3.18-12.48Z"/><path class="cls-22" d="M291.26,187.9c-.13-.08-6.45-3.36-10.81-.78s-2.31,8.41-2.31,8.41l7.12.85s9.21-.16,9.75-.37,2.95-5,2.95-5L292.79,188Z"/><path class="cls-17" d="M289.69,194.63a13.69,13.69,0,0,1-4.24-.28l.17,4.35,3.84-.14Z"/><path class="cls-19" d="M277.79,191a6.88,6.88,0,0,0-.24,8.32l9-.63a5.12,5.12,0,0,1-.54-4.2S281.43,190,277.79,191Z"/><path class="cls-23" d="M280.11,191c-1.48,1.16-3.21,3.63-1.56,8.25l-1,.07a6.88,6.88,0,0,1,.24-8.32A4.79,4.79,0,0,1,280.11,191Z"/><path class="cls-17" d="M306.77,158.88a2.35,2.35,0,0,1,.87,2.28c-.31,1.42-2.95,6.17-6.16,7,0,0-6-4.48-4.4-8.45S301,157.6,301,157.6Z"/><g class="cls-9"><path class="cls-17" d="M297.08,159.68c1.57-4,3.89-2.08,3.89-2.08l5.8,1.28a2.31,2.31,0,0,1,.35.35h0a6.13,6.13,0,0,1-5.31,5C297.65,164.71,296.84,160.29,297.08,159.68Z"/><path class="cls-7" d="M301.22,164.33a3.87,3.87,0,0,1-3.35-1.76,4.38,4.38,0,0,1-.84-2.91c.84-2.11,1.9-2.56,2.64-2.56a2.29,2.29,0,0,1,1.32.46l5.81,1.29a2.09,2.09,0,0,1,.36.35h0v0a6.23,6.23,0,0,1-5.35,5.06Zm-1.55-7.13c-1,0-1.9.86-2.55,2.5a4.38,4.38,0,0,0,.83,2.82,3.8,3.8,0,0,0,3.27,1.72,4,4,0,0,0,.59,0,6.1,6.1,0,0,0,5.26-5,1.88,1.88,0,0,0-.32-.31l-5.81-1.29A2.2,2.2,0,0,0,299.67,157.2Z"/></g><path class="cls-17" d="M307.16,149.72s3.79,11.36-4.9,12.92-5.75-12.89-5.75-12.89l6.61-1.36Z"/><path class="cls-17" d="M296.41,155.14a1.62,1.62,0,0,0-1.81-.65c-1.13.38.76,5.28,2.51,4.53S296.41,155.14,296.41,155.14Z"/><path class="cls-19" d="M306.36,150.5s-3.47,6.08-10.33,4.25-3.11-6.07-3.11-6.07.69.88,1.27.86,3.27-6.41,9.33-5.62,4.2,2.7,4.2,2.7,1.26-.34,2.38,1.25,1.2,6.16-1.13,7.44l-1-1.06A12,12,0,0,0,306.36,150.5Z"/><path class="cls-17" d="M307.56,154.72a1.62,1.62,0,0,1,1.76-.79c1.15.29-.35,5.32-2.16,4.71S307.56,154.72,307.56,154.72Z"/><path class="cls-24" d="M288.23,194.21a15.48,15.48,0,0,0,.19,4.79s21.33,1.81,29.86-1.14,9.7-6.7,6.53-9.49S309.44,184.78,288.23,194.21Z"/><path class="cls-17" d="M316.53,194.72s-3.69,4.28-4.88,4.42l4.66-.19,1.55-.86.16-2Z"/><path class="cls-19" d="M324.44,190.62a6.88,6.88,0,0,1,.88,8.28l-9,0a5.1,5.1,0,0,0,.22-4.23S320.74,189.9,324.44,190.62Z"/><path class="cls-23" d="M322.13,190.79c1.57,1.05,3.48,3.39,2.19,8.11h1a6.88,6.88,0,0,0-.88-8.28A4.8,4.8,0,0,0,322.13,190.79Z"/><path class="cls-7" d="M318.71,198.36a5.53,5.53,0,0,0-.32-3.55l-.22.12a5.41,5.41,0,0,1,.29,3.37Z"/><path class="cls-7" d="M320.14,198.33a5.76,5.76,0,0,0-.66-4.16l-.21.15a5.56,5.56,0,0,1,.62,4Z"/><path class="cls-7" d="M285,198.21l.25-.07c-.64-2.28-.1-3.33-.09-3.34l-.23-.12S284.32,195.81,285,198.21Z"/><path class="cls-7" d="M283.52,198.25l.24-.09a3.62,3.62,0,0,1,.54-3.85l-.17-.19A3.87,3.87,0,0,0,283.52,198.25Z"/><path class="cls-2" d="M317,163.76s7.67,8.74,9.45,17.49-14.22,10.85-20.52,9l-.62-4.16s8.48-3.83,8.33-5.47a10.36,10.36,0,0,0-.38-2.31A15.85,15.85,0,0,1,317,163.76Z"/><path class="cls-2" d="M290.13,163.64s-13.72,12.52-11.94,18.8c1.61,5.69,14.94,9.29,19,8.67v-3.29s-8.84-4.91-8.32-7a5.26,5.26,0,0,1,1.19-2.19S294.36,166.41,290.13,163.64Z"/><polygon class="cls-25" points="289.69 191.26 289.69 191.73 296.03 191.7 296.03 191.26 289.69 191.26"/><polygon class="cls-25" points="306.71 191.26 306.71 191.73 313.05 191.7 313.05 191.26 306.71 191.26"/><polygon class="cls-26" points="286.07 193.03 317.4 193.03 317.4 191.62 285.8 191.75 286.07 193.03"/><polygon class="cls-27" points="286.2 191.27 316.74 191.27 317.4 171.01 285.37 170.9 286.2 191.27"/><path class="cls-7" d="M301.1,178.21c1.81-.17,3.89.54,3.94,3.26s-5.48,3.67-5.84.58S300.49,178.27,301.1,178.21Z"/><path class="cls-2" d="M241.83,186,243,198.72s-66.47,4.55-75.29,6.29l-18-5.1,15.08-9.15S237.64,186.71,241.83,186Z"/><path class="cls-5" d="M241.83,186c-4.05.74-73.12,4.62-76.89,4.8l7.22,5.09-6.8,3.62,4.72,2.52-2.39,3c8.82-1.74,75.29-6.29,75.29-6.29Z"/><polygon class="cls-5" points="149.67 199.91 157.66 202.17 156.62 195.69 149.67 199.91"/><rect class="cls-7" x="172.05" y="192.84" width="70.28" height="0.32" transform="translate(-14.96 17.43) rotate(-4.65)"/><rect class="cls-7" x="169.89" y="198.12" width="72.86" height="0.32" transform="translate(-19.06 21.97) rotate(-5.83)"/><path class="cls-4" d="M196.89,68.59c2.24,1.74,5.58,3.77,6.21,6.76.24,1.16-.35,2.79-1.78,2.39a9.54,9.54,0,0,1-2.19-1.15c-1.36-.84-2.62-1.83-3.9-2.78s-2.77-2-4.09-3.15c-.75-.64-1.88-1.37-1.85-2.49a2.66,2.66,0,0,1,.49-1.15,1.37,1.37,0,0,1,2-.18,63,63,0,0,1,7.93,6.35,3.08,3.08,0,0,1,1,1.59c0,1-1.49.07-2-.19a30.88,30.88,0,0,1-4.2-3.29c-.33-.26-.79.2-.46.47,1.66,1.36,3.23,3,5.23,3.84.84.36,2.17.58,2.06-.74-.14-1.61-1.91-2.79-3-3.72-1.87-1.58-3.82-3.06-5.78-4.52-.72-.53-1.41-1.17-2.35-.84a2.58,2.58,0,0,0-1.41,1.57,1.93,1.93,0,0,0,0,2.08A14.4,14.4,0,0,0,191.74,72c1.86,1.46,3.77,2.9,5.7,4.27A20.8,20.8,0,0,0,200.37,78c.62.3,1.35.76,2,.44,2.08-1,1.43-3.65.5-5.14-1.35-2.17-3.57-3.66-5.55-5.2-.33-.26-.8.2-.47.46Z"/><path class="cls-27" d="M86.11,157.57c15.54,8.93,13.87,27.91-6.35,35.2s-34.49-7.34-30.12-17.12S67.29,146.76,86.11,157.57Z"/><path class="cls-28" d="M51.43,172.1c-.15,5.49.93,10.47,5.26,10.53,9.74.15,7.08-4.28,18.51-3.21S95.36,171.81,95.85,169c2.64,8.82-2.59,18.9-16.09,23.77-20.23,7.29-34.49-7.34-30.12-17.12C50.13,174.56,50.72,173.36,51.43,172.1Z"/><path class="cls-27" d="M95.3,190.21c-2.68-3.39-4.73-7.23-9.3-7.81s-14,0-15.66,1.78-8,8-2,11S102.67,199.52,95.3,190.21Z"/><path class="cls-28" d="M74.94,188.94c4.71,1.44,6.81,2.53,11.14,3.26s7.22-3.59,7.29-4.55c.64.84,1.26,1.71,1.93,2.56,7.37,9.31-21,8-26.95,5-3.49-1.77-2.78-4.66-1.26-7.1h0C68.59,187.6,70.22,187.49,74.94,188.94Z"/><path class="cls-27" d="M62.59,190.93c-3.18,1.83-2.84,5.7,1.29,7.19s7.05-1.5,6.15-3.5S66.43,188.73,62.59,190.93Z"/><path class="cls-28" d="M69.67,193.9c0,1.12-.19,2.14-1.08,2.15-2,0-1.44-.87-3.78-.66s-4.11-1.55-4.21-2.12c-.54,1.8.52,3.86,3.28,4.85,4.13,1.49,7.05-1.5,6.15-3.5Q69.88,194.29,69.67,193.9Z"/><ellipse class="cls-16" cx="53.15" cy="176.8" rx="21.81" ry="12.32" transform="translate(-131.26 168.03) rotate(-70.54)"/><path class="cls-4" d="M57.23,155.31l3.08.9s-.18.85-.18.85l-3.77-.88Z"/><path class="cls-4" d="M43.67,196.82l2.63.7.9-.81-1.73-.53c-.07,0-1.68.45-1.68.45Z"/><ellipse class="cls-29" cx="50.48" cy="176.08" rx="21.84" ry="12.34" transform="translate(-132.36 165.03) rotate(-70.54)"/><path class="cls-5" d="M44.35,193.34a3.62,3.62,0,0,1-.47-.13c-1.82-.64-3.2-2.9-3.78-6.2a31.49,31.49,0,0,1,8.71-25.45c2.44-2.26,4.91-3.34,6.77-2.95a2.52,2.52,0,0,1,.47.13c1.82.64,3.2,2.9,3.78,6.19a28.75,28.75,0,0,1-1.59,14,29,29,0,0,1-7.12,11.49C48.68,192.64,46.21,193.72,44.35,193.34Zm4.43-5.47A25.68,25.68,0,0,0,55,177.75a25.33,25.33,0,0,0,1.44-12.22c-.43-2.42-1.28-3.45-1.54-3.56s-1.66.15-3.76,2.1a25.55,25.55,0,0,0-6.22,10.12,25.24,25.24,0,0,0-1.45,12.22c.43,2.42,1.07,3.39,1.54,3.56S46.68,189.82,48.78,187.87Z"/><path class="cls-5" d="M47.6,181.58l-.09,0c-.43-.16-.8-.84-1-1.78a10.78,10.78,0,0,1,3-8.68c.85-.79,1.55-1,1.91-.92l.09,0c.43.15.8.83,1,1.78a9.77,9.77,0,0,1-.55,4.75,10,10,0,0,1-2.42,3.93c-.86.79-1.55,1-1.91.92Z"/><path class="cls-4" d="M38.87,143s2.3,6.2,3.26,8.08c0,0-1.78,4.12-2.19,5.2L37,148A26,26,0,0,1,38.87,143Z"/><polygon class="cls-4" points="36.95 155.29 39.94 156.3 37.02 147.97 33.01 146.16 36.95 155.29"/><path class="cls-2" d="M49,176.32a.57.57,0,0,1-.34-.23c-5.35-8.21-12.31-28.18-12.38-28.38a.52.52,0,0,1,.33-.67.53.53,0,0,1,.67.33c.07.2,7,20,12.27,28.14a.52.52,0,0,1-.16.73A.55.55,0,0,1,49,176.32Z"/><path class="cls-2" d="M148.2,106.2s.47,10.18.05,11.44S136.16,127.9,138,134.83s27.63,6.74,27.18.91-9.42-16.49-10-17.71-.41-12.66-.41-12.66Z"/><path class="cls-2" d="M147.65,103.18c-.12,0-.59,3.68-.22,3.91s8,.45,8.2,0a16.2,16.2,0,0,0-.21-4A61.46,61.46,0,0,0,147.65,103.18Z"/><path class="cls-5" d="M145.72,122.58c-1,.75-8.52,9.69-6.32,12.46s23,4.29,23.75.37-5.86-12.19-5.86-12.19Z"/><path class="cls-7" d="M149.09,128.27a.87.87,0,1,0-.92.82A.87.87,0,0,0,149.09,128.27Z"/><path class="cls-7" d="M156.14,128.4a.61.61,0,0,0-.57-.64.61.61,0,1,0,.57.64Z"/><path class="cls-7" d="M153.26,133.31a1.53,1.53,0,1,0-1.62,1.45A1.53,1.53,0,0,0,153.26,133.31Z"/><path class="cls-30" d="M146.07,115.18a2.51,2.51,0,0,1,1.1-.69,6,6,0,0,0,3.41-.64c1.39-.72,2-1.45,1.39-1.74s-2.69.59-3.29.12c-.38-.3-.32-2.53-.32-2.53a17.63,17.63,0,0,0-3.1,4.31Z"/><path class="cls-31" d="M120.66,107.24s9.1,9.11,11.82,9,13-3,13-3a3.41,3.41,0,0,1,.91,2.2s-9,6.76-15.18,7.92-13.49-7.07-13.49-7.07S117.65,108.78,120.66,107.24Z"/><rect class="cls-30" x="104.92" y="183" width="2.49" height="4.42"/><rect class="cls-30" x="113.61" y="183" width="2.49" height="4.42"/><path class="cls-4" d="M103.49,130.21s1.24,16.55.86,28.3-.41,25.45-.41,25.45a12,12,0,0,0,5-.16s4.88-26.39,4.11-43.54c0,0-.18-.33,1.11-.08A260.36,260.36,0,0,1,113,183.87s2.63,1,4.1-.11c0,0,9.88-35.94,2.7-52.43L104,130.21Z"/><path class="cls-19" d="M112.83,186.45a12.54,12.54,0,0,0-.38,2.32,13.63,13.63,0,0,1,3,0c.32.22.57,1.22.57,1.22h7.21a1.32,1.32,0,0,0-.85-1.44c-1-.28-3.64-.55-4.43-1.6s-1-1.29-1.47-1.17-.65.68-.65.68A7.2,7.2,0,0,1,112.83,186.45Z"/><path class="cls-19" d="M112.27,188.72a13.5,13.5,0,0,1,3.1,0,5.44,5.44,0,0,1-.18,1.25l-2.92,0S112.14,188.77,112.27,188.72Z"/><path class="cls-19" d="M119.63,187.93a5.08,5.08,0,0,1-2,0,2.71,2.71,0,0,1-1.78-1.49c-.2-.56.57-1.41,1.21-.65A4.82,4.82,0,0,0,119.63,187.93Z"/><path class="cls-19" d="M104.46,186.45a13.2,13.2,0,0,0-.39,2.32,13.63,13.63,0,0,1,3,0c.32.22.57,1.22.57,1.22h7.22a1.32,1.32,0,0,0-.85-1.44c-1-.28-3.64-.55-4.43-1.6s-1-1.29-1.47-1.17-.65.68-.65.68A7.2,7.2,0,0,1,104.46,186.45Z"/><path class="cls-19" d="M103.9,188.72a13.41,13.41,0,0,1,3.09,0,5.92,5.92,0,0,1-.17,1.25l-2.92,0S103.76,188.77,103.9,188.72Z"/><path class="cls-19" d="M111.26,187.93a5.12,5.12,0,0,1-2,0,2.71,2.71,0,0,1-1.77-1.49c-.2-.56.56-1.41,1.2-.65A4.89,4.89,0,0,0,111.26,187.93Z"/><path class="cls-30" d="M113.31,100.55a6.24,6.24,0,0,0,1.88,5.19l-1.92,1.88-5-2.09s1.21-4.31-.54-7.88S113.31,100.55,113.31,100.55Z"/><g class="cls-9"><path class="cls-30" d="M108.66,102.41a10.76,10.76,0,0,0-.65-4.1l3.23.51c1.13.9,2.07,1.73,2.07,1.73a6.31,6.31,0,0,0,.18,2.33C112.72,103.21,111.22,103.44,108.66,102.41Z"/></g><path class="cls-4" d="M118.28,92.59a2.11,2.11,0,0,1-.59-1.45v-.09l4.06-.29v.09a2.13,2.13,0,0,1-.38,1.53,2,2,0,0,1-1.51.68A2,2,0,0,1,118.28,92.59Zm-.39-1.36a1.93,1.93,0,0,0,.53,1.22,2.18,2.18,0,0,0,2.8-.2,1.93,1.93,0,0,0,.36-1.27Z"/><path class="cls-4" d="M119.65,93.28a2.12,2.12,0,0,1-1.51-.53,2.37,2.37,0,0,1-.66-1.62v-.28l4.45-.31,0,.28a2.41,2.41,0,0,1-.43,1.69,2.26,2.26,0,0,1-1.66.77Zm-1.52-1.85a1.58,1.58,0,0,0,.44.86,1.48,1.48,0,0,0,1.08.37h.19a1.66,1.66,0,0,0,1.22-.53,1.71,1.71,0,0,0,.31-.92Z"/><path class="cls-30" d="M116.24,86.4a14.87,14.87,0,0,1,4.09,8.79,7.45,7.45,0,0,1-1.51.34s.25,3.61-2.4,5-6.79,2.18-9.54-4.66l-.91-3,2.33-3.11s6.19-2,6.32-2.11S116.24,86.4,116.24,86.4Z"/><path class="cls-4" d="M118.47,89.4s4.29-5.29-.87-8C114,79.6,112.41,83,110.2,84s-5,.29-6.41,3.86,2.16,8.64,2.86,10A2.87,2.87,0,0,1,107,100s2.52-1.76,1.4-4.37.38-3.22.38-3.22,8.52-.61,7.94-5.55A14.07,14.07,0,0,1,118.47,89.4Z"/><path class="cls-4" d="M115.14,92.81a2.12,2.12,0,0,1-.59-1.45v-.1l4.06-.28v.09a2.13,2.13,0,0,1-.38,1.53,2,2,0,0,1-1.51.68A2,2,0,0,1,115.14,92.81Zm-.39-1.36a1.93,1.93,0,0,0,.53,1.22,1.8,1.8,0,0,0,1.44.41,1.82,1.82,0,0,0,1.36-.61,1.86,1.86,0,0,0,.35-1.28Z"/><path class="cls-4" d="M116.5,93.5A2.16,2.16,0,0,1,115,93a2.43,2.43,0,0,1-.66-1.62v-.28l4.45-.31,0,.28a2.3,2.3,0,0,1-.43,1.69,2.22,2.22,0,0,1-1.66.77ZM115,91.65a1.75,1.75,0,0,0,2.92.69,1.56,1.56,0,0,0,.31-.92Z"/><path class="cls-32" d="M114.69,91.36s-2.88.51-5,.86"/><line class="cls-32" x1="119.33" y1="91.03" x2="118.38" y2="91.1"/><rect class="cls-4" x="118.37" y="90.96" width="0.96" height="0.2" transform="translate(-6.05 8.49) rotate(-3.99)"/><rect class="cls-4" x="118.16" y="90.75" width="1.38" height="0.63" transform="translate(-6.07 8.52) rotate(-4)"/><path class="cls-33" d="M106.38,137.68c3.22,1,3.34-5.52,3.13-6.56l-.43-.2c-1.33,0-2.3.1-2.3.1A36.87,36.87,0,0,0,106.38,137.68Z"/><path class="cls-8" d="M107.84,104.89c-1.86.89-1.73,5.36-1.73,5.36s4.51,19.84,5.14,20.25,2.43,3,7.54,1.28-1.42-24.91-1.42-24.91l-2.44-1.59-2,.53-3.33-.53Z"/><path class="cls-20" d="M121.27,115.42c.08-2.78-.31-7.79-.61-8.18a28.19,28.19,0,0,0-4.92-1.95c3.86,14.47,2.08,54.83,2.08,54.83,1.89.4,5.17-1.08,5.64-2C123.46,158.17,121.18,118.21,121.27,115.42Z"/><path class="cls-20" d="M100,107.59c-.25.42,3.32,6.6,2.9,8.41s-2.56,44-2.25,44.41,10.05,1,14.73.12c.65-.12-.12-23.08-2.42-42.54-.19-1.67-4.7-10.45-6.22-13.1C105.12,105.47,100.19,107.17,100,107.59Z"/><path class="cls-20" d="M121.27,115.42c.08-2.78-.31-7.79-.61-8.18a28.19,28.19,0,0,0-4.92-1.95c3.86,14.47,2.08,54.83,2.08,54.83,1.89.4,5.17-1.08,5.64-2C123.46,158.17,121.18,118.21,121.27,115.42Z"/><path class="cls-20" d="M100,107.59c-.25.42,3.32,6.6,2.9,8.41s-2.56,44-2.25,44.41,10.05,1,14.73.12c.65-.12-.12-23.08-2.42-42.54-.19-1.67-4.7-10.45-6.22-13.1C105.12,105.47,100.19,107.17,100,107.59Z"/><path class="cls-34" d="M111.44,107.59a5.18,5.18,0,0,0,2.22,1.42l1.23-1.77-2-1.43Z"/><path class="cls-34" d="M113.05,107.51c.37,2.21.48,12,.6,12.7s1.91,5.06,2.22,5,1.14-4.59,1.17-5-3.05-10.58-3.48-12.66C113.49,107.2,113.05,107.51,113.05,107.51Z"/><path class="cls-31" d="M105.61,105.28c-.18.69-1.06,3.76-.77,4.11s3,.06,2.9.29-1.67,2.95-1.63,3.48,6.36,5.07,6.8,4.83c-.19-1.67-4.7-10.45-6.22-13.1Z"/><path class="cls-31" d="M118.79,109.21A15,15,0,0,0,117,108c-.71-.41,1.35-1.29,1.14-1.72A.68.68,0,0,0,118,106a16.68,16.68,0,0,0-2.21-.75A75.31,75.31,0,0,1,117.55,118h0C118.19,118.24,119,109.45,118.79,109.21Z"/><path class="cls-35" d="M108.46,103.5a11.84,11.84,0,0,0-2.35,1.61c-.16.33,5.52,3.92,5.78,3.9s1.07-3,1-3.2A23.19,23.19,0,0,0,108.46,103.5Z"/><path class="cls-35" d="M114,104.2a5.71,5.71,0,0,0-1.09,1.61,16.85,16.85,0,0,0,1.92,2.8,21.79,21.79,0,0,0,1.39-3.15A11.26,11.26,0,0,0,114,104.2Z"/><rect class="cls-5" x="89.84" y="129" width="20.19" height="13.57" transform="translate(-11.17 8.98) rotate(-4.87)"/><path class="cls-30" d="M98.77,139.87c.5.24,1.52,1,2.06,3.15.12.46-.8,1-1.1.07-.18-.56-.22-1-.37-1s0,.09.12,1c.1,1.18-.75,1.23-1,.27s0-1.43-.16-1.39-.09,1,0,1.49c.12.69-.89,1.24-1-.07s-.15-1.09-.14-1.15-.13-.15-.15.81c0,1.38-1,.67-1-.64a6,6,0,0,1,.45-2.42,4.85,4.85,0,0,1,1.09-1.67Z"/><path class="cls-36" d="M100,107.59c-.17.07-5.5,10.66-6.21,15.11-1.07,6.68,2.49,17,2.46,17.15,0,.34,2.09.36,2.57,0,.25-.17,2.26-12.24,2.7-14.35.49-2.35,2.74-9.31,2.53-11.79C103.53,108.1,100,107.59,100,107.59Z"/><path class="cls-37" d="M118.82,95.93a1.29,1.29,0,0,0-1.83-.39c-1.3.63-1.71,1.83-2.69,1.78a3.06,3.06,0,0,1-1.41-.33s.56,2.52,2.66,2.11a5.68,5.68,0,0,0,3-1.47A2.15,2.15,0,0,0,118.82,95.93Z"/><path class="cls-37" d="M118.4,97.49s.28,1.59.94,1,.6-2.32-.52-2.6S118.4,97.49,118.4,97.49Z"/><path class="cls-4" d="M113.51,97.45a9.92,9.92,0,0,1-3.36-5.34l-1-.08.67,1.26s1.14,5.55.11,7.71a5.74,5.74,0,0,0,5.54,2.63c4.7-.42,3.35-7.22,3.35-7.22l-1.34.41-2.75,1Z"/><path class="cls-38" d="M114.3,97.32c1,.05,1.39-1.15,2.69-1.78a1.29,1.29,0,0,1,1.83.39c1.12.28,1.19,2,.52,2.6-.49.41-.77-.35-.88-.78a6,6,0,0,1-2.91,1.35c-2.1.41-2.66-2.11-2.66-2.11A3.06,3.06,0,0,0,114.3,97.32Z"/><path class="cls-4" d="M109.73,92.32c2.08-.34,5-.86,5-.87l0-.19s-3,.53-5,.87Z"/><path class="cls-4" d="M109.61,92.55l-.32-.58.3,0c2.08-.34,5-.87,5-.87l.21,0,.11.62-.23,0c-.7.12-3.12.56-5,.86Z"/><path class="cls-30" d="M109.71,92.22a2,2,0,0,0-1.92-.6c-1.2.25-.37,4.42,2.36,3.77Z"/><polygon class="cls-8" points="102.69 132.36 106.89 131.85 107.74 139.41 103.47 139.41 102.69 132.36"/></g></g></svg>