<svg xmlns="http://www.w3.org/2000/svg" viewBox="0 0 531 292"><defs><style>.cls-1{isolation:isolate;}.cls-2{fill:#29495c;}.cls-3{fill:#eff0f0;}.cls-4{fill:#fd643b;}.cls-5{fill:#fdbf3b;}.cls-6{fill:#ced1d2;}.cls-7{fill:#fd7c3a;}.cls-8{fill:#fff;}.cls-9{fill:#fda93b;}.cls-10{fill:#94bbd2;}.cls-11{fill:#77ccfd;}.cls-12{fill:#3db5fd;}.cls-13{fill:#fd653b;}.cls-14{fill:#fd843b;}.cls-15{fill:#e5e5e6;}.cls-16{fill:#babcbe;}.cls-17{fill:#38b6ff;}.cls-18{fill:#f4d39e;}.cls-19{fill:#14262e;}.cls-20{fill:#1d3745;}.cls-21{fill:#fd593b;}.cls-22{mix-blend-mode:multiply;}.cls-23{fill:#2580b3;}.cls-24{fill:#d15430;}.cls-25{fill:#21709a;}.cls-26{fill:#154965;}.cls-27{fill:#919395;}.cls-28{fill:#a5a7aa;}.cls-29{fill:#2c92cd;}.cls-30{fill:#ab4528;}.cls-31{fill:#c54f2e;}.cls-32{fill:#407592;}.cls-33{fill:#518fb6;}.cls-34{fill:#0b2838;}.cls-35{fill:#ade1fd;}.cls-36{fill:#ace0fd;}.cls-37{fill:#22739f;}.cls-38{fill:#0e3144;}.cls-39{fill:#55aadc;}.cls-40{fill:#ffdbaf;}.cls-41{fill:#7fd0fd;}.cls-42{fill:#45b2f3;}</style></defs><g class="cls-1"><g id="Layer_1" data-name="Layer 1"><path class="cls-2" d="M476.22,188.28A2.84,2.84,0,0,0,477,193c2.21,1.12,5-.23,6.32-2.09,2.93-4-6.16-6.89-7.21-2-.09.46.6.65.7.2.4-1.86,2.33-2.39,4-1.93a5.16,5.16,0,0,1,1.5.66c1.28.87.83,2.3-.08,3.21a5,5,0,0,1-3.69,1.63c-1.91-.14-3.5-2.35-1.76-3.86.35-.3-.16-.81-.51-.51Z"/><path class="cls-2" d="M101.67,55.56a2.85,2.85,0,0,0,.74,4.68c2.21,1.12,5-.23,6.33-2.09,2.93-4-6.17-6.89-7.21-2-.1.45.6.65.69.19.4-1.85,2.33-2.38,4-1.92a5.1,5.1,0,0,1,1.49.66c1.29.87.83,2.3-.07,3.21A5,5,0,0,1,104,59.93c-1.91-.15-3.51-2.35-1.77-3.86.36-.3-.16-.81-.51-.51Z"/><path class="cls-2" d="M451.34,79.75a40.22,40.22,0,0,0,7.29-2.65c.42-.2.05-.83-.36-.62a39,39,0,0,1-7.12,2.57.36.36,0,0,0,.19.7Z"/><path class="cls-2" d="M451.51,75.53c1.73,2.16,4,3.85,5.52,6.19.25.39.87,0,.62-.36C456.11,79,453.79,77.24,452,75c-.29-.36-.8.15-.51.51Z"/><path class="cls-2" d="M453.61,82.08a45.71,45.71,0,0,0,2.48-7.26c.1-.46-.59-.65-.7-.2a44.08,44.08,0,0,1-2.48,7.26c-.17.43.53.62.7.2Z"/><path class="cls-2" d="M396.21,50l8.74.28c.46,0,.46-.7,0-.72l-8.74-.29c-.46,0-.46.71,0,.73Z"/><path class="cls-2" d="M166.85,45.68,164.75,52c-.15.44.55.63.7.19l2.1-6.26c.15-.44-.55-.63-.7-.2Z"/><path class="cls-2" d="M162.62,48.53l6.89,1.66a.36.36,0,0,0,.19-.69l-6.89-1.67c-.45-.11-.64.59-.19.7Z"/><path class="cls-2" d="M222,42.13q4.23.16,8.41.74c.29,0,.6-.23.41-.52a25.33,25.33,0,0,0-5.61-5.85c-.36-.29-.88.22-.51.51a25.21,25.21,0,0,1,5.5,5.7l.41-.53q-4.29-.6-8.61-.78c-.46,0-.46.71,0,.73Z"/><path class="cls-2" d="M51.13,188.43a2.7,2.7,0,0,1,2.81-4,4.42,4.42,0,0,0,2.74,0,3.53,3.53,0,0,0,2-4c-.1-.46-.8-.27-.7.19a2.75,2.75,0,0,1-3.25,3.25,4.33,4.33,0,0,0-2.71.08,3.44,3.44,0,0,0-1.51,4.87c.22.41.84,0,.63-.37Z"/><path class="cls-3" d="M369.94,134.45s-9.2.89-8.59,10.13,12.33,7.26,20.07,7.27,52.49,3.89,61.92-2.69c8-5.56,7.14-21.11-13.35-22.41-1.22-.08,11.52-25.46-21.16-31.95-22.89-4.54-25.77,17-25.77,17s-12.17-1.91-16.36,9.74C363.54,130.32,369.94,134.45,369.94,134.45Z"/><path class="cls-2" d="M374.72,170.79a22.08,22.08,0,0,1-4.66-.52l.23-1c11.95,2.55,17.37-5.3,20-9.07a9.24,9.24,0,0,1,1.45-1.83l.64.85a10,10,0,0,0-1.22,1.59C389,164,384.21,170.81,374.72,170.79Z"/><path class="cls-4" d="M406.8,147h0a1,1,0,0,0,1.41-.35l4.89-8.1a1,1,0,0,0-.35-1.42h0a1,1,0,0,0-1.41.35l-4.89,8.11A1,1,0,0,0,406.8,147Z"/><path class="cls-4" d="M396.35,140.64h0a1,1,0,0,0,1.41-.35l4.89-8.1a1,1,0,0,0-.35-1.42h0a1,1,0,0,0-1.41.35L396,139.23A1,1,0,0,0,396.35,140.64Z"/><path class="cls-5" d="M408.69,151.44s-6.12,12.63-17.23,5.93c-7.6-4.58.15-16.8.15-16.8Z"/><rect class="cls-2" x="389.12" y="141.93" width="22.62" height="7.01" transform="translate(668.01 476.95) rotate(-148.87)"/><rect class="cls-5" x="389.98" y="155.66" width="4.13" height="6.22" transform="translate(53.45 412.27) rotate(-58.87)"/><path class="cls-2" d="M411.55,134.42a46.23,46.23,0,0,1,5.05-2.95c.41-.2,0-.83-.37-.62a47,47,0,0,0-5,3c-.38.26,0,.88.36.62Z"/><path class="cls-2" d="M408.92,132.24a31.28,31.28,0,0,0,2.41-6.78c.11-.46-.59-.65-.7-.2a30.49,30.49,0,0,1-2.34,6.62c-.21.41.41.77.63.36Z"/><path class="cls-2" d="M405.58,130.81a17.84,17.84,0,0,0-.25-5.83c-.09-.46-.78-.27-.69.19a17.22,17.22,0,0,1,.21,5.64c-.05.46.67.45.73,0Z"/><path class="cls-3" d="M207,134.23s18.46,1.29,17.1,12-29.8,9.44-45.33,9.25S74.53,156,59.53,149.39c-13.75-6.09,2-30.49,28.5-19.07,0,0,15.22-26.61,43.22-33.29,43.33-10.34,47.57,24,47.57,24s11.92-14.12,25.13-3.43C210.35,122.76,207,134.23,207,134.23Z"/><path class="cls-6" d="M90.34,111.05s-3.24.37-3.26,4.28c0,2.87,3.51,3.06,7.73,3.53,2.92.33,19.8,1.17,23.38-1.6,3-2.35,2.71-8.91-5.07-9.46-.46,0,4.38-10.74-8-13.48-8.69-1.91-9.78,7.18-9.78,7.18a5.6,5.6,0,0,0-6.21,4.11C87.91,109.31,90.34,111.05,90.34,111.05Z"/><ellipse class="cls-3" cx="267.68" cy="253.34" rx="26.66" ry="205.03" transform="translate(13.92 520.62) rotate(-89.91)"/><path class="cls-7" d="M135,242.32c-1.47-.29-36.21,5.09-40.43-8.1s14.15-32.46,22.39-27c0,0-6.21-24.23,20.31-28.28s12.78,13.41,12.78,13.41,13.34-14.73,22.9,4.33-15.59,30.08-15.59,30.08,17.82,3.71,8.55,12S135,242.32,135,242.32Z"/><path class="cls-8" d="M162.72,208.12c-.75,0-16.69.63-24.67,8.76a101.36,101.36,0,0,1,6.58-20.79.88.88,0,0,0-1.58-.76A105.46,105.46,0,0,0,135.67,220a1,1,0,0,0-.06.34c-.32,1.85-.61,3.77-.84,5.75-7.17-9.63-19.11-11.49-19.65-11.57a.87.87,0,1,0-.25,1.73c.13,0,13.1,2.06,19.61,12.53a96.07,96.07,0,0,0-.34,13.57,5.48,5.48,0,0,1,.87,0l.86.17a.7.7,0,0,0,0-.21,100,100,0,0,1,1.46-21.69c6.21-10,25.24-10.71,25.43-10.72a.89.89,0,0,0,.85-.9A.87.87,0,0,0,162.72,208.12Z"/><path class="cls-2" d="M133,128c-.14,2.33,1,4.81,2.21,6.76,1,1.66,2.91,3.91,5.1,3a2.08,2.08,0,0,0,.51-3.77,4,4,0,0,0-5.72,1.42c-2.38,4.54,4,8.66,7.36,10a23.58,23.58,0,0,0,17.8-.08,22.51,22.51,0,0,0,6.67-4.26,9.67,9.67,0,0,0,3.07-4.32c.05-.23-.3-.32-.35-.1-.64,2.61-3.45,4.78-5.54,6.2a22.64,22.64,0,0,1-12,3.89,22.12,22.12,0,0,1-13-3.51,10.66,10.66,0,0,1-3.69-4.11c-1.51-3.27,1.71-6.85,5.07-4.94a1.73,1.73,0,0,1-.3,3.18,2.88,2.88,0,0,1-2.69-.51,7.77,7.77,0,0,1-2.16-2.63c-1-1.83-2.11-4.12-2-6.28,0-.24-.35-.23-.36,0Z"/><path class="cls-2" d="M138.68,76.43a54.3,54.3,0,0,1,3.69-6.12c.26-.38-.36-.75-.63-.37a57.43,57.43,0,0,0-3.69,6.12c-.21.41.41.78.63.37Z"/><path class="cls-2" d="M134.55,75.66A37.51,37.51,0,0,0,133.17,67a.36.36,0,0,0-.69.19,36.94,36.94,0,0,1,1.35,8.49.36.36,0,0,0,.72,0Z"/><path class="cls-2" d="M130.17,76.2A22,22,0,0,0,126.48,70c-.3-.36-.81.16-.51.51a20.63,20.63,0,0,1,3.5,5.86c.17.43.87.24.7-.19Z"/><path class="cls-9" d="M138,116.88c-1.31,1.82-7.84,2.15-9.74.39s.16-4-3-9.22-6.72-4.1-7.29-14.64,11.38-13.73,16-13.72,15.18,3.75,15.16,15.51c0,8.54-5.94,9-8.65,13S139.46,114.83,138,116.88Z"/><path class="cls-10" d="M138.4,118.09c0,.15-6.63,1.91-10.81.17,0,0-1.13,9.19,2.58,10.1s7.31.17,7.68-1.64S138.4,118.09,138.4,118.09Z"/><path class="cls-8" d="M126.22,96.11c-.59.63-.15,2.27.41,3.48.3.66,1.32,2.64,2.81,3.08.17.65.35,1.36.52,2.12,1.15,5.19,1.46,10.1.82,13.49a7.89,7.89,0,0,0,.85.1c.9-4.95-.29-11.28-.85-13.78-.12-.56-.27-1.19-.45-1.86a4.06,4.06,0,0,0,3-1.67,7.63,7.63,0,0,0,1.18.84,2.9,2.9,0,0,0,.58.25,152.71,152.71,0,0,0-.39,16.06h.42c.15,0,.29,0,.43-.09a146.89,146.89,0,0,1,.39-15.88,3.08,3.08,0,0,0,1.59-.69c2-1.57,3.61-5.73,3-8A1.85,1.85,0,0,0,139,92.12a1.67,1.67,0,0,0-1.36.46c-1.28,1.16-2,4.66-2.44,8.71l-.25-.12a6.59,6.59,0,0,1-1.14-.82,10.38,10.38,0,0,0,1.07-4.46c.17-4-1.11-8.56-3.08-8.82-.39,0-1.11.09-1.6,1.55-.89,2.63-.58,8.5,2.53,11.85a3.29,3.29,0,0,1-2.6,1.44c-.77-2.69-1.86-5.58-2.91-6A.85.85,0,0,0,126.22,96.11Zm9.79,5.26c.4-3.92,1.08-7.17,2.17-8.16a.87.87,0,0,1,.58-.26h.1c.16,0,.63.08.85.86.52,1.92-.92,5.68-2.71,7.06A2.41,2.41,0,0,1,136,101.37Zm-5-12.48c.23-.68.51-1,.67-1h0c1.17.15,2.51,4,2.34,7.94a10.33,10.33,0,0,1-.85,3.86C130.41,96.6,130.16,91.29,131,88.89Zm-4.14,7.82.06,0c.44.17,1.34,1.88,2.23,4.84a5.79,5.79,0,0,1-1.55-2A4.82,4.82,0,0,1,126.83,96.71Z"/><path class="cls-2" d="M131.75,123.1a18.75,18.75,0,0,0,8-1.58.42.42,0,0,0,.18-.57.41.41,0,0,0-.56-.18h0a20.38,20.38,0,0,1-12.27,1,.42.42,0,1,0-.17.83A23.93,23.93,0,0,0,131.75,123.1Z"/><path class="cls-2" d="M131.28,126.16a28.36,28.36,0,0,0,7.76-.94.42.42,0,0,0,.28-.53.43.43,0,0,0-.53-.28,31.06,31.06,0,0,1-11.73.64.42.42,0,0,0-.1.84A35.6,35.6,0,0,0,131.28,126.16Z"/><path class="cls-7" d="M132,243.82s1.26,6.09,6.66,7.9,254.34.66,259.49-1.14,4.79-6.34,4.79-6.34l-55.22-13.82-94.21-1.7Z"/><polygon class="cls-9" points="164.92 78.92 166.47 207.56 370.77 211.35 368.59 76.92 164.92 78.92"/><polygon class="cls-9" points="132.02 243.82 166.47 207.56 370.77 211.35 402.96 244.24 132.02 243.82"/><polygon class="cls-8" points="171.63 85.4 171.45 201.81 363.23 204.69 363.42 83.64 171.63 85.4"/><path class="cls-8" d="M238.66,231.63s-6.34,7-3.43,7.69,51.14,2.84,51.48.7-2.89-8.32-2.89-8.32S241.23,230.44,238.66,231.63Z"/><polygon class="cls-8" points="271.31 219.85 270.82 214.59 260.43 214.44 260.91 219.75 271.31 219.85"/><polygon class="cls-8" points="255.36 219.69 255.64 214.37 238.71 214.14 238.33 219.53 255.36 219.69"/><polygon class="cls-8" points="233.43 219.49 235.69 214.09 219.78 213.87 217.55 219.33 233.43 219.49"/><polygon class="cls-8" points="289.33 220.02 287.56 214.82 275.49 214.65 276.7 219.9 289.33 220.02"/><polygon class="cls-8" points="309.89 220.22 307.55 215.1 292.8 214.9 294.72 220.07 309.89 220.22"/><polygon class="cls-8" points="213.34 219.29 216.48 213.82 201.03 213.61 198.33 219.15 213.34 219.29"/><polygon class="cls-8" points="331.37 220.42 328.09 215.39 313.6 215.19 316.65 220.28 331.37 220.42"/><polygon class="cls-8" points="179.38 213.31 173.31 218.91 191.81 219.09 196.49 213.54 179.38 213.31"/><polygon class="cls-8" points="357.83 220.68 352.45 215.73 335.14 215.49 340.17 220.51 357.83 220.68"/><polygon class="cls-8" points="216.89 220.95 214.47 226.89 230.22 227.12 232.72 221.17 216.89 220.95"/><polygon class="cls-8" points="238.21 221.24 237.79 227.23 254.95 227.49 255.26 221.48 238.21 221.24"/><polygon class="cls-8" points="295.45 222.03 297.71 228.13 313.61 228.36 310.81 222.24 295.45 222.03"/><polygon class="cls-8" points="277.13 221.78 278.53 227.84 292.05 228.04 289.99 221.96 277.13 221.78"/><polygon class="cls-8" points="172.13 220.33 166.09 226.17 185.57 226.46 190.54 220.59 172.13 220.33"/><polygon class="cls-8" points="317.88 222.34 321.55 228.48 336.75 228.71 332.74 222.54 317.88 222.34"/><polygon class="cls-8" points="360.32 229.06 357.51 222.88 342.33 222.68 348.54 228.88 360.32 229.06"/><polygon class="cls-8" points="261.08 221.56 261.63 227.59 272.06 227.74 271.49 221.7 261.08 221.56"/><polygon class="cls-8" points="197.58 220.68 194.69 226.59 209.01 226.81 212.42 220.89 197.58 220.68"/><path class="cls-11" d="M366.33,225.94c.05-.12.09-.27.14-.43,1.78-5.77,7.55-34,25.1-28.32,18.05,5.86-1.21,34.9-1.21,34.9s14.09-9.46,18.74,1-9.5,19.35-9.5,19.35,11.67-2.21,10.41,3.88-27.25,2.6-27.25,2.6-6.31-14.09-6.29-14.69-14.34-9.18-14.26-9.4,4.21-9.19,4.21-9.19Z"/><path class="cls-8" d="M374.31,239.61h0a.67.67,0,0,1-.63-.69c0-.15,2.94-18.74,10.9-30.73a.67.67,0,0,1,1.12.74C377.89,220.67,375,238.83,375,239A.69.69,0,0,1,374.31,239.61Z"/><path class="cls-8" d="M378.1,224.37a.67.67,0,0,1-.46-1.14c3.13-3.22,12.82-7,13.24-7.15a.67.67,0,1,1,.48,1.25c-.1,0-9.83,3.83-12.76,6.84A.64.64,0,0,1,378.1,224.37Z"/><path class="cls-12" d="M356.16,262.6c1.13-.23,27.83,4,31.11-6.14s-10.8-25-17.16-20.81c0,0,4.84-18.61-15.55-21.79s-9.86,10.28-9.86,10.28-10.22-11.36-17.62,3.28S339,250.59,339,250.59s-13.71,2.81-6.6,9.2S356.16,262.6,356.16,262.6Z"/><path class="cls-8" d="M356.83,262.61a83.84,83.84,0,0,0-6.75-36.18.67.67,0,0,0-1.21.58,82.58,82.58,0,0,1,6.61,35.55.78.78,0,0,0,0,.16l.66-.12A3.77,3.77,0,0,1,356.83,262.61Z"/><path class="cls-8" d="M355.89,252.67a.66.66,0,0,1-.55-1c5.33-8.74,15.74-10.33,16.18-10.4a.67.67,0,0,1,.76.57.68.68,0,0,1-.57.77c-.1,0-10.23,1.57-15.22,9.76A.65.65,0,0,1,355.89,252.67Z"/><path class="cls-8" d="M355.05,246.33a.66.66,0,0,1-.55-.33c-4.67-7.82-19.47-8.42-19.62-8.43a.67.67,0,0,1,.05-1.34c.64,0,15.68.64,20.72,9.08a.68.68,0,0,1-.23.93A.81.81,0,0,1,355.05,246.33Z"/><polygon class="cls-13" points="176.18 89.07 176.16 101.37 358.86 101.66 358.04 89.35 176.18 89.07"/><path class="cls-9" d="M361,251.38l1.12,19.49L397,269.52l-.5-18.37S366,250.55,361,251.38Z"/><path class="cls-2" d="M378.31,261c-.79,0-3.61-1.32-11.07-5-2.76-1.35-5.37-2.64-6.43-3.07a.44.44,0,0,1-.24-.57.45.45,0,0,1,.58-.25c1.08.45,3.58,1.68,6.48,3.1,3.9,1.92,9.78,4.8,10.62,4.89.35-.11,2.12-1,4-1.92,4.84-2.41,12.15-6,14.21-6.23a.45.45,0,0,1,.48.4.44.44,0,0,1-.4.48c-1.9.18-9.41,3.91-13.89,6.14a46.18,46.18,0,0,1-4.22,2Z"/><path class="cls-2" d="M361.88,267.9a.43.43,0,0,1-.34-.15.45.45,0,0,1,0-.63c.38-.31,9.17-7.64,11.79-8.9a.44.44,0,0,1,.59.2.45.45,0,0,1-.21.59c-2.52,1.22-11.51,8.72-11.6,8.79A.42.42,0,0,1,361.88,267.9Z"/><path class="cls-2" d="M396.8,264.67a.41.41,0,0,1-.27-.1c-.27-.21-2.72-1.43-4.89-2.51-3-1.52-6.49-3.24-7.65-4a.44.44,0,1,1,.47-.75c1.12.72,4.55,2.42,7.58,3.93s4.71,2.35,5,2.61a.44.44,0,0,1-.28.79Z"/><path class="cls-2" d="M307.47,269.06c-1.88,0-3.79.75-3.78,1.93,0,2.53,7.73,1.57,7.44-.5C311,269.47,308.93,269.06,307.47,269.06Z"/><path class="cls-9" d="M149,273.16c-2.62.07-5.31,1-5.34,2.33-.09,2.85,10.71,1.47,10.38-.86C153.88,273.49,151,273.11,149,273.16Z"/><path class="cls-2" d="M118.5,268.72c3,.28,7.47,1.77,6.41,4.6s-12.43,2.16-13-1.37S116.19,268.51,118.5,268.72Z"/><path class="cls-14" d="M291.89,110.22l-4.74,0L275.5,138.48l7.81,0,2.1-9.76h5.36l3.26,9.79,6.76-.26Zm-5.24,14.39,1.55-5,2,5.48Z"/><path class="cls-2" d="M307.27,109.23h0l-6.14,0a.42.42,0,0,1-.42-.42.42.42,0,0,1,.42-.41l6.14,0a.42.42,0,0,1,.42.42A.41.41,0,0,1,307.27,109.23Z"/><path class="cls-2" d="M307.62,138.72h-5a.42.42,0,0,1,0-.84h0l5,0a.42.42,0,0,1,.42.42A.41.41,0,0,1,307.62,138.72Z"/><path class="cls-2" d="M304.55,138.71a.42.42,0,0,1-.42-.41l-.35-29.49a.42.42,0,0,1,.84,0l.35,29.49a.41.41,0,0,1-.41.42Z"/><path class="cls-8" d="M327.27,93c-2.61.3-2.34,6.22,2.28,4.85C332.34,97,332.85,92.32,327.27,93Z"/><path class="cls-8" d="M338.44,93c-2.61.3-2.34,6.22,2.28,4.86C343.51,97,344,92.33,338.44,93Z"/><path class="cls-5" d="M349.33,93c-2.61.3-2.34,6.22,2.28,4.86C354.4,97,354.91,92.35,349.33,93Z"/><path class="cls-2" d="M349.54,96.83a.32.32,0,0,1-.2-.08.29.29,0,0,1,0-.4l2.23-2.19a.27.27,0,0,1,.39,0,.28.28,0,0,1,0,.4l-2.23,2.19A.32.32,0,0,1,349.54,96.83Z"/><path class="cls-2" d="M351.77,96.83a.27.27,0,0,1-.2-.08l-2.22-2.2a.28.28,0,1,1,.39-.39l2.23,2.2a.28.28,0,0,1-.2.47Z"/><polygon class="cls-15" points="311.43 108.81 310.53 112.36 357.91 112.53 358.85 108.92 311.43 108.81"/><polygon class="cls-16" points="310.91 115.64 310.02 119.19 357.4 119.36 358.34 115.75 310.91 115.64"/><polygon class="cls-15" points="310.9 121.86 310.01 125.41 357.39 125.58 358.33 121.97 310.9 121.86"/><polygon class="cls-6" points="311.39 128.45 310.5 132 357.88 132.17 358.82 128.56 311.39 128.45"/><polygon class="cls-15" points="311.38 135.17 310.49 138.72 357.87 138.89 358.81 135.28 311.38 135.17"/><polygon class="cls-3" points="265.7 148.15 267.13 144.48 357.95 144.62 357.94 149.11 267.11 151.79 265.7 148.15"/><polygon class="cls-15" points="264.62 154.59 357.93 154.74 357.93 158.71 261.68 162.04 264.62 154.59"/><polygon class="cls-3" points="180.45 185.05 180.45 187.03 217.55 186.48 217.18 184.31 180.45 185.05"/><rect class="cls-3" x="197.63" y="171.31" width="1.98" height="37.1" transform="translate(8.45 388.18) rotate(-89.91)"/><polygon class="cls-3" points="180.06 192.48 180.06 194.14 217.53 194.93 217.54 192.54 180.06 192.48"/><polygon class="cls-2" points="330.12 136.1 333.01 132.59 337.64 139.11 340.53 136.46 335.02 131.47 337.08 129.13 328.78 125.16 330.12 136.1"/><polygon class="cls-15" points="261.17 166.12 357.92 163.59 356.85 169.88 261.16 169.74 261.17 166.12"/><polygon class="cls-3" points="264.47 171.88 356.84 173.16 357.9 177.49 264.46 177.35 264.47 171.88"/><polygon class="cls-14" points="261.62 182.96 357.89 184.82 357.86 199.77 253.38 198.19 261.62 182.96"/><polygon class="cls-17" points="295.49 183.62 261.62 182.96 253.38 198.19 285.79 198.68 295.49 183.62"/><path class="cls-18" d="M317.82,40s-4.48,2.39-4.27,7.25l1.37.19s-.7,6.67,6.4,2.4,2.33-6.73,2.33-6.73a13.19,13.19,0,0,0-1.35-1.95C322,40.9,317.82,40,317.82,40Z"/><path class="cls-2" d="M316.62,36.26c-1.67-.74-6.05,2.52-1,6.52s6.26,1.88,6.26,1.88-2,7.1.36,8.49c4.2,2.47,3,6,4.65,7.56,2.05,2,9.15,1.63,8.72-4.51s-7.43-5.65-8.47-8.5c-1.55-4.25.91-6-.38-8.09C325,36.71,322.26,38.77,316.62,36.26Z"/><path class="cls-18" d="M320.22,45.55s.63-1.95,1.64-1.08-.26,3.32-1.58,2.8S320.22,45.55,320.22,45.55Z"/><path class="cls-19" d="M330.53,75.77s2.45-1.2,3.36-1,2.15.78,2.21,1.33-2,2-2.56,2.08-3.85-1.09-3.85-1.09Z"/><path class="cls-19" d="M319.68,96.72a15.31,15.31,0,0,0-2.29,2.82c-.29.8.16,2.63.68,2.83s2.62-.94,3-2a10.35,10.35,0,0,0-.16-3.57Z"/><path class="cls-18" d="M319,50.49l0,0c.07.21.61,1.94-.34,2.79,0,0-2.88,3.58,2.72,2.75,5.87-.87.89-2.89.87-2.9h0s-1-.53-1.13-4c-1-.09-1.05,1.33-1.05,1.33C319.93,50.06,320,50.41,319,50.49Z"/><path class="cls-7" d="M318.8,53.15a15.4,15.4,0,0,0-5.79,1.1l.73,5.39s4.23,8.8-1.61,12.68c-3.61,2.41,16.48,6.08,13.93.6a16.55,16.55,0,0,1,.16-13.51L327.31,54l-5.06-.85s1.85,1.22-1,1.64S318.8,53.15,318.8,53.15Z"/><path class="cls-20" d="M330,75.33a4.87,4.87,0,0,1-.18,1.71c-.23.26-14.27,2.84-21.89,1.27-6.43-1.32-3.92-8.23,3.13-6.71C317.81,73.05,330,75.33,330,75.33Z"/><polygon class="cls-18" points="338.97 50.38 346.45 41.83 347.13 42.33 341 53.18 338.97 50.38"/><ellipse class="cls-7" cx="316.4" cy="60.98" rx="3.42" ry="3.4" transform="translate(254.93 377.29) rotate(-89.91)"/><path class="cls-7" d="M327,61a3.4,3.4,0,1,0-3.41,3.42A3.42,3.42,0,0,0,327,61Z"/><path class="cls-7" d="M327.31,54s9-2.32,12.68-4.81c0,0,1.54,2.25,1,4,0,0-10.32,5.5-14.8,6.23C326.22,59.41,324.94,54.82,327.31,54Z"/><path class="cls-18" d="M320.69,96.82l-1-.1s-.34.34-.76.8c0,0-1.15,1.49-.76,2.16a1.62,1.62,0,0,0,2.37.13,7.08,7.08,0,0,0,.34-2.71Z"/><path class="cls-18" d="M330.53,76s2.05-1,2.76-.48a1.51,1.51,0,0,1-.12,2.11,12.79,12.79,0,0,1-3.06-.63Z"/><path class="cls-2" d="M319.58,96.72a1.55,1.55,0,0,0,1.36.43s10.18-16.92,10.83-21.33-2.54-7.68-6.39-2S319.58,96.72,319.58,96.72Z"/><path class="cls-21" d="M321.23,54.79c-2.87.41-2.43-1.64-2.43-1.64s-.38,0-1,0c-.18.83-.23,2.75,3.3,2.62,2.69-.1,3-1.36,2.85-2.36l-1.71-.29S324.1,54.37,321.23,54.79Z"/><g class="cls-22"><path class="cls-18" d="M319.11,50.9c0,.15.06.33.09.53a10.33,10.33,0,0,0,2.12-.27,11.88,11.88,0,0,1-.18-1.49A4.23,4.23,0,0,1,319.11,50.9Z"/></g><path class="cls-12" d="M352.27,49.39C349.14,50.79,319,81.64,319,81.64h0a5.29,5.29,0,0,1,.35,2.5c-.38,3.88-2.27,7.14-8,8.87,0,0,3-5.76,3.07-6.48s-1.62-3.84-2.18-3.88-3.25-.31-4.12.33-2.95,5.92-3.44,5.77c-.3-.1-1.35-5,1-9a7,7,0,0,1,8.78-2.78l33-33.1s.14-4.42,1.35-7,7.93-5.83,8.76-5.68-4.65,6.64-4.05,8,6.21,4.38,7.2,3.93,3.52-8.39,3.86-8,2.17,7.37-1.31,11.39S355.41,48,352.27,49.39Z"/><path class="cls-23" d="M346.77,49.16h0a1.74,1.74,0,0,0-2.48,0l-24.89,25a1.76,1.76,0,0,0,0,2.47h0a1.74,1.74,0,0,0,2.48,0l24.9-25A1.75,1.75,0,0,0,346.77,49.16Z"/><path class="cls-18" d="M308.08,67.6s7.29,4,10,4.24c0,0,.31,1.28-.1,1.42,0,0-14.27-3.29-15.42-5.67l2.7-1.23Z"/><path class="cls-18" d="M345.62,43a2.78,2.78,0,0,1,1.63-2.5c1.68-.77,2.47-.79,2.11-.36s-1.65.58-1.67,1.36S347,43,345.62,43Z"/><path class="cls-7" d="M313,54.25S305.16,60,302.53,67.59c0,0,3.4,1,5.55,0a31.18,31.18,0,0,1,5.66-8C315.94,57.59,313,54.25,313,54.25Z"/><path class="cls-18" d="M317.71,71.78c.77,0,.82.25,1.31.26.84,0,1.94-.35,2.18-.09s-.27.58-.61.73-.88.16-.89.3a16.15,16.15,0,0,0,2.41,2c.56.34.42,1.07-.19.71-.76-.45-1.82-1.31-1.86-1.29a21.46,21.46,0,0,0,1.62,1.75c.66.6.3,1.34-.49.56-1.06-1-1.59-1.77-1.66-1.66s1,1.51,1.14,1.69c.48.62.21,1.27-.48.49-1-1.15-1.27-1.74-1.32-1.66a7.21,7.21,0,0,0,.64,1.35c.31.58-.08,1.07-.59.18a10.71,10.71,0,0,0-.8-1.43c-.16-.14-1.64-1.42-1.75-2.44C316.3,72.6,317.25,71.76,317.71,71.78Z"/><path class="cls-23" d="M162.52,233.82a17,17,0,0,1,5.72-3,11.68,11.68,0,0,1,5.43,0l3.09-.73s5.61,1.19,8.24,3.81v5.79s-.54,4.93-.62,5-2.53,1.43-2.53,1.43l-1,3.23-.28,1.53-.59,4.32-6.76.16-9.11-2.54-2.65-10.46Z"/><path class="cls-24" d="M163.44,254.14c-.11-.07-5.4-2.82-9.05-.66s-1.95,7-1.95,7l6,.72s7.71-.12,8.17-.3,2.48-4.16,2.48-4.16l-4.33-2.58Z"/><path class="cls-18" d="M162.12,259.78a11.47,11.47,0,0,1-3.56-.24l.14,3.65,3.22-.12Z"/><path class="cls-23" d="M152.16,256.71a5.75,5.75,0,0,0-.21,7l7.52-.52a4.31,4.31,0,0,1-.45-3.52S155.21,255.88,152.16,256.71Z"/><path class="cls-25" d="M154.1,256.71c-1.24,1-2.7,3-1.32,6.91l-.83.06a5.75,5.75,0,0,1,.21-7A4,4,0,0,1,154.1,256.71Z"/><path class="cls-18" d="M176.46,229.86a2,2,0,0,1,.73,1.91c-.26,1.18-2.48,5.16-5.17,5.82,0,0-5-3.76-3.67-7.08s3.26-1.74,3.26-1.74Z"/><g class="cls-22"><path class="cls-18" d="M168.35,230.51c1.32-3.32,3.26-1.74,3.26-1.74l4.85,1.09a2,2,0,0,1,.3.28h0a5.15,5.15,0,0,1-4.46,4.21C168.82,234.72,168.14,231,168.35,230.51Z"/></g><path class="cls-18" d="M176.8,222.18S180,231.7,172.69,233s-4.81-10.81-4.81-10.81l5.54-1.13Z"/><path class="cls-18" d="M167.79,226.71a1.34,1.34,0,0,0-1.51-.55c-.95.32.62,4.42,2.09,3.8S167.79,226.71,167.79,226.71Z"/><path class="cls-26" d="M176.13,222.83s-2.91,5.09-8.65,3.55-2.6-5.09-2.6-5.09.58.74,1.06.72,2.75-5.36,7.82-4.7,3.52,2.28,3.52,2.28,1.05-.29,2,1,1,5.16-1,6.24l-.84-.9A10,10,0,0,0,176.13,222.83Z"/><path class="cls-18" d="M177.13,226.36a1.35,1.35,0,0,1,1.47-.65c1,.25-.3,4.45-1.81,3.94S177.13,226.36,177.13,226.36Z"/><path class="cls-13" d="M160.9,259.43a12.86,12.86,0,0,0,.14,4s17.87,1.55,25-.92,8.13-5.6,5.48-7.94S178.66,251.56,160.9,259.43Z"/><path class="cls-18" d="M184.59,259.89s-3.1,3.58-4.09,3.7l3.9-.15,1.3-.73.14-1.71Z"/><path class="cls-23" d="M191.22,256.47a5.74,5.74,0,0,1,.72,6.93l-7.54,0a4.31,4.31,0,0,0,.19-3.55S188.12,255.86,191.22,256.47Z"/><path class="cls-25" d="M189.29,256.61c1.31.87,2.91,2.84,1.82,6.79h.83a5.74,5.74,0,0,0-.72-6.93A4,4,0,0,0,189.29,256.61Z"/><path class="cls-8" d="M186.41,263a4.65,4.65,0,0,0-.26-3l-.19.09a4.5,4.5,0,0,1,.24,2.83Z"/><path class="cls-8" d="M187.61,262.92a4.81,4.81,0,0,0-.55-3.48l-.17.11a4.75,4.75,0,0,1,.51,3.32Z"/><path class="cls-8" d="M158.17,262.77l.2-.06a4.15,4.15,0,0,1-.07-2.8l-.19-.1A4.22,4.22,0,0,0,158.17,262.77Z"/><path class="cls-8" d="M156.94,262.8l.21-.07a3,3,0,0,1,.45-3.23l-.14-.15A3.22,3.22,0,0,0,156.94,262.8Z"/><path class="cls-23" d="M185,234s6.41,7.34,7.89,14.67-11.93,9.07-17.19,7.54l-.52-3.48s7.1-3.2,7-4.57a8.35,8.35,0,0,0-.31-1.93A13.29,13.29,0,0,1,185,234Z"/><path class="cls-23" d="M162.52,233.82s-11.5,10.47-10,15.73c1.34,4.77,12.5,7.8,15.93,7.29v-2.76s-7.4-4.12-7-5.91a4.37,4.37,0,0,1,1-1.83S166.06,236.14,162.52,233.82Z"/><polygon class="cls-27" points="162.12 256.95 162.12 257.35 167.43 257.34 167.43 256.96 162.12 256.95"/><polygon class="cls-27" points="176.37 256.98 176.37 257.37 181.68 257.36 181.68 256.99 176.37 256.98"/><polygon class="cls-28" points="159.09 258.43 185.32 258.48 185.32 257.29 158.86 257.36 159.09 258.43"/><polygon class="cls-6" points="159.2 256.96 184.77 257 185.35 240.03 158.53 239.89 159.2 256.96"/><path class="cls-8" d="M171.69,246c1.52-.14,3.26.46,3.3,2.74s-4.6,3.06-4.9.47S171.18,246.09,171.69,246Z"/><path class="cls-3" d="M172.11,239.5h0c-5.15-2.31-5.13-8.22-5.13-8.28h.16c0,.06,0,5.85,5,8.12a8.59,8.59,0,0,0,5.93-8.83h.16a8.74,8.74,0,0,1-6.08,9Z"/><path class="cls-18" d="M452,210.51s-1.57,1.3-1.63,2.14.51.87.58.47a2.5,2.5,0,0,1,.67-1l.33.63.81-.19-.15-1.18.43-.88Z"/><path class="cls-9" d="M458.37,213.59c-5.54-3.11-15.86-3.77-28.35,18.39-11,19.45-2.57,26.91.51,28.64,3.23,1.81,15.63,7.87,29.22-15.26C473.66,221.68,458.37,213.59,458.37,213.59Z"/><path class="cls-2" d="M445.7,232c-4.2-2.75-6.38-7.3-7.28-12.1,8.67-9.62,15.71-8.68,19.95-6.3,0,0,8.91,4.72,6.94,17.47C460.21,234.89,452.22,236.24,445.7,232Z"/><path class="cls-8" d="M448.4,230.69a.31.31,0,0,1-.13,0,.27.27,0,0,1-.1-.36l9.5-16.91a.26.26,0,1,1,.46.26l-9.5,16.91A.25.25,0,0,1,448.4,230.69Z"/><path class="cls-7" d="M450.85,226.94c-2.15-1.22-4.49,1.47-5.65,3.58-1.45,2.64-1.91,5.17-.39,6.43S453.29,228.33,450.85,226.94Z"/><polygon class="cls-18" points="426.01 251.12 427.11 254.97 429.32 253.54 428.04 250.66 426.01 251.12"/><path class="cls-29" d="M422.32,207.93s-6.8,21.77-6.61,22.8,9.78,19.2,10.48,22.08l2.82-.71s-1.72-17.31-5.37-21.57l6.63-12-1-3.88L426,209.4Z"/><path class="cls-13" d="M431.43,255.47a10.59,10.59,0,0,0-2.16-2.79,6.63,6.63,0,0,1-2.58,1.17,10.15,10.15,0,0,1-1.69,3.4c-1.31,1.79-4,5.1-3.85,5.36a1.71,1.71,0,0,0,1,.93A20.55,20.55,0,0,0,431.43,255.47Z"/><path class="cls-30" d="M422.13,263.54l-.19-.08-.09-.06-.07,0-.12-.08,0,0-.12-.11a28.89,28.89,0,0,0,9.5-8.37c.25.4.41.69.41.69h0a18.82,18.82,0,0,1-1.68,2.37l-.19.22c-.31.37-.64.72-1,1.05s-.85.81-1.27,1.17l-.38.32A19.4,19.4,0,0,1,422.13,263.54Z"/><polygon class="cls-18" points="430.21 255.55 429.95 258.12 430.21 259.16 432.47 259.28 432.8 258.71 433.01 255.15 430.21 255.55"/><path class="cls-13" d="M432.89,262.33a10.74,10.74,0,0,0-.09-3.62,6.93,6.93,0,0,1-2.85-.59,10.55,10.55,0,0,1-3.46,1.78c-2.17.68-6.37,1.81-6.43,2.09a1.82,1.82,0,0,0,.25,1.37A21.07,21.07,0,0,0,432.89,262.33Z"/><path class="cls-30" d="M420.31,263.36l-.11-.19a1,1,0,0,1,0-.1l0-.08a.65.65,0,0,1,0-.13v0a1.24,1.24,0,0,1,0-.16A29.67,29.67,0,0,0,433,261.5c0,.49-.08.83-.08.83h0a19.54,19.54,0,0,1-2.83.94l-.28.06c-.49.12-1,.21-1.44.29s-1.19.16-1.75.2l-.51,0A20.1,20.1,0,0,1,420.31,263.36Z"/><path class="cls-8" d="M428.68,261.2l-.16,0c-.17,0-.21-.13-.22-.2-.09-.58,2.31-2.1,2.79-2.4a.08.08,0,0,1,.1,0,.07.07,0,0,1,0,.1c-1.08.67-2.78,1.88-2.72,2.25,0,0,0,.06.12.09.94.25,3.64-2.28,3.67-2.3a.07.07,0,0,1,.1.1C432.22,258.94,429.79,261.2,428.68,261.2Z"/><path class="cls-23" d="M437,204.37s.8,3,1.46,7-4.86,44.13-5.27,45.35l-3.42-.7s-.25-33.11-1.85-37.61a60.84,60.84,0,0,0-5.57-10.49l5.53-3.26Z"/><path class="cls-18" d="M428.62,178.45a7.43,7.43,0,0,1-.63,3.63,10.39,10.39,0,0,0,1.86,3.24s2.29-2,2.45-4.27a11.67,11.67,0,0,0-.16-3.48Z"/><g class="cls-22"><path class="cls-18" d="M432.33,180.47a11,11,0,0,0-.18-2.85h0v0h0l-3.52.88h0a6.12,6.12,0,0,1-.05,1.7,8.41,8.41,0,0,1-.15.85A5.56,5.56,0,0,0,432.33,180.47Z"/></g><path class="cls-18" d="M433,168.9c.54.48,4.11,9.5-2.39,11.14-7.07,1.78-7.34-9.11-7.34-9.11l4.67-2.54,1.83-1.14Z"/><path class="cls-8" d="M430.42,256.16l-.18,0c0-.26,1.9-26,1.26-32.86s-4.63-15.49-4.67-15.58l.17-.08c0,.09,4,8.72,4.68,15.64S430.44,255.9,430.42,256.16Z"/><path class="cls-8" d="M427.31,186.23h0a.33.33,0,0,1-.24-.08.45.45,0,0,1-.11-.54c.07-.19.23-.39.43-.39a.33.33,0,0,1,.16.05.52.52,0,0,1,.26.59A.55.55,0,0,1,427.31,186.23Zm.08-.83c-.09,0-.2.13-.26.27s-.07.24.05.34.4,0,.46-.2,0-.27-.2-.39Z"/><path class="cls-18" d="M422.79,171a10.8,10.8,0,0,0,.56,6.08l4.14-.86-2-4.91-2.23-.42Z"/><path class="cls-18" d="M420.68,193.74c.74,4.28,1.64,14.19,1.64,14.19,3.35,1.5,15.19-1.29,15.19-1.29-.72-4.2.63-12.65.63-12.65a49.73,49.73,0,0,1,7.3,4.86c2.16,2,6.38,12,6.38,12l1.58-.38s-1.1-14.1-5.79-20.38-15.35-8.73-15.35-8.73l-5.52.57a55.33,55.33,0,0,0-8.9,2.66c-3.7,1.59-7.17,4.28-6.91,5.9s6.43,4.1,6.43,4.1-1.54.43-.94,1.24,3.38,3,3.83.6a4.18,4.18,0,0,0-.47-3.32,8.41,8.41,0,0,0-2.32-2.44l2.46.13S420.56,193,420.68,193.74Z"/><path class="cls-2" d="M422.59,172.81c-1.88-1.67-3.15-4.29-.75-6.34s4.82-.19,9.45.19c4.8.39,5.41,6.31,2.22,11.67a9.13,9.13,0,0,0-1-4.23L431,172.75s-4.81,1.86-8.24-1.71A9.94,9.94,0,0,0,422.59,172.81Z"/><path class="cls-18" d="M430.29,173.31c0-.1.61-1.43,1.49-1.53s1.5,3.28-.18,3.81Z"/><path class="cls-4" d="M427.56,184.41c2.72.4,6.6-2.48,6.61-2.49,3.18,1,9.55,3.42,13.09,7.76L439.81,195h0c-1-.59-1.67-1-1.67-1s-1.35,8.45-.63,12.65c0,0-11.84,2.79-15.19,1.29,0,0-.9-9.91-1.64-14.19-.12-.74-.76-2.91-.76-2.91l-1.07-.05h0a9.37,9.37,0,0,0-2.45-5.48c.47-.25,1-.47,1.44-.68a55.33,55.33,0,0,1,8.9-2.66S424.83,184,427.56,184.41Z"/><path class="cls-2" d="M419.89,193.38c-.13-.29-2.58-.73-3.2,1l-.8-.36a3.72,3.72,0,0,1,3.44-1.57A3,3,0,0,1,419.89,193.38Z"/><path class="cls-2" d="M418.42,192.16c.37.07,1.16.51.71,1.09s-1.75.15-1.92-.25S417.51,192,418.42,192.16Z"/><path class="cls-8" d="M418,193.23h0a0,0,0,0,1,0,0l.2-.57.77.41a0,0,0,0,1,0,0s0,0-.05,0l-.69-.36-.18.49A.05.05,0,0,1,418,193.23Z"/><polygon class="cls-8" points="438.87 194.44 438.77 194.31 446.31 188.47 446.41 188.59 438.87 194.44"/><path class="cls-8" d="M419.51,190.82c-.05-4.5-2.34-5.83-2.36-5.84l.08-.14c.1,0,2.39,1.37,2.44,6Z"/><path class="cls-18" d="M453.41,210.44S454.9,212,455,212.7s.09,2.39-.45,2.34-.31-.7-.31-.7.24,1.32-.42,1.14-.38-1.12-.38-1.12-.14.93-.55.88-.26-1.23-.26-1.23-.05,1-.49.79.07-2.52-.33-3.18.14-1.81.14-1.81Z"/><path class="cls-13" d="M97.77,256.22s2.6,3.67,4.16,4.24l-.61,1.09-2.49-1-2.41-1,.09-3.1Z"/><path class="cls-18" d="M94.44,257a6.71,6.71,0,0,1,0,2.28l.47,1.05,3.26.14-.75-1.09,0-2.64Z"/><path class="cls-13" d="M93.5,264s0-3.8.94-4.64c0,0,2.74,1.19,3,.1,0,0,8.69,1.2,9.86,3.1a3.13,3.13,0,0,1,.2,2.53S97.45,265.37,93.5,264Z"/><path class="cls-31" d="M107.66,264.08a3.26,3.26,0,0,1-.18,1s-10,.32-14-1.09c0,0,0-.32,0-.79C98.13,264.33,105.43,264.16,107.66,264.08Z"/><path class="cls-32" d="M106.69,205s3.79,18.57,3,22.44S102.6,252,98,256.1L97,254.72l.28-2.08.16-1.12s4.7-15.86,3-26.09L98.85,215.2l1.64-9.21Z"/><path class="cls-33" d="M92.35,207.42s-2,5.68-1.2,17.84,2.9,32.56,2.9,32.56a5.25,5.25,0,0,0,3.92,0s3-43.85,8.14-52l-3.81-1.57-7.44.38Z"/><path class="cls-8" d="M97.56,260.78l-.06,0a.11.11,0,0,1,0-.14c.8-1.13,1.24-1.1,1.28-1.09a.1.1,0,1,1,0,.2s-.38,0-1.09,1A.09.09,0,0,1,97.56,260.78Z"/><path class="cls-8" d="M98.42,261.26h0a.1.1,0,0,1,0-.13,2.79,2.79,0,0,1,1.62-1.36.1.1,0,0,1,.13.07.1.1,0,0,1-.07.12,2.64,2.64,0,0,0-1.49,1.26A.1.1,0,0,1,98.42,261.26Z"/><path class="cls-8" d="M99.31,261.85h0a.1.1,0,0,1,0-.13,3.09,3.09,0,0,1,2-1.69.1.1,0,0,1,.12.08.09.09,0,0,1-.07.12,2.88,2.88,0,0,0-1.91,1.57A.11.11,0,0,1,99.31,261.85Z"/><path class="cls-8" d="M95,258.21a.11.11,0,0,1-.1-.09c-3-29.41-.85-50.72-.83-50.93a.09.09,0,0,1,.11-.09.09.09,0,0,1,.09.11c0,.21-2.15,21.5.84,50.89a.1.1,0,0,1-.1.11Z"/><path class="cls-8" d="M93.66,215.38a.09.09,0,0,1-.07,0c-1.63-1.55-.57-7.78-.53-8a.11.11,0,0,1,.21,0c0,.06-1.09,6.39.46,7.86a.11.11,0,0,1-.07.18Z"/><path class="cls-17" d="M78,200.18c2.18,1.65,8.86.27,13-1.38,1,2.9,1.88,6.25,1.45,8.62,0,0,6.46-.8,6.66-.77s5.82,0,5.82,0l2.2-.91a30.2,30.2,0,0,0,.55-5.57s8.24-.87,9.16-5.12-7.8-14.95-9.77-14.28-4.64-.78-4.64-.78l-4.62.47-2.81,2.12H92.36a21.83,21.83,0,0,0-5.3,2.05C85.23,185.81,75,198,78,200.18Zm28.18-8a20,20,0,0,1,1.17-3.49c.41-.48,1.12,2.78,1.29,4.51s0,2.44-1.6,3.45ZM86,195.58s1.59-2.65,2-2.75A6.91,6.91,0,0,1,89.3,195C87.81,195.41,86.27,195.78,86,195.58Z"/><path class="cls-34" d="M109,175.6s2.12,1.11,2.12,1.38-2.32,5.3-6.85,5.87c0,0-1.51-1.82-1.94-2.54l1.84-2.53,1.73-.86,2.42-1.12Z"/><path class="cls-18" d="M97.45,176s-.62,4.34-2.24,5.19l-1,.81.64,2.2s2.78,3.37,5,3.13,1.84-3.35,1.8-3.49a9.82,9.82,0,0,0-1.35-.92s-.58-1.25.78-3-.74-1.87-.74-1.87Z"/><path class="cls-35" d="M102.25,180.89s2.71,4.56.5,7.49l-2.91-1.06a5.61,5.61,0,0,0,.45-4.41,2.19,2.19,0,0,1,.18-2Z"/><path class="cls-35" d="M96.07,180.3a6.67,6.67,0,0,0-4.92,2s2.82,5.43,6,6.91c0,0,1.8-1.27,2.65-1.9C99.84,187.32,92.83,183.67,96.07,180.3Z"/><path d="M95.17,194.86l-3.65-8.68a2.22,2.22,0,0,1,1.19-.51l3.21,8.59Z"/><path d="M93.2,187c-.35.15-.76.36-1.12.55l-.56-1.33a2.22,2.22,0,0,1,1.19-.51Z"/><path class="cls-18" d="M92,195.09c.68-1,1.93-4.42,2.74-4.57s4.65.45,4.94,1.22-3.91,3.25-3.92,3.31-1.32,1.71-2.77,1.69C92.17,196.73,92,195.09,92,195.09Z"/><path class="cls-3" d="M105.23,208.21s-7.46,1.72-10.14.32c0,0,.23-13.4,2.67-17.05,0,0,7.19-3.3,14.34-.73C112.1,190.75,104.14,194.57,105.23,208.21Z"/><path class="cls-18" d="M106.86,196.76c.55.2,1.24,1.71.72,3.39s-1.32,2.44-2.47,2.3-2.93-1-3.17-1.92.28-.9.28-.9-.83-.61.16-.76c0,0-1.06-.61.22-.88,0,0-1.13-.47-.12-.9A7.52,7.52,0,0,1,106.86,196.76Z"/><g class="cls-22"><path class="cls-18" d="M100.18,181.9a6.48,6.48,0,0,1-3.49-2.9,16.07,16.07,0,0,0,.76-3l2.88,2,.68,2A4,4,0,0,0,100.18,181.9Z"/></g><path class="cls-18" d="M109.19,171.33c.1,0,.56,6.34-2.53,8.88l-1-1.28s-6,5.92-8.57-2.23c0,0,.44-4,.44-4.17a21.21,21.21,0,0,1,2.72-3.08c.24,0,4.41.69,4.54.69S109.19,171.33,109.19,171.33Z"/><path class="cls-26" d="M109,175.6s5.9,0,5.32-5.32-4.52-2.6-7.85-3.6-6.17-2.94-8.9.21-2,8.73-.34,10.27c0,0,1.53-.93,2.22-3.93l1.81-.17a6.91,6.91,0,0,0,7.93-1.73A13.78,13.78,0,0,1,109,175.6Z"/><path class="cls-18" d="M101.26,173.06s.59-1.64-1-1.69-1.4,3.18-.88,3.48S101.26,173.06,101.26,173.06Z"/><path class="cls-8" d="M233.75,211.33l-22.14-21.21s23.44-26,23.76-26.2l22.51,20.93Z"/><path class="cls-2" d="M211.47,190c7.05-7.84,23.49-26.09,23.81-26.24l.12-.06,22.61,21,.14.13L233.76,211.6l-22.41-21.47Zm46.14-5.13-22.24-20.68c-1.47,1.49-15.76,17.34-23.49,25.93l21.86,20.94Z"/><path class="cls-17" d="M223.19,177.53c3.44-.14,7.75-1.45,8.6-.7,1.15,1-.38,9.39.2,10.83l-6.68,1.76-6.89-6.62Z"/><path class="cls-9" d="M231.92,177a.54.54,0,0,1,.05.11l0,.08.05.12s0,.07,0,.1l0,.14,0,.12a.77.77,0,0,0,0,.15s0,.09,0,.13a1.1,1.1,0,0,0,0,.18.71.71,0,0,0,0,.14c0,.06,0,.12,0,.19a.76.76,0,0,0,0,.15v.2a.81.81,0,0,0,0,.16v.39a1.77,1.77,0,0,1,0,.23v.17a2.09,2.09,0,0,1,0,.25v.17c0,.09,0,.18,0,.27s0,.1,0,.16,0,.19,0,.29V181c0,.11,0,.21,0,.32v.13c0,.12,0,.23,0,.34v.11l0,.4h0c-.63-1.24-.94-1.76-1.44-1.82s-2.81.71-3-1.21a4.46,4.46,0,0,1,.68-2.45c1.58-.25,2.87-.41,3.39-.1l.09.06a.63.63,0,0,1,.1.12Z"/><path class="cls-4" d="M237.2,179.68c1.69,1.47,5.15,1.78,6-1.85a3.46,3.46,0,0,0-3.39-3.61C236.79,174.07,235,177.77,237.2,179.68Z"/><path class="cls-9" d="M223.25,186.93c2.93.58,19.81-3.86,21.22-2.25,1,1.18.52,9.3.2,14.43l-4.32,4.72c-.71-1-2.34-1.15-2.43-1.23s-6-4.74-6.45-5.26-7.71-8.3-7.77-8.4S220.31,186.34,223.25,186.93Z"/><path class="cls-17" d="M244.47,184.68c.62.72.68,4,.55,7.66-.6-1.38-1.26-2.66-2.36-2.83-1.66-.26-6.74,4.26-6.59,1.52s3-4.32,1.41-6.13C241,184.35,243.92,184.05,244.47,184.68Z"/><path class="cls-8" d="M240.47,203.94l-6.72,7.39-22.14-21.21,6.69-7.42Z"/><path class="cls-2" d="M211.47,190l6.69-7.42.13-.14,22.45,21.51-7,7.66-22.41-21.47Zm28.74,14-21.9-21-6.43,7.13,21.86,20.94Z"/><path class="cls-8" d="M235.43,202.71s2.37-.52,2.54,1c.21,1.82-4.32,1-4.32,1s-.49-3.3.82-3.36C235.52,201.25,235.43,202.71,235.43,202.71Z"/><path class="cls-2" d="M233.46,204.69c0-.1-.35-2.4.35-3.25a.93.93,0,0,1,.66-.34,1,1,0,0,1,.75.27,1.75,1.75,0,0,1,.4,1.11,2.79,2.79,0,0,1,2.19.43,1.18,1.18,0,0,1,.35.76,1,1,0,0,1-.3.86c-1,.92-4.11.34-4.24.32l-.14,0Zm2-1.79-.25,0,0-.25a1.61,1.61,0,0,0-.29-1,.58.58,0,0,0-.47-.16.47.47,0,0,0-.37.19c-.46.56-.37,2.11-.28,2.81.94.16,3.1.38,3.77-.24a.58.58,0,0,0,.18-.54.82.82,0,0,0-.24-.53C236.94,202.59,235.49,202.9,235.47,202.9Z"/><path class="cls-8" d="M229.6,199.07a1.78,1.78,0,0,1,2.22-1.3,1.83,1.83,0,0,1,.53,3.37c-1.51.88-2.55-1-2.55-1s-.71.34-.8.93A1.77,1.77,0,0,1,229.6,199.07Z"/><path class="cls-2" d="M228.83,201.14a2,2,0,0,1,.6-2.18,2.35,2.35,0,0,1,1-1.26,1.84,1.84,0,0,1,1.45-.11,2.18,2.18,0,0,1,1,.56,2.05,2.05,0,0,1,.6,1.7,2,2,0,0,1-1,1.46,1.79,1.79,0,0,1-2.28-.38,3.84,3.84,0,0,1-.43-.54,1.14,1.14,0,0,0-.55.7l-.09.66ZM230,200a3,3,0,0,0,.47.61,1.4,1.4,0,0,0,1.82.33,1.59,1.59,0,0,0,.8-1.18,1.67,1.67,0,0,0-.48-1.37,1.86,1.86,0,0,0-.82-.47,1.48,1.48,0,0,0-1.16.07,2,2,0,0,0-.82,1.09v0l0,0a1.68,1.68,0,0,0-.64,1.24,2.1,2.1,0,0,1,.63-.49l.16-.08Z"/><path class="cls-2" d="M225.72,191.88l5.06,4.84-2.42.11Zm1.46,1.93,1.4,2.63,1.29-.06Z"/><path class="cls-2" d="M225.8,191.89l2.49,5-1.82,1.77Zm.59,2,.38,3.91,1-1Z"/><path class="cls-2" d="M227.66,196.39l0,0,.63.37a.18.18,0,0,0,.26-.06.21.21,0,0,0-.07-.27l-.62-.37a.18.18,0,0,0-.26.07A.17.17,0,0,0,227.66,196.39Z"/><path class="cls-18" d="M244,167.34c4-1.36,5.87-5.7,5.87-5.7l-1.76-1.88-1.26-.37c-.69,1.81-2.28,4.52-4.11,4.53-.54,0-4.12-1.12-7.33-.86l.45.86A25.05,25.05,0,0,0,244,167.34Z"/><path class="cls-18" d="M249.75,184.48a15.94,15.94,0,0,0-1.45,2.88,14.84,14.84,0,0,1-1.19,7.77,45.9,45.9,0,0,1-5.85,9l-1,1.89L238,210l-1.25-.59s.82-4,3-5.84c0,0,2.69-5.8,4.65-17.33l1.08-4.44Z"/><path class="cls-13" d="M241.21,211.21a.9.9,0,0,1-.56,0s.44-3-.05-4.15a18.29,18.29,0,0,0-1.1,4.19,8.14,8.14,0,0,1-4.78-.11,1.06,1.06,0,0,1,.17-1.24,3.49,3.49,0,0,1,1.89-.48L238,210s3.1-5.61,3.23-5.91c0,0,1.06,0,1.41,1.82S241.77,208.17,241.21,211.21Z"/><g class="cls-22"><path class="cls-18" d="M244.55,185.59l.76-3.14c.36-.2.61-.32.61-.32l.29.14,3.54,2.21a15.94,15.94,0,0,0-1.45,2.88c0,.3.13,1.15.08,2.41h0A6.52,6.52,0,0,0,244.55,185.59Z"/></g><path class="cls-7" d="M247.06,156.89l-.85,2.82a6.51,6.51,0,0,0,3.67,1.49c1.94,0,0-2.15,0-2.15l-1.4-2Z"/><path class="cls-8" d="M249.21,160.21a5.54,5.54,0,0,1-2.7-1.54l.09-.09a5.45,5.45,0,0,0,2.64,1.51Z"/><path class="cls-18" d="M269,172.11s-.72,1.95.55,3,1.94,1.53,2,1-1-1.78-1-1.78a8.42,8.42,0,0,1,1.63,1.16c.55.57,1,2.12,1.48,2S273,175,273,175s.89,2.66,1.17,2.28-.2-2.5-.2-2.5.54,2.4.9,2.08-.58-2.71-.58-2.71.91,1.54,1.27,1.29-1.29-2.5-1.89-2.69-3.9-1.13-3.9-1.13Z"/><path class="cls-26" d="M251.21,144.12c-4.82,3.08-4.61,8.64-4.06,9.37l1.9-.5,5.51-2.77-.62-4.47Z"/><path class="cls-18" d="M257.73,184.51l1.36,3.1s4.79,11.4,5.33,16.43l1.54.22s1.66-15.26-3.28-19l-.57-1.81h-4.38Z"/><path class="cls-18" d="M261.56,209.58a28.92,28.92,0,0,1,2.86-5.54l.65-1.55.89,1.77.92,1.67-1,.31a5.13,5.13,0,0,0-.54.35s-.85,1.5-.87,1.59-.85,3-1.2,2.88-1.85-.89-1.85-.89Z"/><path class="cls-13" d="M266,211.38a1,1,0,0,1-.55,0s.43-3-.06-4.16a18.26,18.26,0,0,0-1.1,4.2,8.09,8.09,0,0,1-4.78-.12,1.08,1.08,0,0,1,.17-1.24,3.59,3.59,0,0,1,1.89-.48l1.25.6s3.1-5.62,3.23-5.92c0,0,1.06,0,1.41,1.82S266.55,208.33,266,211.38Z"/><g class="cls-22"><path class="cls-18" d="M257.73,183.88l1.68-.44h2.7l.57,1.81a6.78,6.78,0,0,1,2,2.86,8.74,8.74,0,0,0-5.56-.37l-.05-.13-1.36-3.1Z"/></g><path class="cls-26" d="M262.5,156.12c-.16,1.75,3.69,4.88,3.31,9.17s-6.38,5-6.38,5l-4.56-4.6.34-5.69L257,156.4Z"/><path class="cls-32" d="M249.38,165.29s-4.67,9.11-5.23,18.87c0,0,7.43,5.05,18.38.48,0,0,2.34-14.49-5.17-20.08l-3.17-.89-3.48,1Z"/><path class="cls-8" d="M261.15,185.15c-.09-12.17-4.56-20.07-4.6-20.15l.11-.06c0,.08,4.53,8,4.62,20.21Z"/><path class="cls-18" d="M253,145.08c.1.2-.25,3.35-1.58,4.63l-1.56,1.65,4.66,1.22,3.8-2.51-.84-2.37-.68-3Z"/><g class="cls-22"><path class="cls-18" d="M253,145.42l2.6-.37.74,1.24c-.87.89-2.6,1.13-3.73,1.17A10.58,10.58,0,0,0,253,145.42Z"/></g><path class="cls-9" d="M250.73,150.55a46.68,46.68,0,0,0-5,4.69s.65,3,2.62,3.44c0,0,1.49,4.79,1,6.61,0,0,3.35,2,8-.73,0,0-.34-3.1,3-7.12l-1-6.87-1-.5L252.42,152Z"/><path class="cls-18" d="M252.61,133.11C249,134.86,248,139,248,139l.87.68s-2.37,5.51,4.32,6.63,7.17-5,7.17-5L257,135.76Z"/><path class="cls-26" d="M248.73,137a3.65,3.65,0,0,1-1.13-4.47c.66-1.72,1.63-2.6,2.78-2.85s1.66,2.53,7.4,2.12,12.25,2.84,5.45,15.63c-1.1,2.08-.28,5.16-.28,5.16l-3.31-1.86-2.22-1.31s-3-.75-1.38-7v-1.86l-.72-.31s-3.48-2.75-4.58-5.88A15,15,0,0,0,248.73,137Z"/><path class="cls-18" d="M254.89,140.61s.9-.93,1.81-.63.26,3.21-1.91,2.92S254.89,140.61,254.89,140.61Z"/><path class="cls-7" d="M255.28,158.26H255l-.59,0-.37,0-.41,0h-.87c-.15,0-.3,0-.44,0s-.29,0-.43,0h-.21l-.2,0-.38,0-.32,0-.26,0h-.24l.17.17.2.18a2.61,2.61,0,0,0,.3.19,2.55,2.55,0,0,0,.37.19l.21.08.23.07.24.06.12,0,.12,0a4.53,4.53,0,0,0,.52,0h.26l.25,0a2.65,2.65,0,0,0,.49-.09c.15,0,.3-.1.44-.15l.37-.18a2.43,2.43,0,0,0,.29-.19,1.37,1.37,0,0,0,.21-.18A2.14,2.14,0,0,0,255.28,158.26Z"/><path class="cls-9" d="M256.63,149.92s-5.86,2.64-5.18-.21c-2.34,1.26-4,3.38-5.69,5.53l6-2.27,4.92-.88,1.87-1.43.86-.09S257.29,150,256.63,149.92Z"/><path class="cls-18" d="M257.42,149.42c.48,0,1.6,1.46,4.14,4.09s8.7,18.19,8.7,18.19-.65.86-1.42.6c-.3-.1-7.54-9.51-9-14.26a48.55,48.55,0,0,0-3.23-8.12Z"/><path class="cls-8" d="M249.25,186.08h-.13c.07-15,2.37-20.07,2.39-20.12l.12,0C251.61,166.06,249.32,171.11,249.25,186.08Z"/><path class="cls-9" d="M266.39,158.78s-3,2.9-5.8,3a27.36,27.36,0,0,1-1.51-2.61L255.9,156l.73-6.08.79-.5S263.86,148,266.39,158.78Z"/><path class="cls-8" d="M255,186.51l-.13,0c1-6.28-.78-20.51-.8-20.65l.13,0C254.18,166,256,180.21,255,186.51Z"/><path class="cls-8" d="M260.13,161.1V161c2.66-.05,5.91-3.3,5.94-3.34l.09.1S262.83,161,260.13,161.1Z"/><path class="cls-8" d="M252.53,151.76a7,7,0,0,1-1.19-.1,1,1,0,0,1-.84-.51,1.43,1.43,0,0,1,.2-1.13l.11.07s-.38.58-.19,1a.88.88,0,0,0,.74.44,8.75,8.75,0,0,0,6.94-2.22l.09.09A9.08,9.08,0,0,1,252.53,151.76Z"/><path class="cls-18" d="M235.42,163.06a4.54,4.54,0,0,0-3.29,1c-.85.77-.55,1.18,1.08.1,0,0-1.07,2.29-.89,2.4.7.41,1.64-1.76,1.64-1.76s-1.23,1.77-.87,2,1.74-1.78,1.74-1.78-.7,2.46-.26,2a16.78,16.78,0,0,0,1.52-2.57s.53,1.12,1,1.18c.74.11,0-1.33,0-1.33l.84.3-.68-.53A3.87,3.87,0,0,0,235.42,163.06Z"/><path class="cls-2" d="M208.33,173.88l-21.71,0a.32.32,0,0,1,0-.64l21.71,0a.32.32,0,1,1,0,.63Z"/><path class="cls-2" d="M206.49,188l-22.43,0a.33.33,0,0,1-.32-.32.32.32,0,0,1,.32-.32l22.43,0a.32.32,0,1,1,0,.63Z"/><path class="cls-2" d="M210.17,159.78l-21,0a.32.32,0,0,1,0-.64l21,0a.31.31,0,0,1,.31.31A.32.32,0,0,1,210.17,159.78Z"/><path class="cls-2" d="M201.91,223h0a.32.32,0,0,1-.27-.36L220.84,75.42a.32.32,0,1,1,.63.09L202.23,222.7A.31.31,0,0,1,201.91,223Z"/><path class="cls-2" d="M177.38,222.78h0a.32.32,0,0,1-.26-.37L204.75,74.5a.31.31,0,0,1,.62.11L177.7,222.52A.33.33,0,0,1,177.38,222.78Z"/><path class="cls-2" d="M219.89,84.36l-16.6,0A.32.32,0,0,1,203,84a.33.33,0,0,1,.32-.31l16.6,0a.32.32,0,0,1,.32.32A.32.32,0,0,1,219.89,84.36Z"/><path class="cls-2" d="M218,96.93l-16.6,0a.32.32,0,0,1,0-.63l16.6,0a.32.32,0,0,1,.32.32A.32.32,0,0,1,218,96.93Z"/><path class="cls-2" d="M216.75,109.5l-18.16,0a.32.32,0,1,1,0-.63l18.16,0a.32.32,0,0,1,.31.32A.31.31,0,0,1,216.75,109.5Z"/><path class="cls-2" d="M215.1,122.07l-18.87,0a.32.32,0,1,1,0-.63l18.87,0a.33.33,0,0,1,.31.32A.32.32,0,0,1,215.1,122.07Z"/><path class="cls-2" d="M213.46,134.64l-19.58,0a.31.31,0,0,1-.31-.32.32.32,0,0,1,.31-.32l19.58,0a.32.32,0,1,1,0,.63Z"/><path class="cls-2" d="M211.82,147.21l-20.29,0a.31.31,0,0,1-.31-.32.32.32,0,0,1,.31-.32l20.29,0a.31.31,0,0,1,.31.31A.31.31,0,0,1,211.82,147.21Z"/><path class="cls-8" d="M198.57,122a.13.13,0,0,1-.11-.06c-9.43-13.54-5.71-21.36-5.68-21.43a.14.14,0,0,1,.18-.06.12.12,0,0,1,.06.18c0,.07-3.68,7.76,5.66,21.16a.14.14,0,0,1,0,.19Z"/><path class="cls-17" d="M153,140s62.46-43.52,82.08-50.1l6.69,13.43-80.32,49.62Z"/><path class="cls-23" d="M228.79,111.3l13-8-6.69-13.43c-4,1.34-9.79,4.22-16.47,8Z"/><path class="cls-8" d="M228.9,103.07a3.1,3.1,0,0,1-2.73-1.94,2.92,2.92,0,0,1,1.2-3.87,3.69,3.69,0,0,1,1.85-.53,2.59,2.59,0,0,1,2.54,1.84c.66,2,.2,3.21-1.59,4.17A2.67,2.67,0,0,1,228.9,103.07Zm.32-5.5a2.83,2.83,0,0,0-1.42.4,2.13,2.13,0,0,0-.86,2.85,2.34,2.34,0,0,0,2,1.41,1.68,1.68,0,0,0,.88-.23c1.42-.75,1.72-1.55,1.19-3.17A1.74,1.74,0,0,0,229.22,97.57Z"/><path class="cls-8" d="M237,102.27l-.1,0-5.33-1.37a.42.42,0,0,1-.3-.51.43.43,0,0,1,.51-.3l5.32,1.38a.4.4,0,0,1,.3.5A.42.42,0,0,1,237,102.27Z"/><path class="cls-8" d="M165.29,145.94a.42.42,0,0,1-.39-.28.41.41,0,0,1,.26-.53c4.41-1.5,5.29-3.39,5.57-5v0c-.42-.24-2.62.4-4.08.83-2,.59-4.09,1.19-5.28,1-.74-.12-1-.59-.89-1,.22-1.6,5.4-5,6.83-4.85a.41.41,0,0,1-.1.82c-.71-.08-3.6,1.58-5.17,3.14-.64.63-.72.93-.74,1a.68.68,0,0,0,.19,0c1,.15,3.09-.46,4.93-1,2.69-.79,4.25-1.21,4.88-.64a.8.8,0,0,1,.25.78c-.32,1.9-1.3,4.06-6.12,5.7Z"/><path class="cls-8" d="M174.47,139.68a2.77,2.77,0,0,1-2.63-3.41.93.93,0,0,1,.91-.68c.76,0,1.53,1,1.84,1.89a2.22,2.22,0,0,1,.07,1.36,1.74,1.74,0,0,0,1.05-.61,1.91,1.91,0,0,0,.32-2.16.42.42,0,0,1,.73-.41,2.76,2.76,0,0,1-.44,3.13A2.44,2.44,0,0,1,174.47,139.68Zm-1.74-3.26s-.11.13-.12.16a1.86,1.86,0,0,0,.95,2l.25.13a1.27,1.27,0,0,0,0-1c-.25-.75-.82-1.32-1.07-1.33Z"/><path class="cls-8" d="M178.23,137.61a2.56,2.56,0,0,1-1.82-1.05c-.94-1.07-1.4-2.6-.48-3.47a1.89,1.89,0,0,1,1.49-.58,2.31,2.31,0,0,1,1.24.61l.45-.18c0,.09.15.35.27.71a3.85,3.85,0,0,0,1.17,1.76.08.08,0,0,0,.09,0,1.67,1.67,0,0,0,.52-1.1,6.51,6.51,0,0,0-.31-3,2.52,2.52,0,0,1-1.21-.22c-.44-.23-.65-.51-.62-.83a.67.67,0,0,1,.54-.54,1.75,1.75,0,0,1,1.76.69v0a5.12,5.12,0,0,0,1-.25l0-.1a1.16,1.16,0,0,1,.75-.93.7.7,0,0,1,.7.22.64.64,0,0,1,0,.87,2,2,0,0,1-.7.51,2,2,0,0,0,.71,1.39.6.6,0,0,0,.55.2c.72-.16,1.57-1.64,1.93-2.53a.42.42,0,0,1,.54-.23.41.41,0,0,1,.23.54c-.11.28-1.14,2.73-2.52,3a1.4,1.4,0,0,1-1.3-.4,3,3,0,0,1-.94-1.69,6,6,0,0,1-.61.15,7.36,7.36,0,0,1,.28,3.24,2.41,2.41,0,0,1-.86,1.65.89.89,0,0,1-.82.13,1.43,1.43,0,0,1-.57-.38,2,2,0,0,1-.7,1.51A1.24,1.24,0,0,1,178.23,137.61Zm-1-4.27a1.1,1.1,0,0,0-.75.36c-.51.48-.13,1.55.53,2.32.47.54,1.13.94,1.48.66.58-.46.42-1.61.16-2.49a.4.4,0,0,1-.32-.17,1.71,1.71,0,0,0-1-.68Z"/><path class="cls-8" d="M187.41,130.43a3.35,3.35,0,0,1-1.85-.57,2,2,0,0,1-.92-2.42,1.91,1.91,0,0,1,1.1-1.11,3.25,3.25,0,0,1,2.25.19.42.42,0,0,1-.36.76,2.34,2.34,0,0,0-1.6-.17,1.08,1.08,0,0,0-.62.65,1.2,1.2,0,0,0,.62,1.41,2.33,2.33,0,0,0,3-.22,2.8,2.8,0,0,0,.43-3.48.42.42,0,0,1,.13-.57.43.43,0,0,1,.58.13,3.6,3.6,0,0,1-.56,4.51A3,3,0,0,1,187.41,130.43Z"/><path class="cls-8" d="M192.77,128.33l-1.3-.89c-2-1.38-4.93-5.44-5.06-5.61a.43.43,0,0,1,.1-.59.42.42,0,0,1,.58.1,41.84,41.84,0,0,0,3.62,4.34,2.3,2.3,0,0,1,0-1.92.93.93,0,0,1,1-.3,20.38,20.38,0,0,1,5,2.46.42.42,0,0,1,.12.58.43.43,0,0,1-.58.12,20.26,20.26,0,0,0-4.66-2.35.39.39,0,0,0-.18,0,4.91,4.91,0,0,0,.71,2.64Z"/><polygon class="cls-18" points="210.3 95.23 217.32 99.74 216.88 100.69 208.27 96.53 210.3 95.23"/><path class="cls-18" d="M203.45,120.28s-2.28,1.41-3.08,6.9-.11,13.43-2,17v1.09l2.53.83,2.09.54h2.43a.73.73,0,0,0-.11-1.07c-.62-.45-4.66-2.34-4.69-3.35s8-20.47,8.06-21.65l-2.86-1.18Z"/><g class="cls-22"><path class="cls-18" d="M203.45,120.28s-2.28,1.41-3.08,6.9-.11,13.43-2,17v1.09l2.53.83,2.09.54h2.43a.73.73,0,0,0-.11-1.07c-.62-.45-4.66-2.34-4.69-3.35s8-20.47,8.06-21.65l-2.86-1.18Z"/></g><path class="cls-19" d="M203,146.64h2.43a.73.73,0,0,0-.11-1.07,10.69,10.69,0,0,0-1-.55h0c-.54,1.44-4.44-.87-5.63-1.62-.11.27-.22.53-.34.77v1.09l2.53.83Z"/><path class="cls-18" d="M193.15,119.44s-1.85,2.12-1.7,7.08,4.38,13.86,4.15,16.1-.68,3.15-.4,4c0,0,7.55.09,7.78,0s.83-.7,0-1.06-5.55-1.15-6.1-3.51-.39-24.63-.39-24.63Z"/><path class="cls-19" d="M203,145.58c-.18-.07-.54-.17-1-.3h0c-1.61.45-5.31-1.21-6.5-1.92-.24,1.71-.55,2.51-.3,3.27,0,0,7.55.09,7.78,0S203.81,145.94,203,145.58Z"/><path class="cls-18" d="M196,78.44s-1.18,1.83-1.66,2.49-1.49,2.19-1.49,2.19a41.32,41.32,0,0,0,2.19,3.9c.24.08,4.29,1.22,4.76,1.07a18.22,18.22,0,0,0,2.28-1.61l-1.59-4.6s-1.86,0-2.06-.84a15,15,0,0,1-.15-2.6Z"/><path class="cls-36" d="M202.42,82.11s7.59,11,7.88,13.12c.06.45-1.73,1.49-1.89,1.45s-4.83-5.62-4.83-5.62l-1.17-6.79Z"/><g class="cls-22"><path class="cls-18" d="M198.4,80.81a17.53,17.53,0,0,1-.11-2.37H196l-.41.62A4.71,4.71,0,0,0,198.4,80.81Z"/></g><path class="cls-18" d="M180.86,92.77s-1.56,1.71-1.42,2.06a17.72,17.72,0,0,0,11,5.66l.53-.42s-6.6-3.9-7.63-5.23L182.43,93Z"/><path class="cls-18" d="M198.7,68.88s4.37,2.34,4.16,7.07l-1.35.18s.67,6.5-6.28,2.31S193,71.88,193,71.88A12.23,12.23,0,0,1,194.31,70C194.64,69.76,198.7,68.88,198.7,68.88Z"/><path class="cls-2" d="M199.88,65.27c1.65-.72,5.92,2.47,1,6.35s-6.28,1.58-6.28,1.58,3.6,7.29-.67,9.4-2.52,4.91-4.15,6.45c-2,1.9-7.57,1.74-7.13-4.24s5.91-5.66,6.93-8.43c1.53-4.14-.87-5.87.4-7.89C191.71,65.68,194.35,67.69,199.88,65.27Z"/><path class="cls-18" d="M196.32,74.3s-.6-1.9-1.6-1,.25,3.23,1.54,2.73S196.32,74.3,196.32,74.3Z"/><path class="cls-2" d="M191.34,99.33s-2.94,1.74-2.53,7.06,4,13.7,4,13.7,4.3,3.6,15.87.49c0,0-3.46-14.44-7.11-18.09s-6.25-2.7-6.25-2.7Z"/><path class="cls-11" d="M180.86,92.77a3.06,3.06,0,0,0,2.48,2.07s6.85-5,8.45-6.06c0,0,.32-2.93-1.89-4C189.9,84.73,181.72,91.35,180.86,92.77Z"/><path class="cls-11" d="M189.9,84.73a39.85,39.85,0,0,1,4-2.13s5.14,4.59,5.62,4.54c1.37-.15,1.16-5.33,1-5.33-.47,0,1.94.3,1.94.3a75,75,0,0,0,3.13,7s.35,2.48-3.07,3.22c0,0-1.66,6.41-.92,10.19,0,0-4.61,1.73-10.22-3.16,0,0,5.75-5.31.45-10.55Z"/><path class="cls-18" d="M191.28,99c-.27-.11-1.37-.16-1.92,1.58s1,1.71,1.77.83S192,99.28,191.28,99Z"/><g class="cls-22"><path class="cls-11" d="M200.48,91.79h-.24l-.26,0-.33,0c-.12,0-.25,0-.38,0l-.42,0h-.65l-.22,0c-.15,0-.29,0-.44,0s-.28,0-.43-.06l-.4-.08c-.13,0-.25-.06-.37-.09l-.33-.07-.25-.07-.24,0a1.17,1.17,0,0,0,.14.2,2.53,2.53,0,0,0,.18.22,2.1,2.1,0,0,0,.26.24,3.12,3.12,0,0,0,.35.25,4.51,4.51,0,0,0,.44.22l.24.08a1,1,0,0,0,.25.07,2.43,2.43,0,0,0,.54.08l.27,0,.26,0a4.34,4.34,0,0,0,.52-.08,3,3,0,0,0,.45-.15,2.7,2.7,0,0,0,.9-.58A1,1,0,0,0,200.48,91.79Z"/></g><path class="cls-18" d="M217,100.11a.92.92,0,0,1,1.36-.29c.88.56,2.28.53,1.75,1s-2.15-.1-2.92-.09S217,100.11,217,100.11Z"/><path class="cls-18" d="M273.58,97.56l-.55,1.1,2.68,1.14s2.14-2.21,2.65-2.67l-1.82-1.46-2.3,1.62Z"/><g class="cls-22"><path class="cls-18" d="M273.58,97.56l-.55,1.1,2.68,1.14s2.14-2.21,2.65-2.67l-1.82-1.46-2.3,1.62Z"/></g><path class="cls-9" d="M271,99.23a5.49,5.49,0,0,1,2.29-1.18,15.67,15.67,0,0,0,2.38,1.75,9.78,9.78,0,0,0,0,3.57c.38,2,1.27,5.93,1.07,6.1a1.64,1.64,0,0,1-1.21.39A19.26,19.26,0,0,1,271,99.23Z"/><path class="cls-13" d="M276.23,109.79c-1.67-1.58-4.26-8.61-4.81-10.86a4.06,4.06,0,0,0-.38.3,19.26,19.26,0,0,0,4.57,10.63A1.54,1.54,0,0,0,276.23,109.79Z"/><path class="cls-23" d="M262.85,70.21s-11,7.91-9.92,13.42,8.48,11.66,20.7,13.8l1.7-2.77s-11.67-8.06-10-11.81,6.9-6.23,8.46-6.33,7.63,3.13,7.86,4.69-5.54,13.32-5.54,13.32l.16,2.9,3.16-.58s13.82-14.39,13.27-18.18-10.42-9-10.42-9l-10.89-.44Z"/><path class="cls-18" d="M274.43,96.81l.54-1.27s4.59,1.18,4.42,1.43-2,2-2,2Z"/><path class="cls-9" d="M281.18,96.5a5.48,5.48,0,0,0-2.57-.06,16.33,16.33,0,0,1-1.39,2.6,9.63,9.63,0,0,1,1.51,3.23c.54,2,1.42,5.9,1.67,6a1.64,1.64,0,0,0,1.26-.18A19.26,19.26,0,0,0,281.18,96.5Z"/><path class="cls-13" d="M280.42,96.35a27.18,27.18,0,0,1,.6,11.93,1.44,1.44,0,0,0,.64-.22,19.26,19.26,0,0,0-.48-11.56A5.3,5.3,0,0,0,280.42,96.35Z"/><path class="cls-8" d="M274.14,97c-.7-.3-17.23-7.4-18.44-12.63s7.92-13.15,8.31-13.48l.13.15c-.09.08-9.44,8.17-8.25,13.29s18.16,12.41,18.33,12.49Z"/><path class="cls-8" d="M277.72,96.37l-.09-.17c1.8-1,13-15.53,13-17.54s-7.92-7.45-8.5-7.8l.1-.17c.09,0,8.6,5.83,8.6,8S279.64,95.3,277.72,96.37Z"/><path class="cls-37" d="M272.74,97.88S276,99,276.13,99s2.16-2.25,2.28-3.28l-3.35-1.81S273,97.57,272.74,97.88Z"/><path class="cls-11" d="M281.21,45.8a19.64,19.64,0,0,1,3.68,2L285,61.54l-2.51,3.61,2.11,2.94a7.76,7.76,0,0,1-.26,2.77c-.4.72-19.83,1.15-22.3,0,0,0-.42-.72,1.35-5.54l-.23-1.67,1.05-6.06-3.39-2.39.73-7.73A16.08,16.08,0,0,1,267.37,45c3.7-.84,9.57.76,9.57.76Z"/><path class="cls-36" d="M268.46,67.09a4.32,4.32,0,0,1-.29-3.58s-4.62.34-4.39-1.23,1-2,1-4.12-1.54-9.72-3.15-10.72c0,0-8.73,7.33-8.62,14.94S260.85,70,268.46,67.09Z"/><path class="cls-18" d="M279,64.65a10.13,10.13,0,0,1-1.52-.36,4.18,4.18,0,0,0-1.5-2.65,3.83,3.83,0,0,0-3.46-.64l.61,2.74,1.94,2.55,3.54.48,1.28-.48Z"/><g class="cls-22"><path class="cls-18" d="M279,64.65a10.13,10.13,0,0,1-1.52-.36,4.18,4.18,0,0,0-1.5-2.65,3.83,3.83,0,0,0-3.46-.64l.61,2.74,1.94,2.55,3.54.48,1.28-.48Z"/></g><path class="cls-38" d="M269.44,68.08c.37.78,5.71.65,5.86.21s1.62-7.68,1.09-8.15-6.51-.64-6.94-.3S269.2,67.59,269.44,68.08Z"/><path class="cls-18" d="M267.47,64l.7-.48s0-1.81,1-2.24v2.07a20.4,20.4,0,0,1,5.05-1.48c1.79-.08,1.69,1.34-.15,1.6,0,0,2-.57,2.14.48s-2.56.77-2.56.77,2.08.32,2,1-2.29.29-2.29.29,1.88,1,1.55,1.42-1.78-.11-2.7-.39-3.62-.17-4.27-.3S267.47,64,267.47,64Z"/><path class="cls-36" d="M284.89,47.8a19.39,19.39,0,0,1,6.83,11.72c1.45,7.9-5.1,11.38-14,7.58a16.28,16.28,0,0,0,.31-2.94s4.62-1.26,5.27-2.27S280.58,52.3,284.89,47.8Z"/><path class="cls-13" d="M273.69,48.84s-.6,6.6,0,8.17h1.25s-.09-6.7.31-8.17Z"/><path class="cls-26" d="M269,56.4c-1.6-3.61.18-8.37.26-8.57l.36.14c0,.05-1.8,4.81-.27,8.27Z"/><path class="cls-26" d="M279.59,56.14l-.38-.11c1-3.36-.93-8.11-.95-8.16l.36-.15C278.7,47.92,280.63,52.65,279.59,56.14Z"/><path class="cls-23" d="M278.49,56.65a.82.82,0,0,1,1-.62.6.6,0,0,1,.47.74c-.08.35-.28.59-.82.6A.6.6,0,0,1,278.49,56.65Z"/><path class="cls-23" d="M268.73,56.84a.83.83,0,0,1,1-.63.61.61,0,0,1,.47.75c-.08.34-.28.58-.82.59A.6.6,0,0,1,268.73,56.84Z"/><path class="cls-39" d="M275.78,41.6c1.15-.36,6.67,1.19,7.18,4.2S275.87,50,274.67,50c0,0-11.06.84-11.22-3.3s6.93-5.56,6.93-5.56l3.66,1Z"/><path class="cls-23" d="M278.87,41.87s1.73,5.73-3.75,7.85c0,0-10.77-2.8-6-7.22S278.87,41.87,278.87,41.87Z"/><path class="cls-18" d="M270.21,37.14c-.66.78-1.28,4.48-.11,7.29s5.64,4.24,7.75.31a8.75,8.75,0,0,0,.28-7.59Z"/><path class="cls-18" d="M278.35,41.6c.1-.15.51-1,1.16-.73s-.36,2.86-1.23,2.62l-.35-1.22Z"/><path class="cls-18" d="M269.91,41.58c-.1-.14-.5-1-1.15-.73s.35,2.86,1.21,2.63l.36-1.23Z"/><path class="cls-26" d="M269.83,37.94s.89,3,9.42,2.09c7.8-.81-2.48-8.33-7.55-6a2.51,2.51,0,0,0-2.94.71c-1.21,1.5-1,4.7.69,6.46A10.24,10.24,0,0,1,269.83,37.94Z"/><path class="cls-8" d="M274.19,51.94h-.09a.51.51,0,0,1-.34-.57c0-.35.35-.53.76-.41a.34.34,0,0,1,.21.41C274.69,51.64,274.46,51.94,274.19,51.94Zm.08-.84a.3.3,0,0,0-.31.28c0,.15.05.33.18.36s.37-.19.4-.4,0-.18-.08-.2A.46.46,0,0,0,274.27,51.1Z"/><path class="cls-8" d="M274.07,54H274a.5.5,0,0,1-.33-.57c0-.35.35-.53.75-.41a.34.34,0,0,1,.22.42A.64.64,0,0,1,274.07,54Zm.08-.83a.29.29,0,0,0-.31.27.32.32,0,0,0,.19.36c.18,0,.36-.19.4-.4s0-.18-.08-.2Z"/><path class="cls-8" d="M274.07,56.1H274a.52.52,0,0,1-.34-.57c0-.36.36-.54.76-.42a.35.35,0,0,1,.22.42C274.57,55.8,274.35,56.1,274.07,56.1Zm.08-.84a.29.29,0,0,0-.31.28.33.33,0,0,0,.18.36c.19,0,.37-.2.4-.41s0-.17-.07-.2Z"/><path class="cls-8" d="M303.38,67.79l-.13,0c1.58-4.25,8.17-11.87,9.72-13s4.64-1.28,4.77-1.28v.14s-3.22.17-4.7,1.25S305,63.57,303.38,67.79Z"/><path class="cls-8" d="M327.19,54.56a10.56,10.56,0,0,1-3.22-.72l0-.12a10.82,10.82,0,0,0,3.17.7h0c1.32,0,9.77-2.22,13.05-4.77l.09.11c-3.3,2.57-11.81,4.79-13.14,4.8Z"/><path class="cls-9" d="M397.54,105s-3.59.31-4.12-1.72-1.38-15.76.72-17.12S421,85.79,422,87.63s1.05,17.19-.93,17.44-18.28.47-18.5.24-1.77,3.92-4.67,4.6Z"/><path class="cls-2" d="M396.47,92.14v-.56c.16,0,15.79-.19,22.16,0l0,.56C412.24,92,396.62,92.14,396.47,92.14Z"/><path class="cls-2" d="M419.65,97.28c-7.52-.33-23-.66-23.13-.67v-.55c.16,0,15.62.33,23.14.66Z"/><path class="cls-2" d="M413.08,101.52c-3.36,0-6.63,0-6.69,0v-.56c.08,0,8.46,0,12.19,0v.56C417.19,101.53,415.12,101.53,413.08,101.52Z"/><path class="cls-2" d="M406.4,95.78l.12,5.44,4.71-3.32s12.17-28.26,12.26-28.81-4.09-3-5.15-1.84S406.4,95.78,406.4,95.78Z"/><path class="cls-40" d="M407.35,100.64l-.85-.46-.1-4.4,1.22-3.06,4.72,2.6h0l-1.11,2.58Z"/><polygon class="cls-33" points="408.69 99.69 406.52 101.22 406.46 98.63 408.69 99.69"/><path class="cls-11" d="M408.93,97.53l-.54-2.39-1.95.55c.57-1.43,7.33-18.42,10.44-25.46l5.22,2.25c-3.21,7.63-10.87,25.42-10.87,25.42l-.63-1.31Z"/><path class="cls-41" d="M408.93,97.53l-.54-2.39-1.95.55c.57-1.43,7.33-18.42,10.44-25.46l5.22,2.25c-3.21,7.63-10.87,25.42-10.87,25.42l-.63-1.31Z"/><polygon class="cls-42" points="420.84 71.94 421.2 72.13 415.51 86.22 410.9 97.21 410.6 96.58 408.93 97.53 408.38 95.14 418.91 71.11 420.84 71.94"/><path class="cls-11" d="M410.6,96.59,421.17,71.4c.57.37,1.09.59,1.07.76-.1.56-11,25.74-11,25.74Z"/><path class="cls-41" d="M410.6,96.59,421.17,71.4c.57.37,1.09.59,1.07.76-.1.56-11,25.74-11,25.74Z"/><path class="cls-3" d="M422.56,71.4l-.73,1.72a41.38,41.38,0,0,0-5.32-2.06l.75-1.7A26.19,26.19,0,0,1,422.56,71.4Z"/><path class="cls-11" d="M95.12,140c0-.61,0-4,.1-4.31s10.32,3,10.32,3l13.7,10.76,1.8,1.73-9.16-3s-10.36-4.11-10.77-4.23S95.12,140,95.12,140Z"/><g class="cls-22"><path class="cls-11" d="M95.12,140c0-.61,0-4,.1-4.31s10.32,3,10.32,3l13.7,10.76,1.8,1.73-9.16-3s-10.36-4.11-10.77-4.23S95.12,140,95.12,140Z"/></g><path class="cls-11" d="M84.13,143.7s8.56-6,9.23-6,27.1,13.24,27.68,13.47S84.13,143.7,84.13,143.7Z"/><path class="cls-11" d="M95.22,135.66c-.22-.21,4.23-8,4.88-7.86s22.28,24,20.94,23.37S95.56,136,95.22,135.66Z"/><path class="cls-2" d="M50.52,96.82c-1.1,6.93.14,15,6.2,19.4A15.2,15.2,0,0,0,66.51,119c3.29-.21,7-1.56,8.83-4.52a5.17,5.17,0,0,0-2.19-7.6,17.38,17.38,0,0,0-6.17-1.3c-1.57-.09-3.77-.25-5.11.79s-1.46,3.17-1.68,4.72a38.4,38.4,0,0,0-.36,6.86c.14,3.85,1.08,7.56,3.77,10.44,6.38,6.82,16.81,8,25.57,8.81.46.05.46-.68,0-.72-6.85-.66-14-1.48-20.11-4.87-2.93-1.63-5.72-3.85-7.15-7-1.56-3.39-1.55-7.45-1.26-11.1.13-1.77.18-4.17,1-5.8.95-1.85,3.83-1.54,5.58-1.42,3.57.24,9.15,1.36,8.12,6.18-.76,3.56-4.84,5.3-8.1,5.71a14.58,14.58,0,0,1-9.17-1.94c-6.55-3.94-8-12.24-6.88-19.25.07-.46-.63-.66-.7-.2Z"/><path class="cls-23" d="M476.16,130c1.72-1.47,2.41-4.55,2.41-4.55l3.73.13-1.05-6.88-4.46,2.86a14.65,14.65,0,0,0-4.24-2.64l2.9-4.17-7.52-1.51,1.18,5.27c-2.31.73-3.87,3.48-3.87,3.48l-3.71-3.48-2.65,7.22,5.61.1a10.78,10.78,0,0,0,1.2,2.95l-4.3,2.62,4.28,3.76,2.65-3.64a6.49,6.49,0,0,0,4.8.64l2,3.88,5.12-4.12Zm-7.73-1.11a4.06,4.06,0,0,1-.26-6.06c1.75-1.59,3.61-1.89,5.07-1.27,2.11.91,3.92,3.9,2,6.51C473.12,130.9,470.37,130.59,468.43,128.9Z"/><path class="cls-7" d="M464.06,138.84c-1.54-3.22-5.35-4.5-5.35-4.5l1.72-5.64-10.93-1.18,2.55,8c-2.79,1.49-5.74,5.4-5.74,5.4l-5.18-6.12-5.34,10.86,8.5.33c.17,3.83,3.75,7.32,3.75,7.32l-6.82,4.26,9.93,7,2.42-8.51a17.1,17.1,0,0,0,5-.63L460.8,163l7.48-5-4.47-5.52c3-2.7,2.92-7.07,2.92-7.07l6.73-1.49-4.19-9.5Zm-5,11a5,5,0,0,1-7.3-1.6c-1.34-2.59-1.11-4.91.1-6.44,1.75-2.23,5.89-3.44,8.38-.3C462.91,144.94,461.67,148.12,459,149.89Z"/><path class="cls-8" d="M456.16,153.35c-4.14,0-6.75-4.53-6.86-4.72,0,0-3-4.84,2-8.95a8,8,0,0,1,5.14-2.11,7.82,7.82,0,0,1,6.11,3.45,7.74,7.74,0,0,1,1.08,6.09,8.26,8.26,0,0,1-4.54,5.49A6.26,6.26,0,0,1,456.16,153.35Zm.25-15.22a7.53,7.53,0,0,0-4.79,2c-4.57,3.81-1.87,8.19-1.84,8.24s2.57,4.45,6.38,4.45a5.79,5.79,0,0,0,2.64-.68,7.72,7.72,0,0,0,4.26-5.13,7.2,7.2,0,0,0-1-5.64C461.52,140.59,459.49,138.13,456.41,138.13Z"/><path class="cls-2" d="M476.87,110.08c4.51,1.23,12.66,5.51,10.2,11.41-.18.42.52.61.69.19,2.64-6.31-5.85-11-10.69-12.29a.36.36,0,0,0-.2.69Z"/><path class="cls-2" d="M484.9,110.15c3.05,1.06,4.87,3.71,5.76,6.71a.36.36,0,0,0,.69-.19c-1-3.26-3-6.07-6.26-7.21-.44-.15-.63.54-.19.69Z"/></g></g></svg>