<svg xmlns="http://www.w3.org/2000/svg" viewBox="0 0 482 255"><defs><style>.cls-1{isolation:isolate;}.cls-2{fill:#f2f3f3;}.cls-3{fill:#ced1d2;}.cls-4{fill:#eff0f0;}.cls-5{fill:#29495c;}.cls-6{mix-blend-mode:multiply;}.cls-7{fill:#fd653b;}.cls-8{fill:#fd643b;}.cls-9{fill:#fff;}.cls-10{fill:#babcbe;}.cls-11{fill:#38b6ff;}.cls-12{fill:#fda93b;}.cls-13{fill:#a5a7aa;}.cls-14{fill:#fdd63b;}.cls-15{fill:#e5e5e6;}.cls-16{fill:#de5935;}.cls-17{fill:#f4cb8b;}.cls-18{fill:#f4d39e;}.cls-19{fill:#76c2d1;}.cls-20{fill:#333745;}.cls-21{fill:#77ccfd;}.cls-22{fill:#ace0fd;}.cls-23{fill:#a8e0fd;}.cls-24{fill:#fd4f3b;}.cls-25{fill:#2580b3;}.cls-26{fill:#0e3144;}.cls-27{fill:#55bffd;}.cls-28{fill:#33b2fd;}.cls-29{fill:#1c6286;}.cls-30{fill:#154965;}.cls-31{fill:#fd5121;}.cls-32{fill:#9fdbfd;}.cls-33{fill:#518fb6;}.cls-34{fill:#fd843b;}.cls-35{fill:#a2dbfd;}</style></defs><g class="cls-1"><g id="Layer_1" data-name="Layer 1"><path class="cls-2" d="M185.6,155.49s13.62.77,12.74,9S176.48,172,165,172.07s-76.83,1.63-88-3.27c-10.2-4.48,1.15-23.29,20.8-14.89,0,0,10.91-20.49,31.48-25.92,31.83-8.41,35.34,17.73,35.34,17.73s8.63-10.92,18.49-2.91C187.94,146.69,185.6,155.49,185.6,155.49Z"/><path class="cls-3" d="M100.72,130.77s-2.62.35-2.59,3.62c0,2.41,2.88,2.52,6.3,2.86,2.37.24,16,.73,18.91-1.64,2.41-2,2.08-7.51-4.22-7.86-.37,0,3.41-9.07-6.67-11.2-7-1.49-7.82,6.14-7.82,6.14a4.52,4.52,0,0,0-5,3.53C98.73,129.34,100.72,130.77,100.72,130.77Z"/><path class="cls-4" d="M168.9,90.6a8.34,8.34,0,0,1,7.24,8.68c0,5.76-8,6-17.56,6.8-6.62.55-44.77,1.65-52.76-4C99.07,97.23,100,84.1,117.55,83.28c1,0-9.56-21.67,18.53-26.71C155.75,53,158,71.29,158,71.29s10.45-1.46,13.9,8.45C174.44,87.2,168.9,90.6,168.9,90.6Z"/><path class="cls-4" d="M310,122.51s-10.86,1.26-10.76,12.85c.08,8.52,11.93,8.88,26.1,10,9.83.82,66.52,2.45,78.4-6,10-7.11,8.7-26.54-17.42-27.75-1.56-.08,14.2-32.08-27.55-39.54-29.22-5.22-32.49,21.78-32.49,21.78s-15.54-2.15-20.66,12.52C301.75,117.48,310,122.51,310,122.51Z"/><path class="cls-5" d="M331.81,43.24a53.27,53.27,0,0,0,9.48-7.51c.62-.63-.35-1.6-1-1a51.81,51.81,0,0,1-9.2,7.3c-.75.46-.06,1.65.69,1.18Z"/><path class="cls-5" d="M70,113c-1.28-1.07-2.73-2.23-3.29-3.86a3.32,3.32,0,0,1,.12-2.71c.35-.63,1-1,1.38-1.66a2.51,2.51,0,0,0-.35-3.09c-1.06-1.19-2.79-1.37-3.82-2.57-.61-.7-1.62.32-1,1,1,1.19,2.79,1.34,3.76,2.51s-.26,1.82-.89,2.64a4,4,0,0,0-.74,1.58c-.67,3,1.72,5.4,3.83,7.17.71.59,1.72-.42,1-1Z"/><g class="cls-6"><ellipse class="cls-4" cx="243.24" cy="211.09" rx="186.74" ry="21.67"/></g><path class="cls-5" d="M338.36,224.84c-1.34-.18-2.78.18-2.88,1-.23,1.8,5.37,1.83,5.35.33C340.83,225.46,339.4,225,338.36,224.84Z"/><path class="cls-7" d="M323.66,234.29c-1,0-2.1.25-2.15.77-.1,1.11,4.15.85,4.08-.06C325.56,234.54,324.46,234.32,323.66,234.29Z"/><path class="cls-5" d="M351.88,227.44c2.19-.08,5.59.59,5.09,2.75s-8.85,2.73-9.59.22S350.17,227.5,351.88,227.44Z"/><path class="cls-5" d="M409.89,216.35c-.91,0-2.31-.37-2.05-1.25s3.73-.94,4,.12S410.6,216.36,409.89,216.35Z"/><path class="cls-5" d="M90.78,215.75c-1.78,0-3.58.72-3.58,1.84,0,2.4,7.33,1.48,7-.49C94.11,216.14,92.17,215.76,90.78,215.75Z"/><path class="cls-5" d="M58.7,227c-1.1,0-2.21.44-2.21,1.13,0,1.48,4.53.91,4.35-.3C60.76,227.25,59.56,227,58.7,227Z"/><path class="cls-8" d="M150.36,234.35c-1.91-.12-3.93.37-4.05,1.34-.25,2.06,7.7,1.78,7.61.07C153.88,234.92,151.84,234.45,150.36,234.35Z"/><path class="cls-5" d="M100.79,222.28c2.69.24,6.75,1.58,5.8,4.14s-11.24,2-11.75-1.21S98.7,222.09,100.79,222.28Z"/><path class="cls-8" d="M167.44,205.79s-13.28-5.85-9.43-10.39c4.78-5.63,15.26,2.58,15.26,2.58s-28.44-23.23-20.32-31.2c6.4-6.27,20.17,4.3,20.17,4.3s-42.41-66.42-1.65-83.91c43.35-18.61,45.64,64.11,33.09,77.84,0,0,15.82-10.46,22.48-5.46,10.35,7.79-7.35,35.84-33.32,46.08Z"/><path class="cls-9" d="M180.21,205.88l-.67-.33c8.93-18.31,7.78-44.73,5.25-63.67a264.4,264.4,0,0,0-7.74-37.12l.72-.22a265.8,265.8,0,0,1,7.76,37.23,182.07,182.07,0,0,1,1.67,33.15C186.55,187.29,184.2,197.71,180.21,205.88Z"/><path class="cls-9" d="M186.69,164.52c-10.65-11.87-14.14-32.26-14.17-32.47l.74-.12c0,.2,3.49,20.38,14,32.08Z"/><path class="cls-9" d="M185.72,187.72l-.5-.56c8.43-7.32,10.64-21.13,11-31.42A114.66,114.66,0,0,0,195,134.87l.74-.13a116.25,116.25,0,0,1,1.25,21C196.61,166.2,194.35,180.23,185.72,187.72Z"/><path class="cls-9" d="M183.28,196.7c-11-5-18.32-17.91-18.39-18l.65-.36c.07.12,7.27,12.77,18.06,17.72Z"/><path class="cls-9" d="M181.86,201.64l-.14-.73c10-1.9,18-8.76,23-14.18a68.53,68.53,0,0,0,8.56-11.45l.65.37a69.29,69.29,0,0,1-8.66,11.59C200.23,192.74,192,199.71,181.86,201.64Z"/><path class="cls-9" d="M180.65,204.29c-8.7-1.31-12.47-3.82-12.62-3.92l.42-.63s3.81,2.53,12.31,3.81Z"/><path class="cls-5" d="M440.9,145.11a36.21,36.21,0,0,0,5.06,7.78l.61-1q-3.69-1.12-7.32-2.38c-.77-.26-1.1.95-.34,1.21q3.64,1.26,7.32,2.38c.64.2,1-.6.61-1.05a35.05,35.05,0,0,1-4.86-7.52c-.35-.73-1.43-.09-1.08.63Z"/><path class="cls-5" d="M427.58,95.79a50.15,50.15,0,0,1,7.24,2.55c.73.32,1.37-.76.63-1.08a51.47,51.47,0,0,0-7.53-2.68.63.63,0,0,0-.34,1.21Z"/><path class="cls-5" d="M432.37,93q-1.81,3.7-3.64,7.41c-.35.72.73,1.35,1.09.63l3.64-7.41c.35-.72-.73-1.35-1.09-.63Z"/><path class="cls-5" d="M417.24,28.42a4.13,4.13,0,0,0-6.05,1.76c-1,2.44-1,6,2.12,6.75,2.78.64,4.91-1.66,5.73-4.08.47-1.39.54-2.91-.62-4s-3-1.07-4.49-1.74c-.8-.36-1.49.82-.69,1.19,1.71.78,5.23.67,4.7,3.39-.34,1.72-1.55,3.74-3.45,3.92-4.58.43-2.32-9,2.05-6,.74.5,1.42-.69.7-1.18Z"/><path class="cls-3" d="M194.22,186.85c12.88,5.07,13.27,18.05-1.82,24.26s-27.47-2.81-24.93-9.71S178.63,180.7,194.22,186.85Z"/><path class="cls-10" d="M168.54,198.88c.37,3.73,1.65,7,5,6.81,7.59-.51,5.12-3.35,14.11-3.34s15-6.43,15.13-8.37c2.84,5.82-.33,13-10.41,17.13-15.08,6.21-27.47-2.81-24.93-9.71A25.85,25.85,0,0,1,168.54,198.88Z"/><path class="cls-11" d="M138.28,144.72c1.57,2.21,9.46,2.68,11.77.58s-.15-4.8,3.73-11.11,7.9-5.14,8.22-17.89c.29-12-10.05-16.45-18.49-16.44-5.64,0-17.85,4-17.95,18.26-.06,7.81,6.5,11.53,10.36,16.31C139.64,139,136.51,142.23,138.28,144.72Z"/><path class="cls-10" d="M137.76,146.17c0,.2,8,2.38,13.05.33,0,0,1.27,11.1-3.22,12.16s-8.83.13-9.26-2S137.76,146.17,137.76,146.17Z"/><path class="cls-9" d="M151.53,119.55c-1.28.46-2.62,3.94-3.58,7.18a4,4,0,0,1-3.13-1.77c3.79-4,4.23-11.09,3.18-14.28-.57-1.77-1.44-1.94-1.91-1.88-2.39.28-4,5.84-3.81,10.61a12.51,12.51,0,0,0,1.24,5.4,8.49,8.49,0,0,1-1.39,1,2,2,0,0,1-.3.14c-.47-4.9-1.32-9.13-2.85-10.54a2,2,0,0,0-1.64-.58,2.25,2.25,0,0,0-1.9,1.78c-.75,2.67,1.11,7.71,3.55,9.63a3.77,3.77,0,0,0,1.91.85,176.55,176.55,0,0,1,.31,19.18l.51.11.51,0a184.27,184.27,0,0,0-.3-19.4,3.51,3.51,0,0,0,.7-.3,8.59,8.59,0,0,0,1.44-1,4.89,4.89,0,0,0,3.6,2c-.23.8-.42,1.57-.58,2.24-.7,3-2.2,10.64-1.16,16.64q.52,0,1-.12c-.72-4.1-.31-10,1.14-16.29.21-.9.43-1.76.65-2.55,1.8-.52,3-2.89,3.43-3.69.68-1.45,1.23-3.42.53-4.19A1,1,0,0,0,151.53,119.55Zm-11.91,5.87c-2.14-1.69-3.84-6.24-3.19-8.55.26-1,.84-1,1-1h.12a1.09,1.09,0,0,1,.7.32c1.31,1.21,2.09,5.14,2.53,9.87A2.88,2.88,0,0,1,139.62,125.42Zm4.67-1.38a12.47,12.47,0,0,1-1-4.66c-.17-4.73,1.5-9.4,2.91-9.57h0c.2,0,.53.37.8,1.19C148,113.91,147.63,120.32,144.29,124Zm6.74-.1a6.83,6.83,0,0,1-1.9,2.39c1.11-3.56,2.22-5.62,2.75-5.82l.08,0A5.86,5.86,0,0,1,151,123.94Z"/><path class="cls-5" d="M145.74,152.3a22.69,22.69,0,0,1-9.65-2,.51.51,0,1,1,.47-.91h0c.06,0,6.05,3,14.8,1.34a.52.52,0,0,1,.61.4.51.51,0,0,1-.41.6A29,29,0,0,1,145.74,152.3Z"/><path class="cls-5" d="M146.27,156a34.7,34.7,0,0,1-9.36-1.21.53.53,0,0,1-.34-.65.52.52,0,0,1,.65-.33,37.74,37.74,0,0,0,14.16.89.51.51,0,0,1,.11,1A44.35,44.35,0,0,1,146.27,156Z"/><path class="cls-5" d="M192.86,219.37c-10.45,0-20.81-2.74-31.77-5.63-2.61-.69-5.31-1.41-8-2.08a58.3,58.3,0,0,0-9.24-1.61,17.74,17.74,0,0,1-.68,2.7c-1.29,3.78-3.43,4.66-5,4.73-3,.13-5.57-.93-6.47-2.7a3,3,0,0,1,.39-3.28c.71-.9,3.26-3.12,10.76-2.71.93-7.41-1.11-18.73-5.9-28.35a13.81,13.81,0,0,1-2.65,2.23c-3.92,2.55-8.79,2.7-14.45.45-7.41-2.94-12-7.72-12.13-12.77a7.94,7.94,0,0,1,4.56-7.52c4.47-2.16,10.43-.66,15.94,4a39.7,39.7,0,0,1,9,11.45c5.38-7.13,5.93-19.09,5.94-19.24l1.17.05c0,.61-.6,13-6.51,20.34A58.84,58.84,0,0,1,142,190.27c1.93,6.8,2.63,13.53,2,18.6a60.88,60.88,0,0,1,9.35,1.65c2.72.68,5.42,1.39,8,2.08,22.14,5.85,41.26,10.9,62.84-5.17l.7.94c-10.06,7.5-20.24,11-32,11Zm-51.8-9.43c-4.46,0-7.07,1-8.07,2.29a1.77,1.77,0,0,0-.27,2c.53,1,2.26,2.19,5.38,2.06,1.75-.08,3.08-1.41,4-3.94a17,17,0,0,0,.6-2.39C142.1,210,141.57,209.94,141.06,209.94ZM116.65,163a8.91,8.91,0,0,0-3.88.85,6.73,6.73,0,0,0-3.9,6.43c.17,4.57,4.43,8.95,11.39,11.72,5.29,2.11,9.8,2,13.38-.34a13.31,13.31,0,0,0,2.72-2.37,39,39,0,0,0-8.92-11.57C123.8,164.66,120,163,116.65,163Z"/><path class="cls-12" d="M224,168.37c5,7,30.11,8.6,37.52,1.94s-.46-15.3,12-35.38,26.06-15.45,28.7-56S258.94,25.58,241,25.4s-58.61,13.78-59.06,59.06c-.32,32.85,22.51,34.7,32.76,50.51S218.32,160.41,224,168.37Z"/><path class="cls-13" d="M222.28,173c0,.61,25.42,7.66,41.6,1.15,0,0,3.94,35.4-10.37,38.73s-28.16.34-29.52-6.61S222.28,173,222.28,173Z"/><path class="cls-9" d="M266.4,88.25c-4.08,1.47-8.4,12.55-11.47,22.84a12.57,12.57,0,0,1-10-5.65c12.12-12.75,13.56-35.32,10.26-45.5-1.82-5.64-4.59-6.2-6.09-6-7.61.89-12.73,18.59-12.22,33.81.23,7,1.57,12.84,3.89,17.21a25.37,25.37,0,0,1-4.43,3.12,6.24,6.24,0,0,1-.95.44c-1.45-15.62-4.14-29.1-9-33.62A6.35,6.35,0,0,0,221.21,73c-3,.35-5.13,2.35-6.06,5.64-2.42,8.51,3.46,24.6,11.22,30.74a11.85,11.85,0,0,0,6.09,2.7c1.71,21.72,1.38,47.69.82,61.15.53.13,1.07.25,1.63.36l1.62.07c.09-2.17,1.4-34.46-.81-61.85a10.3,10.3,0,0,0,2.25-.93,28.51,28.51,0,0,0,4.58-3.18A15.74,15.74,0,0,0,254,114.29c-.71,2.56-1.33,5-1.84,7.14-2.26,9.61-7.11,33.88-3.85,53,1.11-.07,2.2-.19,3.25-.35-2.28-13.08-.91-32,3.78-51.91q1-4.33,2.1-8.13c5.74-1.63,9.74-9.18,10.94-11.72,2.19-4.63,4-10.91,1.72-13.37A3.23,3.23,0,0,0,266.4,88.25Zm-38,18.6c-6.82-5.39-12.2-19.92-10.11-27.29.85-3,2.7-3.22,3.3-3.29l.37,0a3.33,3.33,0,0,1,2.24,1c4.17,3.87,6.61,16.38,8,31.48A9,9,0,0,1,228.4,106.85Zm14.88-4.35c-2.39-5.1-3-11.26-3.1-14.88-.5-15.06,4.84-29.93,9.34-30.46h.07c.65,0,1.69,1.17,2.54,3.78C255.14,70.24,254,90.66,243.28,102.5Zm21.5-.26a22,22,0,0,1-6.08,7.58c3.55-11.33,7.1-17.89,8.81-18.5l.25-.07C268.24,92.28,267.67,96.76,264.78,102.24Z"/><path class="cls-5" d="M247.66,192.58c-18.54-.19-30.12-6.1-30.74-6.43a1.63,1.63,0,1,1,1.51-2.89h0c.19.1,19.24,9.78,47.17,4.4a1.63,1.63,0,0,1,.62,3.2A93.59,93.59,0,0,1,247.66,192.58Z"/><path class="cls-5" d="M249.33,204.38c-17.71-.17-29.23-3.75-29.84-3.95a1.63,1.63,0,0,1,1-3.11c.19.06,19,5.89,45.13,3a1.63,1.63,0,1,1,.36,3.24A137.35,137.35,0,0,1,249.33,204.38Z"/><path class="cls-5" d="M199.09,124.94c-1.38,0-3.16-.06-5.43-.22-13.46-1-22.91-5.63-28.88-14.24-4.4-6.34-6.23-14-7.51-20.6a26.31,26.31,0,0,1-6-4.78c-3.05-3.31-5-7.38-5.12-10.89-.11-2.44.66-4.15,2.07-4.58,1.05-.31,3.24-.12,6.2,4.76,1.72,2.82,2.52,7.19,3.44,12.26.15.81.3,1.63.46,2.47a34.56,34.56,0,0,0,10,3.69c7.09,1.49,13.42.42,18.82-3.17,11.95-7.94,15.52-25.73,15.55-25.91l1.15.22c-.14.75-3.69,18.45-16,26.66-5.67,3.77-12.3,4.9-19.71,3.35a37.31,37.31,0,0,1-9.51-3.33c2.78,14.08,8.21,31,35.13,32.92,7.45.54,9.43-.08,9.45-.09l.39,1.11A16,16,0,0,1,199.09,124.94Zm-50.2-54.23a1.15,1.15,0,0,0-.33,0c-.83.26-1.32,1.59-1.24,3.4.17,4,3,9.87,9.66,14.16-.09-.49-.18-1-.27-1.45-.9-5-1.69-9.23-3.29-11.86C151.49,71.82,149.87,70.71,148.89,70.71Z"/><path class="cls-14" d="M198.46,56.08c1.14,1.6,6.84,1.94,8.51.42s-.11-3.47,2.7-8,5.71-3.71,5.93-12.93c.22-8.64-7.26-11.89-13.36-11.89-4.07,0-12.9,2.93-13,13.2,0,5.65,4.69,8.34,7.49,11.79S197.18,54.28,198.46,56.08Z"/><path class="cls-15" d="M198.09,57.13c0,.14,5.77,1.72,9.43.24,0,0,.92,8-2.33,8.79s-6.38.09-6.69-1.49S198.09,57.13,198.09,57.13Z"/><path class="cls-9" d="M208,37.89c-.92.33-1.9,2.85-2.59,5.18a2.82,2.82,0,0,1-2.26-1.27c2.74-2.9,3.05-8,2.3-10.32-.42-1.28-1-1.41-1.38-1.37-1.73.21-2.88,4.23-2.76,7.68a9,9,0,0,0,.9,3.9,5.84,5.84,0,0,1-1,.71l-.22.1c-.34-3.54-1-6.6-2.06-7.62a1.46,1.46,0,0,0-1.19-.42,1.63,1.63,0,0,0-1.37,1.29c-.54,1.93.8,5.57,2.57,7a2.68,2.68,0,0,0,1.38.61,129.57,129.57,0,0,1,.22,13.87l.37.08h.37a135,135,0,0,0-.22-14,2.25,2.25,0,0,0,.51-.22,6.32,6.32,0,0,0,1-.72,3.57,3.57,0,0,0,2.61,1.48c-.16.58-.3,1.14-.42,1.62-.5,2.18-1.59,7.69-.84,12,.26,0,.5,0,.74-.08a31.57,31.57,0,0,1,.83-11.77c.15-.66.31-1.27.47-1.85,1.3-.37,2.2-2.08,2.47-2.66.49-1,.89-2.48.38-3A.74.74,0,0,0,208,37.89Zm-8.61,4.24c-1.54-1.22-2.77-4.51-2.3-6.18.19-.68.6-.73.74-.75H198a.76.76,0,0,1,.5.24c.95.87,1.51,3.7,1.83,7.13A2.17,2.17,0,0,1,199.43,42.13Zm3.38-1a9.09,9.09,0,0,1-.72-3.38c-.12-3.41,1.08-6.79,2.1-6.91h0c.15,0,.38.26.58.86C205.48,33.81,205.22,38.44,202.81,41.14Zm4.87-.08a5.08,5.08,0,0,1-1.37,1.73c.8-2.58,1.6-4.07,2-4.21h.06A4.27,4.27,0,0,1,207.68,41.06Z"/><path class="cls-5" d="M203.85,61.56a16.42,16.42,0,0,1-7-1.44.37.37,0,1,1,.34-.66h0a17.62,17.62,0,0,0,10.7,1,.36.36,0,0,1,.43.29.38.38,0,0,1-.29.44A21,21,0,0,1,203.85,61.56Z"/><path class="cls-5" d="M204.24,64.23a25.42,25.42,0,0,1-6.77-.87.38.38,0,0,1-.24-.47.37.37,0,0,1,.46-.24,27.54,27.54,0,0,0,10.24.64.38.38,0,0,1,.41.33A.37.37,0,0,1,208,64,29.83,29.83,0,0,1,204.24,64.23Z"/><path class="cls-8" d="M279.47,88.74c1.71,2.4,10.3,2.91,12.83.63s-.17-5.24,4.06-12.11,8.61-5.6,8.95-19.5c.32-13-10.95-17.93-20.15-17.92-6.13,0-19.45,4.42-19.56,19.9-.06,8.52,7.09,12.57,11.3,17.78C281,82.52,277.54,86,279.47,88.74Z"/><path class="cls-15" d="M278.9,90.32c0,.21,8.7,2.59,14.23.35,0,0,1.38,12.1-3.51,13.25s-9.63.14-10.1-2.23S278.9,90.32,278.9,90.32Z"/><path class="cls-9" d="M293.91,61.3c-1.39.51-2.86,4.3-3.9,7.82a4.27,4.27,0,0,1-3.41-1.92c4.13-4.37,4.6-12.09,3.46-15.56-.63-1.93-1.57-2.12-2.08-2.06-2.61.32-4.34,6.37-4.15,11.58A13.8,13.8,0,0,0,285.17,67a9.12,9.12,0,0,1-1.51,1.07,1.87,1.87,0,0,1-.32.15c-.51-5.34-1.44-10-3.11-11.49a2.22,2.22,0,0,0-1.78-.63,2.42,2.42,0,0,0-2.07,1.94c-.82,2.91,1.2,8.4,3.86,10.5a4,4,0,0,0,2.09.91,199.43,199.43,0,0,1,.34,20.91l.55.12.56,0a201.31,201.31,0,0,0-.34-21.14,3.4,3.4,0,0,0,.77-.32A10.12,10.12,0,0,0,285.77,68a5.39,5.39,0,0,0,3.93,2.23c-.24.87-.45,1.71-.62,2.44-.77,3.29-2.41,11.59-1.27,18.13.38,0,.75-.07,1.11-.13-.79-4.47-.34-10.93,1.24-17.75.23-1,.47-1.92.71-2.78,2-.56,3.32-3.15,3.73-4,.75-1.58,1.34-3.73.58-4.57A1.1,1.1,0,0,0,293.91,61.3Zm-13,6.4c-2.33-1.84-4.19-6.8-3.48-9.32.29-1,.92-1.1,1.13-1.13h.13a1.18,1.18,0,0,1,.76.35c1.43,1.32,2.28,5.59,2.76,10.76A3.31,3.31,0,0,1,280.93,67.7ZM286,66.2a13.89,13.89,0,0,1-1.08-5.08c-.18-5.16,1.63-10.24,3.17-10.43h0c.22,0,.58.4.87,1.29C290,55.16,289.65,62.14,286,66.2Zm7.35-.11a7.64,7.64,0,0,1-2.07,2.6c1.2-3.88,2.41-6.13,3-6.34l.09,0C294.54,62.68,294.35,64.21,293.37,66.09Z"/><path class="cls-5" d="M287.6,97a24.86,24.86,0,0,1-10.52-2.17.56.56,0,0,1-.24-.75.57.57,0,0,1,.76-.24h0c.06,0,6.58,3.33,16.13,1.46a.56.56,0,0,1,.65.44.57.57,0,0,1-.44.66A32.09,32.09,0,0,1,287.6,97Z"/><path class="cls-5" d="M288.18,101A37.43,37.43,0,0,1,278,99.7a.56.56,0,0,1,.34-1.06,41.32,41.32,0,0,0,15.43,1,.56.56,0,0,1,.62.49.57.57,0,0,1-.49.62A46.34,46.34,0,0,1,288.18,101Z"/><path class="cls-5" d="M206.75,222.34l-1.4-.35c8.78-35.39,23.29-143.91,23.44-145l1.43.19C230.07,78.27,215.55,186.87,206.75,222.34Z"/><path class="cls-5" d="M183.74,221.75l-1.4-.34c8.78-35.4,23.3-143.92,23.44-145l1.43.19C207.07,77.69,192.54,186.28,183.74,221.75Z"/><path class="cls-5" d="M204.74,90.51l-.11-1.44c6-.48,23.11-1.21,23.28-1.22l.06,1.44C227.8,89.3,210.68,90,204.74,90.51Z"/><path class="cls-5" d="M201.59,111.45l-.12-1.44c6-.47,23.11-1.21,23.28-1.21l.07,1.44C224.64,110.25,207.53,111,201.59,111.45Z"/><path class="cls-5" d="M198.43,132.4l-.11-1.44c6-.48,23.11-1.21,23.28-1.22l.06,1.44C221.49,131.19,204.37,131.92,198.43,132.4Z"/><path class="cls-5" d="M195.28,153.34l-.12-1.44c6-.47,23.11-1.2,23.28-1.21l.06,1.44C218.33,152.14,201.22,152.87,195.28,153.34Z"/><path class="cls-5" d="M192.12,174.29l-.11-1.44c6-.47,23.1-1.21,23.28-1.22l.06,1.44C215.18,173.08,198.06,173.81,192.12,174.29Z"/><path class="cls-5" d="M189,195.23l-.11-1.44c6-.47,23.11-1.2,23.28-1.21l.06,1.44C212,194,194.9,194.76,189,195.23Z"/><path class="cls-5" d="M184.71,215.25l-.11-1.44c6-.47,23.1-1.21,23.28-1.22l.06,1.44C207.77,214,190.65,214.77,184.71,215.25Z"/><path class="cls-5" d="M194.19,18.69l-4.1-4.8c-.57-.67-1.54.3-1,1l4.1,4.8c.58.67,1.54-.3,1-1Z"/><path class="cls-5" d="M202.17,18.67c-.34-3.48-.54-7-.87-10.45-.09-.87-1.46-.88-1.37,0,.33,3.48.53,7,.87,10.45.08.87,1.45.88,1.37,0Z"/><path class="cls-5" d="M209,19.32a32,32,0,0,0,4.52-7.25c.35-.8-.83-1.5-1.19-.69a30.53,30.53,0,0,1-4.3,7c-.55.67.41,1.65,1,1Z"/><path class="cls-5" d="M295.18,33.87l3.79-5c.54-.71-.65-1.39-1.18-.69l-3.8,5c-.53.71.66,1.39,1.19.69Z"/><path class="cls-5" d="M287.48,33.5c.12-3.49.1-7,.22-10.48,0-.88-1.34-.88-1.37,0-.12,3.49-.1,7-.22,10.48,0,.89,1.34.88,1.37,0Z"/><path class="cls-5" d="M280.26,33.62a30.06,30.06,0,0,1-4.73-6.68c-.41-.78-1.6-.09-1.19.69a31.55,31.55,0,0,0,5,7c.6.65,1.57-.32,1-1Z"/><polygon class="cls-16" points="408.38 164.22 375.17 140.84 375.17 134.56 379.69 134.96 411.85 161.07 408.38 164.22"/><polygon class="cls-16" points="411.26 168.08 376.79 195.99 366.88 193.78 367.38 191.29 407.5 164.22 410.82 167.49 411.26 168.08"/><polygon class="cls-5" points="364.52 193.78 361.39 188.61 358.17 190.9 361.35 195.03 364.52 193.78"/><path class="cls-14" d="M354.63,147.18c-.84.59-5.67,4.38-1.68,8.72s10.59-1,10.59-1Z"/><path class="cls-8" d="M391.47,205.52s-2.8-14.47-19.49-14.62-18.68,15.21-18.68,15.21,22.37.74,22.81.81S391.47,205.52,391.47,205.52Z"/><polygon class="cls-16" points="394.65 204.74 393.91 210.02 350.27 209.58 349.35 204 394.65 204.74"/><path class="cls-5" d="M412,158.55a5.48,5.48,0,0,0-5.62,6.1,5.53,5.53,0,1,0,5.62-6.1Z"/><path class="cls-5" d="M367.38,136.11c0-.15,6-10.57,11.22-5.71,5.07,4.72-5.51,12.11-5.51,12.11Z"/><path class="cls-8" d="M369.54,163,346,142.09s14.1-14.92,26.06-4.88S369.54,163,369.54,163Z"/><path class="cls-9" d="M413.2,167.69c-1.89,0-4.48-1.53-4.81-3.32-.18-1,.19-2.32,3-3.41a2.57,2.57,0,0,1,3.19,1,5.33,5.33,0,0,1,.42,4.72A1.73,1.73,0,0,1,413.2,167.69Zm-.74-6.23a2.27,2.27,0,0,0-.82.17c-1.3.5-2.79,1.36-2.55,2.61.26,1.41,2.54,2.74,4.11,2.74a1.09,1.09,0,0,0,1.12-.57,4.63,4.63,0,0,0-.33-4.07A1.87,1.87,0,0,0,412.46,161.46Z"/><path class="cls-5" d="M80.21,37.07a28.28,28.28,0,0,1,10.71,1.58s9.65-6.32,14.33-6.61A92.89,92.89,0,0,0,92,44.12S86,39.22,80.21,37.07Z"/><path class="cls-5" d="M102.41,54.33a23.54,23.54,0,0,1,8.92,1.31s8-5.26,11.94-5.5a77.54,77.54,0,0,0-11,10.06A41.7,41.7,0,0,0,102.41,54.33Z"/><path class="cls-5" d="M119.44,57.61a17.32,17.32,0,0,1,6.5,1s5.85-3.83,8.68-4a56.28,56.28,0,0,0-8,7.32A30.49,30.49,0,0,0,119.44,57.61Z"/><path class="cls-5" d="M90.65,62.44a12.22,12.22,0,0,1,4.62.68s4.16-2.73,6.18-2.85a39.81,39.81,0,0,0-5.7,5.21A21.6,21.6,0,0,0,90.65,62.44Z"/><path class="cls-5" d="M119.87,42.14a12.16,12.16,0,0,1,4.61.68s4.16-2.73,6.18-2.85a40.12,40.12,0,0,0-5.7,5.2A21.44,21.44,0,0,0,119.87,42.14Z"/><path class="cls-17" d="M139.93,132.5c0-.63,3.38-3.17,2.89-3.37a2.06,2.06,0,0,0-1.55.25s1.43-2.68.93-2.81-.84,1-.84,1,.74-1.69.33-1.77-1.21,1.41-1.21,1.41.61-1.17.22-1.28-1.16,1.44-1.16,1.44.59-.87.12-.9-.91,1.38-1,1.92a4.1,4.1,0,0,0,.23,2.47,5.43,5.43,0,0,1-.28,1.68Z"/><path class="cls-17" d="M161.26,131.47c-.08-.62-3.75-2.72-3.29-3a2,2,0,0,1,1.56.05s-1.75-2.48-1.28-2.67,1,.84,1,.84-1-1.58-.55-1.71,1.38,1.25,1.38,1.25-.76-1.09-.39-1.25S161,126.3,161,126.3s-.7-.79-.23-.89,1.07,1.26,1.22,1.79a4.2,4.2,0,0,1,.08,2.47c-.11.26.49,1.64.49,1.64Z"/><path class="cls-18" d="M149.47,216.16s1-34.08-.43-39-5.77.53-5.77.53.92,11.25,1.11,13.56-.87,10.48,3.31,24.87c0,0-1.77,2.84-.93,3.36.63.39,2.84.24,3.05-.11C150.18,218.72,149.83,217.36,149.47,216.16Z"/><path class="cls-18" d="M150.87,216.16s-1-34.08.43-39,5.76.53,5.76.53-.91,11.25-1.1,13.56.87,10.48-3.31,24.87c0,0,1.77,2.84.93,3.36-.63.39-2.84.24-3.05-.11C150.16,218.72,150.51,217.36,150.87,216.16Z"/><path class="cls-18" d="M152.94,145c0,.15-.44,5-.17,5.52l-3.68-.57s1.2-4.49,1.24-5.26S152.94,145,152.94,145Z"/><g class="cls-6"><path class="cls-18" d="M152.94,145s0,.56-.09,1.26a4.15,4.15,0,0,1-2.82,0,13.61,13.61,0,0,0,.3-1.56.18.18,0,0,1,0-.11c.31-.06.62-.09.88-.12A10.2,10.2,0,0,1,152.94,145Z"/></g><path class="cls-18" d="M153.45,137.78c.87.67,3.14,7.56-1.51,8.18s-4.93-9.08-1.79-9.05S153.45,137.78,153.45,137.78Z"/><path class="cls-19" d="M153.81,167c.37,1.22,4,4.4,4.13,11.5a92,92,0,0,1-.39,11.72s-9.22,1.9-14.73-.53c0,0-3.75-13.25,2.61-21.2Z"/><path class="cls-20" d="M153.81,167c.37,1.22,4,4.4,4.13,11.5a92,92,0,0,1-.39,11.72s-9.22,1.9-14.73-.53c0,0-3.75-13.25,2.61-21.2Z"/><path class="cls-5" d="M153.81,167c.37,1.22,4,4.4,4.13,11.5a92,92,0,0,1-.39,11.72s-9.22,1.9-14.73-.53c0,0-3.75-13.25,2.61-21.2Z"/><path class="cls-21" d="M162.36,129.62c1.09,4.66,3.11,10.1.28,17.1s-5,6.5-6.64,9.47S154,166,154.94,168.73c0,0-5.51,1.93-9.86,0,0,0,1.8-4.7.32-8.23s-2.23-3.57-2-4.95.64-1.77-.56-4.1-6.64-12.26-4.42-19.57a12.47,12.47,0,0,0,2.12.32s0,15.12,8.91,17.24,13.18-9.58,10.95-18.55Z"/><path class="cls-18" d="M154.32,141.56c0-.1-.16-1,.62-.94s.21,2.36-.62,1.84S154.32,141.56,154.32,141.56Z"/><path class="cls-22" d="M149.6,148l-1.36,1.11s.3,2.37,1.53,2.93l.84-2.35Z"/><path class="cls-22" d="M152.72,148.26l-2.11,1.38.87,2.35a17.93,17.93,0,0,0,1.83-2.52Z"/><path class="cls-5" d="M149.85,134.31c-3.17.1-5.4,3.78-4.68,7.14a12.52,12.52,0,0,1-1.63,8.52c-1.29,1.94-4.07,6-.67,10.81,2.2,3.13,6,1.59,9.09,2.63,4,1.35,9.17.29,9.17-7.24,0-5.65-2.93-6.77-3.16-9.06C157.39,141.45,159,134,149.85,134.31Z"/><path class="cls-5" d="M149.81,219.35c.37-.63,0-2-.33-3.16a6.15,6.15,0,0,0-1.79-.09s-1.77,2.84-.93,3.36C147.39,219.85,149.6,219.7,149.81,219.35Z"/><path class="cls-5" d="M153.58,219.46c.84-.52-.93-3.36-.93-3.36v0a7.27,7.27,0,0,0-1.79,0v0c-.36,1.2-.71,2.56-.34,3.19C150.74,219.7,153,219.85,153.58,219.46Z"/><path class="cls-5" d="M289.25,151.47a36.44,36.44,0,0,1-4.34-9.63c-1.93-7.1-.37-12.63,4.5-16a16.66,16.66,0,0,1,2.23-1.33,11.18,11.18,0,0,1,1.4-5.68q.27-.51.57-1a15,15,0,0,1-5.57-5.43,25.11,25.11,0,0,1-3.16-7.91l1.16-.21a23.87,23.87,0,0,0,3,7.53,13.86,13.86,0,0,0,5.21,5.06c3.27-4.48,8.77-7.49,12.79-7.94,2.85-.32,5,1,5.27,3.09.32,2.79-2.92,6.22-10.8,7.17a13.39,13.39,0,0,1-6.84-.85,10.62,10.62,0,0,0-.6,1,10.33,10.33,0,0,0-1.27,4.63c2-.71,3.34-.35,4.15.21,1.59,1.09,1.88,3.36,1.48,5-.34,1.4-1.13,2.31-2.11,2.43-1.22.15-2.41-.86-3.54-3a9.6,9.6,0,0,1-1-2.91,18.92,18.92,0,0,0-1.71,1c-10.76,7.45.05,23.85.16,24Zm3.64-26.23a8.48,8.48,0,0,0,.93,2.88c.84,1.57,1.71,2.46,2.36,2.38.47-.06.91-.67,1.12-1.55.32-1.31.08-3-1-3.77C295.51,124.64,294.34,124.66,292.89,125.24Zm2.47-7.86a12.44,12.44,0,0,0,6,.66c7.56-.91,10-4,9.77-5.87-.17-1.46-1.8-2.31-4-2.07C303.56,110.51,298.43,113.31,295.36,117.38Z"/><path class="cls-11" d="M287.56,203.47c7.47,3.75,18.69,5.41,33.14,0,4.44-1.66,11.72-8.49,10.14-13s-7.51-2.73-7.51-2.73,17.26-11,11.26-18.75c-3.86-5-11.74-2.75-11.74-2.75s27.43-36.38,9.12-47c-21.08-12.17-37.42,39.79-37.42,39.79s3.83-17.13-3.61-18.26S259.39,171.46,287.56,203.47Z"/><path class="cls-9" d="M301.33,203.49c-1.05-23.18,5.79-42.88,11.72-55.33a110.89,110.89,0,0,1,13.25-21.69l.74.62a111.53,111.53,0,0,0-13.13,21.51c-5.87,12.35-12.65,31.88-11.6,54.85Z"/><path class="cls-9" d="M302.11,191.32l-.23-.94c11.4-2.81,26.85-18.5,27-18.65l.69.68C328.94,173.06,313.78,188.45,302.11,191.32Z"/><path class="cls-9" d="M302.71,200.14h-1l0-1c9.47.34,19.39-4.3,19.49-4.35l.42.88C321.54,195.73,312.1,200.14,302.71,200.14Z"/><path class="cls-9" d="M301.61,195.72c-7.15-1.46-12.31-5-15.33-10.55-3.92-7.19-3.46-16.49-2.39-23a69.55,69.55,0,0,1,3.28-12.55l.9.36c-.08.21-8.19,21.43-.93,34.75,2.87,5.28,7.81,8.66,14.67,10.07Z"/><path class="cls-23" d="M294.94,202.05c-2.64,3-6.42,4.78-15.69,2.39-3-.78-9.59-4-8.08-9.66s7.78.93,7.78.93-17.8-28-4.93-32.43c13.62-4.74,15,24.95,15,24.95s1.22-4,4-3.48C296.27,185.39,301.69,194.25,294.94,202.05Z"/><path class="cls-9" d="M287.13,202.81c-.08-.12-8.41-12.57-11.37-32.79l1-.14c2.93,20,11.13,32.26,11.22,32.39Z"/><path class="cls-9" d="M283.34,201c-4.77,0-6.65-1.79-6.74-1.88l.68-.7s2.44,2.25,8.83,1.41l.13,1A22.33,22.33,0,0,1,283.34,201Z"/><path class="cls-9" d="M286.86,201.57l-.4-.89c7-3.13,5.8-11.25,5.79-11.33l1-.15C293.22,189.29,294.51,198.14,286.86,201.57Z"/><path class="cls-3" d="M282.09,205.18c2.44-2.39,4.43-5.19,8.07-5.19s11,1.42,12.11,2.95,5.43,7.08.46,8.86S275.39,211.75,282.09,205.18Z"/><path class="cls-10" d="M298.19,206.21c-3.85.66-5.6,1.31-9.07,1.45s-5.3-3.53-5.26-4.29c-.58.59-1.16,1.21-1.77,1.81-6.7,6.57,15.67,8.4,20.64,6.62,2.91-1.05,2.64-3.38,1.69-5.44h0C303.3,205.8,302,205.55,298.19,206.21Z"/><path class="cls-3" d="M296.81,191.53c-9.83,10.17-4.42,24.2,12.52,25.3s24.56-13.11,19.1-19.57S308.72,179.21,296.81,191.53Z"/><path class="cls-10" d="M326.3,195c1.31,4.14,1.58,8.15-1.69,9.15-7.36,2.24-6.31-1.7-14.74,1.61s-17-1.36-17.95-3.38c-.07,7.27,6.1,13.77,17.41,14.5,16.94,1.1,24.56-13.11,19.1-19.57C327.82,196.54,327.1,195.76,326.3,195Z"/><path class="cls-5" d="M321.62,160.18c-3,1.32-7.3,2.65-8.83,5.87a2.51,2.51,0,0,0,.2,2.71c.76.84,2.4.19,3.35-.08a48.63,48.63,0,0,0,5.2-2c1.75-.72,3.52-1.42,5.24-2.21.9-.41,1.78-.85,2.63-1.34a1.38,1.38,0,0,0,.89-1.4,3.54,3.54,0,0,0-.42-1.78c-.76-1.15-2-.37-3,0l-2.57,1c-1.81.74-3.6,1.51-5.33,2.4a13.41,13.41,0,0,0-2.63,1.56c-.3.25-1.49,1.5-.48,1.69a4.48,4.48,0,0,0,1.66-.37,43,43,0,0,0,6.11-2.25c.39-.18.61.45.23.63a37,37,0,0,1-7.36,2.58c-.58.13-1.37.17-1.66-.46s.35-1.67.86-2.15a12,12,0,0,1,2.73-1.7c1.15-.6,2.32-1.14,3.51-1.66s2.36-1,3.55-1.48l1.73-.71a3.81,3.81,0,0,1,1.7-.47,2.13,2.13,0,0,1,1.67,1.34,4,4,0,0,1,.21,2.79c-.41.84-1.69,1.28-2.47,1.67-1.13.57-2.3,1.08-3.47,1.57-2.38,1-4.76,2.07-7.2,2.9a19,19,0,0,1-3.55.88,1.7,1.7,0,0,1-2-1.17c-1.09-2.14.65-4.23,2.26-5.51a30.19,30.19,0,0,1,7-3.59c.4-.18.63.45.23.62Z"/><path class="cls-5" d="M313.77,170a1.82,1.82,0,0,1-1.71-1.26c-1.21-2.38.92-4.58,2.29-5.67a24.27,24.27,0,0,1,5.84-3.11l1.16-.5a.43.43,0,0,1,.59.33.45.45,0,0,1-.27.53l-1.36.57c-2.86,1.18-6.12,2.51-7.41,5.23a2.4,2.4,0,0,0,.19,2.57,1.26,1.26,0,0,0,1,.38,6.56,6.56,0,0,0,1.82-.38l.37-.11a42.84,42.84,0,0,0,4.64-1.72l.56-.23,1.19-.49c1.34-.55,2.71-1.11,4-1.72,1-.48,1.87-.9,2.62-1.34.57-.33.86-.62.83-1.28a3.37,3.37,0,0,0-.41-1.72,1.08,1.08,0,0,0-.95-.55,3.85,3.85,0,0,0-1.45.45l-.4.17-.74.3-1.84.76c-1.62.67-3.51,1.46-5.32,2.39l-.28.14a12,12,0,0,0-2.32,1.4c-.27.23-.91.94-.83,1.29,0,0,0,.14.29.19h.16a3.69,3.69,0,0,0,1.06-.25l.38-.12a43.75,43.75,0,0,0,6.1-2.25.42.42,0,0,1,.59.32.47.47,0,0,1-.26.53,36.54,36.54,0,0,1-7.38,2.59c-.91.2-1.55,0-1.81-.53-.34-.74.24-1.67.89-2.29a10.66,10.66,0,0,1,2.47-1.57l.29-.15c1-.54,2.19-1.09,3.52-1.66,1.11-.48,2.24-.95,3.34-1.4l1.94-.79.27-.11a3,3,0,0,1,1.49-.37,2.23,2.23,0,0,1,1.77,1.41,4,4,0,0,1,.21,2.9,4.09,4.09,0,0,1-2,1.49l-.48.23c-1.18.6-2.37,1.11-3.48,1.57l-1.58.67c-1.83.78-3.72,1.59-5.63,2.24a18.7,18.7,0,0,1-3.58.88Zm7.76-10.33-.09,0-1.16.5a24.2,24.2,0,0,0-5.77,3.07c-1.32,1-3.36,3.14-2.23,5.37.49,1,.93,1.22,1.86,1.1a18.3,18.3,0,0,0,3.53-.88c1.9-.64,3.79-1.45,5.62-2.23l1.58-.67c1.1-.46,2.29-1,3.45-1.56.15-.08.32-.15.5-.23a2.58,2.58,0,0,0,1.71-4.07A2,2,0,0,0,329,158.8a2.94,2.94,0,0,0-1.37.35l-.28.12-1.94.79c-1.09.45-2.23.91-3.33,1.39-1.33.58-2.47,1.12-3.51,1.66l-.28.15a10.44,10.44,0,0,0-2.42,1.53c-.56.54-1.13,1.38-.83,2,.2.44.74.57,1.53.4a36.57,36.57,0,0,0,7.32-2.57.23.23,0,0,0,.13-.26c0-.11-.12-.21-.25-.15a42.93,42.93,0,0,1-6.13,2.26l-.37.12a3.7,3.7,0,0,1-1.14.27l-.2,0a.55.55,0,0,1-.49-.37c-.13-.53.7-1.36.91-1.54a12.87,12.87,0,0,1,2.37-1.43l.28-.14c1.82-.93,3.71-1.73,5.34-2.4l1.84-.76.73-.3.4-.17a4.06,4.06,0,0,1,1.55-.46,1.3,1.3,0,0,1,1.16.66,3.63,3.63,0,0,1,.45,1.83,1.52,1.52,0,0,1-1,1.52,29.11,29.11,0,0,1-2.64,1.34c-1.33.61-2.71,1.18-4,1.72l-1.2.5-.55.23a43.39,43.39,0,0,1-4.67,1.73l-.36.11a7.05,7.05,0,0,1-1.9.39,1.57,1.57,0,0,1-1.21-.46,2.64,2.64,0,0,1-.22-2.85c1.33-2.8,4.63-4.15,7.54-5.35l1.35-.57a.22.22,0,0,0,.13-.25C321.68,159.74,321.62,159.65,321.53,159.65Z"/><path class="cls-24" d="M272.56,158.69s13.78,9.12,14.45,11.91-3,5.52-5.43,6.46a62.08,62.08,0,0,1-13,3.38l.82-2.95s7.69-5,7.35-6.3-7-4-7-4-.93-3.26-1-3.58a54.84,54.84,0,0,1,3.14-4.84Z"/><path class="cls-18" d="M265.49,202.54a10.68,10.68,0,0,1-.81,5.37l.36,1.14s2.06.09,2.11.08.84-.36.84-.36a39.08,39.08,0,0,1,0-6.68Z"/><path class="cls-25" d="M264.68,207.91s.85.93,3.31.86c0,0,6,2.39,6.71,2.7a1.18,1.18,0,0,1,.55,1.66c-.36.4-9.49-.5-11.58-2.65A4.88,4.88,0,0,1,264.68,207.91Z"/><path class="cls-18" d="M264.71,178.49a4.9,4.9,0,0,1-1.32-.06s-1.08,1.22-1.09,1.27.6,1.39.6,1.39l.69.73a6.59,6.59,0,0,1,1.77-1Z"/><path class="cls-25" d="M263.64,178.4s-.7,1-.05,3.42c0,0-.92,6.41-1,7.16a1.18,1.18,0,0,1-1.49.92c-.47-.25-1.74-9.33-.14-11.87A4.92,4.92,0,0,1,263.64,178.4Z"/><path class="cls-7" d="M272.34,159c-.4.62-.89,20.6-.64,24.06s-3.47,20.32-3.47,20.32l-2.82-.19s-1.75-11.64.46-20.06c0,0-4.93-12.87-5-17.5l.66-2.49.73-3.51,6.07-.94Z"/><path class="cls-18" d="M280.43,142.57a.9.9,0,0,0-1.06-.06c-.41.33.25,1.24,1.06,1.19Z"/><g class="cls-6"><path class="cls-18" d="M280.43,142.57a.9.9,0,0,0-1.06-.06c-.41.33.25,1.24,1.06,1.19Z"/></g><path class="cls-26" d="M283.05,143.88a34.9,34.9,0,0,0,.4-4.2,12.32,12.32,0,0,0-2.93-.29c-.44.12-.49,5.15-.49,5.15l2.26-.23Z"/><path class="cls-18" d="M264.94,133.05a6.76,6.76,0,0,1-.6,3.85l-.44,1.41s1.38,1.32,1.43,1.39,2.1.5,2.1.5l1.33-1.3.06-.78a5,5,0,0,1-.09-3.24Z"/><path class="cls-27" d="M273.79,139.76c.28-.1,1.47,6.35,1.33,8.91l-1.43,1.22-1.61.17-1.52-.44S272,140.39,273.79,139.76Z"/><path class="cls-18" d="M282.23,147c0,.49-4.57,9.27-9.56,10.74l-2.05-.79.09-2.52.79-1.51L273,151l2.34.28s4.5-3.42,5.12-4.52l.72-.59Z"/><path class="cls-18" d="M284,143.34c-.12-.31-2,0-3.1.46s-1.86,1-1.71,1.33,1.15-.12,1.15-.12-1.29.29-1.32,1,1.14.09,1.14.09-1,.62-.62.84,2.79.59,3.71-.09S284.22,144,284,143.34Z"/><path class="cls-21" d="M267.8,140.47s.91,5.33.41,7.39l-1.49.15s.1-4.71-.49-6.66l1.2-1.15Z"/><path class="cls-28" d="M275.34,151.3a25.9,25.9,0,0,0,.19-3.24,7.6,7.6,0,0,0-4.07,1.17,10,10,0,0,0,0,3.69A20.24,20.24,0,0,1,275.34,151.3Z"/><path class="cls-29" d="M275.25,213.13c-.36.4-9.49-.5-11.58-2.65,0,0,0-.22.08-.56,3.84,2,10.19,2.7,11.67,2.74A.73.73,0,0,1,275.25,213.13Z"/><path class="cls-29" d="M261.64,178c-.62,1.47-1,5.93-.1,12a.73.73,0,0,1-.49-.06c-.47-.25-1.74-9.33-.14-11.87A4.91,4.91,0,0,1,261.64,178Z"/><g class="cls-6"><path class="cls-18" d="M268.52,136.67c-.82.41-2.19.8-3.66-1.25a6.57,6.57,0,0,0,.08-2.37l3.79,1.83A5.48,5.48,0,0,0,268.52,136.67Z"/></g><path class="cls-18" d="M273.28,126.32s1.49,3.85.14,7.17l-1.27-.23s-1.77,6.09-7.21-.21l-1.12-3.6,3.89-3Z"/><path class="cls-30" d="M274,129.47a3.84,3.84,0,0,0,.59-4.82c-1.58-3-7.37-2.61-9.37-.24a1.8,1.8,0,0,0-2.26,1.15c-.86,1.71-.86,7.08,2,7.49a5.53,5.53,0,0,1,.71-3l1.2-.81a7.62,7.62,0,0,0,6.57-2.46A13.84,13.84,0,0,1,274,129.47Z"/><path class="cls-18" d="M267,129.88c0-.17-.07-1.5-1.3-1.21s-.41,3.19.3,3S267,129.88,267,129.88Z"/><path class="cls-9" d="M267.09,202.56h-.18c.07-.81.71-4,1.46-7.67,1-5.16,2.34-11.57,2.16-12.18-.31-1-1.82-21.39-1.89-22.26h.18c0,.21,1.57,21.19,1.88,22.22.19.65-1.06,6.82-2.16,12.26C267.8,198.59,267.15,201.76,267.09,202.56Z"/><path class="cls-31" d="M269.28,201.06l-.94,3a14.08,14.08,0,0,1-3.28-.42l-.18-2.57Z"/><path class="cls-21" d="M257.17,139.33s-6.17,5.49-7.27,13l2.82-.71,2.06.09s3-4.42,3.29-5C258.07,146.72,259.6,142.12,257.17,139.33Z"/><path class="cls-21" d="M268.52,136.62l5.27,3.14s-2.64,7.87-2.31,12.29,1.76,6.71,1.5,7-8.05,3.89-12.17,3l-1.16-1.71s0-5.16.09-5.45-2.09-7-2.26-8.35-.31-7.15-.31-7.15l6.89-2.42a4.53,4.53,0,0,0,3.37,3.29S269.19,138.38,268.52,136.62Z"/><path class="cls-18" d="M250.39,151.83a10.73,10.73,0,0,0-.73,2.6c.12.43,6.67,5.37,10.55,7.4,0,0-.34,2.39.62,3.75a14.19,14.19,0,0,0,3.4-1.71s-.59-1.37-.47-1.39,1,.66,1.65.92,1.35-.37.44-1a10.83,10.83,0,0,0-3.19-1.73,9.29,9.29,0,0,0-1.42-.07S255,154.12,254,152.5l-1.83-1.32Z"/><path class="cls-32" d="M256.71,149.89s-4.42-1.42-6.83-.68l-.35,3.88,4.74-.17Z"/><path class="cls-9" d="M270.49,160.22c-2.5-2.45-3.12-19.3-3.14-20h.17c0,.18.64,17.5,3.1,19.89Z"/><path class="cls-32" d="M264.79,135.76a21.76,21.76,0,0,0-2.27,1.47c0,.12,1.39,3.83,4.34,4.71l.57-1.74S265,137.77,264.79,135.76Z"/><path class="cls-32" d="M268.53,136a9.17,9.17,0,0,1-1.1,4.2l.73,1.61a5.18,5.18,0,0,0,1.37-4.59Z"/><path class="cls-9" d="M266.29,144.59h0a.3.3,0,0,1-.22-.08A.44.44,0,0,1,266,144c.07-.18.22-.38.41-.38a.27.27,0,0,1,.15,0,.5.5,0,0,1,.26.57A.54.54,0,0,1,266.29,144.59Zm.08-.79c-.08,0-.19.11-.24.26s-.07.23.05.32a.21.21,0,0,0,.11,0h0a.36.36,0,0,0,.32-.24c0-.12,0-.25-.19-.36A.06.06,0,0,0,266.37,143.8Z"/><path class="cls-9" d="M266.73,150.15h0a.36.36,0,0,1-.23-.08.44.44,0,0,1-.1-.52.5.5,0,0,1,.41-.37.23.23,0,0,1,.15,0,.48.48,0,0,1,.25.56A.53.53,0,0,1,266.73,150.15Zm.08-.8c-.09,0-.2.12-.24.26s-.07.23,0,.32a.16.16,0,0,0,.12,0h0a.37.37,0,0,0,.32-.23c0-.13,0-.26-.19-.37Z"/><path class="cls-9" d="M267.71,156.18h0a.34.34,0,0,1-.22-.07.46.46,0,0,1-.11-.52c.07-.18.22-.38.41-.38a.27.27,0,0,1,.15,0,.5.5,0,0,1,.26.57A.54.54,0,0,1,267.71,156.18Zm.08-.79c-.08,0-.19.12-.24.26s-.07.23.05.32a.21.21,0,0,0,.11,0h0a.36.36,0,0,0,.32-.23c0-.13,0-.26-.19-.37Z"/><path class="cls-18" d="M212.68,42.84s-.46,19.58-7.37,21.87a8.18,8.18,0,0,1-6.92.05c-3.51-1.74-6.22-13.58-6.73-19.93l-1.95-.13s-.3,15,5,26.91c0,0,1.54,8.61,1.59,11.06,0,0,4.75,2.61,12.52-.08,0,0,.72-7.76,2.06-11.9s5.27-13.06,3.45-27.88Z"/><path class="cls-18" d="M206.91,124l-.62,3.54s-1.55-.31-1.56-.46.12-4,.12-4Z"/><polygon class="cls-18" points="180.15 116.23 177.91 118.49 176.69 117.25 178.69 114.61 180.15 116.23"/><path class="cls-5" d="M208.38,80.89A189.85,189.85,0,0,1,210,101.61c0,8.35-2.75,24.67-2.75,24.67l-2.85-.17S203.27,94.87,202,93.32c0,0-22.07,23.44-23,24.67a3.5,3.5,0,0,1-1.84-2.21S191.55,96,197.32,81.5s10.46-1,10.46-1Z"/><path class="cls-18" d="M203.86,61.38c-.05.91,0,4.81,0,4.81l-3.28.23-.41-1.26s.21-2.42.31-3.78S203.86,61.38,203.86,61.38Z"/><path class="cls-18" d="M204,52.41a9.2,9.2,0,0,1,1.76,7.06c-.5,2.42-2.22,4.63-4.33,4s-3.78-3.78-3.18-8.87S204,52.41,204,52.41Z"/><path class="cls-18" d="M197.84,56.89a.94.94,0,0,0-1.13,0c-.51.45.71,2.67,1.56,2.4S197.84,56.89,197.84,56.89Z"/><path class="cls-18" d="M205.92,57.07c.36-.07.51-.55,1-.17s.1,2.72-1,2.29S205.92,57.07,205.92,57.07Z"/><path class="cls-25" d="M204.52,127.05a5.36,5.36,0,0,0-.52,2.6.2.2,0,0,0,.2.2l8.38.08a.21.21,0,0,0,.21-.24,1.16,1.16,0,0,0-.61-.92c-.65-.32-4.9-1.62-5.65-1.85h-.09a6.13,6.13,0,0,1-1.71,0A.19.19,0,0,0,204.52,127.05Z"/><path class="cls-21" d="M194.13,57.28c1.15,3.64,2.62,6.66,4.26,7.48a7.12,7.12,0,0,0,1.91.63l1.65.35,1.91-.5a8,8,0,0,0,1.45-.53c2.6-.86,4.29-4.18,5.38-8,.8.3,2.17.84,3.53,1.39a64.2,64.2,0,0,1-3.37,12.56c-1.34,4.14-2.06,11.9-2.06,11.9-7.77,2.69-12.52.08-12.52.08-.05-2.45-1.59-11.06-1.59-11.06a56.86,56.86,0,0,1-3.83-13.43Z"/><path class="cls-25" d="M178.16,118.46a5.34,5.34,0,0,1-1.31,2.31.2.2,0,0,1-.28,0l-6.39-5.42a.21.21,0,0,1,0-.32,1.17,1.17,0,0,1,1.06-.3c.7.18,4.76,2,5.48,2.29l.08.06a5.7,5.7,0,0,0,1.27,1.14A.2.2,0,0,1,178.16,118.46Z"/><path class="cls-22" d="M194.3,55.31s1.34,3.46,1,3.79-3.72,1.26-5,.72c0,0-1.32-3.6-.4-3.88A43.57,43.57,0,0,1,194.3,55.31Z"/><path class="cls-22" d="M215.15,55.15s-4.08-1.81-4.32-1.5a18.37,18.37,0,0,0-.8,3.48c.07.09,4.14,2.77,4.73,2.09S215.4,55.5,215.15,55.15Z"/><path class="cls-30" d="M197.52,58.63a22.12,22.12,0,0,1-1.32-4,2.9,2.9,0,0,1,2.52-3.55c1.75-.35,4.53-2,7.19,0s0,11.89-2.62,12.21C200.93,63.6,199,63.17,197.52,58.63Z"/><path class="cls-22" d="M199.07,65.05a1.82,1.82,0,0,1,1.2-1.1,3.79,3.79,0,0,0,3.59.1c.07-.14.91.57,1,.87s-.45,1.63-3.36,1.3C199.57,66,199.07,65.05,199.07,65.05Z"/><path class="cls-18" d="M212.68,42.84a3,3,0,0,1-1.76-1.15h.87s.43.34.44.24a1.59,1.59,0,0,1-.36-1.21c.08-.87.63-1.31.72-1.1a2.87,2.87,0,0,1,.15.38s.19-1,.53-1,.39,1,.39,1,.19-.53.49-.49.17.64.17.64.15-.51.49-.25.5,2.71-.51,2.93A3.29,3.29,0,0,1,212.68,42.84Z"/><path class="cls-18" d="M191.59,44.94a2.92,2.92,0,0,0,1.75-1.15h-.87s-.43.34-.44.24a1.59,1.59,0,0,0,.36-1.21c-.08-.87-.63-1.31-.72-1.1s-.15.37-.15.37-.19-1-.53-1-.39,1-.39,1-.19-.53-.49-.49-.17.63-.17.63-.15-.5-.49-.24-.5,2.71.51,2.93A3.34,3.34,0,0,0,191.59,44.94Z"/><path class="cls-12" d="M91.46,185c.37-5.57,7.72-43.19,7.72-43.19l-8.67-.9c-2.17,4.37-7.44,42.52-7.44,42.52C84.65,183.74,91.46,185,91.46,185Zm3.39-40.42a1.3,1.3,0,0,1-1.43,1.21,1.27,1.27,0,0,1-1.2-1.38,1.32,1.32,0,1,1,2.63.17Z"/><path class="cls-5" d="M97.89,148.72h0a28.47,28.47,0,0,0-3.37-.35h0a.24.24,0,1,1,0-.47,25.73,25.73,0,0,1,3.44.36.23.23,0,0,1,0,.46Z"/><path class="cls-5" d="M97.32,151.71h0c-1.09-.26-3.27-.76-3.71-.81a.24.24,0,0,1-.21-.26.24.24,0,0,1,.26-.21c.58.06,3.64.79,3.77.82a.23.23,0,0,1,.17.28A.23.23,0,0,1,97.32,151.71Z"/><path class="cls-5" d="M96.71,154.92h0l-3.47-.7a.24.24,0,0,1-.19-.27.25.25,0,0,1,.28-.19l3.47.7a.23.23,0,0,1,.18.28A.24.24,0,0,1,96.71,154.92Z"/><path class="cls-5" d="M96,158.42l-3.18-.68a.25.25,0,0,1-.18-.28.24.24,0,0,1,.28-.18l3.18.68Z"/><path class="cls-5" d="M95.34,162.21h0a19.56,19.56,0,0,1-2.93-.67.24.24,0,0,1-.1-.32.23.23,0,0,1,.31-.11,18.75,18.75,0,0,0,2.8.64.24.24,0,0,1,0,.47Z"/><path class="cls-5" d="M94.86,164.8H94.8l-3.33-.92a.24.24,0,0,1-.16-.29.24.24,0,0,1,.29-.17l3.33.92a.24.24,0,0,1,.16.29A.23.23,0,0,1,94.86,164.8Z"/><path class="cls-5" d="M94.31,167.8h0a30.49,30.49,0,0,0-3.1-.33.24.24,0,1,1,0-.47c.64,0,3.1.32,3.21.33a.24.24,0,0,1,.2.27A.24.24,0,0,1,94.31,167.8Z"/><path class="cls-5" d="M93.73,171h0c-.11,0-2.6-.56-3.23-.8a.24.24,0,0,1-.13-.31.24.24,0,0,1,.31-.13c.59.23,3.12.78,3.15.78a.24.24,0,0,1,0,.47Z"/><path class="cls-5" d="M93.05,174.87h0a28.17,28.17,0,0,1-3.15-.73.24.24,0,0,1,.18-.44,25.78,25.78,0,0,0,3,.7.24.24,0,0,1,.19.28A.24.24,0,0,1,93.05,174.87Z"/><path class="cls-5" d="M92.6,177.46h0s-1.65-.34-3.36-.9a.23.23,0,0,1-.15-.3.23.23,0,0,1,.29-.15,33.33,33.33,0,0,0,3.31.88.23.23,0,0,1,.18.28A.24.24,0,0,1,92.6,177.46Z"/><path class="cls-5" d="M92.16,180.16h0l-3.22-.34a.24.24,0,1,1,0-.47l3.22.34a.24.24,0,0,1,0,.47Z"/><path class="cls-5" d="M90.6,182.67a16.17,16.17,0,0,1-2-.1.24.24,0,0,1,.07-.47,23.76,23.76,0,0,0,3,.08.24.24,0,0,1,.25.22.25.25,0,0,1-.23.25S91.22,182.67,90.6,182.67Z"/><path class="cls-11" d="M71.58,153.43a152.12,152.12,0,0,0,.52,18.14s6.32-1.36,6.25-1.52S73.94,156,72.83,153.41Z"/><path class="cls-5" d="M69.67,142.18S65,156.38,72.36,155,70.75,142.81,69.67,142.18Z"/><path class="cls-12" d="M85.22,175.15l-6,.29s-.56-26-1.21-30.18l2.75-8.39,4,7.27S84.94,173.16,85.22,175.15Z"/><path class="cls-11" d="M85.22,175.15c-.27-1.92-.46-29.14-.48-30.91l-2.53,3.3-1.57-3.27-1.28,2.17L78,145.26c.65,4.18,1.21,30.18,1.21,30.18Z"/><polygon class="cls-11" points="80.73 136.87 79.51 140.59 82.58 140.22 80.73 136.87"/><path class="cls-33" d="M82.75,175.27l2.47-.12c-.27-1.92-.46-29.14-.48-30.91l-2.53,3.3Z"/><path class="cls-5" d="M81,175.35l-1.62-28.91h0L78,145.26c.65,4.18,1.21,30.18,1.21,30.18Z"/><path class="cls-8" d="M69.43,175.39c0,.36,3.77,31.87,3.77,31.87H91.72l4.57-31.87Z"/><path class="cls-34" d="M66.26,169.6S96,168.2,99,168.9v8.95l-32.75-.26Z"/><path class="cls-3" d="M351.34,72.14s-5.15.68-5.09,7.13c.05,4.74,5.67,5,12.39,5.62,4.67.47,31.56,1.44,37.19-3.24,4.74-3.94,4.1-14.75-8.3-15.45-.74,0,6.7-17.83-13.11-22C360.55,41.24,359,56.25,359,56.25s-7.37-1.21-9.79,6.94C347.43,69.33,351.34,72.14,351.34,72.14Z"/><path class="cls-5" d="M373.58,52.44c2.48-3.07,5.4-7.6,9.61-8.33a3,3,0,0,1,3.07,1.1c.73,1.15-.55,2.84-1.16,3.84a59.38,59.38,0,0,1-3.93,5.39c-1.4,1.79-2.78,3.61-4.24,5.35-.76.9-1.55,1.78-2.4,2.61a1.66,1.66,0,0,1-1.9.58,4.23,4.23,0,0,1-1.92-1.06c-1.09-1.25.21-2.42,1-3.41l2-2.64c1.44-1.84,2.9-3.67,4.48-5.39a16.33,16.33,0,0,1,2.65-2.54c.38-.27,2.21-1.24,2.11,0a5.42,5.42,0,0,1-1,1.8,51.37,51.37,0,0,1-4.56,6.34c-.33.39.32.86.65.46a44.66,44.66,0,0,0,5.35-7.67c.33-.63.63-1.53,0-2.07s-2-.13-2.75.31a14.36,14.36,0,0,0-2.85,2.6c-1.06,1.14-2.06,2.32-3,3.53s-1.91,2.42-2.85,3.63l-1.37,1.77a4.5,4.5,0,0,0-1.1,1.82,2.56,2.56,0,0,0,1,2.36A4.77,4.77,0,0,0,373.66,64c1.09-.2,2-1.55,2.72-2.32,1-1.13,2-2.31,2.92-3.51,1.92-2.43,3.92-4.84,5.67-7.4a22.08,22.08,0,0,0,2.16-3.82,2,2,0,0,0-.71-2.67c-2.14-1.95-5.11-.61-7.11.84-2.54,1.85-4.43,4.49-6.38,6.9-.33.4.33.87.65.47Z"/><path class="cls-9" d="M144.13,190.22c-2-9.11,1.54-21.12,1.57-21.24l.24.07c0,.12-3.58,12.07-1.57,21.11Z"/><path class="cls-9" d="M156.15,190.48l-.25,0a44.48,44.48,0,0,0-2.07-21.38l.23-.1A45,45,0,0,1,156.15,190.48Z"/><path class="cls-9" d="M206.07,91c-1.92,0-2.19-3.09-2.2-3.23v-.11l3.86-.59,0,.1a4.21,4.21,0,0,1,0,2.89,1.77,1.77,0,0,1-1.21.88A1.88,1.88,0,0,1,206.07,91Zm-1.94-3.13c.06.55.44,2.88,1.94,2.88a1.41,1.41,0,0,0,.4-.05,1.53,1.53,0,0,0,1.05-.76,3.74,3.74,0,0,0,0-2.59Z"/><path class="cls-9" d="M197.65,91a2.19,2.19,0,0,1-1.13-.35,1.71,1.71,0,0,1-.86-1.26c-.16-1.39,1.4-3,1.47-3l.05-.06,3.61,1.37,0,.11C200.7,87.88,199.58,91,197.65,91Zm-.41-4.39c-.27.29-1.46,1.62-1.33,2.75a1.46,1.46,0,0,0,.74,1.08,2,2,0,0,0,1,.31c1.56,0,2.6-2.37,2.82-2.92Z"/><path class="cls-35" d="M368,97.23c-.62-.73-4.43-4.51-4.68-4.92s14.91-8.13,14.91-8.13L405.54,81l3.94-.08L395.9,87.75S379.74,94.68,379.13,95,368,97.23,368,97.23Z"/><g class="cls-6"><path class="cls-35" d="M368,97.23c-.62-.73-4.43-4.51-4.68-4.92s14.91-8.13,14.91-8.13L405.54,81l3.94-.08L395.9,87.75S379.74,94.68,379.13,95,368,97.23,368,97.23Z"/></g><path class="cls-35" d="M359.87,113.64s2.83-16.3,3.64-17,45.05-15.39,46-15.79S359.87,113.64,359.87,113.64Z"/><path class="cls-35" d="M363.32,92.31c-.47,0-4.16-13.63-3.29-14.24s51.66,2,49.45,2.8S364.07,92.3,363.32,92.31Z"/></g></g></svg>