<svg xmlns="http://www.w3.org/2000/svg" xmlns:xlink="http://www.w3.org/1999/xlink" viewBox="0 0 1173 633"><defs><style>.cls-1{fill:none;}.cls-2{isolation:isolate;}.cls-3{fill:#518fb6;}.cls-4{fill:#fd7c3a;}.cls-5{clip-path:url(#clip-path);}.cls-6{fill:#fde4c4;}.cls-7{fill:#29495c;}.cls-8{fill:#fd643b;}.cls-9{clip-path:url(#clip-path-2);}.cls-10{fill:#e1f3ff;}.cls-11{fill:#eff0f0;}.cls-12{fill:#ced1d2;}.cls-13{fill:#fda93b;}.cls-14{fill:#2580b3;}.cls-15{fill:#fff;}.cls-16{fill:#fdbf3b;}.cls-17{fill:#77ccfd;}.cls-18{fill:#3db5fd;}.cls-19{fill:#94bbd2;}.cls-20{mix-blend-mode:multiply;}.cls-21{fill:#fdcb87;}.cls-22{fill:#1f3340;}.cls-23{fill:#f4d39e;}.cls-24{fill:#e5e5e6;}.cls-25{fill:#ace0fd;}.cls-26{fill:#231f20;}.cls-27{fill:#1d6185;}.cls-28{fill:#fd653b;}.cls-29{fill:#6ab6e1;}.cls-30{fill:#c7e9fd;}.cls-31{fill:#ddf1ff;}.cls-32{fill:#154965;}.cls-33{fill:#fd913c;}.cls-34{fill:#1d698f;}.cls-35{clip-path:url(#clip-path-3);}.cls-36{clip-path:url(#clip-path-4);}.cls-37{clip-path:url(#clip-path-5);}.cls-38{opacity:0.5;}.cls-39{fill:#a5cfe9;}.cls-40{fill:#fcca74;}.cls-41{mix-blend-mode:screen;}</style><clipPath id="clip-path"><path class="cls-1" d="M598.66,63.31s7,13.2,1.08,27.37l46.7-.3,36.34-.31a31.74,31.74,0,0,0,2.54-16.7c-1.24-9.09-2.53-11.3-2.53-11.3Z"/></clipPath><clipPath id="clip-path-2"><path class="cls-1" d="M674.16,59.31s-5.81-8.86-.94-18.37l-38.61.14-30,.17a17.84,17.84,0,0,0-2.09,11.2c1,6.1,2.11,7.58,2.11,7.58Z"/></clipPath><clipPath id="clip-path-3"><path class="cls-1" d="M570.84,371.79s-4,8.1-.23,16.59l-28.28.54-22,.38a19.27,19.27,0,0,1-1.81-10.07c.61-5.53,1.36-6.88,1.36-6.88Z"/></clipPath><clipPath id="clip-path-4"><path class="cls-1" d="M525.07,370.54s3.37-5.45.27-11.13l23.38-.52,18.19-.37a10.81,10.81,0,0,1,1.44,6.75c-.53,3.71-1.16,4.62-1.16,4.62Z"/></clipPath><clipPath id="clip-path-5"><path class="cls-1" d="M559.29,173.74a38.39,38.39,0,0,0-48,3l-52.32-37a8.17,8.17,0,0,0-9.42,13.35l40.91,28.9-.06.1,11.42,8.06a38.36,38.36,0,1,0,57.51-16.48Z"/></clipPath></defs><g class="cls-2"><g id="Layer_1" data-name="Layer 1"><path class="cls-3" d="M599.74,90.68s-8.46,1.21-6.35,1.43c16.4,1.72,88.33.15,90.25-.68,1.06-.46,7.14-22.74-.35-30.18-3-3-73.6-1.4-87.8.79-7.36,1.14,3.17,1.27,3.17,1.27C606.55,72.22,606.47,81.35,599.74,90.68Z"/><path class="cls-4" d="M673.22,40.94s7-.8,5.26-.95c-13.57-1.17-73-.21-74.63.34-.87.31-5.87,15.25.33,20.26,2.48,2,60.86,1,72.59-.43,6.09-.75-2.61-.85-2.61-.85C667.62,53.32,667.67,47.19,673.22,40.94Z"/><g class="cls-5"><path class="cls-6" d="M598.66,63.31s7,13.2,1.08,27.37l46.7-.3,36.34-.31a31.74,31.74,0,0,0,2.54-16.7c-1.24-9.09-2.53-11.3-2.53-11.3Z"/><rect class="cls-7" x="599.99" y="66.18" width="84.07" height="0.29" transform="translate(-0.25 2.45) rotate(-0.22)"/><rect class="cls-7" x="601.38" y="70.38" width="84.27" height="0.29" transform="translate(-1.52 15.57) rotate(-1.38)"/><rect class="cls-7" x="601.96" y="74.28" width="83.38" height="0.29" transform="translate(-1.68 16.37) rotate(-1.46)"/><rect class="cls-7" x="602.23" y="78.88" width="84.45" height="0.29" transform="translate(-0.43 3.57) rotate(-0.32)"/><rect class="cls-7" x="643.36" y="42.41" width="0.29" height="83.46" transform="matrix(0.02, -1, 1, 0.02, 546.54, 725.84)"/><rect class="cls-7" x="642.21" y="46.32" width="0.29" height="83.05" transform="translate(551.34 729.76) rotate(-89.72)"/></g><path class="cls-8" d="M623.19,70.88c0,.21.49,7.09-1,10.92l-2-1.94L617,83.62a47.25,47.25,0,0,1-1.72-12.55Z"/><g class="cls-9"><path class="cls-10" d="M674.16,59.31s-5.81-8.86-.94-18.37l-38.61.14-30,.17a17.84,17.84,0,0,0-2.09,11.2c1,6.1,2.11,7.58,2.11,7.58Z"/><path class="cls-10" d="M674.16,59.31s-5.81-8.86-.94-18.37l-38.61.14-30,.17a17.84,17.84,0,0,0-2.09,11.2c1,6.1,2.11,7.58,2.11,7.58Z"/><rect class="cls-7" x="637.57" y="9.92" width="0.29" height="68.11" transform="translate(577.12 680.33) rotate(-88.51)"/><rect class="cls-7" x="636.76" y="13.08" width="0.29" height="68.82" transform="matrix(0.01, -1, 1, 0.01, 584.15, 683.99)"/><rect class="cls-7" x="601.13" y="51.03" width="70.23" height="0.29" transform="translate(-0.57 7.64) rotate(-0.69)"/><rect class="cls-7" x="602.24" y="54.06" width="69.73" height="0.29" transform="translate(-0.18 2.13) rotate(-0.19)"/><rect class="cls-7" x="602.2" y="57.15" width="70.61" height="0.29" transform="translate(-1.01 12.59) rotate(-1.13)"/></g><path class="cls-11" d="M499.72,207.37s44.44,2.5,41.21,23.87-71.7,18.86-109.08,18.53-250.91,1.37-287-11.8c-33.12-12.06,4.77-60.64,68.55-38,0,0,36.51-53,103.89-66.35,104.29-20.69,114.61,47.53,114.61,47.53s28.64-28.12,60.48-6.89C507.76,184.53,499.72,207.37,499.72,207.37Z"/><path class="cls-12" d="M218.13,136.27s-11.42,1.09-11.48,12.48c0,8.38,12.41,8.9,27.29,10.26,10.33.94,69.91,3.34,82.51-4.78,10.64-6.85,9.52-26-17.93-27.54-1.63-.09,15.39-31.35-28.4-39.27-30.65-5.54-34.47,21-34.47,21s-16.3-2.33-21.89,12C209.55,131.2,218.13,136.27,218.13,136.27Z"/><ellipse class="cls-11" cx="606.7" cy="544.86" rx="426.66" ry="51.89"/><path class="cls-13" d="M387.42,99.58s-4,168.27,4.44,225.47c0,0,326.2,16.74,373.16,6.71l-1.6-232.18Z"/><rect class="cls-7" x="378.34" y="92.12" width="394.17" height="14.92"/><path class="cls-14" d="M1007.63,316.93c6.8-4.52,10.62-15.24,10.62-15.24l13.31,2.09-.8-25.13L1013.55,287c-4.26-5.86-14-11.29-14-11.29L1011.7,262l-26.27-8.63,2,19.36c-8.62,1.6-15.38,10.81-15.38,10.81l-11.81-14.08-12.61,24.69,20,2.78c.08,4.27,3,11.09,3,11.09l-16.55,7.52,13.73,15.33L978.89,319c7.06,5.91,16.93,4.37,16.93,4.37l5.53,14.77,20.16-12.52Zm-27.19-7.32a14.66,14.66,0,0,1,1.67-21.81c7-4.95,13.77-5.23,18.71-2.35,7.17,4.17,12.35,15.67,4.28,24.17C996.37,318.82,986.64,316.51,980.44,309.61Z"/><path class="cls-4" d="M960.4,338.13C957,328,946.1,322.8,946.1,322.8l7.13-16.17-32.11-7.46,4.73,24.62c-8.86,3.42-19.05,14-19.05,14l-13.23-20.09-19.8,30.39,25.2,4.06c-.88,11.47,8.51,23.13,8.51,23.13l-21.83,10.23,27.06,24.31L923,385.36c5.44,1.35,15.08-.1,15.08-.1l4,23.51,24.06-12.23-11.33-18c9.87-7,11.25-20,11.25-20l20.59-2-9.08-29.77Zm-18.93,31.08a15,15,0,0,1-21.15-7.4c-3.07-8.19-1.55-15,2.6-19.15,6-6,18.77-8.1,25.06,2.13C954.79,355.85,949.94,364.88,941.47,369.21Z"/><path class="cls-15" d="M933.69,378.57c-13.67,0-20.48-16-20.77-16.65,0-.12-7.12-15.46,9.08-25.92,4.68-3,9.31-4.55,13.75-4.55,11.35,0,17.61,9.64,19.26,12.59,2.88,5.14,3.29,12.41,1,18.52-1.73,4.72-5.82,11.09-15.5,14.71A19.76,19.76,0,0,1,933.69,378.57Zm2.06-45.46c-4.12,0-8.44,1.44-12.84,4.28-15,9.68-8.54,23.71-8.47,23.85s6.7,15.67,19.25,15.67a17.84,17.84,0,0,0,6.27-1.2c9.1-3.39,12.92-9.33,14.54-13.72,2.08-5.67,1.71-12.4-.94-17.14C952,342.1,946.19,333.11,935.75,333.11Z"/><path class="cls-7" d="M916.4,176.9c.27,4.66-1.85,9.5-3.95,13.55-2.2,4.22-7.47,12.43-13.27,8.78-2.5-1.57-3.31-4.78-.61-6.87a9.53,9.53,0,0,1,5.11-1.74,8.54,8.54,0,0,1,8.62,7.16c1,5.07-2.92,10.05-6.44,13.23-16,14.47-42.74,14-60.57,3.51-6-3.53-14.51-9.5-16.28-16.79-.13-.54-1-.31-.83.23.83,3.45,3.41,6.44,5.82,8.92A52.86,52.86,0,0,0,848,217a56.89,56.89,0,0,0,41.09,3.7,43.54,43.54,0,0,0,17-8.81c3.71-3.27,7.59-8.13,7.11-13.38a9.34,9.34,0,0,0-10.75-8.64c-4.27.69-9.11,4.6-5.2,8.91,4.31,4.75,10.5.37,13.33-3.65,3.51-5,7-12,6.62-18.25,0-.56-.91-.56-.87,0Z"/><path class="cls-7" d="M716.65,611.69c-4.53,0-9.12,1.82-9.1,4.67,0,6.09,18.62,3.75,17.91-1.24C725.1,612.67,720.17,611.7,716.65,611.69Z"/><path class="cls-13" d="M477.44,607c-6.3.16-12.77,2.4-12.86,5.61-.18,6.85,25.8,3.49,25-2.09C489.19,607.74,482.35,606.85,477.44,607Z"/><path class="cls-7" d="M399.43,583.5c7.17.66,18,4.23,15.45,11S385,599.8,383.6,591.3,393.86,583,399.43,583.5Z"/><path class="cls-7" d="M227,421c-30.89-3.82-37.61-27.91-40.47-38.19A23.4,23.4,0,0,0,185,378.2l2.12-1.43a21.52,21.52,0,0,1,1.87,5.31c3,10.63,9.12,32.74,38.33,36.34Z"/><path class="cls-8" d="M161.83,339h0a2.48,2.48,0,0,1-2.94-1.91l-4.75-22.27a2.48,2.48,0,0,1,1.91-2.94h0a2.49,2.49,0,0,1,2.95,1.91l4.74,22.27A2.47,2.47,0,0,1,161.83,339Z"/><path class="cls-8" d="M190.57,332.88h0a2.48,2.48,0,0,1-2.94-1.91l-4.75-22.27a2.49,2.49,0,0,1,1.91-2.95h0a2.49,2.49,0,0,1,3,1.91l4.74,22.28A2.48,2.48,0,0,1,190.57,332.88Z"/><path class="cls-16" d="M154,347.72s4,33.53,34.52,27c20.91-4.43,12.9-38.33,12.9-38.33Z"/><rect class="cls-7" x="150.29" y="332.13" width="54.44" height="16.88" transform="translate(-67.07 44.47) rotate(-12.03)"/><rect class="cls-16" x="178.61" y="372.52" width="14.98" height="9.93" transform="translate(-74.57 47.07) rotate(-12.03)"/><path class="cls-7" d="M162.29,305.77A111.8,111.8,0,0,0,153,294.91a.87.87,0,0,0-1.23,1.23,108.56,108.56,0,0,1,9,10.5c.66.88,2.17,0,1.5-.87Z"/><path class="cls-7" d="M170.28,303.48a73.78,73.78,0,0,1-.09-16.87c.1-1.11-1.64-1.1-1.74,0a75,75,0,0,0,.16,17.34c.16,1.1,1.83.63,1.67-.47Z"/><path class="cls-7" d="M179,303.77a41.76,41.76,0,0,1,4.94-12.65.87.87,0,0,0-1.5-.88,43.58,43.58,0,0,0-5.12,13.07c-.23,1.09,1.44,1.55,1.68.46Z"/><path class="cls-7" d="M905.3,52a134.14,134.14,0,0,0-8.86-14.74c-.64-.91-2.15,0-1.5.87A135.08,135.08,0,0,1,903.8,52.9c.52,1,2,.12,1.5-.87Z"/><path class="cls-7" d="M915.46,51.07a88,88,0,0,1,3.3-20.42.87.87,0,0,0-1.68-.46,90.17,90.17,0,0,0-3.35,20.88.87.87,0,0,0,1.73,0Z"/><path class="cls-7" d="M926,52.86a50.06,50.06,0,0,1,8.46-14.1c.72-.85-.5-2.08-1.23-1.23a53,53,0,0,0-8.91,14.87c-.41,1,1.27,1.49,1.68.46Z"/><path class="cls-7" d="M1030.35,256.48c12.69,5.15,35.72,21.09,26.19,37.46a1.08,1.08,0,0,0,1.86,1.09c10.39-17.86-13.5-34.95-27.48-40.63-1.28-.52-1.84,1.56-.57,2.08Z"/><path class="cls-7" d="M1054,259.48c8.81,4.24,13.35,12.89,14.89,22.23.22,1.36,2.3.79,2.07-.57-1.62-9.85-6.61-19.06-15.88-23.52-1.24-.6-2.33,1.25-1.08,1.86Z"/><path class="cls-7" d="M1030.77,128.41c-3.79,3.29-2.5,9.07,1.8,11.24,5.33,2.7,12-.57,15.22-5.05,7-9.64-14.87-16.54-17.36-4.75-.23,1.09,1.44,1.56,1.67.46,1-4.47,5.6-5.74,9.61-4.64a12.17,12.17,0,0,1,3.6,1.57c3.1,2.1,2,5.54-.17,7.73s-5.56,4.16-8.87,3.93c-4.61-.33-8.45-5.63-4.27-9.27.85-.73-.38-1.95-1.23-1.22Z"/><path class="cls-7" d="M165.31,41.71c-3.79,3.29-2.5,9.08,1.79,11.24,5.33,2.7,12-.56,15.22-5.05,7-9.64-14.87-16.54-17.36-4.75-.23,1.09,1.44,1.56,1.67.46,1-4.47,5.6-5.74,9.61-4.64a12.43,12.43,0,0,1,3.6,1.57c3.1,2.1,2,5.54-.17,7.73s-5.56,4.17-8.87,3.93c-4.6-.33-8.45-5.63-4.27-9.26.85-.74-.38-2-1.22-1.23Z"/><path class="cls-7" d="M1076.42,397.1a96.21,96.21,0,0,0,17.55-6.39c1-.49.12-2-.88-1.5a94.53,94.53,0,0,1-17.13,6.22.87.87,0,0,0,.46,1.67Z"/><path class="cls-7" d="M1076.82,387c4.17,5.2,9.67,9.25,13.31,14.87.6.94,2.11.07,1.5-.87-3.73-5.76-9.32-9.91-13.58-15.23-.7-.87-1.92.37-1.23,1.23Z"/><path class="cls-7" d="M1081.9,402.7a110.4,110.4,0,0,0,5.94-17.48c.25-1.09-1.43-1.55-1.67-.46a109.33,109.33,0,0,1-6,17.47c-.42,1,1.26,1.49,1.68.47Z"/><path class="cls-7" d="M487.75,38.22l21,.66c1.12,0,1.12-1.7,0-1.73l-21-.66c-1.11,0-1.11,1.7,0,1.73Z"/><path class="cls-7" d="M782.9,24.28l-5,15.08c-.35,1.07,1.33,1.52,1.68.47q2.52-7.55,5-15.09c.36-1.06-1.32-1.52-1.67-.46Z"/><path class="cls-7" d="M772.72,31.13l16.59,4c1.09.26,1.55-1.41.46-1.67l-16.59-4c-1.08-.26-1.55,1.41-.46,1.67Z"/><path class="cls-7" d="M45.59,280.4l8.73,13.3c.61.93,2.11.06,1.5-.88l-8.73-13.3c-.61-.93-2.12-.06-1.5.88Z"/><path class="cls-7" d="M44.82,292.63l13.4-10.56c.87-.69-.36-1.91-1.23-1.23L43.59,291.4c-.88.69.36,1.91,1.23,1.23Z"/><path class="cls-7" d="M330.56,41.51q10.19.41,20.26,1.78c.68.09,1.45-.57,1-1.28a61.62,61.62,0,0,0-13.54-14c-.87-.68-2.11.54-1.23,1.23,4.88,3.82,9.87,8.5,13.28,13.7.32-.43.65-.85,1-1.28Q341,40.2,330.56,39.78c-1.11-.05-1.11,1.69,0,1.73Z"/><path class="cls-7" d="M79.62,423.41a6.48,6.48,0,0,1,6.77-9.67c2.36.35,4.3.95,6.59-.1a8.52,8.52,0,0,0,4.77-9.56c-.24-1.09-1.92-.63-1.68.46a6.6,6.6,0,0,1-7.81,7.82c-2.32-.39-4.28-.77-6.53.23-4.63,2.07-5.88,7.41-3.61,11.7.52,1,2,.11,1.5-.88Z"/><path class="cls-4" d="M229.06,543.8c-3.53-.7-87.16,12.38-97.34-19.36s33.92-78.16,53.79-65c0,0-15-58.27,48.78-68.12s30.81,32.23,30.81,32.23,32.07-35.49,55.13,10.34-37.39,72.42-37.39,72.42,42.91,8.88,20.63,28.82S229.06,543.8,229.06,543.8Z"/><path class="cls-15" d="M295.63,461.39c-1.8.06-40.18,1.58-59.34,21.18,6.21-29.86,15.61-49.76,15.76-50.07a2.11,2.11,0,1,0-3.8-1.82c-.17.34-11.52,24.36-17.68,59.37a2.07,2.07,0,0,0-.14.81q-1.16,6.69-2,13.86c-17.28-23.15-46-27.59-47.33-27.78a2.11,2.11,0,0,0-.61,4.17c.32,0,31.57,4.91,47.26,30.08a232.29,232.29,0,0,0-.77,32.66,11.17,11.17,0,0,1,2.1-.05s.75.16,2.06.4a2.76,2.76,0,0,0,0-.51,239.48,239.48,0,0,1,3.42-52.2c14.91-24.07,60.72-25.88,61.18-25.89a2.11,2.11,0,0,0-.14-4.21Z"/><path class="cls-17" d="M947.33,467l.3-1c3.91-12.74,16.52-75.06,55.26-62.53,39.82,12.87-2.56,76.95-2.56,76.95s31.05-20.9,41.33,2.2-20.88,42.7-20.88,42.7,25.73-4.92,23,8.52-60.07,5.82-60.07,5.82-14-31.05-13.94-32.37-31.66-20.19-31.48-20.68,9.26-20.26,9.26-20.26Z"/><path class="cls-15" d="M965,497.08h0a1.47,1.47,0,0,1-1.4-1.51c0-.33,6.41-41.31,23.92-67.78a1.49,1.49,0,1,1,2.48,1.64c-17.14,25.89-23.4,65.93-23.43,66.29A1.51,1.51,0,0,1,965,497.08Z"/><path class="cls-15" d="M973.26,463.47a1.45,1.45,0,0,1-1-.42,1.48,1.48,0,0,1,0-2.1c6.89-7.1,28.26-15.46,29.17-15.81a1.48,1.48,0,0,1,1.92.85,1.5,1.5,0,0,1-.85,1.92c-.22.08-21.67,8.47-28.11,15.11A1.52,1.52,0,0,1,973.26,463.47Z"/><path class="cls-18" d="M925,547.81c2.5-.49,61.41,8.73,68.59-13.63s-23.9-55.07-37.9-45.81c0,0,10.6-41.05-34.37-48s-21.71,22.7-21.71,22.7-22.59-25-38.84,7.29,26.34,51,26.34,51-30.23,6.25-14.53,20.3S925,547.81,925,547.81Z"/><path class="cls-15" d="M926.49,547.85c2.1-43.59-14.83-79.38-15-79.74a1.49,1.49,0,0,0-2.68,1.29c.17.35,16.78,35.52,14.71,78.34a2.19,2.19,0,0,0,0,.36c.93-.17,1.45-.29,1.45-.29A9.12,9.12,0,0,1,926.49,547.85Z"/><path class="cls-15" d="M924.38,525.94a1.51,1.51,0,0,1-.72-.22,1.47,1.47,0,0,1-.49-2c11.71-19.3,34.67-22.84,35.64-23a1.49,1.49,0,0,1,.43,2.94c-.23,0-22.56,3.5-33.54,21.58A1.48,1.48,0,0,1,924.38,525.94Z"/><path class="cls-15" d="M922.51,512a1.49,1.49,0,0,1-1.22-.72C911,494,878.33,492.73,878,492.72a1.49,1.49,0,1,1,.09-3c1.41.05,34.59,1.36,45.73,20a1.49,1.49,0,0,1-1.32,2.25Z"/><path class="cls-13" d="M905.33,150.25c3.17,4.37,18.88,5.19,23.47,1s-.38-9.56,7.27-22.19,16.2-9.82,17.6-35.2-27.33-33.08-38.56-33.08-36.56,9-36.56,37.29c0,20.53,14.28,21.55,20.79,31.37S901.76,145.31,905.33,150.25Z"/><path class="cls-19" d="M904.31,153.15c0,.38,16,4.63,26,.46,0,0,2.68,22.11-6.25,24.28s-17.6.38-18.49-3.95S904.31,153.15,904.31,153.15Z"/><path class="cls-15" d="M931.38,99.9c-2.54.94-5.17,7.89-7,14.35a7.87,7.87,0,0,1-6.26-3.47c7.5-8,8.26-22.17,6.14-28.51-1.18-3.52-2.91-3.85-3.85-3.73-4.75.61-7.85,11.7-7.43,21.22a25,25,0,0,0,2.53,10.73,16.5,16.5,0,0,1-2.74,2,5.38,5.38,0,0,1-.6.28c-1-9.76-2.77-18.17-5.83-21A4,4,0,0,0,903,90.66a4.43,4.43,0,0,0-3.76,3.56c-1.46,5.34,2.31,15.36,7.2,19.15a7.48,7.48,0,0,0,3.83,1.66,360.1,360.1,0,0,1,.89,38.22c.33.08.67.15,1,.21l1,0a368.41,368.41,0,0,0-.89-38.66,6.64,6.64,0,0,0,1.41-.6,18,18,0,0,0,2.84-2,9.8,9.8,0,0,0,7.2,4c-.43,1.61-.8,3.14-1.1,4.48-1.35,6-4.24,21.23-2.08,33.16.69-.06,1.37-.13,2-.24-1.51-8.16-.77-20,2-32.47q.62-2.73,1.26-5.1c3.58-1.06,6-5.8,6.77-7.4,1.34-2.91,2.41-6.84,1-8.37A2,2,0,0,0,931.38,99.9Zm-23.65,11.86c-4.29-3.33-7.74-12.38-6.48-17,.51-1.88,1.66-2,2-2.08h.24a2.06,2.06,0,0,1,1.4.62c2.63,2.4,4.23,10.2,5.18,19.64A5.73,5.73,0,0,1,907.73,111.76ZM917,109a25.06,25.06,0,0,1-2-9.28c-.4-9.42,2.85-18.74,5.66-19.1h0c.41,0,1.07.73,1.61,2.35C924.23,88.71,923.61,101.48,917,109Zm13.43-.29a13.71,13.71,0,0,1-3.75,4.77c2.15-7.11,4.33-11.23,5.39-11.62l.16,0C932.56,102.41,932.23,105.21,930.45,108.66Z"/><path class="cls-7" d="M920.3,165.24c-11.59,0-18.87-3.63-19.26-3.83a1,1,0,0,1,.93-1.82h0c.12.06,12.09,6,29.52,2.46a1,1,0,0,1,.41,2A57.88,57.88,0,0,1,920.3,165.24Z"/><path class="cls-7" d="M921.42,172.61a68.62,68.62,0,0,1-18.68-2.29,1,1,0,1,1,.6-1.95c.11,0,11.91,3.57,28.23,1.58a1,1,0,1,1,.25,2A85.25,85.25,0,0,1,921.42,172.61Z"/><path class="cls-17" d="M161.4,195.51c0-1.75-.77-11.58-.62-12.46s30.49,6.52,30.49,6.52l41.92,28.16,5.59,4.6-27.15-6.67s-30.82-9.65-32-9.93S161.4,195.51,161.4,195.51Z"/><g class="cls-20"><path class="cls-17" d="M161.4,195.51c0-1.75-.77-11.58-.62-12.46s30.49,6.52,30.49,6.52l41.92,28.16,5.59,4.6-27.15-6.67s-30.82-9.65-32-9.93S161.4,195.51,161.4,195.51Z"/></g><path class="cls-17" d="M130.44,208.65s23.46-19.33,25.39-19.31,81.2,32.45,82.95,33S130.44,208.65,130.44,208.65Z"/><path class="cls-17" d="M160.78,183.05c-.67-.56,10.51-24,12.44-23.78s69.56,64.64,65.56,63.06S161.83,183.94,160.78,183.05Z"/><path class="cls-7" d="M97.93,131.43c-.22,12.69,7,24.92,18.66,30.2a33.17,33.17,0,0,0,18.15,2.6c5.2-.74,11.85-2.65,14-8,1.92-4.88-.2-10.71-4.29-13.77-4.62-3.45-11.05-3.7-16.4-2-11.24,3.58-18.85,15.17-16,26.9,3.7,15.23,21.38,19.64,34.35,13.4,1.28-.61.16-2.51-1.1-1.9-10.38,5-24.83,2.76-29.93-8.58-4.37-9.71,0-20.76,9.11-25.88,4.43-2.51,10-3.62,14.92-2.05,5.34,1.69,9.54,7.5,7.22,13.15-2.07,5-9.38,6.47-14.23,6.82a30.94,30.94,0,0,1-15.62-3c-10.51-5.12-16.83-16.3-16.64-27.86a1.1,1.1,0,0,0-2.19,0Z"/><rect class="cls-21" x="303.66" y="518.82" width="9.14" height="16.17"/><rect class="cls-21" x="335.48" y="518.82" width="9.14" height="16.17"/><path class="cls-7" d="M298.42,325.45s4.55,60.63,3.14,103.66-1.51,93.23-1.51,93.23,10.83,2,18.3-.62c0,0,17.85-96.66,15-159.45,0,0-.67-1.23,4.06-.29,0,0,5.54,71.76-4.25,160,0,0,9.65,3.64,15-.41,0,0,36.17-131.66,9.89-192.06l-57.78-4.09Z"/><path class="cls-22" d="M332.63,531.45s-1.47,5.8-1.41,8.49c0,0,9.79-.72,11,.08s2.08,4.47,2.08,4.47h26.43s.55-4.23-3.12-5.27-13.34-2-16.22-5.87-3.79-4.71-5.38-4.29-2.39,2.51-2.39,2.51S336.48,532.92,332.63,531.45Z"/><path class="cls-22" d="M330.59,539.75s8.6-.71,11.32.15c0,0-.18,3.75-.63,4.59l-10.69-.17S330.08,540,330.59,539.75Z"/><path class="cls-22" d="M357.53,536.87s-4.31,1-7.45.15a10,10,0,0,1-6.5-5.45c-.73-2.08,2.07-5.19,4.41-2.38S352.55,535.62,357.53,536.87Z"/><path class="cls-22" d="M302,531.45s-1.47,5.8-1.41,8.49c0,0,9.79-.72,11,.08s2.08,4.47,2.08,4.47H340s.55-4.23-3.12-5.27-13.34-2-16.21-5.87-3.8-4.71-5.39-4.29-2.39,2.51-2.39,2.51S305.81,532.92,302,531.45Z"/><path class="cls-22" d="M299.92,539.75s8.6-.71,11.32.15c0,0-.18,3.75-.63,4.59l-10.69-.17S299.41,540,299.92,539.75Z"/><path class="cls-22" d="M326.86,536.87s-4.31,1-7.45.15a10,10,0,0,1-6.5-5.45c-.73-2.08,2.07-5.19,4.41-2.38S321.88,535.62,326.86,536.87Z"/><path class="cls-8" d="M360.29,333.56s2.1,5.68,1.94,6.4-35.89,8.85-62.85,0l-1-9.86,29.52,7,16.6-.91Z"/><path class="cls-21" d="M325,228.51s-1.7,10.92,6.8,18.69l-6.16,8-19-8.26s4.56-16-1.75-28.87S325,228.51,325,228.51Z"/><g class="cls-20"><path class="cls-21" d="M308.2,235.22a39.3,39.3,0,0,0-2.37-14.78l11.67,1.84c4.06,3.25,7.45,6.23,7.45,6.23a22.72,22.72,0,0,0,.64,8.39C322.81,238.09,317.41,238.92,308.2,235.22Z"/></g><path class="cls-21" d="M335.5,177.48s12.12,10.87,14.78,31.71a28.05,28.05,0,0,1-5.48,1.23s.91,13-8.64,18.12-24.46,7.87-34.4-16.81l-3.28-10.65,8.4-11.22s22.32-7.35,22.79-7.63S335.5,177.48,335.5,177.48Z"/><path class="cls-7" d="M343.54,188.31s15.49-19.06-3.12-28.7c-12.84-6.64-18.7,5.66-26.68,9.11s-18,1.05-23.1,13.91,7.79,31.18,10.29,35.89,1.2,8.08,1.2,8.08,9.07-6.34,5.06-15.76,1.37-11.61,1.37-11.61,30.69-2.21,28.62-20A50.92,50.92,0,0,1,343.54,188.31Z"/><path class="cls-21" d="M312,198.48a7.35,7.35,0,0,0-6.92-2.18c-4.33.92-1.34,15.94,8.51,13.62Z"/><path class="cls-15" d="M304.11,522.5l-1.05-.19c8.74-48.62,5-160.73,5-161.85v-.39l.36-.13c18.44-6.95,15.49-16.15,15.46-16.25l1-.35c.15.41,3.37,10.13-15.73,17.46C309.38,368.1,312.61,475.2,304.11,522.5Z"/><path class="cls-21" d="M294.14,337.66c.63.65,15.28.24,25.45,4,6.64,2.42,1.66,4.85-1.66,3.44-2-.85-9.9-1.92-10.39-1.61s9.93,3.61,13.63,5.87,1.4,5.08-1.94,3.54-12.88-6-13.11-5.52,9.47,8.05,11.23,9.1,1.43,5.05-2.59,2.35-10.5-7.4-10.65-7.56a45.12,45.12,0,0,0,5.38,7.22c3.32,3.78-.92,4.5-4,.86-2.66-3.14-7.36-8.22-9.25-11.51a17.55,17.55,0,0,1-2.08-7Z"/><path class="cls-12" d="M248.28,286.22c22.65-32.82,59.18-43.15,59.18-43.15,5.51,11.07,27.06,14.14,20.88.12,0,0,9.19,1.3,22.79,8.82s36.28,28,40.45,40.93c6,18.68-27.69,49.56-27.69,49.56-2.31-.95-3.11-7.59-3.11-7.59,21.49-43.24-4.26-52.76-7.61-59.17l9.9,58.38c-40.31,14.33-68.26-2.18-68.26-2.18.69-6.8.51-50.06-1.18-53.17-2-3.67-15.33.74-22.3,13.12-10.17,18,26.13,45.71,26.13,45.71,1.24,9.47-2.32,11.53-2.32,11.53S228.7,314.59,248.28,286.22Z"/><path class="cls-23" d="M367.06,333.49c.19,1.1.53,2.23-6,4.57s-7-.28-5.69-1.78S366.24,328.73,367.06,333.49Z"/><path class="cls-23" d="M369.39,338c.18,1.09.52,2.22-6,4.56s-7-.28-5.69-1.77S368.56,333.26,369.39,338Z"/><path class="cls-23" d="M370.26,343.74c-.06,1,0,2-6,2.7s-5.9-1.64-4.5-2.66S370.51,339.51,370.26,343.74Z"/><path class="cls-23" d="M370.26,347.39c-.06,1,0,2-6,2.7s-5.9-1.65-4.5-2.67S370.51,343.16,370.26,347.39Z"/><path class="cls-24" d="M301.3,245.24c3.84-1.51,6.16-2.17,6.16-2.17,5.51,11.07,27.06,14.14,20.88.12a38.55,38.55,0,0,1,4.68,1.1s7.53,11.58-6.76,13.81C314.07,260,304,248.64,301.3,245.24Z"/><path class="cls-15" d="M318.21,298h0a12.69,12.69,0,0,1-9.88-4.06c-5.59-6.19-4.54-17.14-4.49-17.6l.06-.62.6.15A53.15,53.15,0,0,0,317,277.13a85.09,85.09,0,0,0,8.85-.46l.45-.06.13.44c.14.48,3.35,11.9-.87,17.7a8.13,8.13,0,0,1-6.7,3.24Zm-13.35-20.94c-.13,2.38-.28,11.13,4.27,16.17a11.7,11.7,0,0,0,9.08,3.7h.58a7.1,7.1,0,0,0,5.86-2.8c3.48-4.77,1.36-14.2.82-16.34-1.18.12-4.5.42-8.51.42A56.08,56.08,0,0,1,304.86,277.06Z"/><g class="cls-20"><path class="cls-25" d="M787.64,250.88,789,251c.42,0,.91.12,1.47.17l1.86.18c.33,0,.68.07,1,.09s.73.08,1.11.1c.76,0,1.54.12,2.36.13l1.23.06c.42,0,.84,0,1.26,0l.63,0h1.93c.86,0,1.71-.08,2.56-.07s1.68-.12,2.51-.15,1.6-.15,2.37-.19c.39,0,.75-.06,1.11-.1l1.06-.1c.68-.06,1.32-.07,1.88-.16s1.07-.1,1.49-.12c.84,0,1.36,0,1.36,0s-.35.35-1,.9c-.33.28-.74.6-1.22,1a14.37,14.37,0,0,1-1.7,1,19.23,19.23,0,0,1-2.13,1c-.78.29-1.62.6-2.5.86-.45.12-.91.21-1.37.31s-.94.2-1.42.27c-1,.1-2,.2-2.94.23a22,22,0,0,1-2.94-.17,17.91,17.91,0,0,1-2.81-.51,21,21,0,0,1-2.54-.81,20.82,20.82,0,0,1-2.16-1c-.32-.19-.63-.36-.91-.54s-.55-.37-.79-.55a13,13,0,0,1-1.2-1A8.56,8.56,0,0,1,787.64,250.88Z"/></g><path class="cls-15" d="M819.39,407.73l-.66-.14c14.58-68.2-6-121.24-6.25-121.77l.62-.24C813.32,286.11,834,339.32,819.39,407.73Z"/><path class="cls-15" d="M740.48,300.46c-80.49-3.29-310.91-2.36-313.22-2.35h-.68l1.29-166h1.34l-1.28,164.68c14-.06,234.25-.85,312.61,2.35Z"/><path class="cls-15" d="M424.12,141.83q2.49-4.77,5.36-9.3H428A66.05,66.05,0,0,0,435.12,145c.63.86,2.09,0,1.45-.85a65.24,65.24,0,0,1-7.09-12.42c-.26-.61-1.14-.48-1.44,0q-2.88,4.55-5.37,9.3c-.5,1,.95,1.81,1.45.85Z"/><path class="cls-15" d="M734.43,296c1.12,3,4.28,2.75,6.35,4.65.19-.48.39-1,.59-1.43-3,.16-6,1.83-8.71,2.95-1,.4-.55,2,.45,1.62,2.56-1,5.46-2.74,8.26-2.9a.85.85,0,0,0,.59-1.43c-1.63-1.49-5.1-1.72-5.91-3.9-.38-1-2-.57-1.62.44Z"/><path class="cls-15" d="M434.34,280.79l33.47-32.31c1.27-1.23,2.53-2.48,3.82-3.69,1.62-1.53,1.94-2.24,4.39-1.81,2,.35,1.86.19,2.9,1.36a69.05,69.05,0,0,0,6.57,6.57A56.34,56.34,0,0,0,501,260.12a.83.83,0,0,0,.82-.21q10.71-12.89,21.43-25.76l11.14-13.4,5.15-6.18c2-2.38,4.12-6.26,7.38-3.08,12,11.64,21.44,26.68,37.26,33.61a.85.85,0,0,0,1-.13,154.33,154.33,0,0,0,16.9-25.51l-1.15.3L617.26,230c3.44,2.16,8.2,6.67,12.63,6.13,4.14-.51,6.81-5.45,9-8.46q5.3-7.17,10.17-14.65a319.7,319.7,0,0,0,31.6-62.74c.38-1-1.24-1.44-1.61-.44a317.48,317.48,0,0,1-28.24,57.32q-4.1,6.56-8.52,12.9c-2.9,4.17-5.74,9-9.36,12.55-4.69,4.63-11.69-2.08-15.93-4.74l-15.21-9.54a.84.84,0,0,0-1.15.3,151,151,0,0,1-14.35,22.31c-1.22,1.56-1.58,2.65-3.57,1.66a44.67,44.67,0,0,1-3.93-2.2,61.46,61.46,0,0,1-9.27-7.29c-5-4.67-9.42-9.9-14-15-2.29-2.55-4.61-5.06-7.06-7.46-1.62-1.6-3.48-3.79-5.85-2.24-1.19.78-2.09,2.34-3,3.42l-3.86,4.64-9.43,11.33-17.15,20.61c-1.42,1.72-2.85,3.43-4.28,5.15s-2.77,4.66-5.32,4.18c-3.51-.67-7.71-4-10.51-6.1a54.8,54.8,0,0,1-8-7.32c-1.56-1.74-3.19-4.08-5.83-3.9-3.32.23-6.52,4.79-8.68,6.87l-11.47,11.07-22,21.24c-.78.75.4,1.93,1.18,1.18Z"/><path class="cls-23" d="M790.2,401s19.24,58.4,12.86,83.78c0,0-7.92,15.8-8.57,26.7L786.07,514a3.33,3.33,0,0,0,0,2.68c.65,1.19,15.19,4.06,24.62.34l10.19-14.44-5.05-9.75a24.9,24.9,0,0,0-3.72-6.12s-.6-17.27,6.5-34.09a81.27,81.27,0,0,0,6.62-31.08l-5.75-8.12-11.34-19.58-10.35-.14Z"/><g class="cls-20"><path class="cls-23" d="M790.2,401s19.24,58.4,12.86,83.78c0,0-7.92,15.8-8.57,26.7L786.07,514a3.33,3.33,0,0,0,0,2.68c.65,1.19,15.19,4.06,24.62.34l10.19-14.44-5.05-9.75a24.9,24.9,0,0,0-3.72-6.12s-.6-17.27,6.5-34.09a81.27,81.27,0,0,0,6.62-31.08l-5.75-8.12-11.34-19.58-10.35-.14Z"/></g><path class="cls-26" d="M804.92,510c.86-12.9,4.67-20,7.16-23.26h0a24.9,24.9,0,0,1,3.72,6.12l2.8,5.41-.43,8.14-7.51,10.64c-9.43,3.72-24,.85-24.62-.34a3.33,3.33,0,0,1,0-2.68l8.42-2.56A15.31,15.31,0,0,0,804.92,510Z"/><path class="cls-23" d="M834,389.86l.87,9.73s4.14,15.64,3.46,29.2-13.39,47.74-14.25,62c0,0,5.34,13.64,1.82,26.5a18.55,18.55,0,0,1-15.25-.21s-1.86-10.92,6.4-26.72c0,0-1-49.78-8.45-93.45s3.74-16.2,3.74-16.2Z"/><path class="cls-26" d="M827,510.26a34.45,34.45,0,0,1-1.12,7,18.55,18.55,0,0,1-15.25-.21,27.69,27.69,0,0,1,0-6.68A60.58,60.58,0,0,0,827,510.26Z"/><path class="cls-27" d="M783.26,285.84S761.67,324.2,790.2,401c0,0,30.79,9.8,44.68-1.4,0,0,8-61.11,12-74.24l-4.26-5.86s-7.36-26.91-24.2-37.08-11.39-.15-11.39-.15Z"/><path class="cls-23" d="M776.29,247.82c.78,3.84-1,12.05-7,11.63s-33-26.08-33-26.08l-3.06,3.14s22.11,49.56,40.77,45,18.2-26.9,18.2-26.9l-10.7-7Z"/><path class="cls-23" d="M729.75,219.94c0-.16-3.93-7-10.09-1.75s-1.68,17.06,6.57,13.6,7.1-8.56,7.1-8.56Z"/><polygon class="cls-28" points="734.71 221.56 673.82 180.73 732.73 223.74 734.71 221.56"/><path class="cls-29" d="M776.29,247.82l5.2-.26,10.7,7s.4,19.46-14.77,25.77c-.44-3.11-1.14-8-1.24-8.46s-2.35-9.33-3.38-13.37C776,256.28,776.89,250.76,776.29,247.82Z"/><path class="cls-29" d="M773.86,237.79c-.53-2.13-4.14-16-2.28-20.92s8.55-4.57,8.55-4.57l7.2,12.27-3.39,11.12Z"/><path class="cls-23" d="M797.92,197.35s-.6,7.36-2.5,11.69c0,0-6,11.15-.2,14.91s17.61-1.77,17.79-2.44-1.82-14.26-1.82-14.26a24,24,0,0,1-.53-9.73c.9-4.68-11.38-1.33-11.38-1.33Z"/><path class="cls-17" d="M790.35,208.19c-1.82,2-8,3.91-10.22,4.11,0,0-8.22,21.33-9.4,26,0,0,1.26,13.87,12.5,16.59,0,0-3.36,17.6,0,30.94a48.08,48.08,0,0,0,40.11-.79s-6.1-11.48,6-36.9c0,0,9.44,28.17,10.52,39.24,0,0,13.64-.93,19,4.51,0,0,4.11-51.78-20.37-74.56l-23.84-8.82c-5.25,9-10.88,14.5-17.35,12.36l-6,1.51Z"/><path class="cls-30" d="M796.74,204.87a11.51,11.51,0,0,0-8.63,4.87s-3.52,19.6.71,22.42l8.53-11.28S794.64,211.46,796.74,204.87Z"/><path class="cls-30" d="M810.93,205.06s-6.66,12.65-13.58,15.82l1.08,13.34s21.55-7.66,21.77-23.66Z"/><path class="cls-31" d="M769.26,259.45l4.13-7.4s10.81,12.13,5.51,32.08l-8.35-2.37S773.49,275.43,769.26,259.45Z"/><path class="cls-23" d="M736.28,233.37s4.25-8.6-3.56-13.51-6.71.47-4,2.57,2.3,2.83,2.3,2.83l-6.38,1.19-2.11,3.6L723,232l-.07.61a15.88,15.88,0,0,0,10.34,3.94c6.61.18,3.18.38,3.18.38Z"/><path class="cls-23" d="M841.56,284.48c0,.34,3.26,37.41-1.12,51.09l5.4,3.85s13.69-21.17,11.72-55.14Z"/><path class="cls-23" d="M840.44,335.57s-2.58,1.11-5.28,6.77-5.2,8.87-4.27,9.94,5.64-.14,8.08-6.7c0,0-.79,8.42-3.94,14.52s-2.33,11.36-.59,10.33,8.21-16,8.21-16-5.93,15.31-4.74,16.67,3.51-.66,4.61-3.21c0,0-1.78,3.77.8,2.58s12.54-18.54,2.52-31l-2.41-5.34Z"/><path class="cls-30" d="M858.91,291.9c-.43-.41-4.19-4.79-19-4.51l-6.29-14.07s18-2.69,31.12,4Z"/><g class="cls-20"><path class="cls-23" d="M799.28,196.19l1.08-.27,10.3,1.6a20,20,0,0,0-.18,5.73c-1.86,1.34-6.16,3.5-14.08,2.95a55,55,0,0,0,1.52-8.85Z"/></g><path class="cls-28" d="M781.62,166a40,40,0,0,0-8.18.53c-1,.17-1.15,1.51-.57,2.17,1.86,2.12,3.94,4.06,6.93,4a1.3,1.3,0,0,0,0-2.59c-2.25,0-3.73-1.74-5.1-3.3l-.57,2.17a36.78,36.78,0,0,1,7.49-.44c1.67.07,1.66-2.52,0-2.59Z"/><path class="cls-23" d="M796.85,140.81c-1.57.43-18,15-18.48,36.63l7.14,1.95s-4.8,28.8,33.32,21.15l15.39-31.07-24.51-21.11Z"/><path class="cls-32" d="M781,163.45s-9-5.16-7-17.37,6.7-13.48,19.85-12.46,39.85-15.88,52.29,5.57-12.89,48.58-10.5,57.66,9.63,6.84,9.63,6.84-42.41,23.18-32.69-23.91l-1.85-11.62s-17.64,3.3-22.39-17.2A35.26,35.26,0,0,0,781,163.45Z"/><path class="cls-28" d="M795.75,165.78c-2,0-4-.08-6-.19-1.4-.08-3.72-.75-5-.18-2.25,1-.41,4.2.63,5.4,3.9,4.5,10.88,2.46,12.42-3a1.3,1.3,0,0,0-2.5-.69c-1.08,3.85-6.25,5.08-8.44,1.37-.69-1.16-.69-.66.37-.44a18,18,0,0,0,2.55.17c2,.11,4,.16,6,.19a1.3,1.3,0,0,0,0-2.6Z"/><path class="cls-28" d="M785.12,165.87a25.65,25.65,0,0,1-5.11-.15c-1.63-.23-2.34,2.27-.69,2.5a28.09,28.09,0,0,0,5.8.24c1.65-.1,1.67-2.7,0-2.59Z"/><path class="cls-28" d="M796.91,168.37c2,.18,3.94.83,5.92,1.1a31.68,31.68,0,0,1,7.08,1.51c1.56.59,2.24-1.92.69-2.51a30.63,30.63,0,0,0-6.82-1.47c-2.31-.31-4.56-1-6.87-1.22-1.66-.15-1.65,2.44,0,2.59Z"/><path class="cls-23" d="M809.84,171.22s-1.07-3.44,3.54-5.83,8.2,13.4-2.39,15.6l-2.68-3.61,0-3.57Z"/><path class="cls-15" d="M421.11,166.53a60.42,60.42,0,0,1,6.86.26c1.08.1,1.07-1.58,0-1.68a62.83,62.83,0,0,0-6.86-.25.84.84,0,0,0,0,1.67Z"/><path class="cls-15" d="M420.89,203.91l6.87.1a.84.84,0,0,0,0-1.67l-6.87-.11a.84.84,0,0,0,0,1.68Z"/><path class="cls-15" d="M420.72,240h6.71a.84.84,0,0,0,0-1.68h-6.71a.84.84,0,0,0,0,1.68Z"/><path class="cls-15" d="M420.56,273.33h6.53a.84.84,0,0,0,0-1.67h-6.53a.84.84,0,0,0,0,1.67Z"/><path class="cls-15" d="M600,214c-2.25.19-1.73,3.36-.59,4.53,1.3,1.33,3.82,1.31,4.71-.48a4.48,4.48,0,0,0,.15-3c-.33-1.1-1.33-1.46-2.32-1.8s-2.12-.82-3.07-.17-1.29,2.07-1.5,3.09,1.4,1.51,1.62.45c.17-.82.36-2.3,1.41-2.12a6.7,6.7,0,0,1,1.49.5,1.12,1.12,0,0,1,.84,1.25c0,.93-.35,1.81-1.46,1.52-.76-.21-1.71-1.63-1-2.32l-.59.25.26,0c1.06-.09,1.07-1.76,0-1.67Z"/><path class="cls-15" d="M542.52,203.87c-2.25.19-1.72,3.37-.58,4.54,1.3,1.33,3.81,1.3,4.71-.48a4.64,4.64,0,0,0,.15-3c-.34-1.1-1.33-1.46-2.32-1.8s-2.12-.82-3.07-.16-1.29,2.06-1.5,3.09,1.4,1.5,1.61.45c.17-.83.37-2.31,1.41-2.13a7.14,7.14,0,0,1,1.5.5,1.12,1.12,0,0,1,.83,1.26c0,.93-.34,1.81-1.46,1.51-.75-.2-1.71-1.62-.94-2.31l-.6.24.26,0c1.07-.09,1.08-1.77,0-1.68Z"/><path class="cls-15" d="M473.51,237c-2.25.19-1.72,3.37-.58,4.53a3,3,0,0,0,4.71-.48,4.6,4.6,0,0,0,.15-3c-.34-1.1-1.33-1.46-2.32-1.8s-2.12-.82-3.07-.17-1.29,2.07-1.5,3.1,1.4,1.5,1.61.44c.17-.82.37-2.3,1.41-2.12a6.78,6.78,0,0,1,1.5.5,1.11,1.11,0,0,1,.83,1.25c0,.93-.35,1.81-1.46,1.52-.75-.21-1.71-1.63-1-2.32l-.59.25.26,0c1.07-.09,1.08-1.77,0-1.68Z"/><path class="cls-15" d="M824.82,404.51h-.67c1.48-81.57-.59-98-9-115.77l.6-.29C824.22,306.34,826.3,322.8,824.82,404.51Z"/><g class="cls-20"><path class="cls-30" d="M793.27,254.34l1.18.15,1.3.16c.5,0,1,.13,1.63.18s1.22.11,1.87.17,1.33.09,2,.13,1.4.07,2.12.05h1.07l1.08-.06c.73,0,1.43-.13,2.15-.15s1.4-.21,2.09-.27,1.34-.26,2-.35a5.59,5.59,0,0,0,.94-.18l.89-.2c.57-.13,1.15-.18,1.61-.33s.92-.22,1.28-.3c.74-.14,1.2-.2,1.2-.2a11,11,0,0,1-.68,1c-.24.31-.53.67-.89,1.08a9.91,9.91,0,0,1-1.32,1.2,10.72,10.72,0,0,1-1.74,1.23,18.72,18.72,0,0,1-2.15,1.07l-1.21.41a7.66,7.66,0,0,1-1.27.34,16.84,16.84,0,0,1-2.66.35l-1.35,0c-.45,0-.89-.08-1.33-.12a14.71,14.71,0,0,1-2.53-.49c-.4-.1-.79-.25-1.17-.38a11.6,11.6,0,0,1-1.08-.44,14.81,14.81,0,0,1-1.87-1,13.15,13.15,0,0,1-1.44-1.08,11.57,11.57,0,0,1-1-1A6,6,0,0,1,793.27,254.34Z"/></g><path class="cls-7" d="M407.06,547.71H407a.73.73,0,0,1-.67-.79c0-.36,2.92-36.39,7.31-72.59,2.58-21.27,5.17-38.44,7.7-51,4.32-21.58,7.51-25.18,9.53-26a.72.72,0,0,1,1,.4.74.74,0,0,1-.4,1c-10,4.11-20.45,108.5-23.63,148.37A.74.74,0,0,1,407.06,547.71Z"/><path class="cls-23" d="M642.58,382.36s-17.77-4.47-18.32-3.79-3.58,9.94-3.58,9.94h14.63l6.6,1.34H644Z"/><g class="cls-20"><path class="cls-23" d="M642.58,382.36s-17.77-4.47-18.32-3.79-3.58,9.94-3.58,9.94h14.63l6.6,1.34H644Z"/></g><polygon class="cls-23" points="600.92 527.77 606.12 515.58 600.87 516.66 593.77 523.71 591.52 527.25 596.64 530.5 600.92 527.77"/><path class="cls-14" d="M601.09,527.44s-.7,10.73-6.81,17.3c0,0-26-11.52-34.15-23.73,0,0,.61-4.8,3.49-5.84s19.81,6.78,30.21,8.4C593.83,523.57,592.15,527.16,601.09,527.44Z"/><path class="cls-24" d="M560.82,518.44c10.42,11,28,19.52,35.9,23a20.59,20.59,0,0,1-2.44,3.25s-26-11.52-34.15-23.73A12.22,12.22,0,0,1,560.82,518.44Z"/><path class="cls-15" d="M591.19,528.43a.21.21,0,0,0,.19,0,.22.22,0,0,0,.13-.28,14.32,14.32,0,0,0-5.47-6.71.24.24,0,0,0-.34,0,.21.21,0,0,0,.07.3h0l.05,0a14.17,14.17,0,0,1,5.28,6.48A.22.22,0,0,0,591.19,528.43Z"/><path class="cls-15" d="M587.68,527.17a.22.22,0,0,0,.21,0,.23.23,0,0,0,.1-.3,20.86,20.86,0,0,0-5.32-6.5.21.21,0,0,0-.31,0,.2.2,0,0,0,0,.3,20.26,20.26,0,0,1,5.19,6.36A.2.2,0,0,0,587.68,527.17Z"/><path class="cls-15" d="M584.32,525.17a.23.23,0,0,0,.25,0,.21.21,0,0,0,0-.3,37.36,37.36,0,0,0-5.06-5.57.22.22,0,0,0-.31,0,.21.21,0,0,0,0,.31,36,36,0,0,1,5,5.5Z"/><path class="cls-33" d="M672.66,436.49a72.22,72.22,0,0,0-26.75,4.44s6.76,26.09-42.49,82.52c0,0-2.49,1.86-8-4.07,0,0,25.78-68.34,36.07-99.17,0,0,20.17.42,68.36-6.18,0,0,8.29-19.43,16.72-25.27s11.76,11.12,11.76,11.12,8.58,22.76,7.35,32.46S697.43,437.08,672.66,436.49Z"/><path class="cls-34" d="M697.7,357.38S677,384,641,380.21l-1.55,10.34s55,7.25,68.86-11.19S710.9,350,710.9,350Z"/><path class="cls-7" d="M736.33,451.18a.75.75,0,0,1-.17-1.47c17-3.89,15.61-31.26,15.59-31.53a.74.74,0,0,1,.69-.79.76.76,0,0,1,.79.7c.07,1.17,1.52,28.9-16.74,33.07Z"/><path class="cls-7" d="M638.16,551.59H638a.74.74,0,0,1-.6-.86c0-.25,4.57-25.79,9.33-51,2.79-14.79,5.12-26.57,6.91-35,3.52-16.53,4.11-16.47,5-16.39a.74.74,0,0,1,.66.81.72.72,0,0,1-.37.57c-2.2,3.55-13.18,62.31-20.07,101.26A.75.75,0,0,1,638.16,551.59Z"/><path class="cls-7" d="M747.21,551.46a.75.75,0,0,1-.73-.65c-4.77-39.37-13.73-98.92-18.86-101.61a.74.74,0,1,1,.69-1.31c1.21.64,4.91,2.58,12.76,53.07,3.85,24.79,6.85,49.42,6.88,49.67a.74.74,0,0,1-.65.82Z"/><path class="cls-7" d="M652,477.16a.74.74,0,0,1,0-1.48l83.87-1.33a.73.73,0,0,1,.75.72.74.74,0,0,1-.73.75L652,477.16Z"/><path class="cls-4" d="M647.21,449.27c4-8.91,68.11-12.26,85.81-1.56C757.08,462.26,641.14,462.92,647.21,449.27Z"/><path class="cls-4" d="M757.67,349.17c9.84,5.11,6,65.36-8.58,80.13C729.32,449.37,742.59,341.34,757.67,349.17Z"/><polygon class="cls-23" points="630.91 533.24 628.28 520.25 624.57 524.11 622.72 533.94 622.87 538.14 628.93 537.91 630.91 533.24"/><path class="cls-14" d="M630.86,532.86s5.5,9.24,4.2,18.12c0,0-28,5.26-41.58-.19,0,0-2.23-4.31-.44-6.79s20.16-5.64,29.65-10.21C622.69,533.79,623.34,537.71,630.86,532.86Z"/><path class="cls-24" d="M592.58,548.28c14.85,3.19,34.15.2,42.64-1.36a19.78,19.78,0,0,1-.16,4.06s-28,5.26-41.58-.19A12,12,0,0,1,592.58,548.28Z"/><path class="cls-15" d="M623.26,539.29a.22.22,0,0,0,.12-.4,14.4,14.4,0,0,0-8.31-2.43c-.14,0-.27.1-.26.24a.24.24,0,0,0,.24.21h.05a14.11,14.11,0,0,1,8,2.35A.27.27,0,0,0,623.26,539.29Z"/><path class="cls-15" d="M619.66,540.25a.25.25,0,0,0,.18-.12.23.23,0,0,0-.08-.3,21,21,0,0,0-8.08-2.34.21.21,0,0,0-.23.21.22.22,0,0,0,.21.23,20.52,20.52,0,0,1,7.88,2.29Z"/><path class="cls-15" d="M615.76,540.5a.21.21,0,0,0,.19-.15.21.21,0,0,0-.13-.28,37.21,37.21,0,0,0-7.32-1.73.22.22,0,0,0-.24.2.21.21,0,0,0,.19.24,37.15,37.15,0,0,1,7.22,1.7Z"/><path class="cls-13" d="M705.52,449.75c-15.19-.36-55.6-8.82-55.6-8.82s15.28,21.89-18,89c0,0-1.93,2.44-8.74-1.9,0,0,2.37-77.81,12.66-108.64,0,0,20.45-2.54,68.64-9.14,0,0,7.72-15.62,16.15-21.46s11.76,11.12,11.76,11.12,8.58,22.76,7.35,32.46S730.29,450.34,705.52,449.75Z"/><path class="cls-14" d="M724.05,321s12.73-.63,18.29,19.07-7.06,69.13-7.06,69.13A68.72,68.72,0,0,1,699,410l3.35-44s-12.63-2.82-15.38-12.82c-1.31,0,5.35-13.08,18.81-30.77,4.51-5.93,8.34-2.72,8.34-2.72Z"/><path class="cls-23" d="M703.38,256.13s-22.07,11.33-21.45,35.1l6.71,1s-3.95,32.6,31.13,12.23,11.92-32.74,11.92-32.74-4.84-8.46-6.48-9.63S703.38,256.13,703.38,256.13Z"/><path class="cls-7" d="M697.83,237.89c-8.15-3.77-29.8,11.85-5.36,31.81s30.5,9.67,30.5,9.67S712.6,314,724.05,321c20.34,12.41,14.22,29.45,22.19,37.34,9.83,9.74,37.67,9.49,36-20.59-1.62-29.81-29-29-33.83-43-7.25-20.94,4.92-29.41-1.23-39.64C738.61,240.73,725.21,250.59,697.83,237.89Z"/><path class="cls-23" d="M714.73,283.6s3.21-9.5,8.09-5.14-1.53,16.2-8,13.57S714.73,283.6,714.73,283.6Z"/><path class="cls-23" d="M708.46,307.68a.09.09,0,0,0-.09.11c.32,1,2.81,9.52-1.89,13.6,0,0-12.07,14.6,8.59,7.5,13.68-4.7,9.07-7.9,9-7.94h0s-5-2.71-5.21-19.62c-4.78-.51-5.24,6.42-5.24,6.42C712.93,305.63,713.37,307.34,708.46,307.68Z"/><g class="cls-20"><path class="cls-23" d="M708.85,309.67a24,24,0,0,1,.39,2.61,49.36,49.36,0,0,0,10.42-1.14,56.76,56.76,0,0,1-.76-7.29A20.78,20.78,0,0,1,708.85,309.67Z"/></g><path class="cls-15" d="M629.18,530.61l-.62-.21c14.7-43.79,14.51-101.47,14.51-102V428l.38.06c.63.1,63.16,9.84,74.75,6.91,11.33-2.86,6.4-23.25,6.35-23.45l.63-.16c.22.86,5.15,21.23-6.82,24.25-11.37,2.87-68.87-5.94-74.63-6.84C643.72,433.87,643.28,488.61,629.18,530.61Z"/><path class="cls-14" d="M717.37,336.29s2.49,42.88-25.73,49.64S645,379.1,645,379.1l-1.63,10.3s41.85,30.16,71.87,18.49c31.24-12.14,18.55-69.78,18.55-69.78Z"/><path class="cls-23" d="M645,379.65c-.35-.44-10.19-6.5-15.33-8s-18.88,10.89-16.87,13.06,5.25-1.3,5.25-1.3-4.59,1.88-1.07,2,8.44-2.68,8.44-2.68,3.8.56,8.49.78S644,387.82,644,387.82,646,381,645,379.65Z"/><polygon class="cls-7" points="587.15 387.35 588.06 384.49 599.34 385.04 600.57 387.35 587.15 387.35"/><polygon class="cls-7" points="601.12 387.53 601.77 384.67 609.86 385.23 610.74 387.53 601.12 387.53"/><polygon class="cls-7" points="611.29 388.02 611.69 385.14 618.15 385.44 618.95 387.71 611.29 388.02"/><polygon class="cls-7" points="619.33 388.36 619.73 385.47 626.19 385.77 626.99 388.05 619.33 388.36"/><path class="cls-14" d="M640.27,390.81h-.06l-59.87-2-14.67-69.68a1.68,1.68,0,1,1,3.28-.69l14.13,67.11,57.24,1.92a1.68,1.68,0,0,1-.05,3.35Z"/><path class="cls-3" d="M570.61,388.38s5.14.6,3.87.76c-9.91,1.3-53.48,1.47-54.66,1-.64-.26-4.67-13.66-.25-18.28,1.76-1.85,44.54-2,53.16-.89,4.48.58-1.89.82-1.89.82C566.2,377.3,566.39,382.83,570.61,388.38Z"/><path class="cls-4" d="M525.34,359.41s-4.24-.38-3.19-.5c8.19-.92,44.21-1.26,45.18-1,.54.17,3.8,9.14.12,12.27-1.47,1.24-36.83,1.57-44,.87-3.69-.36,1.58-.56,1.58-.56C528.93,366.82,528.8,363.11,525.34,359.41Z"/><g class="cls-35"><path class="cls-6" d="M570.84,371.79s-4,8.1-.23,16.59l-28.28.54-22,.38a19.27,19.27,0,0,1-1.81-10.07c.61-5.53,1.36-6.88,1.36-6.88Z"/><rect class="cls-7" x="519.17" y="374.2" width="50.92" height="0.18" transform="translate(-8.07 12.03) rotate(-1.26)"/><rect class="cls-7" x="518.27" y="376.77" width="51.04" height="0.18" transform="translate(-0.59 0.86) rotate(-0.09)"/><rect class="cls-7" x="518.52" y="379.13" width="50.5" height="0.18"/><rect class="cls-7" x="517.78" y="381.93" width="51.15" height="0.18" transform="translate(-7.61 11.06) rotate(-1.16)"/><rect class="cls-7" x="518.74" y="385.01" width="50.55" height="0.18" transform="translate(-17.11 25.39) rotate(-2.63)"/><rect class="cls-7" x="519.61" y="387.24" width="50.3" height="0.18" transform="translate(-11.62 16.89) rotate(-1.76)"/></g><path class="cls-8" d="M527.31,379.14c0,.16-.25,5.45,1,8.37l1.5-1.53,2.52,2.83a36.54,36.54,0,0,0,1.07-9.68Z"/><g class="cls-36"><path class="cls-10" d="M525.07,370.54s3.37-5.45.27-11.13l23.38-.52,18.19-.37a10.81,10.81,0,0,1,1.44,6.75c-.53,3.71-1.16,4.62-1.16,4.62Z"/><path class="cls-10" d="M525.07,370.54s3.37-5.45.27-11.13l23.38-.52,18.19-.37a10.81,10.81,0,0,1,1.44,6.75c-.53,3.71-1.16,4.62-1.16,4.62Z"/><rect class="cls-7" x="526.26" y="360.6" width="41.25" height="0.18" transform="translate(-17.89 28.71) rotate(-2.96)"/><rect class="cls-7" x="526.59" y="362.72" width="41.68" height="0.18" transform="translate(-12.02 18.82) rotate(-1.95)"/><rect class="cls-7" x="526.62" y="364.94" width="42.54" height="0.18" transform="translate(-4.96 7.56) rotate(-0.79)"/><rect class="cls-7" x="526.3" y="366.79" width="42.23" height="0.18" transform="translate(-8.08 12.35) rotate(-1.28)"/><rect class="cls-7" x="525.84" y="368.66" width="42.77" height="0.18" transform="translate(-2.21 3.3) rotate(-0.34)"/></g><polygon class="cls-18" points="416.22 322.27 467.69 282.65 467.27 272.61 460.07 273.56 410.47 317.46 416.22 322.27"/><polygon class="cls-18" points="411.88 328.63 468.87 370.88 484.54 366.67 483.58 362.73 417.64 322.21 412.55 327.66 411.88 328.63"/><polygon class="cls-8" points="488.32 366.51 492.97 358.04 498.27 361.47 493.48 368.3 488.32 366.51"/><path class="cls-15" d="M501,291.39c1.37.88,9.34,6.61,3.26,13.8s-17-.85-17-.85Z"/><path class="cls-7" d="M446.05,387.1s3.5-23.31,30.15-24.68,30.89,23,30.89,23-35.7,2.7-36.4,2.85S446.05,387.1,446.05,387.1Z"/><polygon class="cls-18" points="440.92 386.08 442.46 394.47 512.16 390.79 513.26 381.82 440.92 386.08"/><path class="cls-7" d="M410.11,313.44a8.76,8.76,0,0,1,9.4,9.37,8.58,8.58,0,0,1-8.62,8.77c-3.91.16-8.71-2.47-9-8.69A8.71,8.71,0,0,1,410.11,313.44Z"/><path class="cls-7" d="M479.83,274.56c-.09-.24-10.32-16.49-18.32-8.36-7.78,7.89,9.63,19,9.63,19Z"/><path class="cls-17" d="M478.2,317.65l36.21-35s-23.55-22.88-42-6S478.2,317.65,478.2,317.65Z"/><path class="cls-7" d="M670.22,551.57a.74.74,0,0,1-.74-.74c-.23-56.39-10.66-138-16.81-155.29a.74.74,0,0,1,1.39-.49c6.19,17.36,16.66,99.26,16.9,155.78a.74.74,0,0,1-.74.74Z"/><path class="cls-7" d="M422.33,427.27a.74.74,0,0,1,0-1.48l236.55-.54h0a.74.74,0,0,1,0,1.48l-236.55.54Z"/><path class="cls-13" d="M410.19,401.33a2.36,2.36,0,0,1-.24-4.71c1.23-.13,125.31-12.94,261.44-4.42a2.36,2.36,0,1,1-.3,4.71c-135.71-8.49-259.41,4.28-260.65,4.41Z"/><path class="cls-13" d="M559.29,173.74a38.38,38.38,0,0,0-48,3l-52.32-37a8.17,8.17,0,0,0-9.42,13.35l40.91,28.9-.06.09,11.42,8.08a38.36,38.36,0,1,0,57.51-16.49Z"/><g class="cls-37"><path class="cls-15" d="M291.28,370.39l60.07-58L366.25,298l7.21-7c2.32-2.24,4.74-5.28,7.74-6.62,5.94-2.65,10.7,5.63,14.12,9.29a119.05,119.05,0,0,0,12.49,11.59,124.74,124.74,0,0,0,32.61,18.85,1.8,1.8,0,0,0,1.82-.48l75.84-91.16,8.52-10.24c1.71-2.05,3.41-4.1,5.12-6.14,1.5-1.81,3.67-5.86,6.66-4.86,1.58.53,3.32,2.72,4.51,3.87s2.45,2.41,3.66,3.63q4.37,4.42,8.56,9C565.41,239,575.18,250.7,586,261.47c11.83,11.83,25,22.44,40.49,29.09a1.92,1.92,0,0,0,2.27-.29,339.55,339.55,0,0,0,37.8-57l-2.56.67,28.35,17.8,13.61,8.54c4.55,2.86,9.05,6.16,13.92,8.46,7.77,3.68,14.49,1.06,19.88-5.16,5.9-6.81,11-14.47,16.23-21.81A705.84,705.84,0,0,0,816.22,139.6q14.43-29.94,26-61.12c.84-2.27-2.78-3.24-3.62-1a705.3,705.3,0,0,1-47.92,102.7q-13.79,24.24-29.45,47.34-7.9,11.65-16.28,23c-4.45,6-10.57,17.7-19.56,16.17-5.15-.88-9.88-4.84-14.21-7.56l-14.74-9.25-30.62-19.22a1.9,1.9,0,0,0-2.57.67,335.13,335.13,0,0,1-37.21,56.29l2.27-.29c-29.92-12.87-49.8-39.71-71.27-62.95-2.58-2.79-5.19-5.55-7.86-8.25s-5.51-6.23-8.92-8.08a6.17,6.17,0,0,0-7.49,1.07c-3.59,3.39-6.53,7.74-9.69,11.53q-19.61,23.57-39.2,47.12L439.59,321l1.82-.48a118.31,118.31,0,0,1-44.93-31.1c-3.25-3.62-6.58-8.7-11.86-9.32-5.61-.66-9.72,4.31-13.33,7.81l-15.38,14.84L324.19,333.4l-35.56,34.34c-1.74,1.68.91,4.32,2.65,2.65Z"/><path class="cls-15" d="M533.24,198.36c-5,.42-3.86,7.52-1.31,10.14,2.9,3,8.53,2.92,10.53-1.08a10.19,10.19,0,0,0,.34-6.72c-.75-2.46-3-3.26-5.19-4s-4.74-1.84-6.87-.38-2.88,4.63-3.35,6.92,3.13,3.37,3.61,1c.38-1.84.81-5.15,3.15-4.75a15.92,15.92,0,0,1,3.35,1.13,2.5,2.5,0,0,1,1.87,2.8c0,2.08-.78,4-3.27,3.38-1.69-.45-3.82-3.63-2.12-5.17l-1.32.55.58,0c2.38-.21,2.41-4,0-3.75Z"/><path class="cls-8" d="M503.84,191.54l9.43-13.34-54.34-38.39a8.16,8.16,0,0,0-11.38,2h0a8.16,8.16,0,0,0,2,11.39l40.91,28.9-.06.09,13.33,9.42.06-.09Z"/><g class="cls-38"><path class="cls-39" d="M517.9,232.32a33.21,33.21,0,1,0-9.09-9.63A33.13,33.13,0,0,0,517.9,232.32Z"/></g><path class="cls-40" d="M505.82,182.94a38.36,38.36,0,1,0,53.47-9.2A38.35,38.35,0,0,0,505.82,182.94Zm-1.26,15a33.52,33.52,0,1,1-.28,12.79A33.08,33.08,0,0,1,504.56,197.94Z"/><path class="cls-8" d="M505.82,182.94a38.36,38.36,0,1,0,53.47-9.2A38.35,38.35,0,0,0,505.82,182.94Zm-1.26,15a33.52,33.52,0,1,1-.28,12.79A33.08,33.08,0,0,1,504.56,197.94Z"/><g class="cls-41"><path class="cls-15" d="M519.32,185a2,2,0,0,0,2.34-.05,25.54,25.54,0,0,1,19.47-4.9,25.21,25.21,0,0,1,10.61,4.34A2,2,0,1,0,554,181.2a29.38,29.38,0,0,0-34.76.65,2,2,0,0,0-.37,2.76A2.13,2.13,0,0,0,519.32,185Z"/></g><g class="cls-41"><path class="cls-15" d="M510.5,196.68a1.78,1.78,0,0,0,.41.22,2,2,0,0,0,2.56-1.1,25.81,25.81,0,0,1,2.87-5.29,2,2,0,1,0-3.22-2.28,29.67,29.67,0,0,0-3.32,6.11A2,2,0,0,0,510.5,196.68Z"/></g></g></g></g></svg>