<svg xmlns="http://www.w3.org/2000/svg" viewBox="0 0 369 248"><defs><style>.cls-1{isolation:isolate;}.cls-2{mix-blend-mode:multiply;}.cls-3{fill:#eff0f0;}.cls-4{fill:#2580b3;}.cls-5{fill:#77ccfd;}.cls-6{fill:#fff;}.cls-7{fill:#fda93b;}.cls-8{fill:#fd643b;}.cls-9{fill:#29495c;}.cls-10{fill:#fdcb87;}.cls-11{fill:#133d54;}.cls-12{fill:#1e3947;}.cls-13{fill:#ced1d2;}.cls-14{fill:#195578;}.cls-15{fill:#e35b36;}.cls-16{fill:#f5921e;}.cls-17{fill:#babcbe;}.cls-18{fill:#1f3340;}.cls-19{fill:#fdbf3b;}.cls-20{fill:#518fb6;}.cls-21{fill:#6c7173;}.cls-22{fill:#154965;}.cls-23{fill:#845413;}.cls-24{fill:#14262e;}.cls-25{fill:#fc803b;}.cls-26{fill:#ffdbaf;}.cls-27{fill:#94bbd2;}.cls-28{fill:#fdefde;}.cls-29{fill:#329ad7;}.cls-30{fill:#38b6ff;}.cls-31{fill:#b6e3fd;}.cls-32{fill:#f4d39e;}.cls-33{fill:#fd653b;}.cls-34{fill:#fd7c3a;}.cls-35{fill:#407592;}</style></defs><g class="cls-1"><g id="Layer_1" data-name="Layer 1"><g class="cls-2"><ellipse class="cls-3" cx="185.88" cy="192.28" rx="157.88" ry="21.98"/></g><path class="cls-4" d="M300.27,91.08c4.65-1,9-6.11,9-6.11l6.83,3.9L320.84,75l-11.12,1c-1.1-4.08-5.32-9.08-5.32-9.08L313.9,62,301.36,51.78l-3,11c-5-.91-10.63,2.71-10.63,2.71l-3.53-10.14-12,10.86,10.35,5.67c-.84,2.35-.65,6.69-.65,6.69l-10.59.66,4.31,11.22,8.5-4.19c2.63,4.69,8.34,5.9,8.34,5.9l-.05,9.21,13.6-2.65ZM287,81.44a8.56,8.56,0,0,1,5.44-11.55c4.83-1.26,8.6,0,10.7,2.6,3.05,3.76,3.49,11.11-2.68,14.08C293.74,89.77,288.91,86.49,287,81.44Z"/><path class="cls-5" d="M269.06,95.69c.28-7.52-5.56-13.64-5.56-13.64l8.72-8.83L253,60.3,250,77.65c-6.67,0-16,4.44-16,4.44l-3.67-16.5-20.59,15,15.53,9c-3.44,7.31-.19,17.31-.19,17.31l-16.89,1.27,11.7,22.71,12.85-13.49c3.24,2.24,9.93,3.7,9.93,3.7l-3.28,16.42,18.85-2-2.94-14.67c8.22-2.1,12.38-10.31,12.38-10.31l14,3.81,1.47-21.81Zm-20.19,15.68a10.55,10.55,0,0,1-12-10.14c0-6.15,2.73-10.25,6.48-11.92,5.46-2.44,14.35-.64,15.93,7.65C260.94,105.93,255.51,110.64,248.87,111.37Z"/><path class="cls-6" d="M240.1,115c-7.71-4.07-8.14-15.06-8.16-15.53,0-.09-.81-11.93,12.44-14.75,4.51-1,8.43-.58,11.66,1.12,4.2,2.21,7.19,6.85,8,12.41a16.29,16.29,0,0,1-3.95,12.42c-2.31,2.66-6.59,5.83-13.85,5.78A13.16,13.16,0,0,1,240.1,115Zm15.39-28.12c-3-1.57-6.63-1.91-10.87-1-12.25,2.6-11.52,13.43-11.51,13.54s.44,10.81,7.54,14.55a12,12,0,0,0,5.6,1.32c6.82,0,10.81-2.9,13-5.38a15.09,15.09,0,0,0,3.67-11.48C262.6,96.45,261.22,89.88,255.49,86.86Z"/><path class="cls-7" d="M192.6,106.82h0a1.22,1.22,0,0,0,.85-1.5l-2.94-10.75a1.21,1.21,0,0,0-1.49-.85h0a1.21,1.21,0,0,0-.85,1.49L191.11,106A1.22,1.22,0,0,0,192.6,106.82Z"/><path class="cls-7" d="M178.72,110.61h0a1.23,1.23,0,0,0,.86-1.49l-2.94-10.76a1.23,1.23,0,0,0-1.5-.85h0a1.23,1.23,0,0,0-.85,1.49l2.94,10.76A1.21,1.21,0,0,0,178.72,110.61Z"/><path class="cls-8" d="M198,108.85s5.81,15.48-8.93,19.52c-10.09,2.77-14.22-13.77-14.22-13.77Z"/><rect class="cls-9" x="172.81" y="106.89" width="26.65" height="8.26" transform="translate(394.95 169.03) rotate(164.71)"/><rect class="cls-8" x="187.02" y="126.58" width="7.33" height="4.86" transform="translate(-27.27 54.85) rotate(-15.29)"/><path class="cls-9" d="M28.87,94.51a2.34,2.34,0,0,0-3.39.95c-.59,1.31-.57,3.34,1.09,3.8,1.51.43,2.75-.74,3.26-2.06A2.22,2.22,0,0,0,29.74,95c-.65-.84-1.73-.79-2.62-1.18-.6-.26-1.12.62-.52.88.87.38,2.45.34,2.44,1.58a2.34,2.34,0,0,1-1.57,2c-1.32.26-1.44-1.13-1.17-2.08a1.31,1.31,0,0,1,2.05-.83c.56.36,1.07-.52.52-.88Z"/><path class="cls-9" d="M25.71,134.14a17.84,17.84,0,0,0,3.93-.2c.64-.1.37-1.09-.28-1a16.52,16.52,0,0,1-3.65.17c-.66,0-.65,1,0,1Z"/><path class="cls-9" d="M28.19,135.57a17.79,17.79,0,0,0-.21-3.93c-.1-.65-1.08-.37-1,.27a17.22,17.22,0,0,1,.17,3.66c0,.65,1,.65,1,0Z"/><path class="cls-10" d="M176.85,168.79a24.56,24.56,0,0,0,.1,5.68c.44,2.27,4.89,17.91,4.61,18.74s-2.68,1.15-2.68,1.15c-.67.72,4.42.45,4.27-.32a52.19,52.19,0,0,1-.33-11.17c.36-6.47-1.75-9.39-1.78-10.11s3-8,3-8a19.22,19.22,0,0,0,.82-2.08c0-.16-7.81,4.88-7.81,4.88Z"/><path class="cls-10" d="M170.58,169.07a24.64,24.64,0,0,0,.1,5.69c.44,2.27,4.89,17.91,4.61,18.73s-2.65,1.16-2.65,1.16c-.66.71,4.39.44,4.24-.33a52.12,52.12,0,0,1-.33-11.16c.36-6.47-1.75-9.39-1.78-10.11s3-8,3-8a19.22,19.22,0,0,0,.82-2.08c0-.16-7.81,4.87-7.81,4.87Z"/><path class="cls-11" d="M173.6,153.38A49.15,49.15,0,0,0,169,169.66s8.1,5.44,17,.18c0,0,1.94-11.67-2.68-16.82l-4.52.44-1.25-1-2.25.36Z"/><path class="cls-12" d="M190.16,140.48c.06.05,3.37,11.69-8.76,10.45L180.1,148l1.58-2.91c.12-.19,2-1.78,2.32-2.11S190.16,140.48,190.16,140.48Z"/><path class="cls-10" d="M173,117.22c.57-.37.51-.56.88-.78.64-.39,1.64-.61,1.71-.92s-.47-.31-.79-.28c-.47.05-.74.28-.81.18a13.82,13.82,0,0,1,.93-2.62c.27-.51-.16-1-.46-.45s-.81,1.81-.85,1.81.39-1.85.45-2.06c.24-.75-.37-1.15-.62-.2a11.24,11.24,0,0,1-.52,2,7.15,7.15,0,0,1,.11-1.8c.09-.69-.41-1.06-.59-.15-.25,1.32-.19,1.89-.26,1.85a6.08,6.08,0,0,1-.11-1.31c0-.59-.54-.78-.53.12a9.36,9.36,0,0,1,0,1.45,4.76,4.76,0,0,0-.24,2.64A1.49,1.49,0,0,0,173,117.22Z"/><path class="cls-10" d="M172.85,116.93a7.62,7.62,0,0,0-.91,1.94l-.91,0a10.61,10.61,0,0,0,.5-2.64l1.05-.1Z"/><path class="cls-10" d="M196.28,126.91c-.4-.56-.27-.71-.53-1.06-.45-.6-1.31-1.17-1.26-1.48s.55-.12.84,0,.59.53.69.46a14.25,14.25,0,0,0,.1-2.77c-.07-.58.51-.88.59-.26.1.78.08,2,.12,2s.32-1.86.34-2.08c.05-.79.77-.93.65,0a11.11,11.11,0,0,0-.25,2.06,7.1,7.1,0,0,0,.55-1.72c.17-.67.78-.82.61.08-.25,1.33-.52,1.83-.44,1.82a5.6,5.6,0,0,0,.59-1.18c.24-.53.79-.52.45.31a9.53,9.53,0,0,0-.56,1.34A4.71,4.71,0,0,1,198,127,1.5,1.5,0,0,1,196.28,126.91Z"/><path class="cls-10" d="M196.5,126.68a7.4,7.4,0,0,1,.14,2.14l.84.37a10.68,10.68,0,0,1,.49-2.64l-.93-.47Z"/><path class="cls-10" d="M178.87,135.14a4.78,4.78,0,0,1-2.13,3.71c-2.12,1.39,1.16,2.77,1.16,2.77l3.74.42,1.08-3.43-.8-3.72Z"/><g class="cls-2"><path class="cls-10" d="M182.44,137.3l-.51-2.39h-.1l-.36,0-2.05.4-.58.16a5,5,0,0,1-.49,1.56A6.53,6.53,0,0,0,182.44,137.3Z"/></g><path class="cls-10" d="M179,125.74s-3,2.82-3.65,5.37a2.55,2.55,0,0,0,1.15.48s-3.42,6.73,5.74,4.85l3.2-3.13s2.11-2.71,1.33-4.05a16.9,16.9,0,0,0-1.92-2.57l-4.36-1.15Z"/><path class="cls-12" d="M178.52,126.21a13.18,13.18,0,0,0,2.07,3.61,5.88,5.88,0,0,0,3.18,1.54s-3.42,5.54-2.09,7.49,6.11,2.14,6.11,2.14l2.77-1.3-1-1.19s-2-1.78-1.54-3.69,2.39-5.28-1.16-8-5.13-6.27-7.69-5.5A4.43,4.43,0,0,0,177,128S178.15,126.59,178.52,126.21Z"/><path class="cls-3" d="M175.13,153.34a6.19,6.19,0,0,0,4.09.06c2-.77,0-3.19,0-3.19l4.38-8.76-2-2.6s-6,5.22-4.64-.21l-2.73,2.21,0,4.05.9,4.81Z"/><path class="cls-13" d="M177,145.74s2.15,1.29,3.78-.12l-.62,1.58S178.53,148.09,177,145.74Z"/><path class="cls-14" d="M177,138.64s-6.27-3-4.3-20.32a2.47,2.47,0,0,0-2.14-.09s-3.51,13.59,2.49,22.89a16.57,16.57,0,0,0-1.46,2.59A2.84,2.84,0,0,0,173,147s1,3.2.63,4.72-.89,1.58-.83,1.84a3.72,3.72,0,0,0,3.5.59S173.86,144.13,177,138.64Z"/><path class="cls-14" d="M196.22,128.12s1.82-.3,2.36,1c0,0-1.76,6.9-6.51,10.9-5,4.18-8.88,6.08-9.15,6.76s-1.79,3.69-1.11,4.5,2.28,1.88,2.28,2.14-5.83,1.5-6.18.58-.21-10.49,3.77-15.12c0,0,1.64,1.45,3.07,1.1S192.32,137.53,196.22,128.12Z"/><path class="cls-10" d="M182.63,131.4a1.28,1.28,0,0,1,1.45-.46c.86.35.06,3.17-1.78,2.56l-1.14-1.39Z"/><path class="cls-15" d="M176.8,193.68a4.69,4.69,0,0,1,.62,1.45s-5.34,1.63-7.47.36,2.69-.84,2.69-.84C172.19,195.3,176.8,193.68,176.8,193.68Z"/><path class="cls-15" d="M183,193.39a4.84,4.84,0,0,1,.61,1.46s-5.33,1.63-7.46.36,2.69-.85,2.69-.85C178.43,195,183,193.39,183,193.39Z"/><path class="cls-9" d="M142.07,203.72a40.68,40.68,0,0,1-14-2.26,26.3,26.3,0,0,1-17.75-28c.6-4.78,2.6-8.84,5.49-11.15a20,20,0,0,1,9.61-4.14,126.44,126.44,0,0,1,.56-14.59l1.89.21a117.91,117.91,0,0,0-.55,14.18A24.45,24.45,0,0,1,138,159.65c4.86,2,8,5.32,8.42,8.87.25,2.14-.4,5.37-4.88,8.58-3.88,2.78-7.19,3.41-9.83,1.87-3.69-2.16-5.79-8.52-6.24-18.92a18,18,0,0,0-8.48,3.71c-4.86,3.88-7,14.27-2.44,23.56,3,6.19,13.41,19.78,43.8,12.33,12.6-3.1,21.87-9.6,27.55-19.34,6.18-10.61,7-23.23,6.55-31.95A84,84,0,0,0,190,131.72l1.83-.52a83.78,83.78,0,0,1,2.52,17c.44,9-.38,22-6.8,33-6,10.21-15.62,17-28.75,20.24A70.85,70.85,0,0,1,142.07,203.72Zm-14.66-43.89c.34,7.75,1.69,15.39,5.29,17.49,1.93,1.13,4.55.53,7.77-1.77,2.94-2.11,4.36-4.47,4.09-6.82-.33-2.8-3.1-5.61-7.25-7.32A22.58,22.58,0,0,0,127.41,159.83Z"/><path class="cls-14" d="M305.2,189.93c-5.66,2.83-14.16,4.09-25.09,0-3.36-1.26-8.88-6.43-7.68-9.85s5.68-2.07,5.68-2.07S260.22,164.82,266,158.69c4.62-4.88,15,6.74,15,6.74s-23.34-31.25-9.48-39.25c16-9.22,28.34,30.12,28.34,30.12s-2.91-13,2.73-13.82S326.53,165.69,305.2,189.93Z"/><path class="cls-6" d="M294.77,189.94l-.74,0c.79-17.4-4.34-32.2-8.79-41.55a83.54,83.54,0,0,0-9.94-16.27l.57-.47a84.64,84.64,0,0,1,10,16.42C290.39,157.47,295.57,172.39,294.77,189.94Z"/><path class="cls-6" d="M294.18,180.73c-8.84-2.18-23.24-16.64-23.85-17.26l.52-.51c.15.15,14.87,14.93,23.51,17Z"/><path class="cls-6" d="M293.73,187.41c-7.11,0-14.26-3.34-14.34-3.38l.32-.67c.07,0,7.08,3.31,14,3.31h.75l0,.73Z"/><path class="cls-6" d="M294.56,184.06l-.15-.72c5.2-1.07,8.93-3.63,11.11-7.62,5.5-10.09-.65-26.16-.71-26.32l.69-.27a53,53,0,0,1,2.48,9.5c.81,5,1.15,12-1.81,17.44C303.88,180.26,300,183,294.56,184.06Z"/><path class="cls-16" d="M298.76,187.29c1.94,2.62,4.9,4.24,12.52,2.87,2.51-.46,8-2.68,7.1-7.32s-6.34.29-6.34.29,16-21.52,5.93-25.9c-10.71-4.64-13.6,19.25-13.6,19.25s-.74-3.32-3-3C298.68,173.75,293.78,180.59,298.76,187.29Z"/><path class="cls-6" d="M304.9,188.27l-.38-.3c.07-.09,7.45-9.54,11-25.54l.47.11C312.41,178.65,305,188.18,304.9,188.27Z"/><path class="cls-6" d="M309.25,187a16.56,16.56,0,0,1-3.36-.37l.1-.47c5.2,1.08,7.32-.63,7.34-.64l.31.36C313.57,185.93,312.28,187,309.25,187Z"/><path class="cls-6" d="M305.39,187.24c-5.88-3.17-4.33-10.12-4.31-10.19l.46.11c0,.06-1.47,6.67,4.07,9.66Z"/><path class="cls-13" d="M309.34,191.22c-1.85-1.81-3.35-3.93-6.11-3.93s-8.31,1.08-9.17,2.24-4.11,5.35-.35,6.7S314.42,196.19,309.34,191.22Z"/><path class="cls-17" d="M297.15,192a47.34,47.34,0,0,0,6.87,1.1,4.24,4.24,0,0,0,4-3.25c.44.45.88.92,1.34,1.37,5.08,5-11.86,6.36-15.63,5-2.2-.79-2-2.56-1.28-4.12h0C293.28,191.69,294.24,191.5,297.15,192Z"/><path class="cls-5" d="M59.84,190.85c-10.9-1-20.46-13.61-20.46-13.61s-5.69-14.63-.27-16.44,9.37,7,9.37,7-10-50.15,8.9-45c22.49,6.09,14.39,38.69,14.39,38.69s12.17-11.81,17-3.78C94,166.49,83,193,59.84,190.85Z"/><path class="cls-6" d="M52.92,187l-.89-.59s3.31-5.06,5.6-14.4c2.12-8.62,3.81-22.8-.16-41.39l1-.22c4,18.81,2.3,33.18.14,41.92C56.31,181.8,53.06,186.77,52.92,187Z"/><path class="cls-6" d="M55,181.57c-9.63-5.36-12.12-13.38-12.22-13.72l1-.31-.51.15.51-.15c0,.08,2.49,8,11.72,13.1Z"/><path class="cls-6" d="M61.44,178.91a18.4,18.4,0,0,1-5.06-.71l.29-1c6.33,1.81,12.11-.41,15.84-2.59a31.62,31.62,0,0,0,6.72-5.28L80,170a31.56,31.56,0,0,1-6.94,5.47A23.08,23.08,0,0,1,61.44,178.91Z"/><path class="cls-13" d="M56.13,180.11c3.95,9.27-3.23,17.23-14.78,13.64s-13-15-7.72-17.89S51.35,168.87,56.13,180.11Z"/><path class="cls-17" d="M35.64,174.87c-1.93,2.42-3.13,5-1.21,6.51,4.32,3.37,4.63.48,9.4,4.83s11.63,3.42,12.8,2.33c-1.8,4.85-7.57,7.61-15.28,5.21-11.55-3.58-13-15-7.72-17.89C34.22,175.54,34.9,175.2,35.64,174.87Z"/><path class="cls-13" d="M291.37,179.85c8.17,8.45,3.67,20.09-10.39,21S260.59,190,265.12,184.61,281.49,169.62,291.37,179.85Z"/><path class="cls-17" d="M266.89,182.69c-1.09,3.44-1.32,6.77,1.4,7.6,6.11,1.86,5.24-1.42,12.24,1.34s14.08-1.13,14.9-2.81c.06,6-5.06,11.43-14.45,12-14.07.91-20.39-10.89-15.86-16.25C265.63,184,266.22,183.36,266.89,182.69Z"/><path class="cls-10" d="M96.94,133s.47,1.15,1.15,1.39,1.87-.68,1.87-.68l-1.08-1.12-1.16.27Z"/><rect class="cls-10" x="81.12" y="193.99" width="2.03" height="3.6"/><rect class="cls-10" x="88.21" y="193.99" width="2.03" height="3.6"/><path class="cls-11" d="M80,150.93s1,13.5.7,23.08-.33,20.76-.33,20.76a9.69,9.69,0,0,0,4.07-.14s4-21.52,3.35-35.5c0,0-.15-.28.91-.07a212.39,212.39,0,0,1-1,35.64s2.15.81,3.35-.09c0,0,8-29.32,2.2-42.77l-12.87-.91Z"/><path class="cls-18" d="M87.57,196.8a9.93,9.93,0,0,0-.31,1.89,11.12,11.12,0,0,1,2.44,0c.26.18.46,1,.46,1h5.89a1.07,1.07,0,0,0-.7-1.17c-.81-.23-3-.45-3.61-1.31s-.84-1.05-1.2-.95-.53.56-.53.56A5.84,5.84,0,0,1,87.57,196.8Z"/><path class="cls-18" d="M87.12,198.65a11.24,11.24,0,0,1,2.52,0,4.66,4.66,0,0,1-.14,1l-2.38,0S87,198.7,87.12,198.65Z"/><path class="cls-18" d="M93.12,198a4.13,4.13,0,0,1-1.66,0A2.21,2.21,0,0,1,90,196.83c-.16-.46.46-1.16,1-.53A4,4,0,0,0,93.12,198Z"/><path class="cls-18" d="M80.74,196.8a9.93,9.93,0,0,0-.31,1.89,11.12,11.12,0,0,1,2.44,0c.26.18.46,1,.46,1h5.89a1.07,1.07,0,0,0-.7-1.17c-.81-.23-3-.45-3.61-1.31s-.84-1.05-1.2-.95-.53.56-.53.56A5.84,5.84,0,0,1,80.74,196.8Z"/><path class="cls-18" d="M80.29,198.65a11.24,11.24,0,0,1,2.52,0,4.66,4.66,0,0,1-.14,1l-2.38,0S80.17,198.7,80.29,198.65Z"/><path class="cls-18" d="M86.29,198a4.13,4.13,0,0,1-1.66,0,2.21,2.21,0,0,1-1.45-1.21c-.16-.46.46-1.16,1-.53A4,4,0,0,0,86.29,198Z"/><path class="cls-19" d="M93.73,152.73a8.78,8.78,0,0,1,.43,1.43c0,.16-8,2-14,0L80,152l6.58,1.56,3.69-.21Z"/><path class="cls-10" d="M79,153.64c.14.15,3.4.06,5.67.89,1.48.54.37,1.08-.37.76a8.8,8.8,0,0,0-2.31-.35c-.11.06,2.21.8,3,1.3s.31,1.13-.43.79a22.55,22.55,0,0,0-2.92-1.23,19.44,19.44,0,0,0,2.5,2c.39.23.32,1.12-.58.52s-2.34-1.65-2.37-1.68a9.91,9.91,0,0,0,1.2,1.61c.74.84-.21,1-.9.19a23,23,0,0,1-2.06-2.57,3.87,3.87,0,0,1-.46-1.55Z"/><path class="cls-10" d="M85.86,129.34a5,5,0,0,0,1.52,4.16L85.83,135l-4-1.67a10,10,0,0,0-.44-6.33C80,124.15,85.86,129.34,85.86,129.34Z"/><g class="cls-2"><path class="cls-10" d="M82.13,130.83a8.6,8.6,0,0,0-.53-3.29l2.6.41c.91.72,1.66,1.39,1.66,1.39a5.08,5.08,0,0,0,.14,1.87C85.38,131.47,84.18,131.66,82.13,130.83Z"/></g><path class="cls-14" d="M68.79,142.19c4.23-6.38,12-9.23,12-9.23l1.41-.46.12,1.17,0-.5c4.2,2.14,4.36.17,4.36.17l-.2-.65a14.73,14.73,0,0,1,5.22,1.88c3,1.68,6.82,5.05,8.49,5.05,2.79,0-2.77-5.64-2.77-5.64-.43-.4,2.9-.29,2.9-.29,16.42,13.09-.58,13.5-7,7.75l1.09,11.42c-9,3.19-15.2-.49-15.2-.49.15-1.51.49-10.45.11-11.15s-3.79-.53-5.34,2.23c-2.26,4,5.82,10.18,5.82,10.18.27,2.11-.52,2.57-.52,2.57S64.54,148.58,68.79,142.19Z"/><path class="cls-20" d="M82.08,131.43l-1.43,1.36a11.53,11.53,0,0,0,5,3.12l.51-1.89S82.37,132,82.08,131.43Z"/><path class="cls-20" d="M86.07,131.43a10.68,10.68,0,0,1,.09,2.59l1,1.63a5.75,5.75,0,0,0,.18-2A6,6,0,0,0,86.07,131.43Z"/><path class="cls-21" d="M89.85,123a1.71,1.71,0,0,1-.47-1.17v-.08l3.26-.22v.07a1.74,1.74,0,0,1-.31,1.22,1.62,1.62,0,0,1-1.21.56A1.66,1.66,0,0,1,89.85,123Zm-.31-1.1a1.57,1.57,0,0,0,.43,1,1.42,1.42,0,0,0,1.15.33,1.44,1.44,0,0,0,1.09-.49,1.51,1.51,0,0,0,.29-1Z"/><path class="cls-10" d="M88.21,118A12,12,0,0,1,91.5,125a6.07,6.07,0,0,1-1.22.28s.2,2.89-1.92,4-5.45,1.76-7.66-3.74L80,123.23l1.87-2.5s5-1.64,5.07-1.7S88.21,118,88.21,118Z"/><path class="cls-22" d="M90,120.38s3.45-4.24-.69-6.39c-2.86-1.48-4.17,1.26-5.94,2s-4,.24-5.15,3.1,1.74,6.94,2.29,8a2.3,2.3,0,0,1,.27,1.8,3,3,0,0,0,1.13-3.51c-.9-2.1.3-2.58.3-2.58s6.84-.5,6.37-4.46A11.11,11.11,0,0,1,90,120.38Z"/><path class="cls-23" d="M90.29,125.63a1,1,0,0,0-1.47-.31c-1,.5-1.38,1.46-2.16,1.43a2.36,2.36,0,0,1-1.14-.28s.45,2,2.14,1.7A4.52,4.52,0,0,0,90.09,127,1.72,1.72,0,0,0,90.29,125.63Z"/><path class="cls-23" d="M90,126.88s.22,1.28.76.83.47-1.86-.42-2.08S90,126.88,90,126.88Z"/><path class="cls-9" d="M86,126.84a7.94,7.94,0,0,1-2.7-4.28l-.79-.07.54,1s.91,4.46.09,6.19a4.6,4.6,0,0,0,4.44,2.12c3.78-.34,2.7-5.8,2.7-5.8l-1.08.33L87,127.1Z"/><path class="cls-21" d="M87.33,123.12a1.64,1.64,0,0,1-.47-1.17v-.07l3.26-.23v.08a1.76,1.76,0,0,1-.31,1.22,1.9,1.9,0,0,1-2.49.17ZM87,122a1.55,1.55,0,0,0,.42,1,1.51,1.51,0,0,0,1.16.33,1.44,1.44,0,0,0,1.09-.49,1.47,1.47,0,0,0,.28-1Z"/><path class="cls-24" d="M86.66,126.75c.78,0,1.12-.93,2.16-1.43a1,1,0,0,1,1.47.31c.89.22.95,1.64.42,2.08s-.62-.28-.71-.62a4.91,4.91,0,0,1-2.34,1.08c-1.69.33-2.14-1.7-2.14-1.7A2.36,2.36,0,0,0,86.66,126.75Z"/><path class="cls-21" d="M87,122s-2.31.42-4,.7"/><path class="cls-21" d="M83,122.73c1.68-.28,4-.69,4-.7l0-.16s-2.38.43-4,.71Z"/><line class="cls-21" x1="90.7" y1="121.69" x2="89.93" y2="121.75"/><rect class="cls-21" x="89.93" y="121.64" width="0.77" height="0.16" transform="translate(-8.25 6.58) rotate(-3.99)"/><path class="cls-10" d="M83,122.65a1.65,1.65,0,0,0-1.54-.49c-1,.21-.3,3.55,1.9,3Z"/><path class="cls-7" d="M101.42,118.14l-.53-.34s-2.51,4.42-5,6-3,1.54-2.92,2.08a12.88,12.88,0,0,0,2.34,4,31.23,31.23,0,0,1,2.93-1.75,76.53,76.53,0,0,1,7.76-1.66l-2.33-4.5Z"/><path class="cls-7" d="M98.58,127.57s3.58,6.56,3.67,6.9-1.21,1.71-1.87,1-3.94-7.24-3.94-7.24Z"/><path class="cls-5" d="M95.94,123.78l.32-.23A21.34,21.34,0,0,1,98.88,128a6,6,0,0,0-.59.19,31.23,31.23,0,0,0-2.93,1.75,12.88,12.88,0,0,1-2.34-4C92.92,125.32,93.49,125.34,95.94,123.78Z"/><path class="cls-25" d="M95.94,123.78l.32-.23A21.34,21.34,0,0,1,98.88,128a6,6,0,0,0-.59.19,31.23,31.23,0,0,0-2.93,1.75,12.88,12.88,0,0,1-2.34-4C92.92,125.32,93.49,125.34,95.94,123.78Z"/><path class="cls-5" d="M102.22,122.89c1.43,2.4,3.17,4,3.89,3.58s.14-2.72-1.29-5.12-3.16-4-3.88-3.58S100.8,120.49,102.22,122.89Z"/><path class="cls-26" d="M102.22,122.89c1.43,2.4,3.17,4,3.89,3.58s.14-2.72-1.29-5.12-3.16-4-3.88-3.58S100.8,120.49,102.22,122.89Z"/><path class="cls-25" d="M102.43,123.19h0c-.06-.1-.12-.21-.19-.31s-.28-.49-.4-.73C102.26,121.87,104.17,121.83,102.43,123.19Z"/><path class="cls-10" d="M99,131.84c.55,1.51-1.31,2.46-1.9,1.39a2.79,2.79,0,0,1,.36-3.06c.58-.53,2-2.11,2.53-1.24C100.14,129.27,98.35,130.17,99,131.84Z"/><path class="cls-10" d="M100.13,129.5c.34-.19.82-.46,1,.09s-.61,1.16-1.44,1.1C99.37,130.67,99.3,130,100.13,129.5Z"/><path class="cls-10" d="M101.38,132.09c.29-.16.69-.38.84.08s-.51,1-1.2.92C100.75,133.07,100.69,132.48,101.38,132.09Z"/><path class="cls-10" d="M101,131.27c.34-.19.83-.46,1,.1s-.61,1.16-1.43,1.1C100.26,132.45,100.19,131.74,101,131.27Z"/><path class="cls-10" d="M100.61,130.32c.4-.21,1-.5,1.16.08s-.73,1.24-1.68,1.19C99.72,131.57,99.65,130.82,100.61,130.32Z"/><path class="cls-7" d="M118.24,121.82c2.51,3.53,15.1,4.28,18.81.94s-.25-7.67,6-17.75,13-7.77,14.33-28.1-21.71-26.69-30.7-26.76-29.36,7-29.55,29.66c-.13,16.46,11.32,17.37,16.47,25.28S115.41,117.84,118.24,121.82Z"/><path class="cls-27" d="M117.41,124.14c0,.3,12.75,3.81,20.85.53,0,0,2,17.74-5.16,19.43s-14.11.19-14.8-3.29S117.41,124.14,117.41,124.14Z"/><path class="cls-6" d="M139.44,81.62c-2,.74-4.2,6.3-5.73,11.46a6.27,6.27,0,0,1-5-2.82c6.06-6.4,6.76-17.72,5.1-22.81-.92-2.83-2.31-3.1-3.06-3-3.82.45-6.37,9.32-6.1,17a20.14,20.14,0,0,0,2,8.63,13.58,13.58,0,0,1-2.22,1.56,2.86,2.86,0,0,1-.47.22C123.2,84,121.83,77.22,119.39,75a3.2,3.2,0,0,0-2.61-.92,3.57,3.57,0,0,0-3,2.83c-1.2,4.27,1.76,12.33,5.66,15.4a6.06,6.06,0,0,0,3,1.35,285.35,285.35,0,0,1,.47,30.64c.27.07.54.13.82.18l.81,0a292.65,292.65,0,0,0-.46-31,5.42,5.42,0,0,0,1.13-.47,15.37,15.37,0,0,0,2.29-1.6,7.9,7.9,0,0,0,5.75,3.28c-.36,1.28-.67,2.5-.92,3.58-1.12,4.81-3.53,17-1.88,26.57.56,0,1.1-.1,1.63-.18-1.15-6.56-.48-16,1.84-26q.51-2.17,1-4.08c2.87-.82,4.87-4.61,5.47-5.89,1.1-2.32,2-5.47.85-6.7A1.62,1.62,0,0,0,139.44,81.62Zm-19,9.36c-3.42-2.69-6.13-10-5.09-13.67.42-1.5,1.35-1.61,1.65-1.65h.19a1.69,1.69,0,0,1,1.12.51c2.09,1.94,3.33,8.2,4,15.77A4.53,4.53,0,0,1,120.41,91Zm7.46-2.19a19.91,19.91,0,0,1-1.57-7.45c-.27-7.55,2.39-15,4.65-15.28h0c.32,0,.84.58,1.27,1.89C133.78,72.61,133.2,82.85,127.87,88.79Zm10.77-.15a11,11,0,0,1-3,3.8c1.77-5.68,3.55-9,4.4-9.28l.12,0C140.37,83.64,140.09,85.89,138.64,88.64Z"/><path class="cls-9" d="M130.15,133.93c-9.3-.07-15.1-3-15.42-3.19a.82.82,0,0,1,.76-1.45h0c.09.05,9.65,4.88,23.65,2.16a.81.81,0,0,1,.31,1.6A46.73,46.73,0,0,1,130.15,133.93Z"/><path class="cls-9" d="M131,139.84a55,55,0,0,1-15-2,.82.82,0,0,1-.54-1,.83.83,0,0,1,1-.54,60.32,60.32,0,0,0,22.62,1.45.81.81,0,1,1,.18,1.62A69,69,0,0,1,131,139.84Z"/><path class="cls-7" d="M42.51,184.63l1.55,15.69,28.1-2.24-1-14.8S46.58,183.8,42.51,184.63Z"/><path class="cls-9" d="M56.84,191.83c-.64,0-3-.94-9.09-3.65-2.28-1-4.43-2-5.29-2.27a.35.35,0,0,1-.22-.45.36.36,0,0,1,.46-.22c.89.33,2.95,1.24,5.33,2.29,3.21,1.41,8,3.55,8.73,3.59.28-.1,1.68-.87,3.15-1.68,3.83-2.1,9.61-5.27,11.27-5.49a.36.36,0,0,1,.4.31.37.37,0,0,1-.31.4c-1.53.2-7.46,3.46-11,5.41a37.65,37.65,0,0,1-3.34,1.75Z"/><path class="cls-9" d="M43.8,197.93a.32.32,0,0,1-.27-.11.36.36,0,0,1,0-.51c.29-.26,7.15-6.46,9.22-7.57a.36.36,0,1,1,.33.63c-2,1.06-9,7.41-9.07,7.47A.32.32,0,0,1,43.8,197.93Z"/><path class="cls-9" d="M71.89,194.17a.33.33,0,0,1-.23-.07c-.22-.16-2.24-1.06-4-1.86-2.5-1.12-5.34-2.4-6.31-3a.36.36,0,0,1-.12-.49.35.35,0,0,1,.48-.13c.93.54,3.75,1.8,6.25,2.92s3.88,1.74,4.15,1.94a.34.34,0,0,1,.08.49A.33.33,0,0,1,71.89,194.17Z"/><path class="cls-6" d="M312.78,116.75s3.25-3.16,4.05-5,1.19-4.35,2.21-4.11,2.22,2.39,1.74,4-2.09,3.75-1.24,3.85,8.12-.77,8.69-.23.94,2.23-.23,2.59c0,0,1.56,2-.24,3.24a2,2,0,0,1-.58,2.86s1.14,2.19-3.33,2.67-10.8.51-10.8.51Z"/><path class="cls-9" d="M315.82,127.65c-1.62,0-2.76,0-2.77,0h-.52l-.3-11.17.17-.17s3.19-3.1,3.93-4.83c.23-.52.42-1.09.6-1.64.51-1.5.94-2.79,1.95-2.81a.89.89,0,0,1,.28,0,2.75,2.75,0,0,1,1.59,1.4,4.34,4.34,0,0,1,.54,3.31,12.1,12.1,0,0,1-.88,2,12,12,0,0,0-.52,1.15h0c.49,0,1.34-.07,2.32-.15,1.34-.1,2.86-.22,4.06-.25,1.62,0,2.07.08,2.32.32a2.66,2.66,0,0,1,.65,2.31,1.65,1.65,0,0,1-.5.85,3.14,3.14,0,0,1,.38,1.9,2.2,2.2,0,0,1-.7,1.3,2.78,2.78,0,0,1,.19,1.63,2.3,2.3,0,0,1-.81,1.29,1.92,1.92,0,0,1-.19,1.29c-.49.92-1.74,1.49-3.71,1.7C321.31,127.46,318.07,127.59,315.82,127.65Zm-2.25-1c1.61,0,6.56-.11,10.23-.5,2.09-.22,2.7-.82,2.88-1.15a.89.89,0,0,0,0-.74l-.23-.44.42-.26a1.35,1.35,0,0,0,.67-.86,1.89,1.89,0,0,0-.26-1.25L327,121l.43-.3a1.26,1.26,0,0,0,.61-.88,2.5,2.5,0,0,0-.49-1.59l-.48-.61.74-.23a.48.48,0,0,0,.36-.4,1.65,1.65,0,0,0-.3-1.25,6.7,6.7,0,0,0-1.59-.06c-1.17,0-2.68.15-4,.25-1,.08-1.85.14-2.37.16a2.83,2.83,0,0,1-.46,0,.76.76,0,0,1-.61-.4c-.28-.52.07-1.22.6-2.28a10.89,10.89,0,0,0,.8-1.85,3.36,3.36,0,0,0-.43-2.47,1.86,1.86,0,0,0-.91-.9c-.29.07-.73,1.38-1,2.08s-.39,1.17-.63,1.72c-.74,1.7-3.31,4.33-4,5Z"/><path class="cls-8" d="M307,130.45l6.85-1.14-.39-15s-6,.59-6.87.64C306.55,115,306.2,127.45,307,130.45Z"/><ellipse class="cls-11" cx="270.46" cy="178.35" rx="23.9" ry="13.5" transform="translate(33.96 399.76) rotate(-76.51)"/><path class="cls-9" d="M272.46,154.45l3.45.63s-.09.95-.09.95l-4.22-.53Z"/><path class="cls-9" d="M262.41,201.25l2.95.46.88-1-1.95-.37c-.07,0-1.77.68-1.77.68Z"/><ellipse class="cls-28" cx="267.47" cy="177.86" rx="23.94" ry="13.52" transform="translate(32.14 396.48) rotate(-76.51)"/><path class="cls-8" d="M262.75,197.38a4.51,4.51,0,0,1-.53-.09c-2.05-.5-3.81-2.8-4.82-6.33A34.49,34.49,0,0,1,264,162.23c2.4-2.74,5-4.2,7.05-4a3.12,3.12,0,0,1,.52.08c2.06.5,3.81,2.8,4.82,6.33a34.52,34.52,0,0,1-6.59,28.74C267.39,196.13,264.83,197.58,262.75,197.38Zm4.21-6.47a30.79,30.79,0,0,0,5.81-25.22c-.74-2.59-1.79-3.62-2.09-3.71s-1.79.36-3.86,2.72A30.8,30.8,0,0,0,261,189.93c.74,2.58,1.56,3.56,2.09,3.7S264.89,193.27,267,190.91Z"/><path class="cls-8" d="M265,184.19l-.1,0c-.49-.11-1-.81-1.26-1.82a11.87,11.87,0,0,1,2.26-9.81c.84-1,1.57-1.26,2-1.22l.1,0c.48.12,1,.82,1.25,1.82a11.91,11.91,0,0,1-2.25,9.81c-.84,1-1.58,1.26-2,1.22Z"/><path class="cls-9" d="M251,143.16s3.21,6.49,4.48,8.43c0,0-1.47,4.7-1.8,5.91l-4.14-8.74A28.44,28.44,0,0,1,251,143.16Z"/><polygon class="cls-9" points="250.35 156.75 253.72 157.5 249.58 148.76 245.01 147.24 250.35 156.75"/><path class="cls-7" d="M265.9,178.29a.61.61,0,0,1-.39-.21c-6.78-8.33-16.64-29.31-16.74-29.52a.58.58,0,0,1,1-.49c.1.21,9.9,21.06,16.58,29.28a.56.56,0,0,1-.08.81A.59.59,0,0,1,265.9,178.29Z"/><path class="cls-8" d="M164.13,69c.07-1,0-6.39.08-6.86s16.52,4.59,16.52,4.59l22.08,16.87,2.91,2.71L191,81.75s-16.6-6.33-17.27-6.52S164.13,69,164.13,69Z"/><g class="cls-2"><path class="cls-8" d="M164.13,69c.07-1,0-6.39.08-6.86s16.52,4.59,16.52,4.59l22.08,16.87,2.91,2.71L191,81.75s-16.6-6.33-17.27-6.52S164.13,69,164.13,69Z"/></g><path class="cls-8" d="M146.69,75.19s13.53-9.83,14.59-9.76S204.78,86,205.72,86.32,146.69,75.19,146.69,75.19Z"/><path class="cls-8" d="M164.21,62.15c-.35-.34,6.57-12.81,7.62-12.65s36,37.82,33.89,36.82S164.75,62.67,164.21,62.15Z"/><path class="cls-9" d="M301.55,204.31c-.9,0-1.81.36-1.8.93,0,1.21,3.69.74,3.55-.25C303.23,204.51,302.25,204.31,301.55,204.31Z"/><path class="cls-9" d="M245,217.9c-.89,0-1.81.36-1.8.92,0,1.21,3.69.75,3.55-.24C246.71,218.09,245.73,217.9,245,217.9Z"/><path class="cls-9" d="M138.32,217.9c-.9,0-1.81.36-1.81.92,0,1.21,3.7.75,3.56-.24C140,218.09,139,217.9,138.32,217.9Z"/><path class="cls-9" d="M290.29,207.45c-2.44-.15-5,.68-5.07,2.22-.18,3.29,9.93,2.64,9.71-.07C294.82,208.26,292.19,207.57,290.29,207.45Z"/><path class="cls-7" d="M94.23,217c-1.17,0-2.38.45-2.4,1,0,1.28,4.82.65,4.67-.39C96.42,217.1,95.15,216.94,94.23,217Z"/><path class="cls-9" d="M109.2,210.73c2,.18,5,1.17,4.28,3.06s-8.3,1.46-8.67-.89S107.65,210.59,109.2,210.73Z"/><path class="cls-9" d="M51.38,63.8a15.37,15.37,0,0,0,.18,3.39c.1.65,1.08.38,1-.27a14.14,14.14,0,0,1-.14-3.12c0-.65-1-.65-1,0Z"/><path class="cls-9" d="M53,64a15.41,15.41,0,0,0-2.69,2.07c-.48.45.25,1.17.72.72a13.89,13.89,0,0,1,2.48-1.91c.56-.34,0-1.22-.51-.88Z"/><path class="cls-9" d="M50.29,65a15.28,15.28,0,0,0,2.8,1.68c.59.27,1.11-.61.51-.88a15.2,15.2,0,0,1-2.79-1.68c-.52-.4-1,.48-.52.88Z"/><path class="cls-9" d="M337.62,65.43a15.37,15.37,0,0,0,.18,3.39c.1.65,1.08.38,1-.27a14.77,14.77,0,0,1-.14-3.12c0-.66-1-.65-1,0Z"/><path class="cls-9" d="M339.25,65.63a15.41,15.41,0,0,0-2.69,2.07c-.47.45.25,1.17.72.72a13.89,13.89,0,0,1,2.48-1.91c.56-.34.05-1.22-.51-.88Z"/><path class="cls-9" d="M336.54,66.65a14.87,14.87,0,0,0,2.79,1.68c.59.27,1.11-.61.52-.89a14,14,0,0,1-2.8-1.68c-.52-.39-1,.49-.51.89Z"/><path class="cls-9" d="M337,147.15a18.05,18.05,0,0,0,4-.21c.65-.1.37-1.08-.27-1a16.85,16.85,0,0,1-3.75.17c-.66,0-.66,1,0,1Z"/><path class="cls-9" d="M246.78,50a18.05,18.05,0,0,0,4-.21c.64-.1.37-1.08-.27-1a16.85,16.85,0,0,1-3.75.17c-.66,0-.66,1,0,1Z"/><path class="cls-9" d="M98.41,45.73a17.72,17.72,0,0,0-1-4.35l-.75.58q1.41,1,2.79,2.16c.5.41,1.23-.31.72-.72-1-.79-2-1.57-3-2.32-.35-.26-.89.17-.75.58a16.32,16.32,0,0,1,1,4.07c.07.65,1.09.66,1,0Z"/><path class="cls-4" d="M83.3,58.4a5.68,5.68,0,0,0-8.06,1c-2.75,5.46,1.93,8.71,5.6,8.64C85.63,67.92,87.25,61.37,83.3,58.4Zm-2.48,1.75a.73.73,0,0,1,.1,1.45A.73.73,0,0,1,80.82,60.15Zm-2.71.48a.72.72,0,0,1,.1,1.44A.72.72,0,0,1,78.11,60.63Zm6,1.84c-.82,3.25-5.76,4-7.59,1.21-.34-.52.46-1.07.8-.55,1.35,2.05,5.22,1.6,5.84-.85C83.31,61.67,84.26,61.86,84.11,62.47Z"/><path class="cls-9" d="M248.64,102.9h0a3.38,3.38,0,0,1-3.36-3.5,3.45,3.45,0,0,1,1-2.51,3.49,3.49,0,0,1,5,.07,3.5,3.5,0,0,1,.9,2.7A3.34,3.34,0,0,1,248.64,102.9Zm0-6.17a2.59,2.59,0,0,0-1.79.75,2.62,2.62,0,0,0-.73,1.91,2.53,2.53,0,0,0,2.52,2.67v0a2.52,2.52,0,0,0,2.63-2.47,2.76,2.76,0,0,0-.68-2.06A2.62,2.62,0,0,0,248.63,96.73Z"/><path class="cls-9" d="M249,97.51V92.89a.43.43,0,0,0-.85,0v4.62a.43.43,0,0,0,.85,0Z"/><path class="cls-9" d="M250.42,99.66c1.75-.16,3.5-.23,5.25-.23a.42.42,0,0,0,0-.84c-1.75,0-3.5.07-5.25.22-.53,0-.54.89,0,.85Z"/><path class="cls-9" d="M248.28,101.59a15.79,15.79,0,0,0-.27,6.16c.08.54.89.31.81-.22a14.7,14.7,0,0,1,.27-5.72c.13-.52-.68-.75-.81-.22Z"/><path class="cls-9" d="M246.68,99.11a29.82,29.82,0,0,0-4.91.13c-.54.06-.54.9,0,.84a31,31,0,0,1,4.91-.13c.54,0,.54-.81,0-.84Z"/><path class="cls-29" d="M353.39,199.3a14.89,14.89,0,0,0-.51,4s-12,1.88-14.76,3.47l-1.63-3.09.84-4.79,6.16-.67,3.56.08Z"/><path class="cls-30" d="M338.12,206.79c-.16,0-14.3-8.92-23.39-9a13.06,13.06,0,0,0-.16-4.19l10.81-.41s9,2.8,9.17,3,3.72,4.23,3.72,4.23l.37,2Z"/><path class="cls-9" d="M338.64,202.46s-15.29-8.63-24.07-8.85l11.87-3.74s23.4,8.47,26.95,9.43C353.39,199.3,341.53,200.51,338.64,202.46Z"/><path class="cls-5" d="M345.36,199.91s-2.06-1.27-.66-2.65c0,0-12.3-5-15.62-5.72,0,0-1.7,1.06-5.68,0l-3.35.86s2,0,1.55,2c0,0,9.84,3.77,13,5.27a12.51,12.51,0,0,1,6.82,1A29,29,0,0,1,345.36,199.91Z"/><path class="cls-9" d="M338.44,204.11a38.63,38.63,0,0,0-5.91-2.28l5.79,3.31a31.65,31.65,0,0,1,6.57-1.6A39,39,0,0,0,338.44,204.11Z"/><path class="cls-31" d="M335.33,194.19c-2.22-1.24-4.65-2-6.15-1.28-1.28.57-1.68,2.56.58,4.19s5.73,1.81,6.86.86C338,196.79,336.71,195,335.33,194.19Z"/><path class="cls-6" d="M333.71,197.64a7.5,7.5,0,0,1-4.39-2.14.21.21,0,0,1,.29-.29c1.69,1.68,4,2.18,4.37,2,.12-.06.19-.12.19-.19,0-.3-.71-.91-1.26-1.35-.85-.68-1.59-1.28-1.23-1.79a.77.77,0,0,1,.53-.31c1-.15,2.68,1.11,2.87,1.25a.21.21,0,0,1,0,.29.2.2,0,0,1-.28,0c-.48-.36-1.88-1.29-2.56-1.18a.36.36,0,0,0-.26.15c-.14.2.66.85,1.15,1.23.75.61,1.47,1.19,1.41,1.71a.67.67,0,0,1-.42.52A1.1,1.1,0,0,1,333.71,197.64Z"/><path class="cls-6" d="M330.69,197.25a.2.2,0,0,1-.18-.1.22.22,0,0,1,.07-.28c.15-.09,2.26-1.83,3.64-3a.2.2,0,0,1,.28,0,.21.21,0,0,1,0,.29c-.58.48-3.51,2.9-3.68,3A.19.19,0,0,1,330.69,197.25Z"/><path class="cls-9" d="M344.38,107.77a25.22,25.22,0,0,1,3.39,1.19c.59.27,1.11-.61.51-.88a25.66,25.66,0,0,0-3.63-1.29.51.51,0,0,0-.27,1Z"/><path class="cls-9" d="M346.53,106.12l-1.73,3.52c-.29.59.59,1.1.88.52l1.73-3.52c.29-.59-.59-1.11-.88-.52Z"/><path class="cls-6" d="M84.59,143.62h0c-1.47,0-1.72-2.45-1.73-2.56V141l3-.51,0,0a2.32,2.32,0,0,1,.53,1.74,2.08,2.08,0,0,1-1.82,1.38Zm-1.51-2.48c.06.44.37,2.27,1.51,2.27h0a1.4,1.4,0,0,0,.65-.17,1.56,1.56,0,0,0,1-1,2.07,2.07,0,0,0-.45-1.52Z"/><path class="cls-7" d="M126.65,219.14c-1.92.05-3.89.73-3.91,1.71-.06,2.08,7.85,1.06,7.61-.64C130.23,219.37,128.14,219.1,126.65,219.14Z"/><path class="cls-7" d="M281.42,213.19c-1.08-.13-2.21.21-2.27,1-.14,1.6,4.32,1.52,4.27.19C283.39,213.69,282.25,213.3,281.42,213.19Z"/><polygon class="cls-7" points="193.11 157.5 221.34 155.93 228.31 194.98 196.11 200.13 193.11 157.5"/><polygon class="cls-6" points="195.95 161.25 200.18 195.24 225.54 191.56 219.81 159.72 195.95 161.25"/><path class="cls-14" d="M219.47,159.75a18.52,18.52,0,0,1-3.24.4l-3.25.32c-2.06.21-4.13.4-6.19.57s-4.26.33-6.39.43l-1.53.06c-.31,0-1.26.21-1.52.05-.73-.44.1-2.06.48-2.49,1.1-1.25,2.76-.87,4.18-1.4.78-.3,1.3-1.11,2-1.58a6.05,6.05,0,0,1,5.46-.55c1.06.35,1.92,1.29,3.06,1.4s2-.1,3,0a4.52,4.52,0,0,1,3.8,3.07c.12.28.57.15.46-.13a5,5,0,0,0-3.82-3.35c-1.48-.25-3.15.32-4.48-.48-2-1.18-4.4-1.93-6.62-1a7,7,0,0,0-2.22,1.56,3.85,3.85,0,0,1-2.4.91,4,4,0,0,0-2.89,1.4,3.67,3.67,0,0,0-.59,2.91.23.23,0,0,0,.23.17c3.86-.08,7.72-.35,11.56-.69,1.93-.17,3.86-.36,5.79-.55a28.85,28.85,0,0,0,5.27-.61C219.88,160.12,219.76,159.66,219.47,159.75Z"/><path class="cls-14" d="M203.68,165.77c2.42-.4,4.91-.51,7.35-.74l7.27-.68c.29,0,.29-.48,0-.45l-7.68.72c-2.34.22-4.73.33-7.06.72-.28,0-.16.48.12.43Z"/><path class="cls-14" d="M203.93,167.73a32.9,32.9,0,0,1,8-.61,36.9,36.9,0,0,0,6.92-.93c.29-.05.17-.49-.12-.44a36.87,36.87,0,0,1-7.61.89,28.84,28.84,0,0,0-7.35.65c-.28.07-.16.5.12.44Z"/><path class="cls-14" d="M204.38,170.21a46.54,46.54,0,0,1,7.34-1.16l7.36-.78c.29,0,.29-.48,0-.45l-7.75.82a44.61,44.61,0,0,0-7.08,1.13.23.23,0,0,0,.13.44Z"/><path class="cls-14" d="M206.11,178.81a63.35,63.35,0,0,1,7.79-.44,43.85,43.85,0,0,0,7.32-.81c.29-.06.17-.5-.12-.44a44.42,44.42,0,0,1-8,.81,53.16,53.16,0,0,0-7.14.44c-.29,0-.17.48.12.44Z"/><path class="cls-14" d="M205.86,177.91c2.44-.83,5-.56,7.51-.79a54.28,54.28,0,0,0,7-1.44.23.23,0,0,0-.12-.44,45.51,45.51,0,0,1-7.65,1.47c-2.32.13-4.65,0-6.88.76-.28.09-.16.53.12.44Z"/><path class="cls-14" d="M207.24,185.56a60.44,60.44,0,0,1,7.57-1.29,47.29,47.29,0,0,0,6.9-1,.23.23,0,0,0-.12-.44,51.84,51.84,0,0,1-7.55,1.1,56.38,56.38,0,0,0-6.92,1.24c-.28.06-.16.5.12.43Z"/><path class="cls-14" d="M207.34,187.76c2.58-.27,5.17-.49,7.74-.83,1.16-.16,2.32-.34,3.47-.61a26.23,26.23,0,0,1,4.11-.82c.28,0,.29-.47,0-.45-2.51.16-4.93,1.06-7.42,1.4s-5.27.58-7.9.85c-.28,0-.28.49,0,.46Z"/><path class="cls-14" d="M207.61,189.4c3.44-.42,6.88-.87,10.31-1.37.28,0,.16-.47-.12-.43q-5.09.72-10.19,1.35c-.28,0-.29.48,0,.45Z"/><path class="cls-8" d="M198.59,168.87l.79.58a2.63,2.63,0,0,0,.76.52.43.43,0,0,0,.53-.15,4.15,4.15,0,0,0,.42-1.36c.19-.63.37-1.27.55-1.9.09-.29-.36-.41-.45-.12l-.72,2.49a3.76,3.76,0,0,1-.18.59c-.09,0-.3-.2-.38-.26l-1.08-.8c-.25-.18-.48.23-.24.41Z"/><path class="cls-8" d="M200.47,179.51a8.28,8.28,0,0,0,1.63,1.09.37.37,0,0,0,.49-.13A5.21,5.21,0,0,0,203,179l.58-2.15c.08-.29-.38-.42-.45-.13-.25.9-.49,1.8-.73,2.69a3.32,3.32,0,0,1-.15.54c-.16.35-.07.24-.33,0a14.87,14.87,0,0,0-1.24-.83c-.25-.17-.48.24-.23.4Z"/><path class="cls-8" d="M201.54,188.74a8.23,8.23,0,0,0,1.63,1.08.36.36,0,0,0,.49-.12,4.91,4.91,0,0,0,.43-1.5l.58-2.16a.23.23,0,0,0-.45-.12c-.24.9-.49,1.79-.73,2.69a3.32,3.32,0,0,1-.15.54c-.15.35-.06.23-.33,0s-.83-.56-1.23-.84-.49.24-.24.41Z"/><path class="cls-32" d="M220.77,158.19c3.81-1.32,5.62-5.48,5.62-5.48l-1.69-1.81-1.21-.35c-.66,1.74-2.18,4.35-3.94,4.36-.52,0-4-1.07-7-.82l.44.83A23.91,23.91,0,0,0,220.77,158.19Z"/><path class="cls-32" d="M226.3,174.63a15.31,15.31,0,0,0-1.38,2.76,14.41,14.41,0,0,1-1.14,7.45,44.13,44.13,0,0,1-5.6,8.63l-1,1.81-2.13,3.86-1.21-.56s.78-3.84,2.84-5.61c0,0,2.58-5.57,4.44-16.64l1-4.26Z"/><path class="cls-33" d="M218.14,200.29a.81.81,0,0,1-.53,0s.41-2.9-.06-4a18,18,0,0,0-1.05,4,7.74,7.74,0,0,1-4.59-.1,1,1,0,0,1,.16-1.19,3.34,3.34,0,0,1,1.81-.46l1.21.56s3-5.39,3.09-5.67c0,0,1,0,1.36,1.74S218.67,197.37,218.14,200.29Z"/><g class="cls-2"><path class="cls-32" d="M221.31,175.7l.73-3,.58-.31.28.14,3.4,2.12a15.31,15.31,0,0,0-1.38,2.76c0,.29.12,1.11.07,2.32h0A6.24,6.24,0,0,0,221.31,175.7Z"/></g><path class="cls-34" d="M223.68,148.15l-.81,2.71a6.24,6.24,0,0,0,3.52,1.43c1.86,0,0-2.07,0-2.07L225,148.33Z"/><path class="cls-6" d="M225.75,151.34a5.33,5.33,0,0,1-2.6-1.48l.09-.08a5.31,5.31,0,0,0,2.54,1.44Z"/><path class="cls-32" d="M244.77,162.72s-.7,1.88.52,2.85,1.88,1.46,1.91.93-1-1.71-1-1.71a8.39,8.39,0,0,1,1.57,1.11c.52.55,1,2,1.41,1.91s-.54-2.32-.54-2.32.85,2.54,1.13,2.18-.2-2.4-.2-2.4.52,2.31.87,2-.56-2.6-.56-2.6.87,1.47,1.21,1.23-1.23-2.4-1.81-2.58-3.75-1.07-3.75-1.07Z"/><path class="cls-12" d="M227.64,135.89c-4.62,3-4.41,8.3-3.88,9l1.83-.47,5.28-2.67-.6-4.29Z"/><path class="cls-32" d="M234,174.64l1.31,3s4.62,10.93,5.15,15.75l1.47.22s1.58-14.66-3.18-18.24l-.54-1.74H234Z"/><path class="cls-32" d="M237.68,198.7a27.55,27.55,0,0,1,2.74-5.33l.62-1.49.85,1.71.89,1.59-1,.31a4.33,4.33,0,0,0-.52.33s-.81,1.44-.83,1.53-.82,2.87-1.15,2.77-1.78-.86-1.78-.86Z"/><path class="cls-33" d="M241.93,200.41a.8.8,0,0,1-.53,0s.42-2.9-.06-4a18,18,0,0,0-1.05,4,7.74,7.74,0,0,1-4.59-.1,1,1,0,0,1,.17-1.19,3.32,3.32,0,0,1,1.81-.46l1.2.56s3-5.39,3.09-5.67c0,0,1,0,1.36,1.74S242.47,197.49,241.93,200.41Z"/><g class="cls-2"><path class="cls-32" d="M234,174l1.62-.42h2.59l.54,1.74a6.4,6.4,0,0,1,1.95,2.74,8.41,8.41,0,0,0-5.34-.35l0-.12-1.31-3Z"/></g><path class="cls-12" d="M238.5,147.39c-.15,1.68,3.55,4.68,3.2,8.8s-6.12,4.75-6.12,4.75l-4.39-4.4.31-5.46,1.75-3.41Z"/><path class="cls-35" d="M225.92,156.21s-4.47,8.75-5,18.12c0,0,7.14,4.83,17.64.43,0,0,2.23-13.91-5-19.26l-3.05-.85-3.34.95Z"/><path class="cls-6" d="M237.25,175.25c-.1-11.68-4.41-19.25-4.45-19.33l.11-.06c0,.08,4.36,7.67,4.46,19.39Z"/><path class="cls-32" d="M229.39,136.81c.1.19-.23,3.22-1.51,4.45l-1.49,1.58,4.47,1.16,3.64-2.41-.8-2.27-.66-2.89Z"/><g class="cls-2"><path class="cls-32" d="M229.4,137.13l2.5-.35.71,1.19A5.76,5.76,0,0,1,229,139.1,9.51,9.51,0,0,0,229.4,137.13Z"/></g><path class="cls-7" d="M227.19,142.06a45.58,45.58,0,0,0-4.76,4.51s.63,2.9,2.52,3.3c0,0,1.44,4.59,1,6.34,0,0,3.21,1.89,7.66-.71,0,0-.33-3,2.84-6.84l-.95-6.6-1-.47-5.69,1.87Z"/><path class="cls-32" d="M229,125.32A9.38,9.38,0,0,0,224.5,131l.84.65s-2.27,5.3,4.16,6.36,6.87-4.82,6.87-4.82l-3.2-5.34Z"/><path class="cls-12" d="M225.25,129.06a3.49,3.49,0,0,1-1.09-4.29,3.89,3.89,0,0,1,2.67-2.74c1.11-.25,1.59,2.43,7.1,2s11.77,2.71,5.26,15c-1.05,2-.26,4.95-.26,4.95l-3.19-1.78L233.61,141s-2.87-.72-1.33-6.7v-1.79l-.68-.29s-3.35-2.63-4.41-5.63A14,14,0,0,0,225.25,129.06Z"/><path class="cls-32" d="M231.17,132.51s.86-.88,1.74-.6.25,3.08-1.83,2.8S231.17,132.51,231.17,132.51Z"/><path class="cls-34" d="M231.57,149.45h-.23l-.56,0-.36,0-.39,0-.42,0h-.85l-.41,0H228l-.36,0-.31,0-.25,0h-.23l.16.16.2.18.28.18a2.41,2.41,0,0,0,.36.18l.2.08a.79.79,0,0,0,.22.06l.23.06.12,0,.12,0a3.91,3.91,0,0,0,.49,0h.25l.24,0a2.44,2.44,0,0,0,.47-.09,4.13,4.13,0,0,0,.42-.14l.36-.18.28-.18.2-.17A1.22,1.22,0,0,0,231.57,149.45Z"/><path class="cls-7" d="M232.85,141.45s-5.61,2.54-5-.19c-2.25,1.21-3.86,3.24-5.45,5.31l5.71-2.19,4.71-.85,1.8-1.38.82-.09S233.48,141.55,232.85,141.45Z"/><path class="cls-32" d="M233.61,141c.46,0,1.54,1.39,4,3.91S246,162.33,246,162.33s-.62.82-1.36.58c-.29-.1-7.25-9.12-8.64-13.68a46.21,46.21,0,0,0-3.12-7.78Z"/><path class="cls-6" d="M225.83,176.16h-.13c0-14.4,2.24-19.26,2.27-19.31l.11.05S225.86,161.79,225.83,176.16Z"/><path class="cls-7" d="M242.24,149.94s-2.87,2.78-5.56,2.89a25.46,25.46,0,0,1-1.46-2.51l-3.05-3,.68-5.83.76-.48S239.79,139.59,242.24,149.94Z"/><path class="cls-6" d="M231.31,176.57l-.13,0c.94-6-.78-19.68-.8-19.82l.13,0C230.53,156.85,232.25,170.52,231.31,176.57Z"/><path class="cls-6" d="M236.23,152.18v-.13c2.54-.06,5.66-3.18,5.69-3.21l.09.09S238.83,152.12,236.23,152.18Z"/><path class="cls-6" d="M228.92,143.22a7.72,7.72,0,0,1-1.15-.09,1,1,0,0,1-.8-.49,1.36,1.36,0,0,1,.19-1.08l.11.07a1.25,1.25,0,0,0-.19,1,.89.89,0,0,0,.71.42,8.44,8.44,0,0,0,6.67-2.15l.09.09A8.79,8.79,0,0,1,228.92,143.22Z"/><path class="cls-32" d="M212.51,154.09a4.39,4.39,0,0,0-3.16,1c-.81.74-.52,1.14,1.05.1,0,0-1,2.2-.86,2.3.68.4,1.57-1.69,1.57-1.69s-1.18,1.7-.83,1.89,1.67-1.71,1.67-1.71-.67,2.36-.25,2a16.64,16.64,0,0,0,1.46-2.46s.5,1.06.93,1.13c.71.1,0-1.28,0-1.28l.8.29-.65-.52A3.73,3.73,0,0,0,212.51,154.09Z"/><path class="cls-9" d="M52.13,143.83c2.14,1.67,5.35,3.62,5.95,6.49.23,1.11-.33,2.67-1.7,2.29a9.42,9.42,0,0,1-2.11-1.1c-1.3-.81-2.51-1.76-3.73-2.67s-2.67-2-3.93-3c-.73-.61-1.8-1.31-1.77-2.38a2.58,2.58,0,0,1,.46-1.11,1.32,1.32,0,0,1,2-.17,61.17,61.17,0,0,1,7.61,6.09,3,3,0,0,1,1,1.53c0,1-1.43.07-1.87-.18a30.63,30.63,0,0,1-4-3.16c-.31-.25-.76.19-.45.45,1.6,1.31,3.1,2.85,5,3.69.8.34,2.08.55,2-.72-.13-1.54-1.83-2.67-2.88-3.56-1.79-1.52-3.66-2.94-5.55-4.34-.69-.51-1.34-1.13-2.25-.81a2.49,2.49,0,0,0-1.35,1.51,1.87,1.87,0,0,0,0,2,13.77,13.77,0,0,0,2.73,2.43c1.79,1.41,3.62,2.79,5.48,4.1a20.06,20.06,0,0,0,2.81,1.71c.59.28,1.29.72,2,.42,2-.93,1.38-3.5.48-4.93-1.29-2.08-3.42-3.52-5.33-5-.31-.25-.76.19-.44.44Z"/><path class="cls-8" d="M62.64,106.76a11,11,0,0,1-4.88-3.43c-2.26-2.78-4.92-12.09,1.49-17.66,4.58-4,14.83-5.21,20.91-1.84s8.37,15.39,2.4,19.72-14.35,3.59-14.35,3.59a23.65,23.65,0,0,0-.9,8.76S62.88,114.61,62.64,106.76Z"/><path class="cls-6" d="M69.32,98.62c0-.23-.21-12.28-.21-12.28l4.55.23L71.08,98.62Z"/><path class="cls-6" d="M69.67,100.2c.57-.15,1.78,0,2,.85a1.48,1.48,0,0,1-2,1.59A1.25,1.25,0,0,1,69.67,100.2Z"/><path class="cls-6" d="M182.05,171.53l-.2,0c2.12-11.06-.75-17-1.08-17.24l.11-.17c.23.13,1.05,1.75,1.55,4.63A35.9,35.9,0,0,1,182.05,171.53Z"/></g></g></svg>