<svg xmlns="http://www.w3.org/2000/svg" viewBox="0 0 391 260"><defs><style>.cls-1{isolation:isolate;}.cls-2{fill:#eff0f0;}.cls-3{fill:#ced1d2;}.cls-4{fill:#fda93b;}.cls-5{fill:#fff;}.cls-6{fill:#77ccfd;}.cls-7{fill:#3db5fd;}.cls-8{fill:#29495c;}.cls-9{fill:#1e3947;}.cls-10{fill:#fdbf3b;}.cls-11{fill:#fd843b;}.cls-12{fill:#38b6ff;}.cls-13{fill:#3eb8fd;}.cls-14{fill:#d15430;}.cls-15{fill:#f4d39e;}.cls-16{fill:#2580b3;}.cls-17{fill:#21709a;}.cls-18{fill:#0e3144;}.cls-19{mix-blend-mode:multiply;}.cls-20{fill:#154965;}.cls-21{fill:#fd653b;}.cls-22{fill:#fdba63;}.cls-23{fill:#1f6c94;}.cls-24{fill:#cf5231;}.cls-25{fill:#fd643b;}.cls-26{fill:#ace0fd;}.cls-27{fill:#babcbe;}.cls-28{fill:#e5e5e6;}.cls-29{fill:#fdecd6;}.cls-30{fill:#518fb6;}</style></defs><g class="cls-1"><g id="Layer_1" data-name="Layer 1"><path class="cls-2" d="M69,84s-6.73.61-6.27,6.81,9,4.87,14.68,4.87,38.39,2.56,45.27-1.88c5.81-3.74,5.2-14.18-9.79-15-.89,0,8.4-17.12-15.51-21.44C80.68,54.3,78.6,68.78,78.6,68.78s-8.91-1.28-12,6.56C64.35,81.23,69,84,69,84Z"/><path class="cls-2" d="M318.39,92.51s13.14.74,12.18,7-21.19,5.58-32.24,5.48-74.18.41-84.86-3.48c-9.79-3.57,1.41-17.93,20.26-11.24,0,0,10.8-15.66,30.72-19.62,30.83-6.11,33.88,14,33.88,14s8.46-8.31,17.88-2C320.77,85.76,318.39,92.51,318.39,92.51Z"/><path class="cls-3" d="M265.71,71.46s-3.9.37-3.92,4.26c0,2.86,4.24,3,9.32,3.5,3.53.33,23.87,1.14,28.18-1.63,3.63-2.34,3.25-8.87-6.12-9.4-.56,0,5.25-10.71-9.7-13.41C273,52.89,271.7,61.94,271.7,61.94s-5.57-.8-7.48,4.1A4.26,4.26,0,0,0,265.71,71.46Z"/><ellipse class="cls-2" cx="206.02" cy="203.14" rx="143.79" ry="17.49"/><path class="cls-4" d="M90.05,203.67c-1.53-.3-37.8,5.37-42.22-8.39s14.72-33.9,23.34-28.2c0,0-6.53-25.27,21.15-29.54s13.36,14,13.36,14,13.91-15.39,23.91,4.48-16.22,31.41-16.22,31.41,18.61,3.85,8.95,12.5S90.05,203.67,90.05,203.67Z"/><path class="cls-5" d="M118.92,167.93c-.78,0-17.42.69-25.73,9.19A106.13,106.13,0,0,1,100,155.4a.9.9,0,0,0-.43-1.21.92.92,0,0,0-1.22.42,110.64,110.64,0,0,0-7.66,25.75.92.92,0,0,0-.07.36c-.33,1.93-.63,3.93-.87,6-7.5-10-20-12-20.53-12a.91.91,0,0,0-1,.77.92.92,0,0,0,.77,1c.14,0,13.69,2.12,20.49,13a101.56,101.56,0,0,0-.33,14.17,5.25,5.25,0,0,1,.91,0l.9.18a.81.81,0,0,0,0-.22A104.16,104.16,0,0,1,92.45,181c6.47-10.44,26.33-11.22,26.53-11.23a.92.92,0,0,0-.06-1.83Z"/><path class="cls-6" d="M300.49,168.89c0-.12.09-.25.13-.41,1.67-5.44,7.07-32.09,23.63-26.74,17,5.51-1.09,32.91-1.09,32.91s13.28-8.94,17.67.94-8.93,18.26-8.93,18.26,11-2.1,9.83,3.64S316,200,316,200s-6-13.28-6-13.84-13.54-8.63-13.46-8.84,4-8.66,4-8.66Z"/><path class="cls-5" d="M308,181.76h0a.63.63,0,0,1-.6-.65c0-.14,2.74-17.66,10.23-29a.62.62,0,0,1,.88-.18.63.63,0,0,1,.18.88c-7.33,11.07-10,28.19-10,28.34A.64.64,0,0,1,308,181.76Z"/><path class="cls-5" d="M311.58,167.39a.64.64,0,0,1-.43-1.08c3-3,12.09-6.61,12.47-6.76a.63.63,0,0,1,.82.36.62.62,0,0,1-.36.82c-.09,0-9.26,3.63-12,6.47A.63.63,0,0,1,311.58,167.39Z"/><path class="cls-7" d="M291,203.46c1.06-.21,26.26,3.73,29.33-5.83S310.06,174.08,304.07,178c0,0,4.53-17.56-14.7-20.53s-9.28,9.71-9.28,9.71-9.66-10.69-16.61,3.12,11.27,21.82,11.27,21.82-12.93,2.67-6.22,8.68S291,203.46,291,203.46Z"/><path class="cls-5" d="M291.58,203.47a79,79,0,0,0-6.41-34.09.64.64,0,0,0-.85-.3.64.64,0,0,0-.3.85,77.37,77.37,0,0,1,6.29,33.5.77.77,0,0,0,0,.15l.62-.12A3.35,3.35,0,0,1,291.58,203.47Z"/><path class="cls-5" d="M290.68,194.1a.55.55,0,0,1-.3-.09.64.64,0,0,1-.22-.87c5-8.25,14.83-9.77,15.24-9.83a.64.64,0,0,1,.19,1.26c-.1,0-9.65,1.5-14.34,9.23A.65.65,0,0,1,290.68,194.1Z"/><path class="cls-5" d="M289.88,188.12a.6.6,0,0,1-.52-.3c-4.42-7.37-18.37-7.92-18.51-7.92a.64.64,0,0,1-.61-.66.63.63,0,0,1,.65-.61c.6,0,14.79.58,19.56,8.53a.64.64,0,0,1-.22.87A.56.56,0,0,1,289.88,188.12Z"/><path class="cls-8" d="M263.69,222.85c-2,0-4.11.82-4.1,2.11,0,2.74,8.4,1.69,8.07-.56C267.51,223.29,265.28,222.86,263.69,222.85Z"/><path class="cls-4" d="M167,227.07c-2.06.05-4.18.79-4.21,1.84-.06,2.24,8.45,1.14,8.19-.69C170.8,227.32,168.56,227,167,227.07Z"/><path class="cls-8" d="M141.39,216.66c3.12.28,7.83,1.84,6.72,4.8s-13,2.29-13.61-1.41S139,216.44,141.39,216.66Z"/><path class="cls-9" d="M161.14,61.45c5.65-12.51,77.35-10.21,80.18-4.26s3.23,141.73-3.93,146.58c-9.32,6.3-78,6-78.09-1.51S156.32,72.12,161.14,61.45Z"/><path class="cls-2" d="M166,76c3.62-3.61,68.61-5.8,69.81-1.08s.13,118.69-2.59,121.94-66.76,5-68.13,1.71S161.67,80.33,166,76Z"/><path class="cls-5" d="M187.05,63.42A.72.72,0,0,1,187,62c.78-.07,19.24-1.84,29.09-.57a.72.72,0,0,1-.18,1.42c-9.69-1.25-28.58.56-28.77.58Z"/><path class="cls-10" d="M176.81,126.51s-36.57,4.16-41.85-2.64-2.05-27.69,3.27-30.78,55.36-3.55,59.72,2.62,1.82,25.4-3.67,28.09-8.12,2.15-8.12,2.15a18.61,18.61,0,0,0-.44,13.09S178.65,136.51,176.81,126.51Z"/><path class="cls-11" d="M222,160.86s37.78,4.3,43.23-2.72,2.12-28.61-3.38-31.79-57.18-3.67-61.68,2.7-1.89,26.24,3.79,29,8.38,2.22,8.38,2.22a19.2,19.2,0,0,1,.46,13.52S220.06,171.19,222,160.86Z"/><path class="cls-8" d="M341.67,168.2c3.21,1.82,8.67,6.74,5.61,10.76-.22.29.27.58.49.29,3.27-4.31-2.35-9.57-5.81-11.54-.32-.18-.61.31-.29.49Z"/><path class="cls-8" d="M347.82,169.83a7.51,7.51,0,0,1,3.12,6.28c0,.36.58.36.57,0a8.12,8.12,0,0,0-3.4-6.77c-.31-.2-.59.29-.29.49Z"/><path class="cls-8" d="M43.14,186.33c-1.5,3.68-2.63,11.29,2.62,12.64.35.09.51-.46.15-.55-4.89-1.25-3.59-8.57-2.22-11.94.14-.34-.41-.49-.55-.15Z"/><path class="cls-8" d="M39.32,191.41a8.11,8.11,0,0,0,1.51,7.36c.21.29.7,0,.49-.29a7.54,7.54,0,0,1-1.45-6.91c.11-.35-.44-.5-.55-.16Z"/><path class="cls-8" d="M118.17,42.56a2.23,2.23,0,0,0,.48,3.63c1.67.93,3.65,0,4.83-1.29,3-3.26-4.58-5.9-5.43-1.87-.07.36.47.51.55.15.32-1.52,2-1.9,3.32-1.46.77.25,1.35.54,1.56,1.35s-.24,1.32-.85,1.85a3.6,3.6,0,0,1-3.1,1c-1.33-.34-2.16-2-1-3,.28-.24-.13-.64-.4-.4Z"/><path class="cls-8" d="M351.22,88.37A31.52,31.52,0,0,0,357,86.28c.33-.16,0-.65-.28-.49a30.33,30.33,0,0,1-5.61,2,.29.29,0,0,0,.15.55Z"/><path class="cls-8" d="M351.35,85.05c1.37,1.7,3.17,3,4.36,4.87.2.31.69,0,.49-.29-1.22-1.88-3.05-3.24-4.45-5-.22-.29-.62.12-.4.4Z"/><path class="cls-8" d="M353,90.2A35.06,35.06,0,0,0,355,84.48c.08-.35-.47-.51-.55-.15a36,36,0,0,1-1.94,5.72c-.14.34.41.49.54.15Z"/><path class="cls-8" d="M54,57.09l6.88.22a.29.29,0,0,0,0-.57L54,56.52c-.36,0-.36.56,0,.57Z"/><path class="cls-8" d="M257.46,43.81l-1.64,4.94c-.12.35.43.49.54.15L258,44c.12-.35-.43-.5-.55-.15Z"/><path class="cls-8" d="M254.13,46.05l5.43,1.31c.36.08.51-.47.15-.55l-5.43-1.31c-.35-.08-.5.47-.15.55Z"/><path class="cls-8" d="M298.61,44.55c1.83-1.3,3.72-2.52,5.66-3.64a.29.29,0,0,0-.07-.52,20.19,20.19,0,0,0-6.32-.91.29.29,0,0,0,0,.57,19.81,19.81,0,0,1,6.17.88l-.06-.52q-2.92,1.7-5.66,3.65c-.3.21,0,.71.28.49Z"/><path class="cls-8" d="M44.61,152.83a2.12,2.12,0,0,1,2.22-3.16,3.52,3.52,0,0,0,2.13,0,2.79,2.79,0,0,0,1.58-3.15c-.07-.35-.62-.2-.54.15a2.17,2.17,0,0,1-2.41,2.6,3.75,3.75,0,0,0-2.25,0,2.69,2.69,0,0,0-1.22,3.84c.17.32.66,0,.49-.29Z"/><path class="cls-12" d="M166.71,185.45s51.56-3.3,65.26-.22l-.83,10.14-64.07.57Z"/><path class="cls-5" d="M178.11,186.83s35.3-1.26,38.49-1l.09,7.84-38.49.43Z"/><path class="cls-5" d="M224.63,193.19l-2.95-1.82,6.89-3.52Zm-2.22-1.79,2.13,1.32,2.85-3.87Z"/><path class="cls-5" d="M221.07,190.53l-1.8-2.24,9.3-.44ZM220,188.61l1.2,1.5,5-1.79Z"/><path class="cls-5" d="M221.11,192.92l-.16-2.59a.17.17,0,0,1,.17-.18.16.16,0,0,1,.18.16l.1,1.5.26-.41a.18.18,0,0,1,.24-.05.18.18,0,0,1,.06.24Z"/><rect class="cls-5" x="221.09" y="192.03" width="1.81" height="0.36" transform="matrix(0.93, -0.37, 0.37, 0.93, -55.69, 96.71)"/><path class="cls-5" d="M170,191.08a.18.18,0,0,1-.18-.17.17.17,0,0,1,.17-.18l5.68-.34a.18.18,0,1,1,0,.35l-5.68.34Z"/><path class="cls-5" d="M172.85,193.53a.18.18,0,0,1-.18-.18l-.06-5.46a.18.18,0,0,1,.17-.18h0a.17.17,0,0,1,.17.17l.07,5.47a.18.18,0,0,1-.18.18Z"/><path class="cls-13" d="M181.15,191.75a.22.22,0,0,0,0-.43.22.22,0,0,0,0,.43Z"/><path class="cls-13" d="M184.17,191.72a.22.22,0,0,0,0-.43.22.22,0,0,0,0,.43Z"/><path class="cls-13" d="M187.18,191.68a.22.22,0,0,0,0-.43.22.22,0,0,0,0,.43Z"/><path class="cls-12" d="M166.84,77.75l-.62,7,68.36,0-.7-9.24S179.18,75,166.84,77.75Z"/><path class="cls-5" d="M214,76.87a48.77,48.77,0,0,0,.22,6.84c0,.33.56.34.53,0a47.3,47.3,0,0,1-.23-6.84c0-.33-.51-.33-.52,0Z"/><path class="cls-5" d="M221.19,78.76a.26.26,0,0,0,0-.52.26.26,0,0,0,0,.52Z"/><path class="cls-5" d="M221.52,81.3a.26.26,0,0,0,0-.52.26.26,0,0,0,0,.52Z"/><path class="cls-5" d="M224.12,77.16a6.26,6.26,0,0,0-1,4.52,1.92,1.92,0,0,0,2.53,1.42c2.73-.92,1.4-5.7-1.06-5.95-.33,0-.33.49,0,.52,2.34.24,3,5.66.05,5-2-.47-.87-4.14-.11-5.21.19-.28-.26-.54-.46-.27Z"/><path class="cls-5" d="M217.08,77.34a6.24,6.24,0,0,0-1,4.51,1.92,1.92,0,0,0,2.53,1.42c2.73-.92,1.4-5.7-1.06-6-.34,0-.33.49,0,.52,2.34.24,3,5.66.05,5-2-.47-.87-4.14-.12-5.21.2-.27-.25-.54-.45-.26Z"/><path class="cls-5" d="M228.09,77.26v6.06a.27.27,0,0,0,.53,0V77.26a.27.27,0,0,0-.53,0Z"/><polygon class="cls-5" points="169.13 78.5 168.76 83.41 175.04 81.32 169.13 78.5"/><polygon class="cls-5" points="208.71 76.66 209.99 76.66 210.21 83.71 208.88 83.71 208.71 76.66"/><polygon class="cls-5" points="206.82 77.64 208.1 77.64 208.32 83.71 207 83.71 206.82 77.64"/><polygon class="cls-5" points="205.08 78.72 206.36 78.72 206.58 83.71 205.26 83.71 205.08 78.72"/><polygon class="cls-5" points="203.16 79.91 204.45 79.91 204.67 83.71 203.34 83.71 203.16 79.91"/><path class="cls-4" d="M240.13,173.53a23.55,23.55,0,0,1,8-4.17,16.25,16.25,0,0,1,7.59,0l4.32-1s7.86,1.64,11.54,5.3v8.09s-.74,6.89-.85,7-3.54,2-3.54,2l-1.37,4.53-.39,2.14-.81,6-9.45.25-12.75-3.54-3.72-14.62Z"/><path class="cls-14" d="M241.45,201.94c-.15-.1-7.56-3.94-12.66-.91s-2.7,9.85-2.7,9.85l8.34,1s10.77-.18,11.41-.43,3.46-5.83,3.46-5.83L243.24,202Z"/><path class="cls-15" d="M239.62,209.82a16.06,16.06,0,0,1-5-.33l.19,5.1,4.5-.17Z"/><path class="cls-16" d="M225.68,205.55a8,8,0,0,0-.28,9.74l10.52-.74s-1.36-1.71-.63-4.92C235.29,209.63,229.94,204.38,225.68,205.55Z"/><path class="cls-17" d="M228.39,205.54c-1.73,1.36-3.76,4.26-1.83,9.67l-1.16.08a8,8,0,0,1,.28-9.74A5.64,5.64,0,0,1,228.39,205.54Z"/><path class="cls-15" d="M260.94,187.5l-2.59-1.43s-1,2.61-1.06,2.91S259,190.4,259,190.4Z"/><path class="cls-18" d="M257.43,193.06c-.06.29-6,.35-6.18.23A124.87,124.87,0,0,1,250,180.46a76,76,0,0,1,7.74-.3C258,180.33,257.6,192.25,257.43,193.06Z"/><path class="cls-15" d="M259.07,187.05c.1-.12.64-3.64-1.24-5.36l0,3.36a25.12,25.12,0,0,1-7.72-1.27c-3.11-1.26-1.13,1.34.87,1.94,0,0-2.25-.38-2.48.41s5.29,5.55,9.18,3.43l1.22-1.76Z"/><path class="cls-15" d="M259.61,168a2.74,2.74,0,0,1,1,2.66c-.36,1.66-3.45,7.22-7.22,8.16,0,0-7-5.25-5.15-9.89s4.56-2.44,4.56-2.44Z"/><g class="cls-19"><path class="cls-15" d="M248.26,168.9c1.84-4.65,4.56-2.44,4.56-2.44l6.79,1.51a2.71,2.71,0,0,1,.41.4h0s-.82,5.29-6.22,5.88C248.93,174.79,248,169.61,248.26,168.9Z"/></g><path class="cls-15" d="M260.07,157.24s4.43,13.3-5.74,15.13-6.74-15.1-6.74-15.1l7.75-1.59Z"/><path class="cls-15" d="M247.48,163.58a1.89,1.89,0,0,0-2.12-.76c-1.32.45.88,6.18,2.94,5.3S247.48,163.58,247.48,163.58Z"/><path class="cls-20" d="M259.13,158.14s-4.07,7.13-12.09,5S243.4,156,243.4,156s.81,1,1.48,1,3.83-7.5,10.93-6.58,4.91,3.17,4.91,3.17,1.48-.41,2.79,1.46,1.4,7.21-1.33,8.72L261,162.53A14,14,0,0,0,259.13,158.14Z"/><path class="cls-15" d="M260.54,163.08a1.88,1.88,0,0,1,2-.92c1.36.35-.41,6.23-2.52,5.51S260.54,163.08,260.54,163.08Z"/><path class="cls-21" d="M237.91,209.33s-.41,3.69.21,5.61c0,0,25,2.12,35-1.34s11.35-7.84,7.65-11.1S262.73,198.29,237.91,209.33Z"/><path class="cls-15" d="M271,209.93s-4.33,5-5.71,5.17l5.45-.22,1.82-1,.19-2.39Z"/><path class="cls-16" d="M280.31,205.13a8,8,0,0,1,1,9.69l-10.55.06s1.23-1.81.26-4.95C271,209.93,276,204.29,280.31,205.13Z"/><path class="cls-17" d="M277.6,205.33c1.83,1.22,4.07,4,2.56,9.49h1.17a8,8,0,0,0-1-9.69A5.57,5.57,0,0,0,277.6,205.33Z"/><path class="cls-15" d="M258.65,202.73a10.94,10.94,0,0,1,3.47,3.21,9.48,9.48,0,0,1,1.44,5.71c-.2,1.69-1,3.51-1.38,3.69s-.49-.57-.49-.57-.3,2.39-1.42,2.63-.64-2-.64-2,.08,1.94-.65,2-2.74-5-1.62-11.24C257.36,206.22,257.13,203.71,258.65,202.73Z"/><path class="cls-15" d="M262.14,207.43s2.13,2,3.26,2.16c0,0-.3,1.65-2.9.37S262.14,207.43,262.14,207.43Z"/><polygon class="cls-15" points="257.36 206.22 256.32 206 254.04 204.3 256.2 202.82 257.21 202.25 258 202.22 258.65 202.73 260.68 205.66 257.36 206.22"/><path class="cls-22" d="M258.63,202.05s-2.12,1-1.89,4.25c0,0-20.48.48-25.5-7.82s7.23-23.5,8.89-24.95c0,0,6.69,13.87,4,20.31C244.17,193.84,257.7,201.36,258.63,202.05Z"/><path class="cls-22" d="M260.63,186.58s-2,2.5-2.1,4.14c0,0,7.89,11.37,16.63,10.81s3.82-20.8-3.6-27.86c0,0-5.85,7-3.87,15.77A44.09,44.09,0,0,1,260.63,186.58Z"/><path class="cls-5" d="M273.59,214.19a6.57,6.57,0,0,0-.37-4.16l-.27.14a6.32,6.32,0,0,1,.35,4Z"/><path class="cls-5" d="M275.26,214.15a6.68,6.68,0,0,0-.76-4.86l-.25.16a6.49,6.49,0,0,1,.72,4.63Z"/><path class="cls-5" d="M234.1,214l.28-.08c-.74-2.67-.11-3.9-.1-3.91l-.26-.14C234,209.93,233.32,211.21,234.1,214Z"/><path class="cls-5" d="M232.39,214.06l.28-.1a4.28,4.28,0,0,1,.63-4.52l-.2-.21A4.53,4.53,0,0,0,232.39,214.06Z"/><path class="cls-5" d="M256.7,205.72l.06-.29c-.21-.05-21.38-4.8-23-9.61s7.44-19.61,7.54-19.76l-.26-.15c-.37.61-9.2,15-7.57,20S255.82,205.53,256.7,205.72Z"/><path class="cls-5" d="M274.41,199.45a3.23,3.23,0,0,0,1.8-.47c4.41-2.87-4.59-23.87-5-24.76l-.27.12c.09.21,9.28,21.66,5.08,24.39a2.91,2.91,0,0,1-1.64.43c-5.22,0-15.55-9-15.67-9.11l-.2.23C259,190.69,269.06,199.45,274.41,199.45Z"/><path class="cls-5" d="M258.87,134.74h0c-22.08-1.45-54.85,0-55.18,0a.17.17,0,0,1-.18-.17.18.18,0,0,1,.17-.19c.33,0,33.11-1.45,55.22,0a.18.18,0,0,1,.16.19A.17.17,0,0,1,258.87,134.74Z"/><path class="cls-5" d="M259.35,141h0c-19.76-.67-54.57,0-54.92,0h0a.18.18,0,0,1-.18-.18.18.18,0,0,1,.17-.18c.35,0,35.17-.66,54.94,0a.18.18,0,0,1,.17.18A.18.18,0,0,1,259.35,141Z"/><path class="cls-5" d="M204.83,148.34a.19.19,0,0,1-.17-.12.19.19,0,0,1,.12-.23c.1,0,10.08-3,33.92-.74a.18.18,0,0,1,0,.35c-23.76-2.27-33.69.7-33.78.73Z"/><path class="cls-5" d="M189.37,101h0c-17.5-2.07-45.8-.92-46.09-.91a.17.17,0,0,1-.18-.17.17.17,0,0,1,.17-.18c.28,0,28.61-1.17,46.14.9a.18.18,0,0,1,.16.2A.18.18,0,0,1,189.37,101Z"/><path class="cls-5" d="M188.4,107.15h0c-11.52-1.49-45.35-.91-45.69-.9a.19.19,0,0,1-.19-.18.19.19,0,0,1,.18-.18c.34,0,34.2-.58,45.75.91a.17.17,0,0,1,.15.2A.16.16,0,0,1,188.4,107.15Z"/><path class="cls-5" d="M142.67,113.37a.18.18,0,0,1-.18-.17.18.18,0,0,1,.17-.18c.25,0,24.6-1.11,31-.91a.18.18,0,1,1,0,.36c-6.34-.2-30.67.89-30.92.9Z"/><path class="cls-5" d="M144.58,118.25a.18.18,0,0,1-.17-.17.18.18,0,0,1,.17-.19c.37,0,37.2-1.39,43.84-.69a.18.18,0,0,1,0,.35c-6.61-.69-43.42.68-43.79.7Z"/><path class="cls-15" d="M131.34,93.18s2.7,1,1.87,5.08l-3.67,1.6s-6-.7-6.17-4.66a5,5,0,0,0,2.19-2.92c.71-2.19,3.08-1.16,3.08-1.16Z"/><g class="cls-19"><path class="cls-15" d="M131.34,93.18l-2.7-2.06s-2.37-1-3.08,1.16a5.61,5.61,0,0,1-1.59,2.5c2.93,1.56,7.84,3.36,8.64-.55A3.14,3.14,0,0,0,131.34,93.18Z"/></g><polygon class="cls-15" points="129.94 196.66 129.3 198.72 129.72 199.88 131.77 200.09 133.09 199.9 132.87 198.89 132.56 196.93 129.94 196.66"/><path class="cls-23" d="M129.3,198.72s-2.13,4.16-1.32,8c0,0,12.27,1.5,18-1.24,0,0,.84-1.93,0-3s-8.9-1.88-13.14-3.6C132.87,198.89,132.7,200.61,129.3,198.72Z"/><path class="cls-23" d="M129.3,198.72s-2.13,4.16-1.32,8c0,0,12.27,1.5,18-1.24,0,0,.84-1.93,0-3s-8.9-1.88-13.14-3.6C132.87,198.89,132.7,200.61,129.3,198.72Z"/><polygon class="cls-15" points="122.44 199.26 123.37 193.58 125.05 195.19 126.01 199.44 126.01 201.26 123.37 201.26 122.44 199.26"/><path class="cls-24" d="M138.09,128.85a48.93,48.93,0,0,1,.54,17.22c-1.44,9.19-3.11,15.23-3.24,15.94s-1.35,30.08-2.57,35.92a6.7,6.7,0,0,1-3.21-.68s-1.16-11.72-1.22-22.26,0-24.42,0-24.42l-.59-5.91,2.06-10.22Z"/><path class="cls-20" d="M137.2,87.27s9.57-1.61,3.4-10.54l-6.49,3.66Z"/><path class="cls-15" d="M137.06,78.21c2,2.24,1.61,10-.13,12.66h-1.86s-2.57,7.77-10.54,2.5l-3.15-5.14,2.19-7.52,6.68-1.41Z"/><path class="cls-20" d="M127,83.86s11.64,1.86,13.63-7.13A37.46,37.46,0,0,1,129.89,75c-5.65-1.8-11.85.37-11.91,9.69-.06,8.55-17.94,13.78-15.81,23,1.35,5.85,6.36,4.69,7.32,11.1,1.11,7.39-10,17.18,6.56,20.72l5.25-10.87-3.58-13.17,4.3-13.75,1.35-6.53s3.62-.67,2.65-7.93Z"/><path class="cls-25" d="M115.6,129s-2,6.38.7,16.13c2.19,7.77,8,15.61,8,15.61s-6.85,9.6-1.8,36.85c0,0,.7,1.29,3.57.43,0,0,2.56-26.22,8.34-34.77,0,0-4.62-19.47-3-27.53,0,0,5.91-2.82,7.11-6.42s-5-2.92-5-2.92L119,127.65Z"/><path class="cls-15" d="M127.73,85s-.29-2.11-2.16-1.59-1.48,5.07.89,5.26l1-1.22Z"/><polygon class="cls-15" points="140.13 125.3 142.14 122.98 139.53 120.67 138.4 122.48 139.7 124.78 140.13 125.3"/><path class="cls-26" d="M138.82,96.8c1.16.43,9.85,11.74,10,16.41s-7.54,11.57-7.54,11.57a5,5,0,0,0-2.86-3s3.17-6.48.77-11.65v-4.46l-1.46-6.25Z"/><path class="cls-6" d="M117.46,122.2s-1.67,6.26-1.86,6.78c0,0,11.12,4.62,21.08-1a20.91,20.91,0,0,0,.77-2.65c0-.44-2.75-4.7-.5-13.29,0,0,2.81-1,3.65-3.21,0,0-2.15-8.19-1.78-12L133,94.87s1.37,2.49-3,2.74a8.42,8.42,0,0,1-6.65-2.41L115,99.28l.79,8.68Z"/><path class="cls-15" d="M138.4,122.48c-1.22-.82-4.42.33-4.36,1.42s2.18.51,2.18.51-2.76.58-2.37,1.93,2.89,0,2.89,0-2.06,1.09-1.09,2.06,2.06-.45,2.06-.45-1.1,1-.52,1.48,2.89-.58,3.34-2.9S139,122.87,138.4,122.48Z"/><path class="cls-15" d="M136.93,120.54c.18-1.25-1.37-2.38-2-1.31S136.68,122.33,136.93,120.54Z"/><path class="cls-15" d="M127.74,108,126,109.31v3h1.53a7.16,7.16,0,0,1,1.16-1.82,10.66,10.66,0,0,0,1.18-1.67Z"/><path class="cls-26" d="M115,99.28c-.57-.11-3,4.85-2.36,11s2.36,16.28,8.1,14.86,7.41-13.06,7.41-13.06a5.8,5.8,0,0,1-1.5-3.6,19.65,19.65,0,0,0-4.15,3.79S121.51,100.57,115,99.28Z"/><path class="cls-27" d="M146.33,204.35a73.33,73.33,0,0,1-12.52.53L135,207.1c3.76,0,8.18-.3,11-1.65A5.67,5.67,0,0,0,146.33,204.35Z"/><path class="cls-16" d="M122.44,199.26s-2.13,4.16-1.32,8c0,0,12.28,1.5,18-1.24,0,0,.84-1.93,0-3s-8.9-1.89-13.14-3.6C126,199.44,125.84,201.15,122.44,199.26Z"/><path class="cls-28" d="M139.47,204.88c-6.35,1.8-14.8,1-18.53.6a8.66,8.66,0,0,0,.18,1.75s12.28,1.5,18-1.24A5.64,5.64,0,0,0,139.47,204.88Z"/><path class="cls-18" d="M132.29,102.23a25.57,25.57,0,0,1,1.23-3.59,35,35,0,0,1,6,0c0,.15-1.64,5.16-1.64,5.16s-2.89,8.26-3,8.36-5.44,1.24-5.65,1,1.68-6,1.68-6Z"/><path class="cls-15" d="M127.74,108s.41-6.81,2.69-6.32c1,.21-.54,3.52-.54,3.52a19.09,19.09,0,0,1,6.34-2.27c3.15-.39,3.58,1.09,2.17,1.35a12,12,0,0,0-2.43.7s2.44-.12,2.89.45-1,1.23-1.6,2.19-.39,1.8-1.29,2-7.26.84-7.26.84Z"/><path class="cls-5" d="M123.9,198.41a.14.14,0,0,1-.14-.1c-2.78-12.64,3.5-35.84,3.89-37.24-9.87-14-9.24-31-9.24-31.18a.14.14,0,0,1,.15-.13.13.13,0,0,1,.13.14c0,.17-.63,17.15,9.22,31.07l0,.05,0,.07c-.07.24-6.74,24.26-3.9,37.16a.13.13,0,0,1-.1.16Z"/><path class="cls-5" d="M119,137.73a.13.13,0,0,1-.13-.09.14.14,0,0,1,.09-.18c6.62-2.25,5.32-6.5,5.27-6.68a.14.14,0,0,1,.08-.18.15.15,0,0,1,.18.09c0,.05,1.45,4.69-5.45,7Z"/><path class="cls-5" d="M125.91,201.84a.1.1,0,0,1-.07,0,.09.09,0,0,1,0-.13,6.18,6.18,0,0,1,3.54-1.29c.06,0,.12,0,.11.1a.09.09,0,0,1-.09.09h0a6.21,6.21,0,0,0-3.42,1.24A.07.07,0,0,1,125.91,201.84Z"/><path class="cls-5" d="M127.5,202.15a.12.12,0,0,1-.08,0,.11.11,0,0,1,0-.14,9.22,9.22,0,0,1,3.44-1.24.09.09,0,0,1,.1.09.08.08,0,0,1-.08.1,9,9,0,0,0-3.36,1.21Z"/><path class="cls-5" d="M129.2,202.15a.1.1,0,0,1-.09-.06.09.09,0,0,1,0-.12,16.27,16.27,0,0,1,3.13-1,.11.11,0,0,1,.11.08.1.1,0,0,1-.08.11,15.6,15.6,0,0,0-3.08.94Z"/><path class="cls-5" d="M133.54,200.61a.1.1,0,0,1-.09-.06.09.09,0,0,1,.05-.12,7.55,7.55,0,0,1,2.46-.68c.07,0,.1,0,.11.09a.11.11,0,0,1-.09.1,7.64,7.64,0,0,0-2.4.66Z"/><path class="cls-5" d="M135,201a.1.1,0,0,1-.09-.07.09.09,0,0,1,.06-.12s1.71-.51,2.71-.67a.09.09,0,0,1,.11.07.09.09,0,0,1-.08.11c-1,.17-2.67.67-2.68.67Z"/><path class="cls-5" d="M136.77,201.3a.12.12,0,0,1-.1-.07.11.11,0,0,1,.07-.12s1.39-.45,2.29-.64a.09.09,0,0,1,.12.07.09.09,0,0,1-.08.11c-.89.2-2.26.64-2.27.64Z"/><path class="cls-25" d="M184.51,113.42s-6.95-3.47-8.65,1.07c-2.07,5.48,12.66,6.36,12.66,6.36s4.11-9.87.07-11.08C185.37,108.8,184.51,113.42,184.51,113.42Z"/><path class="cls-8" d="M47.34,101a1.94,1.94,0,0,0-2.11-2.57,2.93,2.93,0,0,0-2.33,2.94,1.91,1.91,0,0,0,2.58,1.8,4.55,4.55,0,0,0,1.49-1.5,9.4,9.4,0,0,0,1.1-2.08l-.83-.22c-.13.74-.3,1.48-.39,2.22a1.73,1.73,0,0,0,.38,1.55,1.23,1.23,0,0,0,1.43.12,2.82,2.82,0,0,0,1.05-1.5A4.39,4.39,0,0,0,49.63,98a4,4,0,0,0-3-1.72,6,6,0,0,0-3.86.54,5.53,5.53,0,0,0-2.72,2.86,5.87,5.87,0,0,0,.16,4.13,4.89,4.89,0,0,0,2.82,2.24c3,1.09,6.73.44,8.72-2.21.34-.45-.41-.88-.74-.44a6.43,6.43,0,0,1-5.93,2.23c-2-.23-4.27-1.2-4.43-3.51A4.4,4.4,0,0,1,41.45,99,6.22,6.22,0,0,1,44,97.24c1.64-.49,4.44-.24,5.09,1.65a4.12,4.12,0,0,1-.5,3.26c-.17.25-.62.69-.86.25a1.29,1.29,0,0,1,0-.73c.09-.69.24-1.37.36-2.06a.43.43,0,0,0-.83-.22,8,8,0,0,1-1.42,2.36c-.26.3-.57.71-1,.73a1,1,0,0,1-.94-.64,2,2,0,0,1,.89-2.31c.95-.56,2.13.09,1.74,1.26-.18.53.66.76.83.23Z"/><path class="cls-10" d="M299.39,120c0-.67-.3-4.43-.24-4.76s11.65,2.49,11.65,2.49l16,10.76,2.13,1.76-10.37-2.55s-11.78-3.69-12.24-3.8S299.39,120,299.39,120Z"/><g class="cls-19"><path class="cls-10" d="M299.39,120c0-.67-.3-4.43-.24-4.76s11.65,2.49,11.65,2.49l16,10.76,2.13,1.76-10.37-2.55s-11.78-3.69-12.24-3.8S299.39,120,299.39,120Z"/></g><path class="cls-10" d="M287.56,125.05s9-7.38,9.7-7.38,31,12.4,31.69,12.61S287.56,125.05,287.56,125.05Z"/><path class="cls-10" d="M299.15,115.27c-.25-.22,4-9.16,4.75-9.09s26.58,24.7,25.05,24.1S299.55,115.61,299.15,115.27Z"/><path class="cls-12" d="M137.5,64.9c.93,0,12-3.76,12.22-3.87,0,0-2.6-9.2-2.9-9.49,0,0-12.13,3-12.25,3.21S137.5,64.9,137.5,64.9Z"/><path class="cls-5" d="M140.12,61.75c.43.49,5.13-4.5,5-4.71a58.07,58.07,0,0,0-6.5-.35A35.59,35.59,0,0,0,140.12,61.75Z"/><path class="cls-29" d="M65.32,122.89c.66.78,25.61,1.16,26.19.91,0,0,1.86-15.75,1.11-15.89s-25-1-27.11-.22C65.51,107.69,65,122.53,65.32,122.89Z"/><path class="cls-8" d="M79.82,118.9c-.4,0-1.51-.63-6.35-5.53-2.8-2.83-5.52-5.75-5.54-5.78a.25.25,0,1,1,.36-.34s2.62,2.82,5.35,5.58c4.89,5,5.94,5.52,6.16,5.56.75-.45,6.1-6.83,9.34-10.8a.26.26,0,0,1,.36,0,.25.25,0,0,1,0,.35c-.87,1.08-8.58,10.51-9.54,11A.43.43,0,0,1,79.82,118.9Z"/><path class="cls-8" d="M69,123.61a.26.26,0,0,1-.18-.07.26.26,0,0,1,0-.36l7.46-7.37a.25.25,0,0,1,.35.35l-7.46,7.38A.24.24,0,0,1,69,123.61Z"/><path class="cls-8" d="M87.32,124.13a.22.22,0,0,1-.21-.12l-4.9-7.89a.26.26,0,0,1,.08-.35.27.27,0,0,1,.35.08l4.89,7.9a.24.24,0,0,1-.08.34A.22.22,0,0,1,87.32,124.13Z"/><path class="cls-30" d="M92.62,107.91c-.15,0-1.3-.09-3-.16-.28,3.32-.89,12.35-.83,16.13a22.72,22.72,0,0,0,2.76-.08S93.37,108.05,92.62,107.91Z"/><path class="cls-30" d="M67.81,107.43a10.7,10.7,0,0,0-2.3.26s-.5,14.84-.19,15.2a7.28,7.28,0,0,0,2.31.37C67.69,119.81,67.83,111,67.81,107.43Z"/><path class="cls-25" d="M89.2,113.07l3.13,3c.1-1,.19-2,.26-3a38.06,38.06,0,0,0-3.13-3.86C89.38,110.32,89.29,111.65,89.2,113.07Z"/><path class="cls-25" d="M88.89,118.51l3,2c.08-.78.18-1.66.27-2.58a21.78,21.78,0,0,1-3.1-2.53C89,116.46,88.94,117.5,88.89,118.51Z"/><path class="cls-25" d="M88.8,120.68c0,1.25-.06,2.35,0,3.2a22.72,22.72,0,0,0,2.76-.08s.06-.46.15-1.24A26.53,26.53,0,0,1,88.8,120.68Z"/><path class="cls-25" d="M65.23,119l2.43,2.44c0-1.07,0-2.32.06-3.65l-2.42-2.71C65.27,116.4,65.24,117.77,65.23,119Z"/><path class="cls-25" d="M65.36,112.72l2.4,2.44c0-1.19,0-2.38,0-3.49l-2.36-1.39C65.41,111,65.38,111.84,65.36,112.72Z"/><path class="cls-25" d="M67.81,109.36v-1.93a15.92,15.92,0,0,0-2,.18Z"/><path class="cls-8" d="M76.39,113.11a.25.25,0,0,1-.25-.25.25.25,0,0,1,.25-.25l6.76,0h0a.25.25,0,0,1,.25.24.26.26,0,0,1-.25.26l-6.76,0Z"/><path class="cls-8" d="M76.15,110.6a.25.25,0,0,1,0-.5h6.32a.26.26,0,0,1,.25.25.25.25,0,0,1-.25.25Z"/><path class="cls-12" d="M349.05,136.06s6.27-.42,9.35.41l-.37,2.69-2.85,2.47-3.13,1.42-6.76-.92-2-2.49A27.92,27.92,0,0,1,349.05,136.06Z"/><path class="cls-30" d="M342.61,145c0,.31,11.37,2.07,11.37,2.07l1-5.46-.53-.26s-10.26-1.4-11.12-1.71A27.6,27.6,0,0,0,342.61,145Z"/><path class="cls-8" d="M354,147.07s6-6.51,6-6.62-1.6-4-1.6-4l-3.94,4.88Z"/><path class="cls-8" d="M351.31,138.43a.32.32,0,0,1-.28-.34c.2-4,1.14-12,1.15-12a.32.32,0,1,1,.64.07c0,.08-.95,8-1.14,12a.33.33,0,0,1-.34.3Z"/><path class="cls-25" d="M348.87,121.37a4.54,4.54,0,0,1,6.47.54c2.61,3,.28,7.82-3.48,7.12C349,128.49,345.84,125.19,348.87,121.37Z"/><path class="cls-8" d="M80.05,82.67a5.59,5.59,0,0,1-1.81-1.55,6.72,6.72,0,0,1-.64-.91,2.18,2.18,0,0,1-1.38.24c-.56-.11-1.34-.55-1.82-2.07-.73-2.3,2.82-3.9,3-4a.27.27,0,0,1,.22.5s-3.25,1.46-2.67,3.3c.32,1,.8,1.58,1.4,1.69a1.63,1.63,0,0,0,1-.19A2,2,0,0,1,77.24,78a1.08,1.08,0,0,1,1-.63.92.92,0,0,1,.84.55,1.46,1.46,0,0,1-.42,1.38,3,3,0,0,1-.62.6,6.73,6.73,0,0,0,.61.87c1.81,2.25,3.51,1.81,4.16,1.52h0a2.49,2.49,0,0,1-.77-.75c-.61-.91-.47-1.5-.24-1.83a1.68,1.68,0,0,1,1.75-.53,1.46,1.46,0,0,1,1.22,1.14,2.14,2.14,0,0,1-.7,1.74A5.83,5.83,0,0,0,87,80.84a.27.27,0,0,1,.39,0,.28.28,0,0,1,0,.38c-.08.07-2,1.59-3.68,1.33l-.15,0a4.92,4.92,0,0,1-.45.24A3.38,3.38,0,0,1,80.05,82.67ZM78.44,78a.41.41,0,0,0-.19,0,.57.57,0,0,0-.52.33,1.39,1.39,0,0,0,.08,1.16,2.68,2.68,0,0,0,.45-.44c.29-.37.39-.7.34-.83A.37.37,0,0,0,78.44,78Zm5.38,1.88a1.43,1.43,0,0,0-.35-.12,1.16,1.16,0,0,0-1.18.3c-.19.27-.1.7.25,1.22a1.74,1.74,0,0,0,.87.71,1.85,1.85,0,0,0,.86-1.54A.83.83,0,0,0,83.82,79.85Z"/><path class="cls-4" d="M89.57,79.89a19.13,19.13,0,0,1-2.39,1.81l-.87-.79,1.89-2.19Z"/><path class="cls-25" d="M86.28,77.85c.45.71,4.78,5,9.26,3.45s12.85-14.82,12.53-16.7-3.34-8.94-5.24-8.58-6.62,5.24-5.06,6.78,4.93,2.49,5,3.61-4.32,9.47-7.34,9.3-2.9-3.08-4.41-3.35S85,75.78,86.28,77.85Z"/><path class="cls-4" d="M97.77,62.8c-1.56-1.54,3.17-6.42,5.06-6.78a.91.91,0,0,1,.43,0h0l.06,0C103.73,56.43,101.1,62.08,97.77,62.8Z"/><path class="cls-4" d="M91,72.36c.44.18.21,1.91-2.2,4.38C87.76,77.85,87,78.1,86.42,78a.89.89,0,0,1-.14-.18C85,75.78,89.53,72.09,91,72.36Z"/><path class="cls-8" d="M89.08,74.55a.46.46,0,0,0,.42-.81.46.46,0,0,0-.42.81Z"/><path class="cls-8" d="M87.7,76a.46.46,0,0,0,.42-.81.46.46,0,0,0-.42.81Z"/><path class="cls-8" d="M101.37,58.17a.46.46,0,0,0,.42-.81.46.46,0,0,0-.42.81Z"/><path class="cls-8" d="M100.22,59.66a.46.46,0,0,0,.42-.81.46.46,0,0,0-.42.81Z"/><path class="cls-8" d="M98.91,61.25a.46.46,0,0,0,.42-.81.46.46,0,0,0-.42.81Z"/><path class="cls-4" d="M241.64,148a4.37,4.37,0,0,0-5.86-2.11c-3.76,2.8-1.67,6.63.87,7.84C240,155.32,243.32,151.39,241.64,148Zm-2.3.35a.55.55,0,0,1-.43,1A.55.55,0,0,1,239.34,148.35Zm-2-.61a.55.55,0,0,1-.42,1A.55.55,0,0,1,237.31,147.74Zm3.48,3.32c-1.67,1.94-5.31.75-5.61-1.78a.37.37,0,0,1,.73-.1c.23,1.87,3,2.89,4.3,1.42C240.52,150.24,241.1,150.7,240.79,151.06Z"/><path class="cls-5" d="M327.5,60.87a16.3,16.3,0,0,0,2.14-3.81c.33-1.33.31-3.05,1-3a2.47,2.47,0,0,1,1.62,2.5c-.13,1.16-1,2.75-.39,2.72s5.34-1.43,5.79-1.13.88,1.39.14,1.76c0,0,1.27,1.17.2,2.19a1.37,1.37,0,0,1-.06,2s1,1.34-1.93,2.17-7.17,1.56-7.17,1.56Z"/><path class="cls-8" d="M330.77,67.82l-1.85.35-.35.06-1.46-7.45.09-.13A16.34,16.34,0,0,0,329.29,57c.09-.37.15-.77.22-1.16.16-1.06.31-2,1-2.1a.62.62,0,0,1,.19,0,1.93,1.93,0,0,1,1.23.76,3,3,0,0,1,.73,2.16,7.78,7.78,0,0,1-.36,1.46c-.08.27-.18.61-.22.82h0c.33-.06.89-.2,1.54-.37.88-.22,1.88-.47,2.68-.62,1.08-.21,1.39-.18,1.59,0a1.85,1.85,0,0,1,.7,1.47,1.1,1.1,0,0,1-.24.63,2.12,2.12,0,0,1,.47,1.23,1.6,1.6,0,0,1-.32,1,1.88,1.88,0,0,1,.31,1.06,1.57,1.57,0,0,1-.4,1,1.33,1.33,0,0,1,0,.89c-.23.67-1,1.19-2.29,1.56C334.42,67.08,332.27,67.53,330.77,67.82Zm-1.63-.43c1.08-.2,4.38-.82,6.79-1.49,1.37-.39,1.72-.85,1.8-1.1a.62.62,0,0,0-.06-.5l-.21-.27.25-.22a.9.9,0,0,0,.36-.65,1.25,1.25,0,0,0-.32-.81l-.23-.26.25-.25a.89.89,0,0,0,.31-.65,1.74,1.74,0,0,0-.51-1l-.39-.35.47-.24a.33.33,0,0,0,.2-.3,1.13,1.13,0,0,0-.35-.81,5.91,5.91,0,0,0-1.07.14c-.78.15-1.77.4-2.65.62-.66.16-1.23.31-1.57.37l-.31,0a.58.58,0,0,1-.46-.2c-.24-.32-.09-.83.15-1.6a8.6,8.6,0,0,0,.33-1.33,2.26,2.26,0,0,0-.57-1.6,1.3,1.3,0,0,0-.71-.5c-.19.08-.34,1-.42,1.5s-.13.83-.22,1.22A15.42,15.42,0,0,1,327.88,61Z"/><path class="cls-25" d="M325.15,70.7l4.46-1.54-2-10s-3.95,1.08-4.52,1.21C323.13,60.37,324.3,68.77,325.15,70.7Z"/><path class="cls-8" d="M284.06,91.53A12.35,12.35,0,0,0,287.15,105a12.5,12.5,0,0,0,6.15,3c2,.36,4.52.44,5.86-1.32a4.63,4.63,0,0,0,.16-5.1A6.87,6.87,0,0,0,294,98.71a8.77,8.77,0,0,0-9.5,7.41c-.72,5.91,5,9.87,10.45,9.31.45,0,.46-.76,0-.71-4.26.43-9.08-2-9.72-6.56a7.81,7.81,0,0,1,6.57-8.64,7.49,7.49,0,0,1,5.61,1.11,4.06,4.06,0,0,1,1.21,5.62c-1.32,1.79-4.21,1.4-6.09.89a11.8,11.8,0,0,1-5.16-2.91,11.68,11.68,0,0,1-2.61-12.51c.16-.43-.53-.62-.69-.19Z"/></g></g></svg>