<svg xmlns="http://www.w3.org/2000/svg" viewBox="0 0 428 248"><defs><style>.cls-1{isolation:isolate;}.cls-2{fill:#29495c;}.cls-3{fill:#fff;}.cls-4{fill:#fd643b;}.cls-5{mix-blend-mode:multiply;}.cls-6{fill:#eff0f0;}.cls-7{fill:#fda93b;}.cls-8{fill:#fd8e3b;}.cls-9{fill:#fdcb87;}.cls-10{fill:#152730;}.cls-11{fill:#14262e;}.cls-12{fill:#1d3745;}.cls-13{fill:#d6e0e6;}.cls-14{fill:#e5e5e6;}.cls-15{fill:#ced1d2;}.cls-16{fill:#babcbe;}.cls-17{fill:#2580b3;}.cls-18{fill:#195578;}.cls-19{fill:#fdefde;}.cls-20{fill:#77ccfd;}.cls-21{fill:#d5e4ec;}.cls-22{fill:#445259;}.cls-23{fill:#fd913c;}</style></defs><g class="cls-1"><g id="Layer_1" data-name="Layer 1"><path class="cls-2" d="M334.4,162.11l-.14-1.6c40-3.58,55.86-27.14,57.4-48,1.34-18.07-8.16-33.71-22.57-37.19-8.77-2.11-15.77.32-19.86,6.86,10.32,4.57,22.45,11.52,23.52,19.2.54,3.88-1.74,7.52-6.78,10.82-6,3.93-11.65,4-15.87.12-6.54-6-8-19.88-3.15-29.37-7-3-12.79-4.82-12.86-4.84l.48-1.53c.58.18,6.32,2,13.18,5,2.86-4.68,9.15-10.8,21.71-7.77,7.69,1.86,14.05,6.75,18.41,14.15a42.81,42.81,0,0,1,5.39,24.72,49,49,0,0,1-15.12,31.71,58.87,58.87,0,0,1-18,11.65A85.56,85.56,0,0,1,334.4,162.11Zm14-78.51a27.41,27.41,0,0,0-2.59,15c.54,5.34,2.49,9.89,5.35,12.5,3.68,3.37,8.49,3.27,13.91-.28,4.47-2.92,6.52-6,6.07-9.25-.69-5-7.28-10.64-19-16.3C350.88,84.71,349.64,84.14,348.42,83.6Z"/><path class="cls-3" d="M56.59,88.07s2.14-3.16,2.49-4.82.24-3.78,1.12-3.76,2.23,1.59,2.12,3S61.24,86,62,85.91s6.55-2,7.12-1.67,1.15,1.67.25,2.17c0,0,1.63,1.39.35,2.71a1.68,1.68,0,0,1,0,2.45s1.31,1.61-2.28,2.77-8.82,2.26-8.82,2.26Z"/><path class="cls-2" d="M61,96.53c-1.33.31-2.26.51-2.27.51l-.43.1L56.11,88l.11-.17s2.09-3.1,2.41-4.65c.1-.46.16-1,.22-1.45.16-1.32.29-2.46,1.12-2.65a.65.65,0,0,1,.24,0,2.34,2.34,0,0,1,1.55.88,3.64,3.64,0,0,1,1,2.63,10.63,10.63,0,0,1-.38,1.83c-.09.34-.2.77-.24,1h0c.4-.1,1.08-.29,1.88-.52,1.09-.32,2.32-.67,3.3-.9,1.33-.31,1.72-.29,2-.14a2.24,2.24,0,0,1,.93,1.8,1.34,1.34,0,0,1-.26.79,2.66,2.66,0,0,1,.64,1.49,1.84,1.84,0,0,1-.36,1.19,2.4,2.4,0,0,1,.44,1.31,2,2,0,0,1-.45,1.21,1.64,1.64,0,0,1,.06,1.09c-.25.84-1.18,1.53-2.76,2C65.45,95.44,62.81,96.1,61,96.53Zm-2-.46c1.33-.29,5.39-1.21,8.34-2.16,1.68-.54,2.09-1.13,2.18-1.44a.69.69,0,0,0-.11-.61l-.26-.33.3-.28a1.16,1.16,0,0,0,.41-.82,1.6,1.6,0,0,0-.43-1l-.3-.31.3-.32a1.11,1.11,0,0,0,.36-.82A2.13,2.13,0,0,0,69,86.75l-.5-.43.57-.31a.39.39,0,0,0,.23-.39,1.4,1.4,0,0,0-.46-1,5.19,5.19,0,0,0-1.32.21c-1,.23-2.18.58-3.26.89-.81.24-1.51.44-1.93.54a1.78,1.78,0,0,1-.38.06.66.66,0,0,1-.57-.22c-.32-.39-.15-1,.1-2a9.57,9.57,0,0,0,.35-1.67,2.8,2.8,0,0,0-.78-2,1.52,1.52,0,0,0-.9-.58c-.23.1-.37,1.25-.45,1.87s-.12,1-.22,1.53a19.29,19.29,0,0,1-2.44,4.81Z"/><path class="cls-4" d="M54.14,100.35l5.45-2.11L56.71,86s-4.85,1.51-5.55,1.7C51.16,87.65,53,98,54.14,100.35Z"/><g class="cls-5"><ellipse class="cls-6" cx="210.06" cy="209.71" rx="201.94" ry="23.65"/></g><path class="cls-2" d="M300.89,227.65c-1.89-.53-4-.3-4.36.9-.69,2.55,7.38,3.74,7.66,1.57C304.33,229,302.37,228.06,300.89,227.65Z"/><path class="cls-7" d="M116.43,233.38c-1.54-.21-3.21.06-3.36.84-.33,1.66,6.13,1.91,6.17.52C119.25,234.05,117.62,233.55,116.43,233.38Z"/><path class="cls-2" d="M100.75,225c2.63.24,6.6,1.55,5.67,4s-11,1.93-11.48-1.19S98.71,224.78,100.75,225Z"/><path class="cls-2" d="M335.12,126c1.57-.28,3.4-.61,4.84.3a2.58,2.58,0,0,1,1.22,1.8,5.64,5.64,0,0,0,.34,1.63c1.25,2.51,4.08.11,5.82.06a.62.62,0,0,0,0-1.23,4.69,4.69,0,0,0-1.73.39,4.73,4.73,0,0,1-2.06.7c-1.09-.09-1-1.15-1.2-2a3.48,3.48,0,0,0-.68-1.47c-1.66-2.11-4.54-1.79-6.88-1.39-.77.14-.44,1.32.33,1.19Z"/><path class="cls-2" d="M174.54,30.46c-2.35-.41-5.22-.73-6.88,1.39a3.45,3.45,0,0,0-.65,1.28c-.22.88,0,2-1.23,2.16a4.56,4.56,0,0,1-2-.66,4.84,4.84,0,0,0-1.8-.42c-.79,0-.79,1.2,0,1.22,1.75,0,4.57,2.45,5.82,0,.6-1.2.13-2.46,1.42-3.35,1.46-1,3.35-.67,5-.39.77.13,1.1-1.05.33-1.18Z"/><path class="cls-4" d="M123.4,203.55c3.43-1,14-5.08,10.09-9.7-4.08-4.85-11.84,1-11.84,1s25.82-21.3,17.58-29.38c-6.49-6.36-20.46,4.36-20.46,4.36s43-67.39,1.68-85.14c-44-18.88-46.32,65.05-33.59,79,0,0-16-10.62-22.8-5.54C53.55,166,70.6,199,98.41,204.36,105,205.63,115.72,205.7,123.4,203.55Z"/><path class="cls-3" d="M111.51,205.42c-4-8.29-6.42-18.88-7.08-31.47a185.24,185.24,0,0,1,1.71-33.74,272.87,272.87,0,0,1,7.91-37.95l.73.23a271.59,271.59,0,0,0-7.88,37.83c-2.59,19.29-3.77,46.18,5.3,64.76Z"/><path class="cls-3" d="M105,163.12l-.57-.51c10.65-11.87,14.16-32.35,14.2-32.55l.75.12C119.34,130.39,115.8,151.08,105,163.12Z"/><path class="cls-3" d="M106,186.67c-8.75-7.6-11-21.84-11.43-32.43a116.46,116.46,0,0,1,1.27-21.33l.75.13a115.48,115.48,0,0,0-1.26,21.18c.38,10.44,2.63,24.45,11.18,31.88Z"/><path class="cls-3" d="M108.45,195.78l-.31-.69c11-5,18.24-17.85,18.32-18l.66.37C127.05,177.61,119.63,190.65,108.45,195.78Z"/><path class="cls-3" d="M109.9,200.8c-10.33-2-18.64-9-23.79-14.62a70.1,70.1,0,0,1-8.8-11.76l.67-.37a68.91,68.91,0,0,0,8.7,11.62c5.07,5.5,13.24,12.46,23.36,14.38Z"/><path class="cls-3" d="M111.12,203.48l-.11-.75c8.66-1.3,12.46-3.83,12.49-3.86l.43.63C123.77,199.61,120,202.15,111.12,203.48Z"/><path class="cls-2" d="M32,143.43a28.93,28.93,0,0,0,.32,6.3c.13.77,1.31.44,1.18-.33a27.74,27.74,0,0,1-.27-6c0-.79-1.18-.79-1.23,0Z"/><path class="cls-2" d="M34.84,144.1a28.09,28.09,0,0,0-5,3.84c-.57.55.3,1.41.87.87a26.24,26.24,0,0,1,4.74-3.65.61.61,0,0,0-.62-1.06Z"/><path class="cls-2" d="M29.73,145.42A27.88,27.88,0,0,0,35,148.58c.71.33,1.34-.73.62-1.06a27.88,27.88,0,0,1-5.27-3.16c-.62-.48-1.23.58-.62,1.06Z"/><path class="cls-2" d="M385.3,55.22a27.81,27.81,0,0,0,5,3.84c.67.41,1.29-.65.62-1.06a26.72,26.72,0,0,1-4.75-3.64c-.57-.55-1.44.31-.87.86Z"/><path class="cls-2" d="M387.73,53.43a28.86,28.86,0,0,0-.31,6.3c.05.78,1.27.79,1.22,0a27.83,27.83,0,0,1,.27-6c.13-.77-1.06-1.1-1.18-.32Z"/><path class="cls-2" d="M385.38,58.25a28.35,28.35,0,0,0,6-2c.72-.33.1-1.39-.62-1.05a26.82,26.82,0,0,1-5.67,1.9c-.77.17-.44,1.36.33,1.19Z"/><path class="cls-2" d="M17,98.81a37.92,37.92,0,0,0,8.45-.42c.88-.14.51-1.48-.37-1.34a36.39,36.39,0,0,1-8.08.38c-.89-.06-.88,1.33,0,1.38Z"/><path class="cls-2" d="M258.71,45a32.31,32.31,0,0,0,.89,8.25l.93-.54q-2.47-2.38-4.88-4.86c-.5-.52-1.29.28-.79.8q2.4,2.46,4.88,4.85a.57.57,0,0,0,.94-.55,31.71,31.71,0,0,1-.85-7.95.56.56,0,0,0-1.12,0Z"/><path class="cls-2" d="M234.23,150h0a4.52,4.52,0,0,1-4.48-4.67A4.58,4.58,0,0,1,231,142a4.51,4.51,0,0,1,3.18-1.34,4.6,4.6,0,0,1,3.43,1.43,4.68,4.68,0,0,1,1.2,3.59A4.46,4.46,0,0,1,234.23,150Zm0-8.23a3.39,3.39,0,0,0-3.36,3.55,3.38,3.38,0,0,0,3.36,3.55v0a3.35,3.35,0,0,0,3.5-3.28,3.59,3.59,0,0,0-.9-2.75A3.45,3.45,0,0,0,234.22,141.78Z"/><path class="cls-2" d="M234.71,142.82v-6.16a.57.57,0,0,0-1.13,0v6.16a.57.57,0,0,0,1.13,0Z"/><path class="cls-2" d="M236.61,145.68q3.49-.3,7-.3a.56.56,0,0,0,0-1.12q-3.51,0-7,.3c-.71.06-.72,1.19,0,1.12Z"/><path class="cls-2" d="M233.76,148.26a21.07,21.07,0,0,0-.37,8.22c.11.71,1.19.41,1.08-.3a19.56,19.56,0,0,1,.37-7.62c.17-.7-.91-1-1.08-.3Z"/><path class="cls-2" d="M231.62,145a39.81,39.81,0,0,0-6.55.18c-.71.08-.72,1.2,0,1.12a38.73,38.73,0,0,1,6.55-.17c.72,0,.72-1.09,0-1.13Z"/><path class="cls-2" d="M220.27,51.6a3.63,3.63,0,0,0-5.33,1.54c-.88,2.14-.88,5.35,1.86,6,2.57.59,4.52-1.67,5.16-3.92a3,3,0,0,0-.63-3.19c-1.12-1-2.71-1-4-1.55-.66-.3-1.23.67-.57,1,1.32.61,4.2.58,4.3,2.48.08,1.7-1.42,4-3.2,4.17-4.21.34-2.12-8.18,1.86-5.5.6.4,1.16-.57.56-1Z"/><polygon class="cls-8" points="255.9 106.52 259.14 99.1 255.25 97.85 258.04 92.32 262.24 93.94 263.46 89.33 255.49 84.81 253.84 88.09 250.63 86.47 251.28 85.19 248.23 83.66 249 82.14 241.55 77.78 239.21 82.43 243.58 84.11 241.11 89.82 236.66 87.47 233.02 97.09 255.9 106.52"/><path class="cls-7" d="M195.2,77.43c2-4.63,4.69-15.9-4.11-19.75-9.21-4-18,6.32-20.91,13.91-4.07,10.67-1.5,17.8,4,20.58C180.33,95.26,188.8,92.22,195.2,77.43ZM177,84.17c-6.5-4.51-.65-13.73,4-11.79,0,0-.6-10.49,6.77-7S184.75,89.54,177,84.17Z"/><path class="cls-7" d="M193.31,75.61,261.64,108s-2.27,7.16-3.93,7.8l-68-33.06Z"/><path class="cls-8" d="M228.2,96.68c1.46-2.89,1.61-5.75.34-6.39s-3.47,1.18-4.93,4.07-1.61,5.75-.34,6.39S226.75,99.56,228.2,96.68Z"/><polygon class="cls-9" points="212.14 161.31 210.53 161.99 211.09 163.86 212.61 163 212.14 161.31"/><polygon class="cls-9" points="222 176.77 218.69 175.84 219.04 178.62 222.12 178.51 222 176.77"/><path class="cls-9" d="M200.79,93.26c1-.48.93-.8,1.57-1.09,1.1-.49,2.75-.64,2.93-1.12s-.69-.6-1.22-.61c-.76,0-1.24.3-1.33.12a22.62,22.62,0,0,1,2-4c.54-.76,0-1.64-.65-.82-.75,1-1.65,2.74-1.72,2.74s1-2.88,1.14-3.21c.54-1.16-.36-1.92-1-.45-.81,2-1.1,3.21-1.24,3.12s.47-2.55.55-2.87c.28-1.08-.45-1.77-.92-.36-.68,2.07-.69,3-.79,2.92a9.34,9.34,0,0,1,.08-2.13c.08-.94-.71-1.35-.88.1a17.33,17.33,0,0,1-.24,2.31c-.14.29-1.36,2.79-.94,4.19A2.47,2.47,0,0,0,200.79,93.26Z"/><path class="cls-9" d="M200.64,92.76c-.62.38-1.86,2.92-1.86,2.92l-1.47-.12a17.45,17.45,0,0,0,1.35-4.12l1.69,0Z"/><path class="cls-9" d="M202,119.17s-1.35,3.66-2.49,4.6-.45,2.54-.43,2.7a11.87,11.87,0,0,0,3.49.58c.07-.19,2.13-2.65,2.13-2.65s-.1-1.44,2.46-4.11C209.24,118.13,202,119.17,202,119.17Z"/><path class="cls-9" d="M225.18,106.74s.47-2.44.73-3.94,1.05-2.64,1.49-2.21-.36,2.26-.31,2.66c0,0,3-1.08,4.79-1.64s1.32.79-.59,1.31A6.23,6.23,0,0,0,229,104c.07,0,3-.87,4.08-1.16s1.22.85-.61,1.23c-1.58.33-3.22.78-2.84.86s2.88-.38,3.62-.42.7.88-.33,1.09-2.73.32-3,.37a17.92,17.92,0,0,0,2.25.35c.77,0,.74.83,0,.94a11.32,11.32,0,0,1-5.08-1.43l-1.13,2Z"/><path class="cls-10" d="M187.08,144s-4.45,19.76-.35,26.07,24.91-5.88,24.91-5.88a2.85,2.85,0,0,0-.77-3s-17.66,5.53-19.14,4.42-.51-12.9-.21-12.86a22.79,22.79,0,0,1,2.53,2.39s-.73,17.17.38,19.4,22.26,6.38,25.65,5.48a7.8,7.8,0,0,0,0-4.58s-18.72-3.33-19.86-5.07,2.23-10.55,2.49-20l-14.3-6.71Z"/><path class="cls-11" d="M211.91,161.41a2.13,2.13,0,0,1,2.13-1,5.31,5.31,0,0,1,1.27,1.62l-.29.22a7.46,7.46,0,0,0,.79.71c.41.3,2.56,4.61,1.13,5.91,0,0-.56.24-1.13-.59s-2-3.94-3.33-5.2A2.72,2.72,0,0,0,211.91,161.41Z"/><path class="cls-11" d="M221.76,176.69a2.28,2.28,0,0,1,2.49-.25,5.51,5.51,0,0,1,.69,2.07l-.37.12a8.49,8.49,0,0,0,.54,1c.3.44.91,5.53-1,6.31,0,0-.64,0-.91-1s-.63-4.68-1.48-6.39A2.92,2.92,0,0,0,221.76,176.69Z"/><g class="cls-5"><path class="cls-9" d="M201.3,120.85c.42-.92.7-1.68.7-1.68s7.24-1,5.16,1.12c-.34.36-.63.69-.88,1A6.62,6.62,0,0,1,201.3,120.85Z"/></g><path class="cls-9" d="M204.25,107.44s-2.31,1.49-4.22,5.63l.94.68s-2,4.07.11,5.76,5.14,2.13,7.47-.3a42.39,42.39,0,0,1,4.54-4.08s-1.39-4.09-1.48-4.2-3.41-3.24-3.41-3.24Z"/><path class="cls-2" d="M209.08,109.81s-7.58,1.9-7.05-5.11,6.93.07,8.38,1.64,6.1,2.12,4.73,7.71-5.79,3.88-7.86,6.46c0,0-.83-.76,1.26-3,2.68-2.91.72-.92.72-.92S207.58,112.55,209.08,109.81Z"/><path class="cls-12" d="M199.93,96.71a4.17,4.17,0,0,0-3.63-2.82s-4.91,9.17-5.25,17.21.91,16.67.36,18.33l-5,15s5.11,6,16.51,7.72c0,0,2.46-12.5,3.49-17S218,126,221.6,121s5.87-13.13,5.87-13.13-1.71-1.56-3.08-1.34c0,0-4.41,9.69-6.35,11.61s-9.37,8.52-12.55,7.58l-.75-1.56L200.19,127l-1.86-1,2-3.37s-3.44-.23-3.87-2.12A36.28,36.28,0,0,1,199.93,96.71Z"/><path class="cls-10" d="M203.52,128.82l1,1.37s-7,6.94-9.7,7.94l2.88-6.39,2.8-4.87,3.86-2,1.16.84-.25,3.71Z"/><path class="cls-10" d="M198.9,122.41a8.74,8.74,0,0,0-3.57,2.58l1,1-1.26-.26s-1.1,9.68-.31,12.44c0,0,3.27-10.58,4-11.9a5.28,5.28,0,0,0,.59-2.84Z"/><path class="cls-6" d="M200.63,127.85s-4.84,8.39-5.84,10.28c0,0,1.69-7.28,3-11.22l1.58-.31Z"/><path class="cls-13" d="M204.74,124.12a36.63,36.63,0,0,0-5.36,2.48,12.43,12.43,0,0,0-.18,2.48c.15.09,5-2,6.29-3.4A11.84,11.84,0,0,0,204.74,124.12Z"/><path class="cls-13" d="M200.37,122.66a2.27,2.27,0,0,0-1.47-.25s-1.29,1.82-1.68,6a24.62,24.62,0,0,0,2.16-1.76C199.42,126.44,200,123.85,200.37,122.66Z"/><path class="cls-3" d="M194.73,141.54a.54.54,0,0,1,.67-.34.52.52,0,0,1,.33.67.51.51,0,0,1-.66.33A.52.52,0,0,1,194.73,141.54Z"/><path class="cls-3" d="M193.82,145.1a.53.53,0,1,1,.33.67A.53.53,0,0,1,193.82,145.1Z"/><path class="cls-9" d="M209,115.65s1.41-1,1.65.19-2,3.39-2.44,1.74Z"/><path class="cls-7" d="M316.12,67.33c3.32,1,11.69-4.66,12.42-8.6s-3.91-4.75-4.89-14.2,4-11.38-5.6-24.59c-9-12.38-23.06-8.88-31.63-2.29-5.72,4.4-15,18.05-4,32.57,6.05,8,15.61,6.65,23.27,8.49C313.05,60.48,312.37,66.18,316.12,67.33Z"/><path class="cls-14" d="M316.72,69.21c.15.2,10-3.81,13.52-9.85,0,0,9.95,10.3,6.22,14.87s-8.88,7-11,5.15S316.72,69.21,316.72,69.21Z"/><path class="cls-3" d="M309.94,31.41c-.93,1.47.41,6.06,2,10.08a5.07,5.07,0,0,1-4.56.66c.72-7-4.36-14.58-7.91-17-2-1.35-3-.85-3.42-.42-2.2,2.15.52,9,4.42,13.76A16,16,0,0,0,305.9,43a10.6,10.6,0,0,1-.64,2.08,3.2,3.2,0,0,1-.19.37c-4.3-4.61-8.47-8.24-11.13-8.48a2.53,2.53,0,0,0-2.11.69,2.85,2.85,0,0,0-.55,3.28c1.33,3.3,7.15,7,11.13,7a4.8,4.8,0,0,0,2.6-.64A229.93,229.93,0,0,1,320.29,66.6l.6-.29.54-.38A239.61,239.61,0,0,0,306,46.45a4.11,4.11,0,0,0,.49-.85,11.69,11.69,0,0,0,.67-2.13,6.33,6.33,0,0,0,5.26-.73c.4,1,.8,1.92,1.17,2.72,1.64,3.62,6.06,12.53,11.79,17.82.34-.3.65-.61.95-.91-3.94-3.61-8.14-10-11.55-17.45-.49-1.09-.93-2.12-1.33-3.1,1.43-1.93.85-5.32.6-6.42-.44-2-1.42-4.45-2.73-4.68A1.33,1.33,0,0,0,309.94,31.41Zm-7.52,15.25c-3.49,0-8.77-3.34-9.92-6.2a1.5,1.5,0,0,1,.24-1.85l.12-.1a1.35,1.35,0,0,1,1-.23c2.28.21,6.13,3.59,10.27,8.06A3.66,3.66,0,0,1,302.42,46.66Zm3.67-5a15.87,15.87,0,0,1-4.64-4c-3.86-4.67-5.82-10.71-4.51-12h0c.21-.16.82,0,1.74.58C301.94,28.45,306.58,35.24,306.09,41.62Zm6.78-5.36a9.14,9.14,0,0,1-.07,3.91c-1.66-4.48-2.14-7.44-1.75-8.05l.06-.09C311.52,32.24,312.44,33.81,312.87,36.26Z"/><path class="cls-2" d="M329.61,69.21a29.07,29.07,0,0,1-11.36,5.51.66.66,0,1,1-.23-1.29h0c.08,0,8.52-1.62,16.09-10.19a.66.66,0,1,1,1,.87A36.87,36.87,0,0,1,329.61,69.21Z"/><path class="cls-2" d="M333,72.56a44.35,44.35,0,0,1-10.47,6.07.65.65,0,0,1-.84-.39.66.66,0,0,1,.39-.84,48.54,48.54,0,0,0,15.09-10.14.66.66,0,1,1,.92.94A55.37,55.37,0,0,1,333,72.56Z"/><path class="cls-2" d="M98.62,99.42c-3.13-1.89-8.06-4.15-9-8.07-.25-1,.17-3.07,1.6-3a10.25,10.25,0,0,1,3.41,1.26c1.91.9,3.73,2,5.55,3.07S104,94.83,105.83,96c1,.68,2.56,1.38,2.6,2.76a4.4,4.4,0,0,1-.46,1.61,1.58,1.58,0,0,1-2.3.67,45.45,45.45,0,0,1-5.82-3.42,46.12,46.12,0,0,1-5.67-3.77c-.5-.42-1.35-1.22-1.4-1.93-.07-1.12,2.2,0,2.74.19a45,45,0,0,1,5.73,3.53c.46.29.88-.44.42-.73-2.34-1.5-4.59-3.32-7.3-4.12-1.2-.35-2.87-.24-2.38,1.45.62,2.09,3.1,3.3,4.76,4.4,2.76,1.81,5.59,3.57,8.5,5.13,2.23,1.19,3.65-.67,4-2.79a2,2,0,0,0-.76-2.09,31.72,31.72,0,0,0-4.09-2.79c-2.7-1.63-5.43-3.27-8.22-4.73a25.26,25.26,0,0,0-3.54-1.54c-1.08-.37-2-.75-2.85.15-2,2.12-.81,4.81.87,6.72,2,2.33,4.92,3.82,7.54,5.4a.42.42,0,0,0,.43-.72Z"/><path class="cls-2" d="M120.9,36.81A11.8,11.8,0,0,0,117.44,40a16.88,16.88,0,0,0-2.52,6.46,18.4,18.4,0,0,0,1.31,10.53,13.25,13.25,0,0,0,11.21,7.92,17.32,17.32,0,0,0,13-4.71,15.11,15.11,0,0,0,3.8-15.68,12.61,12.61,0,0,0-8.61-8.58,24.81,24.81,0,0,0-7.44-.68,14.8,14.8,0,0,0-7.32,1.6.53.53,0,0,0,.53.92,13.11,13.11,0,0,1,6.4-1.45,27.93,27.93,0,0,1,6.39.35,11.44,11.44,0,0,1,8.49,6.71A14.19,14.19,0,0,1,140.5,58.6c-5.67,6.24-17.08,7.63-22.19-.06a16.83,16.83,0,0,1-.67-16.84,10.47,10.47,0,0,1,3.79-4c.57-.38,0-1.3-.53-.92Z"/><path class="cls-2" d="M129,35.67q0,14.3.74,28.55c0,.69,1.1.69,1.06,0q-.75-14.26-.73-28.55a.54.54,0,0,0-1.07,0Z"/><path class="cls-2" d="M115.14,50.48a125.71,125.71,0,0,1,15-.43l14.35.15a.54.54,0,0,0,0-1.07L130.17,49a121.66,121.66,0,0,0-15,.43c-.67.07-.68,1.14,0,1.06Z"/><path class="cls-2" d="M125.51,35.8a16.93,16.93,0,0,0-4.42,6.33,20.22,20.22,0,0,0-.85,8.77,21.14,21.14,0,0,0,7.48,13.7c.52.44,1.28-.31.75-.75A20.08,20.08,0,0,1,121.33,51a19.75,19.75,0,0,1,.59-8c.77-2.64,2.46-4.55,4.34-6.47.48-.48-.27-1.24-.75-.75Z"/><path class="cls-2" d="M134.27,63.91a9.35,9.35,0,0,0,4-5.18,23.81,23.81,0,0,0,1-8.43c-.31-5.43-3.19-10.2-6-14.69-.36-.57-1.28,0-.92.54,2.57,4.09,5.27,8.43,5.79,13.34a23.81,23.81,0,0,1-.54,7.52,8.9,8.9,0,0,1-3.93,6c-.57.37,0,1.3.54.92Z"/><path class="cls-2" d="M117.84,39.94c1,1.38,2.73,1.74,4.29,2.16a25.37,25.37,0,0,0,6.48.88,25,25,0,0,0,12.33-3.19c.59-.33.06-1.25-.54-.91a23.93,23.93,0,0,1-11,3,24.19,24.19,0,0,1-5.63-.5c-1.51-.32-4.07-.67-5-2-.4-.55-1.32,0-.92.54Z"/><path class="cls-2" d="M118,59.13a26.56,26.56,0,0,1,12-3.87c3.91-.27,8.81-.19,12.06,2.27.55.41,1.08-.51.54-.92-3.39-2.57-8.53-2.7-12.6-2.41a27.67,27.67,0,0,0-12.52,4,.53.53,0,0,0,.54.92Z"/><path class="cls-15" d="M141.94,197c-3.91-4.94-6.89-10.53-13.56-11.38s-20.4.06-22.82,2.59-11.59,11.68-2.91,16.1S152.68,210.6,141.94,197Z"/><path class="cls-16" d="M112.26,195.18c6.87,2.1,9.93,3.69,16.24,4.75s10.53-5.22,10.62-6.63c.93,1.23,1.85,2.5,2.82,3.73,10.74,13.57-30.6,11.72-39.29,7.31-5.08-2.59-4-6.8-1.82-10.35h0C103,193.23,105.38,193.08,112.26,195.18Z"/><path class="cls-15" d="M104.94,193.33c7.15,4.11,6.39,12.85-2.93,16.2s-15.87-3.37-13.86-7.88S96.28,188.35,104.94,193.33Z"/><path class="cls-16" d="M89,200c-.06,2.53.43,4.82,2.43,4.85,4.48.07,3.26-2,8.52-1.48s9.28-3.5,9.5-4.8c1.22,4.06-1.19,8.7-7.41,10.94-9.31,3.36-15.87-3.37-13.86-7.88C88.37,201.15,88.65,200.6,89,200Z"/><path class="cls-15" d="M332.53,147c27.8,16,24.82,49.93-11.37,63s-61.7-13.13-53.87-30.62S298.87,127.7,332.53,147Z"/><path class="cls-16" d="M270.48,173c-.26,9.83,1.66,18.72,9.42,18.84,17.43.27,12.67-7.66,33.11-5.74s36.07-13.61,36.94-18.64c4.73,15.78-4.62,33.81-28.79,42.52-36.19,13-61.7-13.13-53.87-30.62C268.16,177.44,269.22,175.29,270.48,173Z"/><path class="cls-2" d="M349.12,53.69a21.47,21.47,0,0,0,4.67-.24c.75-.12.43-1.26-.31-1.14a20.53,20.53,0,0,1-4.36.2c-.76,0-.75,1.13,0,1.18Z"/><path class="cls-17" d="M149.33,106.07c-5.92-4.45-11.58,0-12.34,1.48-4.21,8.36,2.95,13.33,8.57,13.23C152.89,120.64,155.37,110.62,149.33,106.07Zm-3.8,2.68a1.11,1.11,0,0,1,.15,2.21A1.11,1.11,0,0,1,145.53,108.75Zm-4.15.73a1.11,1.11,0,0,1,.16,2.21A1.11,1.11,0,0,1,141.38,109.48Zm9.18,2.82c-1.25,5-8.81,6.08-11.61,1.84-.52-.79.7-1.62,1.22-.83,2.07,3.13,8,2.44,8.94-1.31C149.34,111.08,150.79,111.37,150.56,112.3Z"/><path class="cls-2" d="M369.09,173.54a25.79,25.79,0,0,1,3.93,1.38c.69.3,1.29-.72.6-1a31.46,31.46,0,0,0-4.21-1.5.6.6,0,0,0-.32,1.15Z"/><path class="cls-2" d="M371.59,171.62l-2,4.08c-.33.68.69,1.28,1,.6l2-4.08c.33-.68-.69-1.28-1-.6Z"/><path class="cls-2" d="M51,40.27a2.49,2.49,0,0,0-3.61,1c-.64,1.4-.59,3.56,1.17,4s2.93-.78,3.46-2.2a2.33,2.33,0,0,0-.11-2.33c-.68-.88-1.8-.82-2.73-1.23-.7-.3-1.3.71-.6,1,.86.38,2.5.35,2.5,1.57a2.39,2.39,0,0,1-1.59,2.05c-1.32.25-1.4-1.15-1.14-2.09a1.31,1.31,0,0,1,2-.83c.64.42,1.23-.6.6-1Z"/><path class="cls-2" d="M341.18,220c-1,0-2.1.41-2.1,1.07,0,1.4,4.29.87,4.13-.28C343.13,220.24,342,220,341.18,220Z"/><path class="cls-2" d="M61.68,229.62c-1,0-2.1.41-2.09,1.07,0,1.4,4.29.86,4.12-.28C63.63,229.84,62.49,229.62,61.68,229.62Z"/><path class="cls-2" d="M353.88,223.49c-2.83-.18-5.78.78-5.88,2.57-.21,3.82,11.52,3.07,11.27-.08C359.14,224.42,356.08,223.63,353.88,223.49Z"/><path class="cls-7" d="M334.49,232.08c-1.25-.16-2.56.24-2.64,1.11-.16,1.86,5,1.77,5,.23C336.78,232.66,335.45,232.2,334.49,232.08Z"/><ellipse class="cls-18" cx="277.64" cy="188.79" rx="26.73" ry="15.1" transform="translate(5.18 384.99) rotate(-69.97)"/><path class="cls-2" d="M282.91,162.49l3.76,1.14s-.23,1.05-.23,1.05l-4.62-1.13Z"/><path class="cls-2" d="M265.78,213.2l3.22.89,1.1-1s-2-.65-2.11-.66-2.06.52-2.06.52Z"/><ellipse class="cls-19" cx="274.38" cy="187.86" rx="26.77" ry="15.12" transform="translate(3.91 381.31) rotate(-69.97)"/><path class="cls-4" d="M266.65,208.94a3.41,3.41,0,0,1-.57-.16c-2.23-.81-3.88-3.6-4.56-7.64-.81-4.93,0-11.16,2.12-17.1a35.61,35.61,0,0,1,8.87-14c3-2.74,6.05-4,8.33-3.54a5.54,5.54,0,0,1,.58.17c2.22.81,3.88,3.59,4.55,7.64.82,4.93,0,11.16-2.12,17.09a35.5,35.5,0,0,1-8.87,14C272,208.15,268.93,209.44,266.65,208.94Zm5.5-6.64A31.33,31.33,0,0,0,279.9,190c1.92-5.27,2.62-10.73,1.92-15-.49-3-1.52-4.25-1.84-4.38s-2,.17-4.64,2.53a31.37,31.37,0,0,0-7.75,12.33c-1.92,5.27-2.62,10.72-1.92,15,.5,3,1.27,4.16,1.85,4.38S269.55,204.66,272.15,202.3Z"/><path class="cls-4" d="M270.77,194.57l-.1,0c-.53-.19-1-1-1.17-2.18a13.29,13.29,0,0,1,3.76-10.61c1.05-1,1.91-1.2,2.35-1.1a.23.23,0,0,1,.11,0c.52.19,1,1,1.16,2.18a12,12,0,0,1-.73,5.83,12.24,12.24,0,0,1-3,4.78c-1.06,1-1.91,1.2-2.36,1.1Z"/><path class="cls-2" d="M260.55,147.21s2.74,7.63,3.9,9.94c0,0-2.23,5-2.75,6.34l-3.48-10.24A31.56,31.56,0,0,1,260.55,147.21Z"/><polygon class="cls-2" points="258.05 162.23 261.7 163.5 258.22 153.25 253.33 150.98 258.05 162.23"/><path class="cls-7" d="M272.58,188.14a.68.68,0,0,1-.41-.28c-6.46-10.12-14.74-34.69-14.83-34.93a.65.65,0,0,1,.41-.82.64.64,0,0,1,.82.41c.08.24,8.31,24.65,14.69,34.64a.64.64,0,0,1-.19.89A.66.66,0,0,1,272.58,188.14Z"/><path class="cls-20" d="M66.64,59.62c0-.73-.41-4.8-.36-5.16S79,56.92,79,56.92l17.6,11.34,2.36,1.87L87.62,67.58s-12.85-3.77-13.36-3.87S66.64,59.62,66.64,59.62Z"/><g class="cls-5"><path class="cls-20" d="M66.64,59.62c0-.73-.41-4.8-.36-5.16S79,56.92,79,56.92l17.6,11.34,2.36,1.87L87.62,67.58s-12.85-3.77-13.36-3.87S66.64,59.62,66.64,59.62Z"/></g><path class="cls-20" d="M53.91,65.31s9.57-8.2,10.37-8.21,33.92,12.82,34.65,13S53.91,65.31,53.91,65.31Z"/><path class="cls-20" d="M66.28,54.46c-.28-.23,4.17-10,5-10S100.6,70.75,98.93,70.13,66.72,54.82,66.28,54.46Z"/><path class="cls-9" d="M301.14,122.75a29.51,29.51,0,0,0-.2,6.89c.41,2.77,4.93,22,4.55,22.94s-3.32,1.25-3.32,1.25c-.84.83,5.34.79,5.19-.15a63.81,63.81,0,0,1,.23-13.54c.79-7.82-1.6-11.47-1.6-12.34s4-9.58,4-9.58a25.33,25.33,0,0,0,1.12-2.47c0-.2-9.74,5.47-9.74,5.47Z"/><path class="cls-9" d="M293.53,122.75a29.51,29.51,0,0,0-.2,6.89c.41,2.77,4.93,22,4.55,22.94s-3.27,1.25-3.27,1.25c-.85.83,5.29.79,5.15-.15a62.68,62.68,0,0,1,.22-13.54c.79-7.82-1.6-11.47-1.6-12.34s4-9.58,4-9.58a25.33,25.33,0,0,0,1.12-2.47c0-.2-9.74,5.47-9.74,5.47Z"/><path class="cls-12" d="M298.05,103.91a59.56,59.56,0,0,0-6.49,19.46s9.5,7,20.55,1.15c0,0,3-14-2.32-20.51l-5.49.29-1.47-1.23-2.74.32Z"/><path class="cls-2" d="M318.81,89.21c.08.06,3.44,14.34-11.18,12.16l-1.42-3.57s1.93-3.2,2.08-3.43,2.54-2,2.92-2.44S318.81,89.21,318.81,89.21Z"/><path class="cls-9" d="M299.29,60.09c.72-.42.65-.65,1.11-.91.8-.43,2-.64,2.13-1s-.55-.41-.95-.38c-.57,0-.91.29-1,.17a17,17,0,0,1,1.27-3.12c.36-.61-.13-1.23-.53-.58-.5.81-1.07,2.15-1.13,2.15s.57-2.21.67-2.47c.33-.9-.39-1.41-.75-.28a14.38,14.38,0,0,1-.74,2.41,8.72,8.72,0,0,1,.24-2.17c.14-.83-.45-1.3-.71-.22-.38,1.59-.34,2.28-.42,2.23a7.42,7.42,0,0,1-.06-1.6c0-.7-.61-1-.65.13a12.34,12.34,0,0,1,0,1.75c-.08.22-.85,2.16-.45,3.18A1.84,1.84,0,0,0,299.29,60.09Z"/><path class="cls-9" d="M299.16,59.73A9.29,9.29,0,0,0,297.94,62h-1.1a13.48,13.48,0,0,0,.76-3.16l1.27-.07Z"/><path class="cls-9" d="M327,73.1c-.45-.7-.28-.87-.58-1.31-.51-.74-1.51-1.48-1.44-1.86s.67-.11,1,.09.68.67.81.59a17.94,17.94,0,0,0,.27-3.35c-.05-.7.67-1,.73-.28.08,1,0,2.41,0,2.43s.49-2.23.52-2.5c.11-1,1-1.09.79.08a14.62,14.62,0,0,0-.42,2.49,8.88,8.88,0,0,0,.76-2c.25-.81,1-1,.73.12-.37,1.6-.72,2.19-.63,2.18a6.6,6.6,0,0,0,.78-1.39c.32-.63,1-.59.52.4a11,11,0,0,0-.74,1.58c0,.24-.22,2.32-1,3.05A1.85,1.85,0,0,1,327,73.1Z"/><path class="cls-9" d="M327.26,72.84a9.23,9.23,0,0,1,.05,2.6l1,.49a13,13,0,0,1,.74-3.16l-1.1-.63Z"/><path class="cls-9" d="M305.44,82.11a5.8,5.8,0,0,1-2.78,4.38c-2.65,1.56,1.25,3.42,1.25,3.42l4.5.71,1.5-4.09L309.15,82Z"/><g class="cls-5"><path class="cls-9" d="M309.64,84.93,309.15,82h-.55l-2.51.37-.71.16a5.75,5.75,0,0,1-.67,1.87A8,8,0,0,0,309.64,84.93Z"/></g><path class="cls-9" d="M306.12,70.73S302.27,74,301.41,77a3,3,0,0,0,1.36.65s-4.5,8,6.69,6.19l4.05-3.62s2.7-3.16,1.83-4.82a20.07,20.07,0,0,0-2.19-3.22l-5.21-1.63Z"/><path class="cls-2" d="M305.51,71.28a15.79,15.79,0,0,0,2.3,4.48c1.16,1.54,3.77,2,3.77,2s-4.45,6.52-2.95,9,7.29,2.93,7.29,2.93l3.43-1.42-1.2-1.5s-2.37-2.27-1.66-4.55,3.18-6.26-1-9.78-5.87-7.87-9-7.08-4.81,4.77-2.92,8C303.6,73.31,305,71.71,305.51,71.28Z"/><path class="cls-6" d="M299.9,104a7.55,7.55,0,0,0,5,.3c2.44-.83.23-3.87.23-3.87L310.87,90l-2.24-3.26s-7.5,6-5.61-.51l-3.42,2.53-.27,4.9.82,5.87Z"/><path class="cls-15" d="M302.54,94.84s2.53,1.68,4.59.07l-.85,1.88S304.32,97.78,302.54,94.84Z"/><path class="cls-10" d="M303,86.25s-7.42-4-4.07-24.85a3,3,0,0,0-2.59-.23s-5,16.27,1.75,27.86a20.47,20.47,0,0,0-1.92,3.07c-.23.66-.59,2.39,1.47,4,0,0,1,3.92.51,5.74s-1.17,1.87-1.11,2.19,2,1.45,4.2.9C301.26,105,298.88,92.72,303,86.25Z"/><path class="cls-10" d="M326.83,74.57s2.23-.27,2.81,1.3c0,0-2.51,8.26-8.49,12.85-6.23,4.79-11.08,6.87-11.44,7.68s-2.38,4.36-1.61,5.39,2.67,2.4,2.65,2.71-7.14,1.49-7.51.37.32-12.72,5.39-18.11c0,0,1.91,1.84,3.66,1.51S321.59,85.75,326.83,74.57Z"/><path class="cls-9" d="M310.2,77.79a1.55,1.55,0,0,1,1.78-.47c1,.47-.1,3.83-2.3,3l-1.3-1.75Z"/><path class="cls-10" d="M299.7,152.89a5.59,5.59,0,0,1,.66,1.8s-6.55,1.68-9.06,0,3.31-.88,3.31-.88C294,154.59,299.7,152.89,299.7,152.89Z"/><path class="cls-10" d="M307.26,152.89a5.78,5.78,0,0,1,.67,1.8s-6.55,1.68-9.06,0,3.3-.88,3.3-.88C301.6,154.59,307.26,152.89,307.26,152.89Z"/><path class="cls-10" d="M57.36,180.63a4.61,4.61,0,0,0-1.88-.5s-2.32,3.77-2.92,4.79a3.37,3.37,0,0,0-.26,2.86c.31.41,1.58-.4,2.18-2.13a11.67,11.67,0,0,1,2.39-3.53l1.07-.25Z"/><path class="cls-10" d="M76,205.78a4.27,4.27,0,0,0-1,2.09c-.16,1.18-.44,10,2.22,9.89,1.6-.07.65-4.29.53-5.25a1.64,1.64,0,0,0-1.08-1.27Z"/><path class="cls-7" d="M81,128.28c.58-.45,6.24-6.57-.11-9.38s-7.93,2.07-9.77,4-6,2.64-6.83,7.84,4.38,11,4.38,11l5.5,3.82,4.61-4.27-1.4-7.86Z"/><path class="cls-9" d="M56,119.44c.49-.88.27-1.09.59-1.64.56-1,1.72-1.94,1.6-2.39s-.83-.08-1.24.19c-.57.38-.77.88-.93.79a21.31,21.31,0,0,1-.62-4.06c0-.86-.9-1.2-.91-.27,0,1.16.22,2.92.16,3s-.79-2.68-.85-3c-.21-1.16-1.29-1.25-1,.17.45,1.9.89,3,.73,3a11.09,11.09,0,0,1-1.11-2.44c-.36-1-1.28-1.08-.87.22.59,1.91,1.07,2.6,1,2.6a8.13,8.13,0,0,1-1.06-1.63c-.45-.74-1.25-.63-.61.53a13.47,13.47,0,0,1,1,1.87c.06.28.47,2.8,1.53,3.62A2.26,2.26,0,0,0,56,119.44Z"/><path class="cls-9" d="M55.61,119.15a11.39,11.39,0,0,0,.16,3.17l-1.16.68a15.77,15.77,0,0,0-1.18-3.79l1.29-.86Z"/><path class="cls-9" d="M95.21,121.75c-.76-.68-.62-.94-1.11-1.35-.85-.71-2.27-1.25-2.31-1.72s.76-.36,1.23-.24c.67.17,1,.58,1.15.44a20.78,20.78,0,0,0-.79-4c-.28-.8.45-1.43.78-.56.4,1.09.77,2.83.84,2.85s-.16-2.79-.21-3.12c-.19-1.16.8-1.6,1-.16.22,1.94.16,3.11.31,3.06s.23-2.36.23-2.66c0-1,.84-1.45.9-.09.09,2-.13,2.81,0,2.77a9,9,0,0,0,.45-1.9c.17-.84,1-1,.75.31a15.47,15.47,0,0,0-.36,2.1c0,.29.51,2.8-.22,3.92A2.26,2.26,0,0,1,95.21,121.75Z"/><path class="cls-9" d="M95.47,121.34a11.38,11.38,0,0,1,.91,3l1.32.26a15.93,15.93,0,0,1-.16-4l-1.5-.38Z"/><path class="cls-9" d="M80.17,136.8s-.37,3.27,2.19,5l2,6.08V159.1l-4.41-8.31-3.41-6.44L75.43,142s2.18-1-.31-6.77,3.39-1,3.39-1Z"/><path class="cls-9" d="M89.62,164s3.72,14,1.15,22.46c-1.79,5.92-11.76,18-12.92,20.62s.49,6.92-.26,7.47-3.32,1.61-1.64-8.76c0,0,6.11-14.77,9.74-20.86l-2.36-14.11-2,0s-2.85,15.95-8.18,18.57c-2,1-16.29-7.29-16.29-7.29A13.62,13.62,0,0,0,54.35,186c-.36.68-1.77.53-1.24-.49a11.91,11.91,0,0,1,4.25-4.86s9,.69,13.83,3.23c0,0,2.14-18.13,4.33-20.73Z"/><path class="cls-12" d="M91.44,186.4c-.07.27-12.16,3-20.38-3.79,0,0,.66-11.14,3.69-19.45l14.79.63S94.32,174.76,91.44,186.4Z"/><path class="cls-7" d="M65.87,142.57a2,2,0,0,1-.07.48c-.77,3.07-5.81,15.62,12,15l.38-8.55-6-4.62Z"/><path class="cls-21" d="M81.62,141.15s.92,2.74-1.88,2.79c-2.43,0-3.62-2.86-3.62-2.86l-2.27,1.85s1.41,4,1.41,4.06,4,5.42,4,5.42L82.73,157l.36.88,2.44.56-.63-6.53-.16-6.92-1.62-3Z"/><g class="cls-5"><path class="cls-21" d="M83.55,151.1s-.74.85-3,.56l1.1,1.52S82.61,153.59,83.55,151.1Z"/></g><g class="cls-5"><path class="cls-9" d="M76.93,135.36,79,135l1.17,1.81a6.29,6.29,0,0,0,.33,2.54c-.37.61-3.56.63-4.25-.42a14,14,0,0,0-1-3.26A8.38,8.38,0,0,1,76.93,135.36Z"/></g><path class="cls-22" d="M80.81,123.81c-.22,1.15-2,6.8-6.53,8.94l.66-.91c2.76-2.12,3.85-6.69,4.21-8.67l1.47.38A2.48,2.48,0,0,1,80.81,123.81Z"/><path class="cls-22" d="M73.59,133.69l2.61,4.9a2.13,2.13,0,0,1-1.72.37c.26-2-1.21-4.84-1.21-4.84Z"/><path class="cls-9" d="M79.59,124s3.09,2.09,4.56,8c0,0-.32.52-1.69.59,0,0,1.86,5-1.78,6.17s-7-.72-9.41-5.32S73,125,73,125s3.62-.85,4-1S79.59,124,79.59,124Z"/><path class="cls-7" d="M80.82,123.6c.12.17-1.81,7.65-7.52,9.55l2.9,5.44c-3.63,2.71-12.25-8.78-4.37-15l3.42-1.36Z"/><path class="cls-9" d="M75.46,132.2s-1.27-1.37-2.44-.82c-1.65.78,1.11,4.79,2.58,3.94S75.46,132.2,75.46,132.2Z"/><path class="cls-10" d="M98.54,123.23s2.66,21.55-10.77,24.91a14.3,14.3,0,0,0-.17,5.05c.47,2.82,2.72,11,2.83,12.14,0,0-2.76,3.48-16.25-1.7,0,0,2.27-3.13,2.52-5.51.2-1.89-2-8.66-2.59-9.37-3-3.57-17.66-4.4-20.42-27.06,0,0,.84-1.32,3.32-.53,0,0,1.48,8.12,5.55,12.77s8.5,7.7,12.87,8.06l10.1,16.4-.68-10.87-2.49-5.76a9.77,9.77,0,0,0,4.53,1.15c6.84.35,8.58-14.75,8.3-19.52A4.51,4.51,0,0,1,98.54,123.23Z"/><path class="cls-10" d="M87.63,145.93s2.18,2.67,2.11,4.1-2.35,3.26-2.35,3.26-.19-1.08-.27-1.29-.24-5.32-.24-5.32l1.31-.77Z"/><path class="cls-22" d="M76.12,141.08a25,25,0,0,0-2.94.49,23.58,23.58,0,0,0,3.2,5.18l1.3.13-.69,1a26,26,0,0,0,8.54,10.51S77.83,145.77,76.12,141.08Z"/><path class="cls-22" d="M81.62,141.15a14.43,14.43,0,0,1,4.16,1.55,19.16,19.16,0,0,1,.48,4L85,146.39l1.13.91s1.8,6.57-.6,11.09C85.53,158.39,84.34,147.86,81.62,141.15Z"/><path class="cls-2" d="M158,228.43c-11.93,0-16.39-3.8-16.55-7.17-.1-2,1.33-4.11,4.23-5.4a16.92,16.92,0,0,1-.21-9.78l1.53.46c0,.09-1.35,4.71.19,8.77a16.29,16.29,0,0,1,3.53-.61,56.62,56.62,0,0,1,13.58,1c5.19,1,7.88,2.25,8,3.75.11,1.27-1,2.68-10,3.55-7.1.69-12.14-.71-15-4.16a10,10,0,0,1-1-1.48c-2.24,1-3.37,2.49-3.3,3.86.14,2.91,5.35,5.92,16.46,5.62A62.55,62.55,0,0,0,195,214.88l1,1.23a50.53,50.53,0,0,1-9.88,5.95,66.39,66.39,0,0,1-26.51,6.35Zm-10.1-11.65a9.27,9.27,0,0,0,.71,1c2.48,3,7.05,4.21,13.58,3.57,6.89-.67,8.24-1.6,8.48-1.85-.3-.38-2-1.42-7-2.35a54.13,54.13,0,0,0-12.78-.86A14.44,14.44,0,0,0,147.93,216.78Zm-.9-10.24-.77-.23.77.22Z"/><path class="cls-7" d="M216.88,217.12h0a1.38,1.38,0,0,0,1.81.72l11.62-5.06A1.39,1.39,0,0,0,231,211h0a1.39,1.39,0,0,0-1.82-.72l-11.62,5.07A1.36,1.36,0,0,0,216.88,217.12Z"/><path class="cls-7" d="M210.34,202.13h0a1.38,1.38,0,0,0,1.82.71l11.62-5.06a1.39,1.39,0,0,0,.72-1.82h0a1.38,1.38,0,0,0-1.82-.71l-11.62,5.06A1.39,1.39,0,0,0,210.34,202.13Z"/><path class="cls-20" d="M215.46,223.49s-16.47,9-23.42-6.87c-4.76-10.91,13.18-18.25,13.18-18.25Z"/><rect class="cls-2" x="195.94" y="205.83" width="30.31" height="9.4" transform="translate(102.36 488.13) rotate(-113.53)"/><rect class="cls-20" x="187.42" y="215.83" width="8.34" height="5.53" transform="translate(67.69 481.54) rotate(-113.54)"/><path class="cls-2" d="M128.52,167.53c0-.23-.06-1.08-.13-1.84a82.89,82.89,0,0,1-.19-14.12c.64-7.26,2.66-12.76,6-16.35,3.13-3.34,7.31-5,12.44-4.91a13.68,13.68,0,0,1,11.13,5.32c3.49,4.48,5,11.61,4.43,21.2a80.49,80.49,0,0,1-1.77,12.7l-5.32-1.26c1.37-5.79,3.74-22.35-1.66-29.28a8.33,8.33,0,0,0-6.9-3.21c-3.57-.06-6.3,1-8.36,3.18-6,6.42-4.82,20.85-4.37,26.28a15.15,15.15,0,0,1,.12,2.84l-5.43-.67S128.52,167.48,128.52,167.53Z"/><path class="cls-7" d="M120.08,161c-3.13,1.84-1.77,48.45,1.5,49.74s51.21-.33,52-2.86-.89-45.85-4.69-47.09S125,158,120.08,161Z"/><path class="cls-2" d="M144.72,181c-4.41-1.27-6.33-11.73,3-11.89,8.82-.15,5.47,11.86.58,12.42S148.4,182.09,144.72,181Z"/><path class="cls-2" d="M145.59,179.32s-9.21,17.59-6.73,19.22,16.48.12,17.26-2.24c.66-2-7.37-16.49-7.37-16.49Z"/><path class="cls-23" d="M341.87,210.57c-6-2.72-9-11.8-9-11.8s-.37-9.46,3.08-9.43,4,5.84,4,5.84,4.14-30.58,13.93-23.93c11.63,7.9.6,24.9.6,24.9s9.27-4.34,10.41,1.18C366.12,203.38,354.64,216.34,341.87,210.57Z"/><path class="cls-3" d="M338.69,207l-.39-.51c.11-.09,11.41-9,14.08-30.75l.64.08c-1.42,11.52-5.23,19.38-8.18,23.94A30,30,0,0,1,338.69,207Z"/><path class="cls-3" d="M340.93,204.32a15.51,15.51,0,0,1-4.27-10.24l.64,0a15.25,15.25,0,0,0,4.11,9.78Z"/><path class="cls-3" d="M349.22,204.72a11.66,11.66,0,0,1-6.83-2.05l.37-.53c6.24,4.37,14.33,0,14.41,0l.31.56A19.17,19.17,0,0,1,349.22,204.72Z"/><path class="cls-15" d="M341.93,208.32C338,203.38,335,197.8,328.38,197s-20.41.05-22.83,2.58-11.58,11.68-2.9,16.1S352.67,221.89,341.93,208.32Z"/><path class="cls-16" d="M312.25,206.47c6.88,2.1,9.94,3.7,16.25,4.75S339,206,339.11,204.59c.93,1.23,1.85,2.5,2.82,3.73,10.74,13.57-30.6,11.72-39.28,7.31-5.09-2.59-4-6.8-1.83-10.35h0C303,204.53,305.38,204.37,312.25,206.47Z"/><path class="cls-15" d="M294.25,209.38c-4.63,2.66-4.13,8.31,1.89,10.48s10.26-2.19,9-5.1S299.85,206.16,294.25,209.38Z"/><path class="cls-16" d="M304.57,213.7c0,1.64-.28,3.12-1.57,3.14-2.9,0-2.1-1.28-5.5-1s-6-2.26-6.15-3.1c-.79,2.63.77,5.63,4.79,7.08,6,2.17,10.26-2.19,9-5.1C305,214.44,304.78,214.08,304.57,213.7Z"/></g></g></svg>