<svg xmlns="http://www.w3.org/2000/svg" viewBox="0 0 369 276"><defs><style>.cls-1{isolation:isolate;}.cls-2{fill:#29495c;}.cls-3{fill:#fd643b;}.cls-4{fill:#3db5fd;}.cls-5{fill:#eff0f0;}.cls-6{fill:#fdbf3b;}.cls-7{fill:#fda93b;}.cls-8{fill:#fff;}.cls-9{fill:#77ccfd;}.cls-10{fill:#94bbd2;}.cls-11{fill:#f4d39e;}.cls-12{fill:#1f688f;}.cls-13{fill:#ced1d2;}.cls-14{fill:#2580b3;}.cls-15{fill:#154965;}.cls-16{fill:#61a2ca;}.cls-17{mix-blend-mode:multiply;}.cls-18{fill:#e5e5e6;}.cls-19{fill:#fd913c;}.cls-20{fill:#fd7c3a;}.cls-21{fill:#fd653b;}.cls-22{fill:#c54f2e;}.cls-23{fill:#407592;}.cls-24{fill:#518fb6;}.cls-25{fill:#38b6ff;}.cls-26{fill:#0b2838;}.cls-27{fill:#ade1fd;}.cls-28{fill:#d15430;}.cls-29{fill:#21709a;}.cls-30{fill:#0e3144;}.cls-31{fill:#fdba63;}</style></defs><g class="cls-1"><g id="Layer_1" data-name="Layer 1"><path class="cls-2" d="M95,121.37a24.82,24.82,0,0,1-14.15-4.22c-4.9-3.29-8-7.83-9.88-10.55a14.5,14.5,0,0,0-1.78-2.33l.94-1.24a12.83,12.83,0,0,1,2.12,2.69c3.79,5.54,11.69,17.06,29.22,13.39l.32,1.52A33.32,33.32,0,0,1,95,121.37Z"/><path class="cls-3" d="M48.08,86.25h0A1.5,1.5,0,0,1,46,85.73L38.9,73.84a1.5,1.5,0,0,1,.52-2.07h0a1.5,1.5,0,0,1,2.07.52L48.6,84.18A1.51,1.51,0,0,1,48.08,86.25Z"/><path class="cls-3" d="M63.43,77.08h0a1.52,1.52,0,0,1-2.07-.52l-7.12-11.9a1.51,1.51,0,0,1,.53-2.07h0a1.51,1.51,0,0,1,2.07.52L64,75A1.51,1.51,0,0,1,63.43,77.08Z"/><path class="cls-4" d="M45.28,92.81s8.88,18.53,25.2,8.8c11.17-6.67-.1-24.61-.1-24.61Z"/><rect class="cls-2" x="40.85" y="78.94" width="33.13" height="10.27" transform="translate(-35 41.38) rotate(-30.87)"/><rect class="cls-4" x="65.06" y="100.63" width="9.12" height="6.04" transform="translate(-43.32 50.41) rotate(-30.87)"/><ellipse class="cls-5" cx="191.81" cy="232.01" rx="163.8" ry="19.92"/><path class="cls-2" d="M229.5,153c8.35,2.57,19.8-1.54,19.8-1.54l7.29,12.43,20.24-17.69-18.54-8.6c2-7.49-.18-19.27-.18-19.27l19.59.82L267,91.59l-14.7,14.73c-7.17-6-19.35-5.39-19.35-5.39l3.64-19.31-29,6.31,11.28,18.45c-3.48,3-7.12,10-7.12,10l-17.43-8.59L191,129.55l17.32,1.1c-.1,9.84,7.85,17,7.85,17l-8.46,14.58,24,8.19Zm-12.37-27.44a15.68,15.68,0,0,1,19.17-13.4c8.81,2.4,13.65,7.85,14.62,13.88,1.41,8.76-4.59,20.84-17.09,19.92C220.31,145,215.63,135.38,217.13,125.58Z"/><path class="cls-6" d="M178.23,131.73C184.3,122,183,106.12,183,106.12l18.2-5.06L185.57,69.45l-17.15,20.6c-8.83-5-24.49-6.27-24.49-6.27l7.64-24.55L113,63.45,126.75,87c-10.08,7.06-13.36,22.72-13.36,22.72L90.14,98.63l-1.77,38.84,27.19-8.08c2.57,5.41,10.3,12.4,10.3,12.4L109.09,161l26.41,11.6L142.74,151c12.44,3.44,24.15-4.25,24.15-4.25l15.63,15.65L201,134.75Zm-36.78,2a16.07,16.07,0,0,1-8.22-22.51c4.7-8.09,11.37-11.45,17.6-10.82,9,.91,19.42,10,15.22,22.16C161.51,135.7,150.76,137.81,141.45,133.74Z"/><path class="cls-2" d="M43.69,134.12h0a4.52,4.52,0,0,1-4.53-4.74A4.61,4.61,0,0,1,40.46,126a4.55,4.55,0,0,1,3.22-1.35,4.66,4.66,0,0,1,3.48,1.44,4.78,4.78,0,0,1,1.22,3.65A4.53,4.53,0,0,1,43.69,134.12Zm0-8.7A3.81,3.81,0,0,0,41,126.54a3.89,3.89,0,0,0-1.09,2.84,3.77,3.77,0,0,0,3.76,4v0a3.74,3.74,0,0,0,3.91-3.67,4,4,0,0,0-1-3.06A3.84,3.84,0,0,0,43.68,125.42Z"/><path class="cls-2" d="M43.93,126.72V120.2a.33.33,0,0,0-.65,0v6.52a.33.33,0,0,0,.65,0Z"/><path class="cls-2" d="M46.21,129.48c2.47-.22,4.93-.33,7.41-.32a.33.33,0,0,0,0-.65c-2.48,0-4.94.1-7.41.32-.41,0-.41.68,0,.65Z"/><path class="cls-2" d="M43.45,132.55a21.8,21.8,0,0,0-.38,8.55c.06.41.68.23.62-.17a21,21,0,0,1,.39-8.21.33.33,0,0,0-.63-.17Z"/><path class="cls-2" d="M40.93,129.25a42.21,42.21,0,0,0-6.93.18c-.41,0-.42.69,0,.65a42.22,42.22,0,0,1,6.93-.19c.42,0,.42-.62,0-.64Z"/><path class="cls-2" d="M291.55,152.68c1.86-2.78,3.8-6.42,7.1-7.67a2.72,2.72,0,0,1,3.17.61c.63.86-.25,2.31-.64,3.13a41.06,41.06,0,0,1-2.7,4.58c-1,1.55-2,3.11-3,4.64-.58.86-1.18,1.71-1.83,2.52a4.53,4.53,0,0,1-.79.94,2.06,2.06,0,0,1-1.9.12c-.56-.18-1.5-.65-1.55-1.34a3.71,3.71,0,0,1,.85-2l1.63-2.57c1-1.6,2.07-3.19,3.21-4.71a14.63,14.63,0,0,1,2.33-2.69,3.94,3.94,0,0,1,.53-.38l.55-.22.65.7c0,.39-.56,1.24-.75,1.61a43.36,43.36,0,0,1-3.26,5.49c-.23.34.33.67.56.33a31,31,0,0,0,4-7.11c.63-1.86-1.17-2-2.39-1.18-1.93,1.29-3.37,3.84-4.64,5.73-.76,1.14-1.5,2.31-2.24,3.46-.58.92-1.74,2.11-1.73,3.27,0,1.6,2.43,2.86,3.84,2.44.85-.26,1.48-1.37,2-2,.87-1.13,1.66-2.32,2.43-3.52,1.5-2.3,3.1-4.59,4.39-7a13.09,13.09,0,0,0,1.34-3.19,1.64,1.64,0,0,0-.82-1.85c-1.9-1.49-4.23-.29-5.84,1.06-2.1,1.78-3.54,4.24-5.05,6.5-.23.34.33.67.56.32Z"/><path class="cls-2" d="M17.29,169.68a1.69,1.69,0,0,1-1.34-.61c-.73-.88-.3-2.84,1.94-4.74,1.87-1.59,3.27-2,4.31-1.34a1.56,1.56,0,0,1,.66,1.33,5.08,5.08,0,0,1-2.39,3.91A6,6,0,0,1,17.29,169.68Zm3.86-6.22a5,5,0,0,0-2.76,1.46c-2,1.72-2.2,3.22-1.84,3.65a.91.91,0,0,0,.74.33A5.36,5.36,0,0,0,20,167.6a4.33,4.33,0,0,0,2.07-3.25.85.85,0,0,0-.3-.71A1.13,1.13,0,0,0,21.15,163.46Z"/><path class="cls-2" d="M10.49,177a1.66,1.66,0,0,1-1.34-.61c-.73-.88-.3-2.84,1.94-4.74,1.88-1.59,3.27-2,4.32-1.34a1.59,1.59,0,0,1,.65,1.34,5.07,5.07,0,0,1-2.38,3.9A5.91,5.91,0,0,1,10.49,177Zm3.86-6.22a5,5,0,0,0-2.76,1.47c-2,1.71-2.19,3.22-1.84,3.64a.9.9,0,0,0,.74.34,5.36,5.36,0,0,0,2.72-1.3,4.39,4.39,0,0,0,2.08-3.26A.89.89,0,0,0,15,171,1.19,1.19,0,0,0,14.35,170.78Z"/><path class="cls-2" d="M13.05,173.5l-.59-.5a66.36,66.36,0,0,1,5.89-6l.52.58A64.07,64.07,0,0,0,13.05,173.5Z"/><path class="cls-7" d="M59.7,232.62c-1.75-.35-43.07,6.12-48.1-9.56s16.76-38.62,26.58-32.12c0,0-7.44-28.79,24.1-33.66S77.5,173.2,77.5,173.2s15.85-17.53,27.24,5.11-18.47,35.78-18.47,35.78,21.2,4.39,10.19,14.24S59.7,232.62,59.7,232.62Z"/><path class="cls-8" d="M92.59,191.9c-.89,0-19.85.78-29.32,10.47a120.68,120.68,0,0,1,7.78-24.74,1,1,0,1,0-1.87-.9,124.71,124.71,0,0,0-8.74,29.33,1.12,1.12,0,0,0-.07.4c-.38,2.2-.72,4.49-1,6.85C50.84,201.87,36.63,199.68,36,199.59a1,1,0,0,0-1.18.87,1.06,1.06,0,0,0,.88,1.19c.16,0,15.59,2.42,23.35,14.86a115.58,115.58,0,0,0-.38,16.13,5.3,5.3,0,0,1,1,0l1,.2a2.11,2.11,0,0,0,0-.25,118,118,0,0,1,1.69-25.8C69.8,194.88,92.43,194,92.65,194a1,1,0,1,0-.06-2.08Z"/><path class="cls-9" d="M299.44,193c0-.13.09-.29.15-.46,1.9-6.21,8-36.56,26.92-30.46,19.4,6.27-1.25,37.49-1.25,37.49s15.13-10.19,20.14,1.07-10.18,20.8-10.18,20.8,12.54-2.4,11.19,4.15-29.26,2.84-29.26,2.84-6.81-15.13-6.79-15.78-15.43-9.83-15.34-10.07,4.51-9.87,4.51-9.87Z"/><path class="cls-8" d="M308,207.66h0a.71.71,0,0,1-.68-.73c0-.16,3.12-20.13,11.66-33a.72.72,0,1,1,1.2.79c-8.35,12.62-11.4,32.12-11.41,32.3A.75.75,0,0,1,308,207.66Z"/><path class="cls-8" d="M312.07,191.28a.71.71,0,0,1-.48-.2.72.72,0,0,1,0-1c3.36-3.46,13.77-7.53,14.21-7.71a.72.72,0,0,1,.52,1.35c-.1,0-10.55,4.13-13.69,7.36A.7.7,0,0,1,312.07,191.28Z"/><path class="cls-4" d="M288.56,232.37c1.22-.24,29.92,4.25,33.42-6.64s-11.65-26.83-18.47-22.31c0,0,5.17-20-16.74-23.39s-10.58,11.06-10.58,11.06-11-12.18-18.92,3.55,12.84,24.86,12.84,24.86-14.73,3.05-7.08,9.89S288.56,232.37,288.56,232.37Z"/><path class="cls-8" d="M289.29,232.39A90.07,90.07,0,0,0,282,193.55a.73.73,0,0,0-1-.34.72.72,0,0,0-.34,1,88.33,88.33,0,0,1,7.17,38.17,1,1,0,0,0,0,.17c.45-.08.7-.14.7-.14A3.86,3.86,0,0,1,289.29,232.39Z"/><path class="cls-8" d="M288.26,221.72a.76.76,0,0,1-.35-.11.72.72,0,0,1-.24-1c5.71-9.4,16.89-11.13,17.36-11.2a.73.73,0,0,1,.82.62.72.72,0,0,1-.61.82c-.11,0-11,1.7-16.34,10.51A.74.74,0,0,1,288.26,221.72Z"/><path class="cls-8" d="M287.35,214.91a.73.73,0,0,1-.6-.36c-5-8.39-20.92-9-21.08-9a.72.72,0,1,1,.05-1.44c.68,0,16.84.66,22.27,9.72a.71.71,0,0,1-.25,1A.7.7,0,0,1,287.35,214.91Z"/><path class="cls-2" d="M257.51,254.47c-2.32,0-4.68.93-4.67,2.4,0,3.12,9.56,1.92,9.2-.64C261.86,255,259.32,254.47,257.51,254.47Z"/><path class="cls-7" d="M147.31,259.27c-2.36.07-4.77.9-4.8,2.1-.07,2.55,9.62,1.3,9.32-.78C151.69,259.56,149.13,259.22,147.31,259.27Z"/><path class="cls-2" d="M118.18,247.41c3.56.33,8.92,2.1,7.66,5.47s-14.84,2.61-15.51-1.6S115.42,247.16,118.18,247.41Z"/><path class="cls-2" d="M302,95.29c.25,3.23-1.23,6.66-2.64,9.48-1.49,3-3.59,6.78-7.14,7.59-2.07.47-4.78-.86-4.84-3.24s3.06-3.44,5-3.61c4.45-.37,7.52,4.24,6.42,8.35a22.61,22.61,0,0,1-2.23,4.91,26.59,26.59,0,0,1-2.66,4,16.92,16.92,0,0,1-7.15,5.27c-5.61,2.11-13.08,1.85-17.62-2.45-3.48-3.31-4.66-8-5.63-12.56-.09-.41-.71-.24-.62.17,1,4.79,2.32,9.8,6.14,13.17,5.18,4.56,13.77,4.53,19.7,1.5a19.29,19.29,0,0,0,7.36-7c1.93-3,4.34-7,3.34-10.73a7.63,7.63,0,0,0-3.39-4.53,7,7,0,0,0-5.56-.38c-1.6.49-3.38,1.46-3.71,3.25a4.06,4.06,0,0,0,2.07,4c4,2.44,7.95-2,9.81-5.07,2.06-3.44,4.29-8,4-12.11,0-.41-.68-.41-.64,0Z"/><path class="cls-6" d="M297.84,85.85c1.16,1.63,7,2,8.71.45s-.11-3.56,2.78-8.22,6.05-3.59,6.66-13-10-12.38-14.2-12.42-13.6,3.2-13.71,13.71c-.07,7.63,5.23,8.06,7.61,11.73S296.53,84,297.84,85.85Z"/><path class="cls-10" d="M297.45,88c0,.14,5.9,1.77,9.66.26,0,0,.91,8.22-2.41,9s-6.54.07-6.85-1.54S297.45,88,297.45,88Z"/><path class="cls-8" d="M307.69,67.24c-.94.34-1.95,2.92-2.66,5.31a2.92,2.92,0,0,1-2.31-1.31c2.81-3,3.15-8.21,2.38-10.57-.42-1.31-1.06-1.44-1.41-1.4-1.77.21-3,4.32-2.84,7.85a9.17,9.17,0,0,0,.9,4,5.42,5.42,0,0,1-1,.72l-.22.11c-.33-3.63-1-6.76-2.09-7.81a1.47,1.47,0,0,0-1.21-.43A1.65,1.65,0,0,0,295.79,65c-.56,2,.81,5.71,2.61,7.14a2.66,2.66,0,0,0,1.41.62A132.05,132.05,0,0,1,300,87l.38.09h.38a137.79,137.79,0,0,0-.19-14.36,2.14,2.14,0,0,0,.52-.22,6.72,6.72,0,0,0,1.07-.73,3.66,3.66,0,0,0,2.66,1.52c-.17.59-.31,1.16-.43,1.66-.52,2.23-1.65,7.87-.89,12.31.25,0,.51-.05.75-.09-.53-3-.21-7.42.88-12,.16-.67.32-1.3.49-1.89,1.33-.38,2.26-2.13,2.54-2.72.51-1.08.91-2.53.4-3.1A.77.77,0,0,0,307.69,67.24Zm-8.82,4.32c-1.58-1.25-2.83-4.62-2.35-6.33.2-.7.63-.75.77-.77h.09a.81.81,0,0,1,.52.23c1,.9,1.53,3.81,1.85,7.31A2,2,0,0,1,298.87,71.56Zm3.46-1a9,9,0,0,1-.72-3.45c-.12-3.5,1.12-6.95,2.17-7.08h0c.15,0,.39.28.59.88C305.08,63.06,304.8,67.8,302.33,70.55Zm5-.06a5.1,5.1,0,0,1-1.41,1.76c.82-2.63,1.65-4.15,2-4.29l.06,0A4.37,4.37,0,0,1,307.32,70.49Z"/><path class="cls-2" d="M303.34,92.5A16.75,16.75,0,0,1,296.2,91a.39.39,0,0,1-.16-.51.39.39,0,0,1,.52-.16h0a18.15,18.15,0,0,0,10.95,1,.38.38,0,0,1,.14.75A21.15,21.15,0,0,1,303.34,92.5Z"/><path class="cls-2" d="M303.73,95.24a26,26,0,0,1-6.93-.91.38.38,0,0,1-.24-.48.36.36,0,0,1,.47-.24,28.17,28.17,0,0,0,10.48.68.38.38,0,0,1,.42.34.39.39,0,0,1-.34.42A31.1,31.1,0,0,1,303.73,95.24Z"/><path class="cls-8" d="M148.75,142a28.33,28.33,0,0,1-14.28-4.13c-9.1-5.29-10.18-13.84-9.49-20.07a38.43,38.43,0,0,1,3.71-12.33c0-.1,5.41-11.19,18.32-11.19a27.74,27.74,0,0,1,8.52,1.44c7.51,2.41,12.68,6.49,15.34,12.12,3.83,8.08,1.26,16.53,0,19.79C168,134.79,159.55,142,148.75,142ZM147,94.82c-12.59,0-17.81,10.79-17.86,10.9a37.74,37.74,0,0,0-3.65,12.17c-1,8.84,2.13,15.42,9.23,19.55a27.79,27.79,0,0,0,14,4.07c10.57,0,18.87-7.07,21.62-14,1.25-3.19,3.78-11.48,0-19.38-2.6-5.49-7.66-9.48-15-11.85A27.29,27.29,0,0,0,147,94.82Z"/><polygon class="cls-3" points="104.01 229.34 141.1 229.34 171.36 142.64 201.91 176.32 260.79 78.02 270.39 87.59 275.67 49.46 246.62 61.26 254.79 71.09 195.97 136.21 167.42 110.85 104.01 229.34"/><path class="cls-2" d="M40.78,63.67a80.31,80.31,0,0,0-8.12-6c-.35-.23-.68.33-.33.56a77.72,77.72,0,0,1,8,5.87c.32.27.78-.19.46-.46Z"/><path class="cls-2" d="M45.65,59.74a31.54,31.54,0,0,1-1.91-7.47c-.05-.41-.7-.41-.65,0A32.06,32.06,0,0,0,45,59.92c.15.38.77.21.62-.18Z"/><path class="cls-2" d="M53.54,57.71a25.78,25.78,0,0,1,1.31-8.45c.13-.4-.5-.57-.63-.18a26.65,26.65,0,0,0-1.33,8.63.33.33,0,0,0,.65,0Z"/><path class="cls-2" d="M99.09,197.63a56.57,56.57,0,0,0,6.89,0c.28,0,.28-.46,0-.45a54.62,54.62,0,0,1-6.89,0c-.29,0-.28.43,0,.45Z"/><path class="cls-2" d="M97.27,200.83a21.42,21.42,0,0,1,3.29,4.18.22.22,0,0,0,.38-.23,21.93,21.93,0,0,0-3.35-4.26.22.22,0,0,0-.32.31Z"/><path class="cls-2" d="M93,204.16a17.84,17.84,0,0,1,1.53,5.63c0,.29.47.29.44,0a18.61,18.61,0,0,0-1.58-5.85c-.12-.26-.51,0-.39.22Z"/><path class="cls-2" d="M295,49.9a83,83,0,0,0-4.82-9.79.32.32,0,0,0-.56.32,83.17,83.17,0,0,1,4.82,9.8c.16.38.72.05.56-.33Z"/><path class="cls-2" d="M302.65,48.26a54.43,54.43,0,0,1,3.19-12.8c.14-.39-.48-.56-.62-.17a54.87,54.87,0,0,0-3.22,13c0,.41.61.41.65,0Z"/><path class="cls-2" d="M312.5,50.52a31.72,31.72,0,0,1,6.21-8.63c.3-.3-.16-.75-.46-.46a32.27,32.27,0,0,0-6.31,8.76c-.19.37.37.7.56.33Z"/><path class="cls-2" d="M170.33,66.15a64.12,64.12,0,0,1,22.46-6c7.25-.58,15.19-.1,21.3,4.27a16.71,16.71,0,0,1,6.54,9,.33.33,0,0,0,.63-.18c-1.83-6.64-7.78-11.07-14.21-12.82-7.68-2.08-16.25-1.24-23.91.55A65.66,65.66,0,0,0,170,65.59c-.38.18,0,.74.32.56Z"/><path class="cls-2" d="M330.84,158.46c4,1.22,11.26,5.32,8.9,10.52-.17.37.39.7.56.32,2.58-5.66-4.87-10.11-9.29-11.47-.4-.12-.57.51-.17.63Z"/><path class="cls-11" d="M171,118.82a3.57,3.57,0,0,0,.94-3.74c-.45-1.85-1.73-2.11-2.16-1.87l-1.05.59s-.65-4.49-1.37-4.08.16,6,.16,6c-.65.61-1.75-1.31-2.39-.92s1.13,3.23,3.74,4.33l.43,2.5s.39.48,2.21-1.2Z"/><path class="cls-12" d="M147.29,232.51s-2.75,3.71-3.31,4.57a5,5,0,0,0-.29,2.69s1.14,1.24,5.81.07L151,236l-.54-3.52Z"/><path class="cls-13" d="M143.63,238.43a7.15,7.15,0,0,0,.06,1.34s1.14,1.24,5.81.07l.32-.86A25.45,25.45,0,0,1,143.63,238.43Z"/><path class="cls-14" d="M152.65,233.11s2.35,3.73,2.44,5.09a3.37,3.37,0,0,1-.21,1.83,10.68,10.68,0,0,1-6.41.12,3.29,3.29,0,0,1-.28-2.07c.22-1.22,1.93-5.91,1.93-5.91l1.87-.24Z"/><path class="cls-15" d="M158.4,177.92c1.88.17,11.18-1.73,13.27-10.33s-4.32-11.6-3.86-15.5,4.13-9.06.76-15.32-9.49-6.06-8.57-11.42,1.19-11.17-3.24-12.11-9.1,1.79-11.47,2.35-5.85-.2-7.19,4.2,2.41,9.44-.37,13.66-9.19,10-9,14.77,5,9.15,4.42,13.34-10.1,16.49,6,18.64Z"/><path class="cls-16" d="M141.86,164.51a32.64,32.64,0,0,0-3.74,13.37c-.18,7,8.64,55.08,8.64,55.08a3.86,3.86,0,0,0,2.65-.05l2.21-3.71,2-28.57-.46-25.06Z"/><path class="cls-9" d="M157.06,165.82s3.09,5.58,3.26,11S153,233.07,153,233.07a8,8,0,0,1-3.57-.16s1.12-39.46-.87-48S140,168.82,140,168.82a41.28,41.28,0,0,1,1.9-4.31C142.45,163.58,157.06,165.82,157.06,165.82Z"/><path class="cls-11" d="M147.4,132.57s.8,4.91-.47,6a11.84,11.84,0,0,1-2.93,1.72l3.1,4.4,5.72.27,3.21-5.06-1.08-1s-2.18-.37-2.51-1.31a35.36,35.36,0,0,1-.43-5.06Z"/><g class="cls-17"><path class="cls-11" d="M152.23,136.25c-.14-1.36-.2-3.25-.21-3.68l-.69-.07-3.93.07a23.36,23.36,0,0,1,.23,2.44A9.69,9.69,0,0,0,152.23,136.25Z"/></g><path class="cls-11" d="M143.74,121.78c-.43,1.94-2.18,12,5.78,12.58s6-12.54,6-12.54l-7.74-5.11-3.07,2.05Z"/><path class="cls-11" d="M155,126.75s.41-2,1.57-1.6-.53,4.63-1.53,4.33S155,126.75,155,126.75Z"/><path class="cls-11" d="M144.05,127s-.48-2-1.62-1.54.7,4.6,1.68,4.27S144.05,127,144.05,127Z"/><path class="cls-15" d="M145.34,117.73s-.71,6.91,10.42,7.59l1.65-2.56-.11-5.86-6.9-2.07Z"/><path class="cls-15" d="M143.26,125.53a13.64,13.64,0,0,0,3.65-5.64c1.21-3.59-2.35-2.86-2.35-2.86a21.07,21.07,0,0,0-1.95,1.87c0,.15-1.34,4.5-1.34,4.5Z"/><path class="cls-18" d="M148.15,239a3,3,0,0,0,.32,1.12,10.68,10.68,0,0,0,6.41-.12,2.42,2.42,0,0,0,.22-1.15A25.82,25.82,0,0,1,148.15,239Z"/><path class="cls-8" d="M152.75,233.12l-.19,0c.05-.47,5-46.66,4.76-53.65A36.44,36.44,0,0,0,153.73,166l.16-.09a36.36,36.36,0,0,1,3.61,13.55C157.76,186.45,152.8,232.65,152.75,233.12Z"/><path class="cls-8" d="M156.09,171.63l-.12-.14s1.31-1.27.71-5.07l.19,0C157.49,170.3,156.15,171.58,156.09,171.63Z"/><path class="cls-8" d="M151.73,234.92a7.2,7.2,0,0,1-1.34-.14l0-.18a5.13,5.13,0,0,0,2.2,0l.07.18A2.89,2.89,0,0,1,151.73,234.92Z"/><path class="cls-8" d="M151.79,235.84a9,9,0,0,1-1.4-.13l0-.18a6.86,6.86,0,0,0,2.46,0l.05.18A4.8,4.8,0,0,1,151.79,235.84Z"/><path class="cls-8" d="M147.93,234.45c-.59,0-1.17,0-1.21,0v-.18a18,18,0,0,0,2,0l0,.18A6.61,6.61,0,0,1,147.93,234.45Z"/><path class="cls-8" d="M147.67,235.39c-.64,0-1.35,0-1.39,0v-.19a13,13,0,0,0,2.2,0l0,.19A5.08,5.08,0,0,1,147.67,235.39Z"/><path class="cls-19" d="M158.59,148.73s-3.32,12-.9,17.76c0,0-15.15-1.36-17.15-.51,0,0,3.43-6.06,2.5-12.16,0,0-3-3.27-3-4.56s1.92-6.4,1.92-6.4l2.86-3.45.76,4.74,4.52,1.75,6.91-1Z"/><polygon class="cls-11" points="145.28 154.49 147.22 153.54 148.66 155.39 146.79 157.31 145.28 154.49"/><path class="cls-19" d="M145.87,154s2,2.38,2.19,2.58c0,0-5.75,8.81-13.7,8.61s2.06-21.3,3.6-22.69,6.88-3,6.88-3l-1.75,4.92s-6.09,13.6-5,13.83S145.19,154.2,145.87,154Z"/><path class="cls-19" d="M155,138.85c4.36-.2,12.66-.4,14.34-2.6s-1-16.18-1-16.18a5.59,5.59,0,0,1,3.13-1s8.17,16.45,2,23c-3.84,4.11-12.35,4.56-12.35,4.56S161,152.52,157,154l-.49-7-2.07-1.78-4.31.65-5.1-.36-.49-2.8.31-3.33s1.08,3.39,5.68,3.33S155,138.85,155,138.85Z"/><path class="cls-8" d="M133.06,163.67a.73.73,0,0,1-.37-.08.47.47,0,0,1-.15-.3c-.36-2.21,4.6-18.42,5.81-19.94s6.41-3.51,6.63-3.6l.09.17c-.06,0-5.43,2.1-6.58,3.54s-6.13,17.61-5.77,19.8c0,.14.06.17.08.18,1,.63,11.89-4.4,14.66-7.58l.14.12C145.1,158.85,135.31,163.67,133.06,163.67Z"/><path class="cls-8" d="M162.63,140.33a43.36,43.36,0,0,1-7.75-.81l.05-.23c.14,0,13.6,2.73,15.26-2.08s-1.55-17.26-1.58-17.38l.23-.06c.13.51,3.27,12.58,1.57,17.52C169.58,139.69,166.1,140.33,162.63,140.33Z"/><path class="cls-5" d="M148.57,151.07s-.1-4.74-.72-6a39.54,39.54,0,0,1,12.38-.66s-1.86,13.9-.48,17.05H147.6A41,41,0,0,0,148.57,151.07Z"/><path class="cls-11" d="M147.22,153.54s.16-3.57,1.2-4.93l.15,2.46s3.26-2.55,4.92-2.87,1,.82-1,1.79c0,0,1.63-.77,1.85-.31a4.85,4.85,0,0,1-.52,3.09c-.51.52-3.52,2.71-5.16,2.62a1.5,1.5,0,0,1-1.45-1.72Z"/><path class="cls-2" d="M338.08,158.75a8.61,8.61,0,0,1,5,6.23.33.33,0,0,0,.63-.17,9.23,9.23,0,0,0-5.46-6.68c-.39-.15-.56.47-.17.62Z"/><path class="cls-2" d="M7.74,208.42C5,212.07,1.59,220.09,7,223.1a.32.32,0,0,0,.32-.56c-5-2.8-1.52-10.44,1-13.8.25-.33-.31-.65-.55-.32Z"/><path class="cls-2" d="M2.06,212.92a9.18,9.18,0,0,0-.46,8.54c.15.39.77.22.62-.17-1-2.66-1.21-5.56.39-8,.23-.35-.33-.68-.55-.33Z"/><path class="cls-3" d="M298.89,238.77s27.17-1.86,29.82-1.19L328,220.15l-29.85.64Z"/><path class="cls-2" d="M300,238.92a.2.2,0,0,1-.15-.06.23.23,0,0,1,0-.32l9.25-10a.23.23,0,0,1,.32,0,.22.22,0,0,1,0,.32l-9.25,10A.2.2,0,0,1,300,238.92Z"/><path class="cls-2" d="M327.77,237.69a.25.25,0,0,1-.16-.06l-10.48-10.54a.22.22,0,0,1,0-.31.22.22,0,0,1,.32,0l10.48,10.53a.22.22,0,0,1,0,.32A.23.23,0,0,1,327.77,237.69Z"/><path class="cls-2" d="M311.83,230.64l-.12-.08L298.06,221a.22.22,0,0,1-.06-.31.22.22,0,0,1,.31-.06l13.54,9.51L327.92,220a.22.22,0,0,1,.3.07.22.22,0,0,1-.07.31Z"/><polygon class="cls-4" points="51.6 206.04 77.3 187.95 77.3 183.09 73.8 183.4 48.92 203.6 51.6 206.04"/><polygon class="cls-4" points="49.37 209.03 76.04 230.62 83.71 228.91 83.33 226.99 52.29 206.04 49.72 208.57 49.37 209.03"/><polygon class="cls-2" points="85.53 228.91 87.96 224.91 90.45 226.68 87.99 229.88 85.53 228.91"/><path class="cls-3" d="M93.19,192.86c.65.46,4.38,3.39,1.3,6.74s-8.19-.76-8.19-.76Z"/><path class="cls-2" d="M64.68,238s2.17-11.2,15.09-11.31,14.45,11.77,14.45,11.77-17.31.57-17.65.63S64.68,238,64.68,238Z"/><polygon class="cls-4" points="62.23 237.39 62.8 241.48 96.56 241.13 97.28 236.82 62.23 237.39"/><path class="cls-2" d="M48.83,201.65a4.24,4.24,0,0,1,4.35,4.72,4.27,4.27,0,0,1-8.54-.33A4.21,4.21,0,0,1,48.83,201.65Z"/><path class="cls-2" d="M83.33,184.29c0-.11-4.65-8.18-8.69-4.42s4.27,9.37,4.27,9.37Z"/><path class="cls-9" d="M81.65,205.09l18.22-16.17S89,177.38,79.71,185.15,81.65,205.09,81.65,205.09Z"/><path class="cls-2" d="M369.18,195.52a2.53,2.53,0,0,0,.41,4.06c1.86,1.17,4.17.13,5.54-1.3,3.61-3.77-5.1-6.85-6.08-2.22-.09.4.54.58.62.17.35-1.67,2.1-2.13,3.58-1.73a3.29,3.29,0,0,1,1.82,1l.16,1.62-.42.58a6.13,6.13,0,0,1-.8.73,3.85,3.85,0,0,1-3.43.9,2,2,0,0,1-.95-3.34c.32-.27-.14-.72-.45-.45Z"/><path class="cls-2" d="M349.14,132.1a36.32,36.32,0,0,0,6.54-2.39c.37-.18.05-.74-.33-.56a35,35,0,0,1-6.38,2.32.33.33,0,0,0,.17.63Z"/><path class="cls-2" d="M349.29,128.31c1.55,1.94,3.6,3.45,5,5.55.23.35.79,0,.56-.33-1.39-2.14-3.47-3.69-5.06-5.67-.26-.33-.72.13-.46.45Z"/><path class="cls-2" d="M351.18,134.18a41.39,41.39,0,0,0,2.22-6.52c.09-.4-.54-.58-.63-.17a40.36,40.36,0,0,1-2.21,6.52c-.16.38.47.55.62.17Z"/><path class="cls-2" d="M90.05,77.64l7.84.24a.33.33,0,0,0,0-.65L90.05,77c-.41,0-.41.63,0,.65Z"/><path class="cls-2" d="M336.92,91.65l.1,5.93a.32.32,0,0,0,.64,0l-.09-5.93a.33.33,0,0,0-.65,0Z"/><path class="cls-2" d="M334.17,95.35l6.32-.66c.41,0,.42-.69,0-.65l-6.32.66c-.41,0-.42.69,0,.65Z"/><path class="cls-2" d="M94.55,52.33c2.09-1.49,4.23-2.88,6.45-4.16a.33.33,0,0,0-.08-.59,23.09,23.09,0,0,0-7.21-1,.33.33,0,0,0,0,.65,22.34,22.34,0,0,1,7,1c0-.19,0-.39-.08-.59q-3.32,1.92-6.44,4.16c-.34.24,0,.8.32.56Z"/><path class="cls-2" d="M5.21,107a2.43,2.43,0,0,1,4.11-1.6,4,4,0,0,0,2,1.29,3.17,3.17,0,0,0,3.52-2c.15-.39-.48-.56-.62-.17a2.51,2.51,0,0,1-3.48,1.29c-1-.57-1.39-1.51-2.61-1.72A3.06,3.06,0,0,0,4.57,107c0,.42.61.42.64,0Z"/><path class="cls-2" d="M217.76,197.15a.29.29,0,0,1-.07-.56c6.28-1.55,5.57-11.66,5.56-11.76a.29.29,0,0,1,.26-.31.3.3,0,0,1,.31.26c0,.44.75,10.7-6,12.36Z"/><path class="cls-2" d="M182.08,235H182a.27.27,0,0,1-.23-.32c0-.1,1.52-9.58,3.12-18.93.94-5.49,1.72-9.87,2.33-13,1.2-6.15,1.42-6.13,1.76-6.11a.28.28,0,0,1,.12.53c-.79,1.35-4.47,23.15-6.77,37.6A.28.28,0,0,1,182.08,235Z"/><path class="cls-2" d="M222.44,234.19a.28.28,0,0,1-.28-.24c-2-14.54-5.72-36.51-7.63-37.48a.28.28,0,0,1-.13-.38.28.28,0,0,1,.38-.12c.46.23,1.84.92,5.07,19.56,1.59,9.15,2.86,18.25,2.87,18.34a.28.28,0,0,1-.24.32Z"/><path class="cls-2" d="M186.73,207.31a.28.28,0,0,1-.28-.27.28.28,0,0,1,.27-.3l31-1a.29.29,0,1,1,0,.57l-31,1Z"/><path class="cls-7" d="M184.77,197c1.41-3.32,25.13-5,31.75-1.13C225.52,201.11,182.61,202.1,184.77,197Z"/><path class="cls-20" d="M225,159.25c3.67,1.83,2.62,24.15-2.66,29.71C215.16,196.52,219.37,156.45,225,159.25Z"/><path class="cls-2" d="M115.17,240.8h0a.28.28,0,0,1-.26-.31c0-.15,1.12-15.91,2.8-31.71,1-9.28,2-16.77,3-22.24,1.66-9.36,2.88-10.87,3.66-11.19a.29.29,0,0,1,.37.15.28.28,0,0,1-.16.37c-1.07.44-3.31,5.31-6.26,33-1.69,15.79-2.8,31.54-2.81,31.69A.28.28,0,0,1,115.17,240.8Z"/><path class="cls-2" d="M234.05,242.35a.28.28,0,0,1-.29-.28c-.09-21.48-5.37-64.7-6.17-66.52a.28.28,0,0,1,.21-.49c.31,0,.51,0,1.54,7.65.66,4.92,1.4,11.28,2.1,17.89.85,8.14,2.84,28.48,2.89,41.47a.29.29,0,0,1-.28.28Z"/><path class="cls-2" d="M121,186.86a.28.28,0,0,1,0-.56l108.47-.42h0a.29.29,0,0,1,.28.28.28.28,0,0,1-.28.29L121,186.86Z"/><path class="cls-7" d="M116.37,176.91a.91.91,0,0,1-.05-1.82c.65,0,65.47-3.57,117.71-.3a.92.92,0,0,1,.85,1,.9.9,0,0,1-1,.84c-52.13-3.26-116.85.27-117.5.3Z"/><path class="cls-21" d="M206.14,229.41s-3.28,4.6-5.25,5.33l.77,1.37,3.14-1.31,3-1.21-.11-3.91Z"/><path class="cls-11" d="M210.32,230.45a8.73,8.73,0,0,0,0,2.86l-.59,1.32-4.1.17.94-1.36,0-3.33Z"/><path class="cls-21" d="M211.5,239.16s0-4.78-1.18-5.85c0,0-3.45,1.49-3.75.13,0,0-10.94,1.49-12.42,3.88a3.94,3.94,0,0,0-.26,3.18S206.53,240.93,211.5,239.16Z"/><path class="cls-22" d="M193.67,239.28a4.37,4.37,0,0,0,.22,1.22s12.64.43,17.61-1.34c0,0,0-.41,0-1C205.66,239.61,196.48,239.39,193.67,239.28Z"/><path class="cls-23" d="M195,165s-4.81,23.36-3.85,28.23,8.9,30.92,14.73,36l1.18-1.73-.35-2.63-.19-1.41s-5.89-20-3.78-32.83l2.11-12.87-2.05-11.59Z"/><path class="cls-24" d="M213.06,168s2.49,7.14,1.47,22.44-3.71,41-3.71,41a6.58,6.58,0,0,1-4.93,0s-3.65-55.18-10.15-65.42l4.8-2,9.36.49Z"/><path class="cls-8" d="M206.39,235.15a.11.11,0,0,1-.1-.06c-.91-1.28-1.37-1.26-1.37-1.27a.12.12,0,0,1-.15-.1.13.13,0,0,1,.11-.15c.06,0,.61,0,1.62,1.37a.14.14,0,0,1,0,.18A.13.13,0,0,1,206.39,235.15Z"/><path class="cls-8" d="M205.3,235.75a.12.12,0,0,1-.11-.07,3.29,3.29,0,0,0-1.88-1.58.13.13,0,1,1,.07-.25,3.54,3.54,0,0,1,2,1.72.13.13,0,0,1-.06.17Z"/><path class="cls-8" d="M204.18,236.49a.12.12,0,0,1-.11-.08,3.73,3.73,0,0,0-2.4-2,.12.12,0,0,1-.1-.15.13.13,0,0,1,.15-.1,3.9,3.9,0,0,1,2.58,2.13.12.12,0,0,1-.07.17Z"/><path class="cls-8" d="M209.6,231.92h0a.12.12,0,0,1-.11-.14c3.81-37,1.17-63.77,1.14-64a.13.13,0,1,1,.26,0c0,.26,2.67,27.08-1.15,64.09A.13.13,0,0,1,209.6,231.92Z"/><path class="cls-8" d="M211.4,178a.18.18,0,0,1-.1,0,.14.14,0,0,1,0-.18c1.95-1.86.61-9.82.59-9.9a.13.13,0,0,1,.11-.15.14.14,0,0,1,.15.11c.05.33,1.38,8.18-.68,10.12A.12.12,0,0,1,211.4,178Z"/><path class="cls-25" d="M219.76,139.32a27.59,27.59,0,0,0-6.66-2.59h-3.2l-3.54-2.68-5.82-.6s-3.36,1.83-5.83,1S181.22,147,182.37,152.37s11.52,6.46,11.52,6.46a37.9,37.9,0,0,0,.69,7l2.77,1.15s7.09.09,7.33,0,8.38,1,8.38,1c-.54-3,.51-7.21,1.83-10.85,5.15,2.09,13.56,3.83,16.3,1.76C234.86,156.15,222.06,140.83,219.76,139.32Zm-25.11,15.1c-2-1.28-2.23-2.17-2-4.35s1.12-6.27,1.63-5.66,1.47,4.38,1.47,4.38Zm22.27-2a8.67,8.67,0,0,1,1.64-2.71c.51.12,2.52,3.45,2.52,3.45C220.74,153.38,218.79,152.91,216.92,152.38Z"/><path class="cls-26" d="M192.16,128s-2.67,1.38-2.67,1.72,2.91,6.68,8.61,7.41c0,0,1.91-2.3,2.44-3.2l-2.3-3.18-2.18-1.09L193,128.2Z"/><path class="cls-11" d="M206.7,128.46s.77,5.46,2.81,6.53l1.24,1-.81,2.77s-3.5,4.23-6.27,3.93-2.31-4.22-2.26-4.4a11.86,11.86,0,0,1,1.7-1.15s.73-1.58-1-3.8.94-2.34.94-2.34Z"/><path class="cls-27" d="M200.65,134.61s-3.43,5.73-.65,9.42l3.67-1.32a7,7,0,0,1-.56-5.55,2.77,2.77,0,0,0-.22-2.55Z"/><path class="cls-27" d="M208.42,133.88a8.39,8.39,0,0,1,6.19,2.54s-3.56,6.82-7.61,8.68c0,0-2.27-1.6-3.33-2.39C203.67,142.71,212.5,138.13,208.42,133.88Z"/><path d="M209.54,152.2l4.6-10.91a2.77,2.77,0,0,0-1.5-.64l-4,10.8Z"/><path d="M212,142.27c.43.18.95.45,1.41.69l.7-1.67a2.77,2.77,0,0,0-1.5-.64Z"/><path class="cls-11" d="M213.47,152.51c-.85-1.27-2.41-5.58-3.44-5.77s-5.86.56-6.22,1.52,4.91,4.1,4.93,4.18,1.65,2.15,3.48,2.14C213.31,154.57,213.47,152.51,213.47,152.51Z"/><path class="cls-5" d="M196.84,169s9.39,2.18,12.76.43c0,0-.25-16.86-3.33-21.47,0,0-9-4.16-18.05-.95C188.22,147,198.24,151.82,196.84,169Z"/><path class="cls-11" d="M194.81,154.58c-.69.24-1.56,2.14-.92,4.25s1.67,3.08,3.11,2.9,3.69-1.25,4-2.4-.35-1.14-.35-1.14,1-.77-.21-1c0,0,1.34-.77-.27-1.1,0,0,1.42-.59.16-1.14A9.43,9.43,0,0,0,194.81,154.58Z"/><g class="cls-17"><path class="cls-11" d="M203.24,135.88a8.11,8.11,0,0,0,4.41-3.63,21,21,0,0,1-1-3.79L203.07,131l-.86,2.46A4.83,4.83,0,0,1,203.24,135.88Z"/></g><path class="cls-11" d="M191.93,122.57c-.13,0-.72,8,3.16,11.18l1.28-1.61s7.55,7.45,10.8-2.79c0,0-.56-5.08-.56-5.25a26.41,26.41,0,0,0-3.41-3.88c-.3,0-5.55.85-5.72.85S191.93,122.57,191.93,122.57Z"/><path class="cls-15" d="M192.16,128s-7.43,0-6.69-6.72,5.69-3.26,9.89-4.51,7.77-3.68,11.2.29,2.53,11,.42,12.91c0,0-1.93-1.16-2.79-4.94l-2.29-.23a8.68,8.68,0,0,1-10-2.18A17.39,17.39,0,0,0,192.16,128Z"/><path class="cls-11" d="M201.9,124.75s-.73-2.06,1.22-2.11,1.76,4,1.1,4.37S201.9,124.75,201.9,124.75Z"/><path class="cls-7" d="M240,208.53a20.48,20.48,0,0,1,6.92-3.62,14,14,0,0,1,6.58,0l3.74-.89s6.81,1.42,10,4.6v7s-.64,6-.74,6.07-3.06,1.73-3.06,1.73l-1.19,3.92-.34,1.86-.7,5.23-8.19.21L242,231.62,238.74,219Z"/><path class="cls-28" d="M241.13,233.15c-.13-.08-6.55-3.41-11-.79s-2.34,8.54-2.34,8.54l7.23.86s9.34-.16,9.89-.38,3-5,3-5l-5.24-3.11Z"/><path class="cls-11" d="M239.54,240a13.72,13.72,0,0,1-4.3-.28l.16,4.42,3.91-.15Z"/><path class="cls-14" d="M227.46,236.28a7,7,0,0,0-.24,8.44l9.12-.64a5.18,5.18,0,0,1-.55-4.26S231.16,235.26,227.46,236.28Z"/><path class="cls-29" d="M229.82,236.27c-1.51,1.18-3.26,3.7-1.59,8.38l-1,.07a7,7,0,0,1,.24-8.44A5,5,0,0,1,229.82,236.27Z"/><path class="cls-11" d="M258,220.63l-2.25-1.24s-.85,2.26-.92,2.53,1.49,1.23,1.49,1.23Z"/><path class="cls-30" d="M255,225.45c0,.26-5.15.31-5.35.2a108.41,108.41,0,0,1-1.1-11.12c.2-.06,6.45-.41,6.71-.26S255.13,224.75,255,225.45Z"/><path class="cls-11" d="M256.4,220.24c.09-.1.56-3.15-1.07-4.64l0,2.91a21.81,21.81,0,0,1-6.69-1.1c-2.7-1.1-1,1.16.75,1.68,0,0-2-.33-2.15.36s4.59,4.81,8,3l1.06-1.53Z"/><path class="cls-11" d="M256.87,203.7a2.39,2.39,0,0,1,.89,2.31c-.31,1.44-3,6.26-6.26,7.07,0,0-6.05-4.55-4.46-8.57s4-2.11,4-2.11Z"/><g class="cls-17"><path class="cls-11" d="M247,204.51c1.59-4,4-2.11,4-2.11l5.88,1.3a2.09,2.09,0,0,1,.36.35h0a6.23,6.23,0,0,1-5.39,5.1C247.62,209.61,246.79,205.13,247,204.51Z"/></g><path class="cls-11" d="M257.27,194.4s3.85,11.53-5,13.12-5.84-13.09-5.84-13.09l6.71-1.38Z"/><path class="cls-11" d="M246.36,199.9a1.63,1.63,0,0,0-1.83-.66c-1.15.39.76,5.36,2.54,4.6S246.36,199.9,246.36,199.9Z"/><path class="cls-15" d="M256.46,195.19s-3.53,6.17-10.48,4.31-3.16-6.16-3.16-6.16.7.9,1.28.88,3.33-6.51,9.48-5.71,4.26,2.75,4.26,2.75,1.28-.36,2.42,1.26,1.21,6.25-1.15,7.56l-1-1.09A12.22,12.22,0,0,0,256.46,195.19Z"/><path class="cls-11" d="M257.68,199.47a1.64,1.64,0,0,1,1.78-.8c1.18.3-.35,5.4-2.19,4.78S257.68,199.47,257.68,199.47Z"/><path class="cls-21" d="M238.06,239.56a15.6,15.6,0,0,0,.19,4.86s21.65,1.84,30.31-1.16,9.84-6.8,6.63-9.63S259.58,230,238.06,239.56Z"/><path class="cls-11" d="M266.78,240.08s-3.75,4.34-4.95,4.48l4.73-.19,1.57-.88.17-2.07Z"/><path class="cls-14" d="M274.81,235.91a7,7,0,0,1,.89,8.4l-9.14.06a5.2,5.2,0,0,0,.22-4.29S271.05,235.18,274.81,235.91Z"/><path class="cls-29" d="M272.47,236.09c1.59,1.06,3.53,3.43,2.22,8.23h1a7,7,0,0,0-.89-8.4A4.8,4.8,0,0,0,272.47,236.09Z"/><path class="cls-11" d="M256,233.83a9.55,9.55,0,0,1,3,2.79,8.23,8.23,0,0,1,1.25,4.95c-.17,1.47-.83,3-1.2,3.2s-.42-.5-.42-.5-.26,2.07-1.23,2.28-.55-1.7-.55-1.7.06,1.69-.57,1.76-2.37-4.34-1.4-9.75C254.93,236.86,254.73,234.69,256,233.83Z"/><path class="cls-11" d="M259.07,237.91s1.85,1.71,2.83,1.87c0,0-.26,1.43-2.52.32S259.07,237.91,259.07,237.91Z"/><polygon class="cls-11" points="254.93 236.86 254.03 236.67 252.05 235.19 253.92 233.92 254.79 233.42 255.48 233.4 256.04 233.84 257.81 236.38 254.93 236.86"/><path class="cls-31" d="M256,233.25a3.62,3.62,0,0,0-1.63,3.68s-17.76.42-22.11-6.78,6.27-20.37,7.71-21.62c0,0,5.8,12,3.51,17.6C243.5,226.13,255.22,232.65,256,233.25Z"/><path class="cls-31" d="M257.76,219.83s-1.71,2.17-1.82,3.6c0,0,6.84,9.85,14.41,9.36s3.32-18-3.12-24.14c0,0-5.07,6-3.35,13.66A37.68,37.68,0,0,1,257.76,219.83Z"/><path class="cls-8" d="M269,243.77a5.61,5.61,0,0,0-.32-3.6l-.23.11a5.44,5.44,0,0,1,.3,3.42Z"/><path class="cls-8" d="M270.44,243.73a5.78,5.78,0,0,0-.66-4.21l-.21.14a5.67,5.67,0,0,1,.62,4Z"/><path class="cls-8" d="M234.76,243.61l.25-.07c-.65-2.31-.1-3.38-.09-3.39l-.23-.12S234.08,241.18,234.76,243.61Z"/><path class="cls-8" d="M233.28,243.66l.24-.09a3.69,3.69,0,0,1,.55-3.91l-.18-.19A4,4,0,0,0,233.28,243.66Z"/><path class="cls-8" d="M254.35,236.43l.06-.25c-.19-.05-18.54-4.16-19.91-8.34s6.46-17,6.53-17.12l-.22-.14c-.32.53-8,13-6.55,17.34S253.59,236.26,254.35,236.43Z"/><path class="cls-8" d="M269.7,231a2.82,2.82,0,0,0,1.56-.41c3.82-2.49-4-20.69-4.31-21.47l-.24.1c.09.19,8.05,18.78,4.41,21.15a2.54,2.54,0,0,1-1.43.37c-4.52,0-13.48-7.81-13.58-7.9l-.17.2C256.36,223.4,265.07,231,269.7,231Z"/></g></g></svg>