<svg xmlns="http://www.w3.org/2000/svg" viewBox="0 0 428 287"><defs><style>.cls-1{isolation:isolate;}.cls-2{fill:#29495c;}.cls-3{fill:#eff0f0;}.cls-4{fill:#99c3dc;}.cls-5{mix-blend-mode:multiply;}.cls-6{fill:#dae7ef;}.cls-7{fill:#fda93b;}.cls-8{fill:#fd643b;}.cls-9{fill:#1d6185;}.cls-10{fill:#ced1d2;}.cls-11{fill:#f4d39e;}.cls-12{fill:#a2becd;}.cls-13{fill:#77ccfd;}.cls-14{fill:#162934;}.cls-15{fill:#1d3745;}.cls-16{fill:#fdbf70;}.cls-17{fill:#76c2d1;}.cls-18{fill:#333745;}.cls-19{fill:#c7e9fd;}.cls-20{fill:#c4532e;}.cls-21{fill:#c54e2e;}.cls-22{fill:#4ba7de;}.cls-23{fill:#548eb1;}</style></defs><g class="cls-1"><g id="Layer_1" data-name="Layer 1"><path class="cls-2" d="M369.81,185.82a45,45,0,0,1,6.46,2.28c.5.22.94-.52.43-.74A45,45,0,0,0,370,185a.43.43,0,0,0-.23.82Z"/><path class="cls-2" d="M374.14,183.5l-3.23,6.59c-.24.49.49.93.74.43,1.08-2.19,2.15-4.39,3.23-6.58.24-.5-.49-.93-.74-.44Z"/><path class="cls-3" d="M298.91,89.17s-7.12.57-6.64,6.4,9.55,4.57,15.54,4.57,40.61,2.39,47.9-1.77c6.14-3.51,5.5-13.31-10.36-14.11-.94,0,8.89-16.06-16.41-20.12C311.23,61.3,309,74.88,309,74.88s-9.42-1.19-12.65,6.16A6.1,6.1,0,0,0,298.91,89.17Z"/><path class="cls-4" d="M366.24,72.36s3.94.35,3.67,4-5.28,2.85-8.59,2.85-22.47,1.5-26.5-1.09c-3.4-2.19-3-8.31,5.73-8.81.52,0-4.92-10,9.08-12.54,9.79-1.77,11,6.7,11,6.7s5.21-.75,7,3.84A4,4,0,0,1,366.24,72.36Z"/><path class="cls-2" d="M283.06,56.39a3.48,3.48,0,0,0-5.2-1.06c-1.73,1.45-3.19,4.25-1.05,6s4.82.41,6.32-1.37a2.68,2.68,0,0,0,.62-2.85c-.55-1.35-2-2-2.86-3.14-.34-.43-.94.18-.6.61.95,1.2,3.61,2.48,2.55,4.34-.87,1.53-3.1,2.86-4.84,2.13-4.05-1.7,1.94-8.53,4.32-4.21a.43.43,0,0,0,.74-.43Z"/><path class="cls-2" d="M56.06,141.31a16,16,0,0,1-3.14,1.92c-.56.26-2,.47-2.34,1.13s.18.94.57,1.22c1.07.78,2.34,1.38,3.48,2,.78.45,3.38,2.69,3.9.92a8,8,0,0,0-.27-3l-.53-4.05c-.07-.54-.93-.55-.85,0L57.6,147a3.56,3.56,0,0,1,.13,1.08c-.28.39-.73-.07-1-.24l-2.39-1.4c-.78-.46-1.64-.88-2.38-1.4-.43-.3-.58-.18-.1-.48a7.5,7.5,0,0,1,1.06-.41,17.27,17.27,0,0,0,3.76-2.25c.43-.34-.18-.94-.61-.61Z"/><path class="cls-2" d="M72.39,165.52a28.31,28.31,0,0,0,6.11-1.77c.51-.21.29-1-.22-.83a28.39,28.39,0,0,1-6.12,1.77c-.54.1-.31.92.23.83Z"/><g class="cls-5"><path class="cls-6" d="M313.61,208.33c0-4.71-44-8.53-98.21-8.53s-122.69,3.82-122.69,8.53S159.92,219,214.16,219,313.61,213,313.61,208.33Z"/></g><path class="cls-3" d="M67.23,107.35s-8.46.67-7.88,7.59,11.34,5.42,18.44,5.42,48.23,2.85,56.88-2.09c7.3-4.17,6.53-15.8-12.3-16.75-1.12-.06,10.55-19.07-19.48-23.89-21-3.37-23.65,12.75-23.65,12.75s-11.18-1.42-15,7.31A7.25,7.25,0,0,0,67.23,107.35Z"/><path class="cls-4" d="M95.92,124s3.16.29,2.94,3.2S94.63,129.5,92,129.5s-18,1.2-21.27-.88c-2.73-1.76-2.45-6.67,4.6-7.07.41,0-4-8,7.28-10.07,7.87-1.42,8.84,5.38,8.84,5.38s4.19-.6,5.62,3.08A3.2,3.2,0,0,1,95.92,124Z"/><path class="cls-7" d="M108.37,85.65c.72,1,4.29,1.18,5.34.22s-.09-2.18,1.65-5.05,3.69-2.24,4-8-6.22-7.53-8.78-7.53-8.32,2-8.32,8.48c0,4.68,3.25,4.91,4.73,7.15S107.55,84.52,108.37,85.65Z"/><path class="cls-3" d="M108.13,86.31c0,.08,3.63,1,5.93.1,0,0,.61,5-1.43,5.53s-4,.09-4.21-.9S108.13,86.31,108.13,86.31Z"/><path class="cls-2" d="M114.3,74.18c-.58.22-1.18,1.8-1.6,3.27a1.8,1.8,0,0,1-1.43-.79,7.46,7.46,0,0,0,1.4-6.49c-.27-.8-.67-.87-.88-.85-1.08.14-1.78,2.67-1.69,4.83a5.6,5.6,0,0,0,.58,2.45,3.59,3.59,0,0,1-.63.45l-.13.06c-.23-2.22-.63-4.14-1.33-4.77a.92.92,0,0,0-.75-.26,1,1,0,0,0-.85.81,5.15,5.15,0,0,0,1.64,4.36,1.67,1.67,0,0,0,.87.38,82.51,82.51,0,0,1,.2,8.7l.23,0h.23a84.11,84.11,0,0,0-.2-8.8,1.83,1.83,0,0,0,.32-.14,3.8,3.8,0,0,0,.65-.46,2.24,2.24,0,0,0,1.64.92c-.1.36-.18.71-.25,1a21.39,21.39,0,0,0-.48,7.55c.16,0,.32,0,.46-.06a19.91,19.91,0,0,1,.47-7.39c.09-.41.19-.8.29-1.16.81-.24,1.37-1.32,1.54-1.69.3-.66.55-1.55.23-1.9A.46.46,0,0,0,114.3,74.18Zm-5.39,2.71A4.7,4.7,0,0,1,107.44,73c.11-.42.38-.46.46-.47h0a.47.47,0,0,1,.32.14c.6.55,1,2.32,1.18,4.47A1.33,1.33,0,0,1,108.91,76.89Zm2.12-.64a5.89,5.89,0,0,1-.47-2.12c-.09-2.14.65-4.26,1.29-4.35h0c.09,0,.24.17.37.54A7,7,0,0,1,111,76.25Zm3-.07a3.14,3.14,0,0,1-.85,1.09c.49-1.62,1-2.56,1.23-2.65h0A2.63,2.63,0,0,1,114.08,76.18Z"/><path class="cls-2" d="M111.77,89.06a10.37,10.37,0,0,1-4.38-.87.23.23,0,0,1-.1-.31.24.24,0,0,1,.31-.11h0a11,11,0,0,0,6.72.56.23.23,0,0,1,.27.19.23.23,0,0,1-.18.27A13.59,13.59,0,0,1,111.77,89.06Z"/><path class="cls-2" d="M112,90.74a15.94,15.94,0,0,1-4.25-.52.23.23,0,0,1-.16-.29.24.24,0,0,1,.29-.16,17.18,17.18,0,0,0,6.43.36.24.24,0,0,1,.26.2.24.24,0,0,1-.21.26A18.34,18.34,0,0,1,112,90.74Z"/><path class="cls-2" d="M111.4,61.07a83.54,83.54,0,0,0,.17-8.52.48.48,0,0,0-1,0q.12,4.26-.18,8.52c-.05.62.92.62,1,0Z"/><path class="cls-2" d="M117.84,62.88a17.86,17.86,0,0,1,6.42-5c.55-.28.07-1.12-.49-.83A18.68,18.68,0,0,0,117,62.39c-.37.5.47,1,.84.49Z"/><path class="cls-2" d="M105.72,62.91a27.05,27.05,0,0,0-3-3.1,39.08,39.08,0,0,0-3.29-2.26c-.52-.34-1,.5-.49.84a33,33,0,0,1,3.26,2.24,26.94,26.94,0,0,1,2.88,3c.41.46,1.1-.22.69-.69Z"/><path class="cls-2" d="M360.88,127.56c1.47,0,2.95,0,4.43-.08.54,0,.55-.89,0-.86a43.71,43.71,0,0,1-4.43.08c-.56,0-.56.84,0,.86Z"/><path class="cls-2" d="M360,130.91a9.08,9.08,0,0,1,2.69,3.18c.27.48,1,0,.74-.44a10.25,10.25,0,0,0-3-3.48c-.45-.31-.88.43-.43.74Z"/><path class="cls-2" d="M359.93,124.59a15.48,15.48,0,0,0,2.7-3.43.43.43,0,0,0-.74-.43,18.77,18.77,0,0,1-1.08,1.7,14.53,14.53,0,0,1-1.48,1.56c-.4.38.2,1,.6.6Z"/><path class="cls-8" d="M173.46,116.59h0Z"/><path class="cls-8" d="M180.15,117a12.12,12.12,0,1,0,.06,17.14A12.12,12.12,0,0,0,180.15,117Zm-3.47,16.08a9.44,9.44,0,0,1-6.83,1.51,9.06,9.06,0,0,1-5.79-3.75,9.32,9.32,0,0,1-1.37-6.83,9.61,9.61,0,0,1,3.86-5.9,9.4,9.4,0,0,1,6.82-1.51h.09a9.12,9.12,0,0,1,5.71,3.75,9.33,9.33,0,0,1,1.37,6.82A9.7,9.7,0,0,1,176.68,133.06Z"/><path class="cls-8" d="M194.18,143.12a30.7,30.7,0,0,0,2.6-4c.54-1,.85-2.61-.15-3.42s-2-1.56-3.07-2.28a27.71,27.71,0,0,0,1.07-3.79,28.22,28.22,0,0,0,.43-3.78c1.25-.3,2.5-.66,3.73-1.06s1.57-2,1.45-3.13a27.59,27.59,0,0,0-.9-4.59c-.31-1.08-1.24-2.42-2.52-2.27s-2.56.35-3.83.6a25.39,25.39,0,0,0-1.89-3.38c-.34-.49-.69-1-1.06-1.44l-.06-.07c-.39-.49-.8-1-1.23-1.42.69-1.1,1.34-2.23,1.95-3.38s-.28-2.52-1.16-3.2a30.21,30.21,0,0,0-3.89-2.54c-1-.52-2.59-.8-3.41.22s-1.6,2.06-2.34,3.13a26.74,26.74,0,0,0-3.74-1,25.05,25.05,0,0,0-3.76-.36c-.28-1.26-.6-2.5-1-3.73s-2-1.54-3.08-1.4a27,27,0,0,0-4.6,1,3.86,3.86,0,0,0-1.57.9s0,0,0,0,0,0,0,0a2.14,2.14,0,0,0-.72,1.66c.12,1.29.29,2.57.52,3.84a25.77,25.77,0,0,0-3.41,2c-.49.35-1,.71-1.46,1.09l-.06.06c-.5.41-1,.82-1.44,1.27-1.08-.68-2.2-1.31-3.33-1.89s-2.51.33-3.21,1.23a31.86,31.86,0,0,0-2.61,4c-.54,1-.84,2.61.16,3.42s2,1.57,3.07,2.28a27.71,27.71,0,0,0-1.07,3.79,26.67,26.67,0,0,0-.43,3.78c-1.26.3-2.5.66-3.74,1.06s-1.57,2-1.45,3.13a26.63,26.63,0,0,0,.91,4.59c.3,1.08,1.23,2.42,2.52,2.27s2.56-.35,3.82-.6a24.38,24.38,0,0,0,1.9,3.38c.34.49.69,1,1.06,1.44l.05.07c.4.49.8,1,1.24,1.42-.7,1.1-1.35,2.23-1.95,3.38s.28,2.52,1.16,3.21a30.51,30.51,0,0,0,3.89,2.53c1,.52,2.58.8,3.4-.22s1.61-2.06,2.34-3.13a26.88,26.88,0,0,0,3.75,1,24.81,24.81,0,0,0,3.76.36c.27,1.26.6,2.5,1,3.73s2,1.54,3.09,1.4a26.88,26.88,0,0,0,4.59-1c1.08-.33,2.43-1.29,2.31-2.57s-.3-2.57-.52-3.83a26.88,26.88,0,0,0,3.4-2c.5-.35,1-.71,1.46-1.09l.07-.06c.49-.41,1-.82,1.43-1.27,1.09.68,2.2,1.31,3.34,1.89S193.48,144,194.18,143.12Zm-32.66-7.39a14.32,14.32,0,1,1,20.25-.06A14.33,14.33,0,0,1,161.52,135.73Z"/><path class="cls-7" d="M282.27,110.54c.08-1.74-.57-4.16-2.47-4.61s-3.81-.82-5.74-1.11a36.76,36.76,0,0,0-2.93-11.41q2.3-1.87,4.44-3.92c1.43-1.37.84-3.8-.07-5.27a42,42,0,0,0-4.28-5.72c-1.14-1.28-3.3-2.51-5-1.46s-3.3,2.17-4.87,3.35a40.5,40.5,0,0,0-4.84-3.4c-.8-.45-1.6-.88-2.42-1.28l-.12-.06c-.86-.41-1.74-.8-2.63-1.14.22-2,.37-4,.45-5.94s-2.05-3.28-3.72-3.65a46.21,46.21,0,0,0-7-.92c-1.71-.06-4.09.62-4.55,2.56s-.84,3.89-1.15,5.86a35.35,35.35,0,0,0-11.22,3.09q-1.81-2.33-3.81-4.49c-1.33-1.45-3.72-.82-5.17.11a42.14,42.14,0,0,0-5.65,4.42A6,6,0,0,0,208,77.84s0,0,0,0,0,0,0,0a3.28,3.28,0,0,0,.1,2.76q1.53,2.53,3.25,4.93a39.78,39.78,0,0,0-3.38,5c-.45.82-.88,1.64-1.29,2.47l-.06.13c-.4.88-.8,1.78-1.13,2.69-1.94-.21-3.89-.35-5.84-.4s-3.23,2.12-3.6,3.81a48.26,48.26,0,0,0-1,7.17c-.08,1.74.56,4.16,2.47,4.61s3.81.83,5.73,1.12a43.74,43.74,0,0,0,1,5.91,41.92,41.92,0,0,0,1.91,5.49q-2.3,1.88-4.44,3.92c-1.44,1.37-.84,3.81.07,5.27a40.68,40.68,0,0,0,4.28,5.73c1.13,1.28,3.3,2.5,5,1.45s3.29-2.17,4.87-3.35a38.64,38.64,0,0,0,4.84,3.4c.79.45,1.6.88,2.41,1.29l.12.06c.87.4,1.74.8,2.64,1.13q-.35,3-.45,6c-.07,2,2.05,3.28,3.71,3.64a46.17,46.17,0,0,0,7,.92c1.7.07,4.09-.61,4.54-2.56s.85-3.89,1.15-5.85a41.17,41.17,0,0,0,5.82-1.1,40.32,40.32,0,0,0,5.41-2c1.2,1.54,2.48,3,3.8,4.48s3.73.83,5.17-.11a41.6,41.6,0,0,0,5.66-4.42c1.27-1.16,2.49-3.38,1.47-5.07s-2.1-3.33-3.24-4.93a40.13,40.13,0,0,0,3.38-5c.45-.81.88-1.63,1.29-2.47l.05-.12c.41-.89.81-1.78,1.14-2.7q2.91.33,5.83.4c2,.06,3.24-2.11,3.61-3.81A49.61,49.61,0,0,0,282.27,110.54ZM249.17,90a21.62,21.62,0,0,1,9.69,12.88c0,.07,0,.14.05.21l-11,2a9.92,9.92,0,0,0-6.25-6l1.52-11.36A21.74,21.74,0,0,1,249.17,90Zm-16.81,17.66a6.35,6.35,0,1,1,5.45,7.14A6.34,6.34,0,0,1,232.36,107.62Zm1-19.7.18,0c.05,0,0,0,0,0a21.46,21.46,0,0,1,6.19-.64l-1.51,11.36a9.92,9.92,0,0,0-7.5,4l-10-4.81A21.84,21.84,0,0,1,233.32,87.92Zm-14.87,26.16a22.14,22.14,0,0,1,.74-13.07l9.95,4.77a8.76,8.76,0,0,0-.29,1.37,9.87,9.87,0,0,0,1.39,6.5l-7.85,8.24A21.81,21.81,0,0,1,218.45,114.08ZM228.14,127a21.19,21.19,0,0,1-3.33-2.48l7.8-8.2a9.87,9.87,0,0,0,10.11,1.19l5.34,9.87A22,22,0,0,1,244,129,21,21,0,0,1,228.14,127ZM256.71,119a22.08,22.08,0,0,1-5.67,6.42l-5.39-10a9.75,9.75,0,0,0,2.89-6.9l10.9-2A22.31,22.31,0,0,1,256.71,119Z"/><path class="cls-7" d="M233.51,87.87h0C233.43,87.89,233.48,87.88,233.51,87.87Z"/><path class="cls-9" d="M189.49,51.76c-.45-.36-1.22-.68-1.72-.26s-1,.85-1.44,1.3a13,13,0,0,0-1.78-.91,13.44,13.44,0,0,0-1.83-.59c0-.66-.08-1.31-.16-2s-.84-1-1.41-1a13.4,13.4,0,0,0-2.37,0c-.57,0-1.33.37-1.38,1s-.08,1.31-.08,2a11.68,11.68,0,0,0-1.87.61l-.83.38,0,0c-.28.15-.56.3-.83.48-.47-.46-1-.9-1.48-1.31a1.4,1.4,0,0,0-1.71.26,13.79,13.79,0,0,0-1.65,1.68,1.4,1.4,0,0,0-.23,1.71c.42.51.86,1,1.32,1.48a12.46,12.46,0,0,0-.86,1.76,13.3,13.3,0,0,0-.56,1.83c-.65,0-1.3,0-2,.12s-1,.82-1,1.39a13.63,13.63,0,0,0,0,2.39A2.09,2.09,0,0,0,166,65s0,0,0,0,0,0,0,0a1.06,1.06,0,0,0,.75.52c.65.07,1.31.11,2,.12a12.36,12.36,0,0,0,.64,1.89c.13.29.26.56.4.84l0,0c.15.28.31.57.49.84-.45.47-.87,1-1.27,1.47s-.09,1.28.29,1.72A18.19,18.19,0,0,0,171,74.09c.44.36,1.21.68,1.71.26s1-.85,1.45-1.3a13.45,13.45,0,0,0,1.77.91,13.14,13.14,0,0,0,1.84.59c0,.66.08,1.31.15,2s.84,1,1.41,1a13.51,13.51,0,0,0,2.38,0c.57,0,1.32-.37,1.38-1s.08-1.31.08-2A12.38,12.38,0,0,0,185,74l.82-.38,0,0c.28-.15.56-.3.83-.48.48.46,1,.9,1.49,1.31s1.28.11,1.71-.26a15.41,15.41,0,0,0,1.65-1.68c.35-.44.65-1.21.22-1.71s-.86-1-1.32-1.48a14.38,14.38,0,0,0,.87-1.76,13,13,0,0,0,.55-1.84c.65,0,1.31,0,1.95-.11s1-.82,1-1.39a14.68,14.68,0,0,0,0-2.39c-.05-.57-.4-1.33-1.05-1.4s-1.3-.11-1.95-.12a13.59,13.59,0,0,0-.65-1.89c-.12-.29-.25-.56-.39-.84l0,0c-.15-.28-.31-.57-.48-.84.44-.47.86-1,1.27-1.47s.08-1.28-.29-1.72A18.19,18.19,0,0,0,189.49,51.76Zm-12.08,4.68a7.2,7.2,0,0,1,5.36,0l.06,0-1.65,3.31a3.33,3.33,0,0,0-2.85.46l-2.71-2.67A7,7,0,0,1,177.41,56.44Zm1.33,8a2.11,2.11,0,1,1,3,0A2.12,2.12,0,0,1,178.74,64.43Zm-5-4.19,0-.06s0,0,0,0a6.8,6.8,0,0,1,1.07-1.78l2.71,2.68a3.26,3.26,0,0,0-.43,2.79l-3.28,1.7A7.22,7.22,0,0,1,173.71,60.24Zm4,9.17a7.38,7.38,0,0,1-3.33-2.81l3.26-1.69a2,2,0,0,0,.31.35,3.19,3.19,0,0,0,2,.93l.62,3.74A7.31,7.31,0,0,1,177.68,69.41Zm5.35,0a8,8,0,0,1-1.32.39l-.62-3.71a3.3,3.3,0,0,0,2.34-2.44l3.68.55A6.7,6.7,0,0,1,183,69.41Zm3.6-9.17A7.21,7.21,0,0,1,187.2,63l-3.73-.57a3.25,3.25,0,0,0-.94-1.88,3.88,3.88,0,0,0-.31-.26L183.87,57A7.38,7.38,0,0,1,186.63,60.24Z"/><path class="cls-9" d="M173.73,60.18h0S173.73,60.19,173.73,60.18Z"/><path class="cls-10" d="M349.68,229.27c-1.18-.05-2.42.29-2.48.89-.12,1.28,4.79,1,4.71-.08C351.87,229.56,350.6,229.31,349.68,229.27Z"/><path class="cls-2" d="M99.2,221.94c.54,0,1.38.12,1.26.65s-2.15.71-2.34.1S98.79,222,99.2,221.94Z"/><path class="cls-2" d="M374.75,225.09c-.74-.06-1.52.19-1.55.66-.06,1,3,.82,2.95,0C376.12,225.34,375.32,225.13,374.75,225.09Z"/><path class="cls-2" d="M308.8,223.17c-.56,0-1.13.23-1.13.58,0,.76,2.32.47,2.23-.15C309.85,223.29,309.24,223.17,308.8,223.17Z"/><rect class="cls-2" x="215.91" y="35.73" width="1.34" height="72.67" transform="translate(56.16 234.44) rotate(-63.75)"/><rect class="cls-2" x="197.31" y="60.08" width="1.34" height="71.72" transform="translate(-15.01 151.05) rotate(-40.36)"/><path class="cls-10" d="M180.22,71.93a9,9,0,1,1,9-9A9,9,0,0,1,180.22,71.93Zm0-15.78A6.78,6.78,0,1,0,187,62.92,6.78,6.78,0,0,0,180.22,56.15Z"/><path class="cls-10" d="M238.65,132.46a24,24,0,1,1,24-24A24,24,0,0,1,238.65,132.46Zm0-45.76a21.77,21.77,0,1,0,21.77,21.76A21.78,21.78,0,0,0,238.65,86.7Z"/><path class="cls-2" d="M177.13,210.13a.58.58,0,0,1-.18,0,.54.54,0,0,1-.33-.69c8.65-24,31.11-87,31.18-89.55,0-.09-.09-.2-.25-.32-2.38-1.74-14.82-1.17-17.77-.35-.68.54-3.68,6.12-16.68,45.38C165.88,186.33,159,208.08,159,208.3a.55.55,0,0,1-.68.35.54.54,0,0,1-.36-.68c.07-.22,7.06-22.39,14.35-44.38,14.85-44.77,16.48-45.24,17.17-45.44,2.81-.81,15.82-1.64,18.75.5a1.5,1.5,0,0,1,.69,1.18c.08,2.82-28,81-31.24,89.94A.54.54,0,0,1,177.13,210.13Z"/><path class="cls-2" d="M225.21,210a.54.54,0,0,1-.52-.39L202.6,136.32a.54.54,0,0,1,.36-.68.55.55,0,0,1,.68.37l22.09,73.32a.54.54,0,0,1-.36.68Z"/><path class="cls-9" d="M209.44,152.66H175.63a1.09,1.09,0,0,1,0-2.17h33.81a1.09,1.09,0,0,1,0,2.17Z"/><path class="cls-9" d="M193.91,164.8h0l-22.1-.06a1.09,1.09,0,0,1,0-2.17h0l22.1.06a1.09,1.09,0,0,1,0,2.17Z"/><path class="cls-9" d="M190.19,175.41h0l-22.1-.06a1.09,1.09,0,1,1,0-2.17h0l22.1.06a1.09,1.09,0,1,1,0,2.17Z"/><path class="cls-9" d="M186.48,186h0L164.38,186a1.07,1.07,0,0,1-1.08-1.08,1.08,1.08,0,0,1,1.08-1.09h0l22.1.06a1.09,1.09,0,0,1,1.08,1.09A1.08,1.08,0,0,1,186.48,186Z"/><path class="cls-9" d="M182.76,196.62h0l-22.1-.06a1.09,1.09,0,0,1,0-2.17h0l22.1.06a1.09,1.09,0,1,1,0,2.17Z"/><path class="cls-11" d="M173.5,68.38a6,6,0,0,1,1.25-2.58c.58-.59,1.38-1,1.07-1.39s-1.12.33-1.84.63-2.36-1.59-2.61-2-.9-.12-.61.49l.84,1.66s-.77-.82-.91-.79a2.25,2.25,0,0,0-.44,1.9c.3.7,2.37,2,2.37,2Z"/><path class="cls-11" d="M192.1,143.89a31.33,31.33,0,0,1,.73,3.46h1.41l-.18-3.46Z"/><path class="cls-11" d="M186.64,144.53c.14.5.65,2.44.65,2.44a1.22,1.22,0,0,0,1.37-.46l.21-2Z"/><g class="cls-5"><path class="cls-9" d="M184.78,106.08s-1.25,18.37-.59,25.34,2.05,14.06,2.47,14.19,2.82.24,2.68-.46.41-16.46.41-16.46l-3.64-22.61Z"/></g><path class="cls-9" d="M184.78,106.08s-1.25,18.37-.59,25.34,2.05,14.06,2.47,14.19,2.82.24,2.68-.46.41-16.46.41-16.46l-3.64-22.61Z"/><g class="cls-5"><path class="cls-12" d="M184.78,106.08s-1.25,18.37-.59,25.34,2.05,14.06,2.47,14.19,2.82.24,2.68-.46.41-16.46.41-16.46l-3.64-22.61Z"/></g><path class="cls-9" d="M192.72,105.65c.12.31,1.58,1.88,1.46,10s.34,28.73.32,29.1-1.84.66-2.57,0-8.48-31.35-7-39,5.15-2.13,5.15-2.13Z"/><path class="cls-13" d="M192.48,82.42a22,22,0,0,1,2,10.44c-.24,5.82-1.13,11.64-1,13.1s-8.45,2.27-8.81,1.66-5.51-20.12,4-25.2Z"/><path class="cls-11" d="M193.5,77.69c-.29.26-.51,2.63-.66,4.94-.17,2.6-4.6.32-3.94-.21,0,0,1.2-2.14.93-3.5S193.5,77.69,193.5,77.69Z"/><g class="cls-5"><path class="cls-11" d="M190,78.37l-.18.41a.68.68,0,0,0,0,.14,4.07,4.07,0,0,1-.22,1.86,8.6,8.6,0,0,0,3.51-1.47,4.16,4.16,0,0,1,.38-1.62S190.73,77.59,190,78.37Z"/></g><path class="cls-11" d="M189.57,69.06a23.64,23.64,0,0,0-4.18,6.23l1.13.27s-1,9,6.5,2.39-1.36-8.25-1.36-8.25Z"/><path class="cls-2" d="M192.34,68.45c-.66-.17-2.05-3.56-3.78-2.53s-3.52,4.92,1.47,6,1.95,6.93,2.28,6.66c0,0,1.77,1,3.76-3S196.44,69.51,192.34,68.45Z"/><path class="cls-11" d="M192,75c.87-.26,1.68-.7,2,.5s-1.72,2.08-2.09,1.4A2.88,2.88,0,0,1,192,75Z"/><path class="cls-13" d="M188.72,82.42c-2.82-.14-11.9-5.11-14.85-14.57a4.39,4.39,0,0,0-1.74.62s-2.2,16.84,12.59,21.33l3.51-2.45Z"/><path class="cls-14" d="M188.66,146.51a6.82,6.82,0,0,1,.59,3.33h-2l.06-.52s-.5.85-2.43.82-3-.23-2.52-.89,2.77-.83,3.4-1.31a17.56,17.56,0,0,0,1.46-1.32C187.22,147,187.54,147.05,188.66,146.51Z"/><path class="cls-15" d="M194.19,146.51a6.89,6.89,0,0,1,.6,3.33h-2l.06-.52s-.5.85-2.43.82-3-.23-2.52-.89,2.77-.83,3.39-1.31a16.67,16.67,0,0,0,1.47-1.32C192.76,147,193.07,147.05,194.19,146.51Z"/><g class="cls-5"><ellipse class="cls-6" cx="297.36" cy="224.66" rx="27.97" ry="4.6"/></g><g class="cls-5"><path class="cls-6" d="M250.69,229.32c0-1.83-19.18-3.31-42.83-3.31S165,227.49,165,229.32s19.17,3.31,42.82,3.31S250.69,231.15,250.69,229.32Z"/></g><g class="cls-5"><path class="cls-6" d="M153.81,229.32c0-2.2-9.59-7.43-21.41-7.43S111,227.12,111,229.32s9.59,4,21.42,4S153.81,231.52,153.81,229.32Z"/></g><g class="cls-5"><path class="cls-6" d="M361.34,220.51c0-2.09-10.27-3.78-22.94-3.78s-22.94,1.69-22.94,3.78,10.27,3.77,22.94,3.77S361.34,222.59,361.34,220.51Z"/></g><path class="cls-16" d="M303.16,205.37c0-.06,0-.14.07-.22.93-3,3.93-17.85,13.14-14.87,9.47,3.06-.61,18.3-.61,18.3s7.39-5,9.83.52-5,10.15-5,10.15,6.12-1.17,5.47,2-14.29,1.38-14.29,1.38-3.32-7.38-3.31-7.69-7.53-4.81-7.49-4.92,2.2-4.82,2.2-4.82Z"/><path class="cls-2" d="M307.35,212.53h0a.35.35,0,0,1-.33-.36c0-.08,1.52-9.83,5.69-16.12a.35.35,0,1,1,.59.39c-4.08,6.16-5.57,15.68-5.57,15.76A.36.36,0,0,1,307.35,212.53Z"/><path class="cls-2" d="M309.33,204.54a.37.37,0,0,1-.24-.1.36.36,0,0,1,0-.5c1.64-1.69,6.72-3.68,6.94-3.76a.35.35,0,1,1,.26.66c-.06,0-5.16,2-6.69,3.59A.34.34,0,0,1,309.33,204.54Z"/><path class="cls-7" d="M297.85,224.6c.59-.12,14.6,2.07,16.31-3.25s-5.68-13.09-9-10.89c0,0,2.52-9.76-8.18-11.41s-5.16,5.4-5.16,5.4-5.37-5.95-9.24,1.73,6.27,12.13,6.27,12.13-7.19,1.49-3.46,4.83S297.85,224.6,297.85,224.6Z"/><path class="cls-2" d="M298.2,224.6a44,44,0,0,0-3.57-19,.35.35,0,0,0-.63.31,43.17,43.17,0,0,1,3.5,18.63v.08l.35-.06Z"/><path class="cls-2" d="M297.7,219.39a.26.26,0,0,1-.17,0,.35.35,0,0,1-.12-.48c2.79-4.59,8.25-5.43,8.48-5.47a.37.37,0,0,1,.4.3.36.36,0,0,1-.3.4c-.05,0-5.36.84-8,5.13A.34.34,0,0,1,297.7,219.39Z"/><path class="cls-2" d="M297.26,216.07a.38.38,0,0,1-.3-.17c-2.45-4.1-10.21-4.4-10.29-4.41a.35.35,0,1,1,0-.7c.33,0,8.22.32,10.87,4.74a.36.36,0,0,1-.12.49A.34.34,0,0,1,297.26,216.07Z"/><path class="cls-7" d="M76.11,225.85c-1.18,0-2.4.45-2.41,1.05,0,1.29,4.84.65,4.69-.39C78.31,226,77,225.82,76.11,225.85Z"/><path class="cls-2" d="M257.68,226c-.79-.09-1.62.14-1.67.64-.11,1.06,3.17,1,3.14.12C259.13,226.35,258.29,226.09,257.68,226Z"/><path class="cls-3" d="M342.43,123.87Z"/><path class="cls-3" d="M328.05,133c.66,0,1.32,0,2-.08.1.32.23.62.35.93l0,0c.13.29.27.57.41.85a14.67,14.67,0,0,0,1.09,1.72c-.4.53-.78,1.07-1.15,1.63a1.49,1.49,0,0,0,.45,1.73,13.94,13.94,0,0,0,1.87,1.56c.48.33,1.28.57,1.75.09s.91-1,1.33-1.48a13.43,13.43,0,0,0,1.81.73,15,15,0,0,0,2,.44c.08.66.19,1.33.33,2s.93.92,1.51.91a14.78,14.78,0,0,0,2.39-.24c.57-.1,1.3-.51,1.29-1.19s0-1.35-.09-2c.31-.1.61-.23.91-.35l0,0,.83-.41a13.49,13.49,0,0,0,1.68-1.1c.52.41,1.06.81,1.61,1.18s1.3,0,1.69-.44a13.6,13.6,0,0,0,1.51-1.89,1.47,1.47,0,0,0,.08-1.78c-.47-.48-1-.94-1.46-1.38a12.49,12.49,0,0,0,1.11-3.83c.66-.08,1.31-.19,2-.32s.89-.94.88-1.53a18.18,18.18,0,0,0-.25-2.44c-.11-.58-.52-1.33-1.18-1.33s-1.33,0-2,.08c-.11-.32-.23-.62-.36-.93l0,0c-.13-.29-.26-.57-.41-.85a13.47,13.47,0,0,0-1.09-1.72c.4-.52.79-1.07,1.15-1.63a1.08,1.08,0,0,0,.06-.93s0,0,0,0h0a2,2,0,0,0-.51-.79,14.5,14.5,0,0,0-1.86-1.56c-.48-.33-1.29-.57-1.75-.09s-.91,1-1.34,1.48a13.43,13.43,0,0,0-1.81-.73,12.91,12.91,0,0,0-2-.43c-.08-.67-.19-1.34-.33-2s-.93-.92-1.51-.91a14.78,14.78,0,0,0-2.39.24c-.56.1-1.29.52-1.29,1.19s0,1.35.09,2a8.88,8.88,0,0,0-.9.36h-.05l-.83.41a13.08,13.08,0,0,0-1.67,1.11c-.52-.42-1.06-.82-1.61-1.19s-1.3,0-1.7.44a14.38,14.38,0,0,0-1.51,1.89,1.5,1.5,0,0,0-.08,1.79c.47.47,1,.93,1.46,1.37a17,17,0,0,0-.7,1.84,14.94,14.94,0,0,0-.41,2c-.65.08-1.31.19-1.95.32s-.89,1-.89,1.53a16.69,16.69,0,0,0,.26,2.44C327,132.22,327.39,133,328.05,133Zm9.8-2.9a3.72,3.72,0,1,1,4.67,2.44A3.74,3.74,0,0,1,337.85,130.07Z"/><path class="cls-2" d="M344.05,145.54a11.91,11.91,0,0,0,0-4.61c-.52-2,.71-3.44,3.23-3.24s4.63,2.9,8.06,3.3,3,5.94,2.28,7.15,7.78,5.07,4,10.41c-1.73,2.43,8.39,4.73,2.4,8.5-6.9,4.33-13.65-4.86-13.65-4.86l-1.63-6.37-6,1.29s2.91-3.15,2.21-6S343.84,147.39,344.05,145.54Z"/><path class="cls-11" d="M355,134.43a6.67,6.67,0,0,1,1.29,2.48l1.18-1.27a10.29,10.29,0,0,0-1.79-2.22l-.66.65Z"/><path class="cls-11" d="M339.87,218.84a8.14,8.14,0,0,0,3.11-.66l-.05,0c.64-1.17-1-18.44-1-18.94s-1.72-8.93-1.72-15.65a24.32,24.32,0,0,1,2.8-11.44h1.44l4.25,15.56s-.15,2.31-1.33,9.52-3.09,20.75-3.19,21a9,9,0,0,1-.62,2.46c-.18.18-8.46,0-8.46,0S334.71,219.15,339.87,218.84Z"/><g class="cls-5"><path class="cls-11" d="M339.87,218.84a8.14,8.14,0,0,0,3.11-.66l-.05,0c.64-1.17-1-18.44-1-18.94s-1.72-8.93-1.72-15.65a24.32,24.32,0,0,1,2.8-11.44h1.44l4.25,15.56s-.15,2.31-1.33,9.52-3.09,20.75-3.19,21a9,9,0,0,1-.62,2.46c-.18.18-8.46,0-8.46,0S334.71,219.15,339.87,218.84Z"/></g><path class="cls-11" d="M349.55,151c0,.13-.41,4.61-.15,5.1l-3.41-.52s1.11-4.15,1.14-4.87S349.55,151,349.55,151Z"/><path class="cls-11" d="M345.77,218.84a9.43,9.43,0,0,0,2.64-.46h0s1.64-3.89-.07-11.84-4.27-26.16-4.27-26.16-.54-3-.54-3.29a46.08,46.08,0,0,1,3.14-4l3.58-1.41c1.13,1.9,4,5,3.53,13.83A76.21,76.21,0,0,1,352,199s2.17,6-2.1,20.08h0a6.67,6.67,0,0,1-.49,1.6c-.18.18-8.46,0-8.46,0S340.62,219.15,345.77,218.84Z"/><g class="cls-5"><path class="cls-11" d="M349.55,151s0,.52-.09,1.16c-1.09.79-1.85.74-2.61,0a11.08,11.08,0,0,0,.28-1.45.35.35,0,0,1,0-.11c.29-.05.58-.08.82-.11A9.81,9.81,0,0,1,349.55,151Z"/></g><path class="cls-17" d="M350.36,171.41c.34,1.13,3.68,4.07,3.82,10.65a84.82,84.82,0,0,1-.36,10.85s-8.54,1.76-13.64-.49c0,0-3.47-12.27,2.42-19.64Z"/><path class="cls-18" d="M350.36,171.41c.34,1.13,3.68,4.07,3.82,10.65a84.82,84.82,0,0,1-.36,10.85s-8.54,1.76-13.64-.49c0,0-3.47-12.27,2.42-19.64Z"/><path class="cls-2" d="M350.36,171.41c.34,1.13,3.68,4.07,3.82,10.65a84.82,84.82,0,0,1-.36,10.85s-8.54,1.76-13.64-.49c0,0-3.47-12.27,2.42-19.64Z"/><path class="cls-19" d="M357.53,135.31c1.73,3.16,3.93,9.87,1.51,15.88-2.61,6.48-5.12,7.46-6.66,10.21s-1.89,9.07-1,11.62c0,0-5.1,1.79-9.13,0,0,0,1.39-9,.77-9.29A3.7,3.7,0,0,1,341,160a12.28,12.28,0,0,1,1.1-1.94c-2.26-2.47-7.39-6.81-5.49-16a14.21,14.21,0,0,1,1.61-.66s-.18,11.86,8.1,13.82S358,144.63,356,136.32Z"/><path class="cls-20" d="M338.31,219a9.05,9.05,0,0,0,4.73.34l.74.38.08.06a3.48,3.48,0,0,1-.33.94c-.18.18-8.46,0-8.46,0S334.79,219.49,338.31,219Z"/><path class="cls-8" d="M344.32,219c.81.5,4.19.47,5.59.22a6.25,6.25,0,0,1-.47,1.51c-.18.18-8.46,0-8.46,0S340.7,219.46,344.32,219Z"/><path class="cls-11" d="M346.12,155.1s-2.78,2.42-2.22,3.26,4.06,1.68,5.5.88-.11-3.94-.11-3.94l-1.68-.65-1.43.21Z"/><g class="cls-5"><path class="cls-13" d="M344.38,162.88l.85.29c.26.07.54.15.84.2l.46.07a3.53,3.53,0,0,0,.46,0h.23l.23,0a3.48,3.48,0,0,0,.44-.1,3.39,3.39,0,0,0,.41-.15c.13,0,.25-.11.37-.16s.23-.11.31-.17l.25-.14.23-.12a2.18,2.18,0,0,1-.11.23,2.7,2.7,0,0,1-.15.27,1.53,1.53,0,0,1-.24.31,2.15,2.15,0,0,1-.34.33,2.49,2.49,0,0,1-.45.29,3,3,0,0,1-.55.21l-.3.06-.3,0a2.47,2.47,0,0,1-.61,0,3.17,3.17,0,0,1-.55-.15,3.68,3.68,0,0,1-.86-.5A2.34,2.34,0,0,1,344.38,162.88Z"/></g><path class="cls-11" d="M339.64,139c-.38.23-.61.95-.71.86-.83-.09-3.64.33-2.34,2.17.36.51,1.61.34,1.89,0,.48-.56.35-.73.66-1.08.53-.61,1.43-1.57,1.41-1.91S339.94,138.77,339.64,139Z"/><path class="cls-11" d="M352.09,133.57c.49-.13,1.53.43,1.54.29l-.92-.6a10.53,10.53,0,0,0,.53-2c.3-.16,2.6,1.34,2.54,2.13,0,.63-.81,1.44-1.24,1.43-.74,0-.79-.22-1.26-.22a2.32,2.32,0,0,1-1.56-.36C351.48,134,351.73,133.67,352.09,133.57Z"/><path class="cls-11" d="M353.25,145.66c.06-.38.81-6.29-5.25-5.14-3.79.71-3.42,10.65-.84,11.44C348.79,152.47,352.3,152.54,353.25,145.66Z"/><path class="cls-11" d="M352.75,146.41s.73-.78,1.32,0-1,2.88-1.73,2.33S352.75,146.41,352.75,146.41Z"/><path class="cls-2" d="M345.34,140.49s.88,6.11,7.74,5.6c5-.37,2.38-3.34,2.38-3.34l-3.56-2.38c-.18-.12-3.82-.69-3.82-.69Z"/><path class="cls-13" d="M291.15,142.53Z"/><path class="cls-13" d="M322.9,135c-.35-1-1.29-2.21-2.47-2s-2.35.39-3.51.66a23.69,23.69,0,0,0-2-3.09c-.35-.45-.7-.89-1.07-1.32l-.06-.06c-.39-.44-.8-.87-1.23-1.28.58-1,1.11-2.11,1.6-3.2s-.42-2.33-1.28-2.94a29.26,29.26,0,0,0-3.76-2.26c-.94-.46-2.44-.67-3.14.3s-1.35,2-2,3a25.1,25.1,0,0,0-3.53-.82,24,24,0,0,0-3.5-.23c-.33-1.16-.71-2.31-1.13-3.44s-1.92-1.38-2.95-1.22a24.27,24.27,0,0,0-4.19,1.06c-1,.33-2.16,1.26-2,2.45s.43,2.38.72,3.55a24.56,24.56,0,0,0-3,1.92c-.43.35-.86.7-1.28,1.06l-.06.06c-.43.39-.85.79-1.25,1.21-1-.59-2.11-1.15-3.2-1.66s-2.3.37-2.9,1.22a29.14,29.14,0,0,0-2.16,3.75c-.44.95-.62,2.46.36,3.18s2,1.4,3,2a23.57,23.57,0,0,0-.75,3.55,24.41,24.41,0,0,0-.17,3.53q-1.71.47-3.39,1.08c-1.11.4-1.33,1.91-1.15,2.94a25.84,25.84,0,0,0,1.13,4.25,3.54,3.54,0,0,0,.91,1.43h0a2,2,0,0,0,1.55.6c1.18-.18,2.35-.39,3.51-.66a25.56,25.56,0,0,0,2,3.09c.35.45.7.88,1.07,1.31l.06.07c.4.44.8.87,1.23,1.28-.57,1-1.11,2.11-1.59,3.2s.41,2.33,1.27,2.94a29.26,29.26,0,0,0,3.76,2.26c.94.45,2.44.67,3.14-.3s1.35-2,2-3a21.6,21.6,0,0,0,7,1.06c.33,1.16.71,2.31,1.13,3.44s1.92,1.38,2.95,1.22a25.22,25.22,0,0,0,4.19-1.06c1-.34,2.17-1.26,2-2.46s-.43-2.37-.72-3.54a23.5,23.5,0,0,0,3-1.93c.44-.34.86-.69,1.28-1l.06-.06c.43-.39.86-.79,1.25-1.22,1.05.6,2.11,1.16,3.2,1.67s2.31-.38,2.9-1.23a27.84,27.84,0,0,0,2.16-3.75c.44-.94.62-2.45-.35-3.17s-2-1.4-3-2a24.1,24.1,0,0,0,.75-3.55,24.41,24.41,0,0,0,.17-3.53q1.71-.47,3.39-1.08c1.12-.41,1.33-1.91,1.15-3A26,26,0,0,0,322.9,135ZM284.84,150.3a3.28,3.28,0,1,1,2.35-4A3.28,3.28,0,0,1,284.84,150.3Zm8.54-23.66a3.28,3.28,0,1,1-2.35,4A3.27,3.27,0,0,1,293.38,126.64Zm8.76,33.84a3.28,3.28,0,1,1,2.35-4A3.29,3.29,0,0,1,302.14,160.48Zm2.25-15.93a6.55,6.55,0,0,1-7.47,5.68,7,7,0,0,1-4.44-2.64,7.11,7.11,0,0,1-1.34-5v-.06h0a6.8,6.8,0,0,1,2.53-4.37,6.71,6.71,0,0,1,4.93-1.25,6.86,6.86,0,0,1,5.78,7.64Zm7.94-1.36a3.28,3.28,0,1,1,2.36-4A3.27,3.27,0,0,1,312.33,143.19Z"/><g class="cls-5"><ellipse class="cls-6" cx="61.48" cy="216.9" rx="26.94" ry="5.61"/></g><path class="cls-13" d="M75.61,216.8c-.81-.16-20.08,2.86-22.42-4.46s7.81-18,12.39-15c0,0-3.47-13.43,11.24-15.69s7.09,7.42,7.09,7.42,7.39-8.18,12.71,2.38S88,208.17,88,208.17s9.89,2,4.75,6.63S75.61,216.8,75.61,216.8Z"/><path class="cls-2" d="M91,197.82c-.42,0-9.26.36-13.67,4.88a56,56,0,0,1,3.63-11.54.49.49,0,0,0-.88-.42A58.79,58.79,0,0,0,76,204.42a.63.63,0,0,0,0,.19c-.18,1-.34,2.09-.47,3.19-4-5.33-10.6-6.36-10.9-6.4a.49.49,0,0,0-.55.41.48.48,0,0,0,.41.55c.07,0,7.27,1.13,10.89,6.93a53.15,53.15,0,0,0-.18,7.52,4.37,4.37,0,0,1,.48,0l.48.1s0-.08,0-.12a54.71,54.71,0,0,1,.79-12c3.43-5.54,14-6,14.09-6a.49.49,0,0,0,0-1Z"/><path class="cls-11" d="M125.29,165.55c.28.31-.1,1.66,2.26,1.56s.32-1,.32-1l-.92-.56Z"/><path class="cls-3" d="M133.2,145h0Z"/><path class="cls-3" d="M150.05,156.21a18.93,18.93,0,0,0,.74-2.75c.12-.68,0-1.66-.73-1.93s-1.45-.51-2.19-.72a17,17,0,0,0-.1-2.37,16.8,16.8,0,0,0-.47-2.24c.66-.41,1.31-.85,1.93-1.31a1.74,1.74,0,0,0,.24-2.07,15.16,15.16,0,0,0-1.39-2.45c-.37-.56-1.16-1.15-1.86-.82s-1.4.68-2.08,1.07a15.12,15.12,0,0,0-1.72-1.58c-.29-.22-.58-.42-.88-.62l0,0c-.32-.2-.64-.4-1-.58.19-.76.35-1.53.48-2.3s-.64-1.39-1.27-1.61a17.91,17.91,0,0,0-2.7-.72c-.66-.11-1.63,0-1.91.77s-.52,1.48-.74,2.24a15.1,15.1,0,0,0-2.33.13,17,17,0,0,0-2.22.51q-.59-1-1.26-2c-.45-.63-1.42-.51-2-.21a16.53,16.53,0,0,0-2.43,1.44,2.3,2.3,0,0,0-.73.82s0,0,0,0h0a1.27,1.27,0,0,0-.1,1.09c.31.71.65,1.41,1,2.09a16.63,16.63,0,0,0-1.58,1.77l-.62.9,0,.05c-.2.32-.4.65-.58,1-.75-.19-1.5-.34-2.26-.46s-1.38.67-1.61,1.31a20.44,20.44,0,0,0-.74,2.76c-.11.68,0,1.66.74,1.93s1.45.51,2.19.72a15.61,15.61,0,0,0,.1,2.37,16.8,16.8,0,0,0,.47,2.24c-.66.41-1.31.85-1.93,1.31a1.73,1.73,0,0,0-.24,2.07,16.89,16.89,0,0,0,1.38,2.45c.38.56,1.17,1.15,1.87.82s1.4-.68,2.07-1.07a15.22,15.22,0,0,0,1.73,1.58c.28.21.58.42.87.62l.05,0c.32.2.64.4,1,.58-.18.76-.34,1.53-.47,2.3s.64,1.39,1.27,1.61a17.91,17.91,0,0,0,2.7.72c.66.11,1.63,0,1.91-.78s.52-1.47.74-2.23a15.18,15.18,0,0,0,2.33-.14,15.47,15.47,0,0,0,2.22-.5c.39.66.81,1.31,1.26,1.94s1.41.51,2,.22a16.53,16.53,0,0,0,2.43-1.44c.56-.39,1.15-1.2.83-1.91s-.65-1.41-1-2.09A16.42,16.42,0,0,0,145,159q.33-.45.63-.9l0-.05c.2-.33.4-.66.58-1,.75.18,1.5.33,2.26.45S149.82,156.86,150.05,156.21ZM130,158.16a8.62,8.62,0,1,1,11.56-3.86A8.62,8.62,0,0,1,130,158.16Z"/><path class="cls-11" d="M119.09,162.6c2.12.77,4.5,1.63,7.12,2.35v.89a17.79,17.79,0,0,1-8.8-2Z"/><path class="cls-11" d="M112.84,185.57s-2.09,1.3-2.82,6.34-.08,12.32-1.82,15.6v1l2.32.76,1.93.5h2.23a.68.68,0,0,0-.11-1c-.57-.4-4.28-2.14-4.31-3.06s7.32-18.8,7.37-19.88L115,184.76Z"/><path class="cls-21" d="M112.45,209.77h2.23a.68.68,0,0,0-.11-1c-.14-.1-.46-.27-.88-.5h0c-.49,1.33-4.08-.79-5.17-1.48a5.83,5.83,0,0,1-.32.71v1l2.32.76Z"/><path class="cls-11" d="M103.38,184.81s-1.7,1.95-1.55,6.5,4,12.71,3.83,14.77-.62,2.89-.36,3.69c0,0,6.93.07,7.15,0s.76-.65,0-1-5.1-1-5.6-3.21-.4-22.61-.4-22.61Z"/><path class="cls-8" d="M112.45,208.79a8.08,8.08,0,0,0-.91-.27h0c-1.48.41-4.87-1.11-6-1.76-.21,1.58-.5,2.31-.27,3,0,0,6.93.07,7.15,0S113.21,209.12,112.45,208.79Z"/><path class="cls-11" d="M106,147.18s-1.09,1.67-1.52,2.29-1.37,2-1.37,2a35.82,35.82,0,0,0,2,3.58,25.69,25.69,0,0,0,4.37,1,16.05,16.05,0,0,0,2.09-1.48l-1.47-4.22s-1.7,0-1.88-.76a12.61,12.61,0,0,1-.15-2.38Z"/><path class="cls-22" d="M111.83,150.53s6.42,11.31,7.26,12c.32.27-1.58,1.36-1.73,1.34-1-.18-4.62-3.1-5.21-5.17l-.32-6.21Z"/><g class="cls-5"><path class="cls-11" d="M108.14,149.34a15.54,15.54,0,0,1-.1-2.16H106l-.38.57A4.28,4.28,0,0,0,108.14,149.34Z"/></g><path class="cls-11" d="M110.74,139s3.42,3,2.23,7.19l-1.24-.12s-.77,6-6.1.75-.64-6.34-.64-6.34a11.59,11.59,0,0,1,1.59-1.41C106.93,138.91,110.74,139,110.74,139Z"/><path class="cls-2" d="M112.56,136c1.62-.3,4.77,3.45-.49,5.87s-5.95.09-5.95.09,2,7.46-2.12,9c-1.8.69-2.61,3.71-4.39,4.74-2.19,1.28-8.27-.66-6.62-5.91s6.48-3.82,8-6.08c2.24-3.37.45-5.43,2-7C105.17,134.64,107.1,137,112.56,136Z"/><path class="cls-11" d="M107.48,143.32s-.14-1.83-1.21-1.28-.46,2.94.8,2.76S107.48,143.32,107.48,143.32Z"/><path class="cls-11" d="M125.88,165.27a.86.86,0,0,1,1.19-.36c.9.32,1.7-.07,1.51.39s-.78.61-1.75.45A1.44,1.44,0,0,1,125.88,165.27Z"/><path class="cls-2" d="M101.68,166.35S99,168,99.37,172.84s3.69,12.57,3.69,12.57,4,3.3,14.57.43c0,0-3.2-13.26-6.56-16.6s-5.74-2.47-5.74-2.47Z"/><path class="cls-13" d="M100.35,153a37.27,37.27,0,0,1,3.65-2s4.73,4.22,5.16,4.17c1.26-.14,1.06-4.89.9-4.9-.43,0,1.77.27,1.77.27a69.74,69.74,0,0,0,2.89,6.4s.33,2.27-2.81,3c0,0-1.52,5.89-.84,9.35,0,0-4.22,1.59-9.39-2.89,0,0,5.28-4.87.4-9.68Z"/><path class="cls-22" d="M110.37,159.42h-.22l-.25,0-.3,0-.35,0h-1l-.2,0c-.14,0-.27,0-.41,0l-.39-.05-.37-.08a1.87,1.87,0,0,1-.34-.08,2.27,2.27,0,0,1-.3-.06l-.23-.07-.22,0a1.48,1.48,0,0,0,.13.18,1.27,1.27,0,0,0,.16.2,1.74,1.74,0,0,0,.24.22,1.61,1.61,0,0,0,.33.23,2.38,2.38,0,0,0,.39.2l.23.08.23.07a3.85,3.85,0,0,0,.49.07h.25l.24,0a2.31,2.31,0,0,0,.47-.07l.42-.14a3,3,0,0,0,.36-.17,2.26,2.26,0,0,0,.47-.36A1.52,1.52,0,0,0,110.37,159.42Z"/><path class="cls-11" d="M102.52,162.8l1,.63.35.22c1.6,2.69,7.39,5.45,7.39,5.45s2.52.06,3.1,0,.67.47.34.53-1.19,0-1.3.09,1.74.32,2.61,1.37c.25.3.06.64-.14.47a3.06,3.06,0,0,0-1.36-.76,6.88,6.88,0,0,1,1.66,1.11c.08.15.19.55-.25.4A15.43,15.43,0,0,1,114,171.2s1.89,1.26,1.77,1.45c-.27.42-1.7-.6-2.27-1.09,0,0,1.17,1.55.57,1.56-.41,0-1.53-1.77-1.95-2.11s-1.05-1-1.05-1h0c-6.1-.9-9.08-4.26-9.61-5.22C101.32,164.5,102.52,162.8,102.52,162.8Z"/><path class="cls-13" d="M101.35,164.8s1,.19,2.61-1.07c0,0-1.89-5.56-.43-6.51,0,0-1.15-3.24-3.18-4.27A13.74,13.74,0,0,0,101.35,164.8Z"/><path class="cls-2" d="M162,55.28a24.88,24.88,0,0,1,3.06-5.41,14,14,0,0,1,4.83-3.75c4-2,8.43-2.44,12.87-2.61a.48.48,0,0,0,.34-.82c-1-1-2-2.36-3.41-2.68-.44-.1-.87.47-.47.81l3.26,2.79.21-.81a9.44,9.44,0,0,0-3.35,1.82c-.48.4.21,1.08.68.68a8.57,8.57,0,0,1,2.93-1.57.48.48,0,0,0,.21-.8l-3.26-2.79-.47.8c1.24.28,2.15,1.56,3,2.43l.34-.83c-4.62.18-9.16.67-13.36,2.74A15,15,0,0,0,164.48,49a25.35,25.35,0,0,0-3.33,5.75c-.26.56.58,1.06.84.49Z"/><path class="cls-2" d="M137,174c3.32.4,6.29.18,9.11-1.76a23.28,23.28,0,0,0,6-6.62l-.88-.12a4.9,4.9,0,0,1,.35,2.55h.93c-.16-1-.31-1.95-.47-2.93-.06-.39-.56-.42-.81-.21a5.57,5.57,0,0,1-1.91,1.11c-.58.21-.33,1.14.26.94a6.9,6.9,0,0,0,2.34-1.37l-.81-.21.47,2.93c.08.5.8.42.93,0a5.65,5.65,0,0,0-.35-3.06.48.48,0,0,0-.88-.12,22.18,22.18,0,0,1-5.66,6.27c-2.67,1.85-5.48,2-8.62,1.63-.62-.07-.61.9,0,1Z"/><path class="cls-7" d="M190.3,222.6c3.3-1.06,46.74,1.9,46.74,1.9h0a5.38,5.38,0,0,0,1.4,2.12c2.88,2.65,6.49,3.83,12,1.28,0,0-6.09-2.35-6.66-2.82s-1.34-4-.94-4.38,2.25-2.41,3.34-2.51,6.19,2.46,6.46,2c.17-.28-2.33-4.68-6.79-6.16a7.11,7.11,0,0,0-8.5,3.82l-47.12-2.72s-3.06-3.23-5.71-4.36-9.9.94-10.43,1.62,8,1.86,8.42,3.3-1.78,7.47-2.83,7.79-8.27-3.94-8.25-3.4,3.28,7,8.6,7.7S187,223.65,190.3,222.6Z"/><g class="cls-5"><path class="cls-7" d="M199.46,219h0a1.31,1.31,0,0,1,1.38-1.22L227,219.3a1.28,1.28,0,0,1,1.22,1.37h0a1.29,1.29,0,0,1-1.37,1.22l-26.15-1.51A1.3,1.3,0,0,1,199.46,219Z"/></g><path class="cls-7" d="M126.84,217.46c0-.63,0-4.17.11-4.48s10.73,3.14,10.73,3.14l14.25,11.18,1.88,1.79-9.54-3.1s-10.76-4.27-11.19-4.4S126.84,217.46,126.84,217.46Z"/><g class="cls-5"><path class="cls-7" d="M126.84,217.46c0-.63,0-4.17.11-4.48s10.73,3.14,10.73,3.14l14.25,11.18,1.88,1.79-9.54-3.1s-10.76-4.27-11.19-4.4S126.84,217.46,126.84,217.46Z"/></g><path class="cls-7" d="M115.42,221.34s8.9-6.3,9.59-6.24,28.19,13.75,28.8,14S115.42,221.34,115.42,221.34Z"/><path class="cls-7" d="M127,213c-.23-.22,4.39-8.29,5.07-8.17s23.18,24.95,21.79,24.28S127.3,213.33,127,213Z"/><path class="cls-3" d="M249.62,176.84c.08-.9,1-5.9,1-6.36s-16,1.77-16,1.77l-22.93,12.27-3.1,2.07,14.26-2s16.28-3.36,16.93-3.44S249.62,176.84,249.62,176.84Z"/><path class="cls-23" d="M249.62,176.84c.08-.9,1-5.9,1-6.36s-16,1.77-16,1.77l-22.93,12.27-3.1,2.07,14.26-2s16.28-3.36,16.93-3.44S249.62,176.84,249.62,176.84Z"/><path class="cls-13" d="M264.81,185.16s-11-11.11-12-11.2-43.27,12.44-44.2,12.63S264.81,185.16,264.81,185.16Z"/><path class="cls-13" d="M250.58,170.48c.37-.25-4.15-12.82-5.15-12.82s-39,29.53-36.84,28.93S250,170.88,250.58,170.48Z"/></g></g></svg>