<?xml version="1.0" encoding="UTF-8"?>
<svg width="88px" height="87px" viewBox="0 0 88 87" version="1.1" xmlns="http://www.w3.org/2000/svg" xmlns:xlink="http://www.w3.org/1999/xlink">
    <!-- Generator: Sketch 58 (84663) - https://sketch.com -->
    <title>Shape</title>
    <desc>Created with Sketch.</desc>
    <g id="Page-1" stroke="none" stroke-width="1" fill="none" fill-rule="evenodd">
        <path d="M0.827,82.363 L0.827,12.006 C0.827,7.947 2.918,6.225 6.362,6.225 L42.278,6.225 C46.707,6.225 48.182,7.947 48.182,12.006 L48.182,82.363 C48.182,85.192 46.706,86.299 44.245,86.299 L4.148,86.299 C2.794,86.299 0.827,84.946 0.827,82.363 Z M41.171,16.926 L7.714,16.926 C6.977,16.926 6.238,17.787 6.238,18.525 L6.238,71.17 C6.238,71.908 6.976,72.523 7.714,72.523 L41.171,72.523 C41.785,72.523 42.647,71.909 42.647,71.17 L42.647,18.525 C42.647,17.787 41.786,16.926 41.171,16.926 Z M18.416,10.161 C17.679,10.161 17.063,10.776 17.063,11.637 C17.063,12.375 17.678,12.99 18.416,12.99 L30.47,12.99 C31.33,12.99 31.946,12.375 31.946,11.637 C31.946,10.776 31.331,10.161 30.47,10.161 L18.416,10.161 Z M20.875,79.411 C20.875,81.502 22.475,83.1 24.442,83.1 C26.533,83.1 28.132,81.501 28.132,79.411 C28.132,77.442 26.532,75.844 24.442,75.844 C22.475,75.844 20.875,77.442 20.875,79.411 Z M57.899,45.832 C62.205,41.65 64.542,35.992 64.542,29.965 C64.542,23.938 62.205,18.28 57.899,14.098 C57.776,13.852 57.407,13.729 57.162,13.729 C56.916,13.729 56.67,13.852 56.424,14.098 L53.964,16.558 C53.472,17.05 53.472,17.665 53.964,18.034 C57.162,21.232 58.761,25.66 58.761,29.965 C58.884,34.393 57.285,38.575 53.964,41.896 C53.718,42.019 53.595,42.388 53.595,42.634 C53.595,42.88 53.718,43.126 53.964,43.372 L56.424,45.832 C56.67,46.078 56.916,46.201 57.162,46.201 C57.407,46.201 57.776,46.078 57.899,45.832 Z M66.509,52.474 C72.782,46.201 75.857,38.206 75.857,29.965 C75.857,21.97 72.783,13.729 66.509,7.456 C66.386,7.333 66.14,7.21 65.771,7.21 C65.525,7.21 65.279,7.333 65.034,7.456 L62.573,10.039 C62.328,10.162 62.205,10.531 62.205,10.777 C62.205,11.023 62.328,11.269 62.573,11.515 C67.494,16.435 70.2,22.954 70.2,29.965 C70.2,36.976 67.494,43.495 62.573,48.415 C62.205,48.907 62.205,49.522 62.573,49.891 L65.034,52.474 C65.279,52.72 65.525,52.72 65.771,52.72 C66.14,52.72 66.386,52.72 66.509,52.474 Z M75.243,58.993 C82.869,51.243 87.174,40.788 87.174,29.964 C87.174,19.017 82.869,8.931 75.243,0.936 C74.997,0.69 74.751,0.567 74.505,0.567 C74.136,0.567 73.89,0.69 73.767,0.936 L71.184,3.396 C70.815,3.888 70.815,4.503 71.184,4.872 C77.704,11.514 81.516,20.247 81.516,29.964 C81.516,39.435 77.827,48.414 71.184,55.056 C70.815,55.425 70.815,56.163 71.184,56.532 L73.767,58.992 C73.89,59.237 74.136,59.360006 74.505,59.360006 C74.75,59.361 74.997,59.238 75.243,58.993 Z" id="Shape" fill="#33335F" fill-rule="nonzero"></path>
    </g>
</svg>